<svg width="200" height="191" viewBox="0 0 200 191" fill="none" xmlns="http://www.w3.org/2000/svg">
<path d="M174.317 0.033782C174.686 0.0226339 175.056 0.0114859 175.437 0C176.72 0.170257 177.307 0.551453 178.235 1.43911C178.235 1.7245 178.235 2.00989 178.235 2.30393C178.521 2.30393 178.806 2.30393 179.1 2.30393C179.1 2.58932 179.1 2.87471 179.1 3.16875C179.386 3.16875 179.671 3.16875 179.965 3.16875C179.846 5.97277 178.76 7.95584 176.938 10.0873C176.653 10.0873 176.367 10.0873 176.073 10.0873C176.073 10.3727 176.073 10.6581 176.073 10.9521C175.788 10.9521 175.503 10.9521 175.209 10.9521C175.066 11.3802 174.923 11.8083 174.776 12.2493C174.491 12.2493 174.205 12.2493 173.911 12.2493C173.911 12.5347 173.911 12.8201 173.911 13.1142C173.626 13.1142 173.34 13.1142 173.046 13.1142C172.936 13.3589 172.825 13.6036 172.71 13.8557C172.121 14.9573 171.431 15.8484 170.641 16.8167C170.336 17.1935 170.03 17.5703 169.716 17.9585C169.037 18.7844 168.357 19.6086 167.675 20.4313C167.334 20.8438 166.993 21.2563 166.641 21.6813C166.326 22.0586 166.012 22.436 165.687 22.8248C164.871 23.8725 164.19 24.9334 163.533 26.0864C163.843 26.1979 164.152 26.3094 164.471 26.4243C165.77 26.9832 166.835 27.6551 167.993 28.4647C168.374 28.7278 168.756 28.9909 169.15 29.2619C169.58 29.6165 169.58 29.6165 170.02 29.9781C170.02 30.2635 170.02 30.5489 170.02 30.8429C170.274 30.9591 170.529 31.0752 170.792 31.1949C171.754 31.7103 172.435 32.2525 173.231 32.9949C173.502 33.2474 173.774 33.4999 174.054 33.7601C174.337 34.0282 174.62 34.2963 174.911 34.5725C175.204 34.8481 175.496 35.1237 175.798 35.4076C177.743 37.2564 179.558 39.1466 181.262 41.2208C181.673 41.6973 182.085 42.173 182.497 42.6481C182.941 43.1631 183.386 43.6783 183.83 44.1936C184.045 44.4411 184.26 44.6886 184.482 44.9436C186.019 46.7439 186.019 46.7439 186.019 47.7069C186.304 47.7069 186.59 47.7069 186.884 47.7069C192.856 55.0297 195.816 63.9621 198.244 72.954C198.455 73.7111 198.68 74.4643 198.92 75.2129C199.916 78.4424 200.04 81.4472 199.991 84.813C199.986 85.3598 199.982 85.9066 199.977 86.4699C199.93 89.8545 199.794 93.2235 199.504 96.5962C199.474 96.9576 199.444 97.3189 199.413 97.6912C198.923 102.565 197.426 107.016 195.613 111.541C193.964 115.739 192.433 119.947 191.055 124.241C190.594 125.669 190.117 127.091 189.64 128.513C189.147 129.986 188.657 131.458 188.186 132.937C185.322 141.86 180.816 149.654 174.426 156.498C173.462 157.557 172.581 158.656 171.695 159.782C165.703 167.135 158.35 173.144 150.129 177.862C149.843 177.862 149.558 177.862 149.264 177.862C149.264 178.147 149.264 178.433 149.264 178.727C148.558 179.234 148.558 179.234 147.573 179.791C147.216 179.995 146.859 180.199 146.491 180.409C146.113 180.621 145.735 180.833 145.345 181.051C144.979 181.26 144.612 181.468 144.235 181.683C143.508 182.096 142.781 182.506 142.053 182.915C141.446 183.259 140.841 183.606 140.241 183.96C136.945 185.906 133.787 187.175 130.022 187.835C129.436 187.94 129.436 187.94 128.838 188.047C127.577 188.266 126.314 188.472 125.049 188.672C124.632 188.739 124.214 188.805 123.784 188.874C111.51 190.756 95.4327 192.211 83.9701 186.51C80.7086 184.988 77.4072 183.581 74.0788 182.213C64.9406 178.426 64.9406 178.426 60.8633 176.105C58.6273 174.857 56.3289 174.026 53.9109 173.197C47.6774 171.03 42.4654 168.077 37.2699 164.025C36.9316 163.776 36.5932 163.527 36.2446 163.27C32.929 160.805 29.2405 157.797 27.3245 154.08C27.3245 153.794 27.3245 153.509 27.3245 153.215C27.0391 153.215 26.7537 153.215 26.4597 153.215C25.1625 151.319 25.1625 151.319 25.1625 150.188C24.8771 150.188 24.5917 150.188 24.2977 150.188C23.5511 149.272 23.5511 149.272 22.7302 148.08C22.3205 147.493 22.3205 147.493 21.9025 146.894C21.2708 145.864 21.2708 145.864 21.2708 144.999C20.9854 144.999 20.7 144.999 20.406 144.999C19.6284 144.023 18.9035 143.048 18.1899 142.026C17.9875 141.745 17.7852 141.463 17.5767 141.173C16.0819 139.059 16.0819 139.059 16.0819 138.08C15.7965 138.08 15.5111 138.08 15.2171 138.08C14.4092 137.117 13.6788 136.111 12.9411 135.094C12.7647 134.852 12.5882 134.609 12.4064 134.359C12.1372 133.989 12.1372 133.989 11.8625 133.61C11.3703 132.952 10.8491 132.315 10.3254 131.68C7.30471 127.973 5.64521 123.933 3.97442 119.487C3.79661 119.023 3.61879 118.558 3.43559 118.08C-0.654266 106.638 -0.543687 94.6552 0.947552 82.7321C0.996185 82.3393 1.04482 81.9465 1.09493 81.5419C3.28735 64.235 9.56727 52.8482 21.7302 40.5992C22.006 40.3199 22.2818 40.0407 22.5659 39.753C27.0218 35.2547 31.6763 31.3999 36.8983 27.8076C37.8999 27.1139 38.8936 26.4117 39.8847 25.703C46.459 21.0079 46.459 21.0079 49.8098 19.1679C50.1275 18.989 50.4452 18.81 50.7726 18.6257C53.2931 17.2811 55.8968 16.3787 58.5947 15.4709C61.1995 14.5694 63.6218 13.4254 66.0507 12.1264C69.7986 10.1439 73.309 9.82887 77.484 9.43868C82.3898 8.96747 82.3898 8.96747 87.2673 8.27658C90.8662 7.75388 94.4917 7.87054 98.1208 7.91902C98.8502 7.92796 98.8502 7.92796 99.5943 7.93708C100.249 7.94873 100.249 7.94873 100.917 7.96062C102.112 7.96022 102.112 7.96022 103.185 7.7119C104.563 7.43946 105.864 7.43673 107.27 7.43541C107.553 7.435 107.836 7.43459 108.128 7.43416C108.726 7.43387 109.324 7.43466 109.922 7.43647C110.822 7.43876 111.721 7.4365 112.621 7.43372C117.376 7.43038 121.897 7.64351 126.508 8.84412C126.874 8.93749 127.239 9.03085 127.615 9.12705C133.689 10.724 139.616 12.766 145.372 15.2762C146.2 15.6125 147.029 15.946 147.859 16.2762C148.213 16.4172 148.568 16.5582 148.933 16.7035C149.185 16.8033 149.437 16.903 149.696 17.0058C150.069 16.6703 150.442 16.3347 150.826 15.989C156.251 11.167 161.984 6.63437 168.234 2.92214C169.203 2.31547 169.203 2.31547 170.062 1.38844C171.354 0.109771 172.575 0.0652072 174.317 0.033782Z" fill="#2D064F"/>
<path d="M44.6211 111.704C45.0491 111.704 45.4772 111.704 45.9183 111.704C45.9556 112.039 45.993 112.375 46.0315 112.72C46.7554 118.286 48.6211 123.065 51.3859 127.899C51.972 129 51.972 129 51.972 129.865C52.2652 129.761 52.5584 129.657 52.8605 129.551C56.4667 128.402 59.0574 128.471 62.4765 130.118C63.0559 130.421 63.0559 130.421 63.6471 130.73C63.8254 130.233 64.0038 129.736 64.1876 129.225C66.2385 123.652 68.7371 117.184 73.5925 113.433C74.7765 113.334 74.7765 113.334 75.7545 113.433C75.6949 116.118 74.616 117.68 73.1499 119.882C70.7067 123.697 67.5301 128.872 68.1114 133.599C68.4512 134.788 69.016 135.753 69.6687 136.797C70.1332 137.648 70.1332 137.648 70.4491 138.662C70.8077 139.783 71.1475 140.601 71.8628 141.54C74.9439 143.088 78.62 142.968 81.9924 143.134C84.363 143.342 86.5956 143.934 88.7268 144.999C88.5128 145.641 88.5128 145.641 88.2944 146.296C82.9524 148.503 77.122 146.589 71.8628 144.999C71.8851 145.375 71.9074 145.751 71.9304 146.138C71.8561 147.738 71.4801 148.703 70.7818 150.134C70.5812 150.552 70.3805 150.97 70.1737 151.401C70.0177 151.714 69.8616 152.027 69.7008 152.35C71.5655 154.368 73.3023 155.855 75.7545 157.107C75.7545 157.392 75.7545 157.677 75.7545 157.971C76.2127 158.032 76.2127 158.032 76.6802 158.095C78.1398 158.46 79.1435 159.072 80.4029 159.89C80.8199 160.157 81.2368 160.424 81.6664 160.699C82.6731 161.431 82.6731 161.431 83.1055 162.295C81.3864 163.155 79.2678 163.018 77.4605 162.448C74.2798 160.953 71.6157 158.685 69.2954 156.08C67.6727 154.393 66.5738 154.272 64.3007 154.213C61.5056 153.87 59.5599 151.783 57.8636 149.702C55.9006 147.653 53.7247 147.421 51.0417 146.945C44.8171 145.833 38.2129 144.271 33.9088 139.369C33.7338 139.087 33.5587 138.804 33.3784 138.513C33.5211 138.085 33.6638 137.657 33.8108 137.216C34.5243 137.216 35.2378 137.216 35.9729 137.216C35.9729 137.501 35.9729 137.787 35.9729 138.081C41.3634 140.256 46.6908 141.406 52.4044 142.405C52.2049 142.084 52.0053 141.764 51.7997 141.433C50.3892 139.008 49.786 136.746 49.7289 133.946C49.5876 131.531 48.8424 129.827 47.729 127.73C44.9936 122.565 43.7109 117.995 44.1887 112.136C44.3313 111.993 44.474 111.851 44.6211 111.704Z" fill="#F000EF"/>
<g filter="url(#filter0_f_1249_71213)">
<path d="M33 91.8794C81.0466 45.802 170.287 -7.83686 142.877 146.227C135 111.964 101.998 53.1269 33 91.8794Z" fill="#F000EF"/>
</g>
<defs>
<filter id="filter0_f_1249_71213" x="2.28171" y="13.2817" width="176.437" height="163.664" filterUnits="userSpaceOnUse" color-interpolation-filters="sRGB">
<feFlood flood-opacity="0" result="BackgroundImageFix"/>
<feBlend mode="normal" in="SourceGraphic" in2="BackgroundImageFix" result="shape"/>
<feGaussianBlur stdDeviation="15.3591" result="effect1_foregroundBlur_1249_71213"/>
</filter>
</defs>
</svg>
