<svg width="341" height="285" viewBox="0 0 341 285" fill="none" xmlns="http://www.w3.org/2000/svg">
<g clip-path="url(#clip0_682_3495)">
<path d="M51.2282 51.9713C51.0365 62.7593 59.8166 78.9769 59.0882 83.5823C58.6184 86.5536 52.7005 85.2 48.4754 85.3682C44.2505 85.5359 25.7587 86.0215 16.5352 95.5228C7.31158 105.024 5.6979 114.913 6.72979 125.027C7.76167 135.141 16.9469 148.085 25.0618 152.429C33.1767 156.772 50.2192 159.794 43.1557 161.885C36.9938 163.71 26.6335 165.838 16.6701 173.15C8.37218 179.239 2.73483 187.956 1.62083 193.739C0.996812 196.978 0.134506 204.485 6.36262 209.44C12.5908 214.394 25.6317 215.26 35.2216 213.448C44.8114 211.637 75.3478 194.3 60.6584 207.788C54.7171 213.244 50.5796 219.94 50.8737 227.658C51.1673 235.375 52.9706 240.455 58.3293 246.442C63.6884 252.429 67.9527 255.298 74.4611 256.226C80.9696 257.155 89.5315 256.355 98.3386 252.782C107.146 249.209 112.662 242.202 121.488 237.506C123.176 236.608 125.033 236.564 125.204 237.923C125.639 241.392 118.437 254.577 123.237 266.135C128.038 277.692 134.09 282.577 145.061 283.548C156.032 284.518 170.069 281.611 176.349 269.526C182.63 257.44 182.442 245.759 187.657 245.91C193.458 246.076 199.208 262.023 208.384 267.582C217.56 273.14 229.917 271.918 236.576 269.373C243.235 266.827 250.394 260.176 252.762 248.968C255.131 237.76 245.557 225.996 253.493 223.569C255.139 223.065 264.467 228.815 267.241 229.628C275.634 232.088 289.344 232.717 301.68 226.765C314.017 220.813 323.181 215.455 327.853 205.221C332.525 194.987 333.511 187.81 331.398 178.728C329.284 169.646 321.595 159.399 313.434 153.865C305.273 148.331 289.014 148.159 288.904 143.05C288.771 136.919 299.146 142.019 322.509 131.645C345.873 121.272 341.077 101.676 332.736 88.1752C324.395 74.6739 308.663 73.6827 294.917 76.0825C281.171 78.4827 267.578 87.3392 255.566 92.3324C252.151 93.752 251.592 89.736 253.719 87.6811C262.44 79.2544 273.073 74.7193 279.279 67.814C285.486 60.9081 288.252 50.1664 285.199 42.4738C282.146 34.7811 274.332 26.9026 266.262 26.4299C258.192 25.9571 251.027 26.6907 236.598 34.8852C222.17 43.0797 213.637 60.1664 209.656 58.7838C207.679 58.097 208.406 56.1709 209.689 51.3533C210.973 46.5359 212.684 40.1125 212.904 29.9322C213.124 19.7519 206.927 10.5821 197.813 4.79425C188.699 -0.993567 169.04 -0.0717502 155.991 9.45006C142.94 18.9718 142.039 27.2199 139.388 35.7833C137.187 42.8942 137.078 61.9757 133.766 56.8432C131.656 53.5729 128.174 42.9547 123.727 34.9707C119.28 26.9866 113.054 19.8885 101.052 15.4109C89.0492 10.9334 77.5546 12.0307 66.1134 19.7013C54.6721 27.3719 51.4199 41.1838 51.2282 51.9713Z" fill="white" stroke="black" stroke-width="2.38285" stroke-linecap="round"/>
<path d="M-0.792573 268.303C-0.0409936 261.954 2.35504 258.547 3.29248 257.718C5.96081 255.357 14.3533 254.424 19.3573 255.357C24.3613 256.291 26.4168 258.431 27.7871 261.106C29.1574 263.78 29.5 265.742 29.5 269.486C29.5 273.231 27.667 277.473 25.389 280.007C23.111 282.541 18.1649 285.514 15.1587 285.5C8.39812 285.468 6.60246 285.227 5.2628 284.131C3.73911 282.884 1.72794 281.409 -0.221377 276.159C-0.841675 274.488 -1.27685 272.394 -0.792573 268.303Z" fill="white" stroke="black" stroke-width="3" stroke-linecap="round"/>
</g>
<defs>
<clipPath id="clip0_682_3495">
<rect width="341" height="285" fill="white"/>
</clipPath>
</defs>
</svg>
