<svg width="657" height="530" viewBox="0 0 657 530" fill="none" xmlns="http://www.w3.org/2000/svg">
<path d="M356.18 0.00661969C357.906 0.0192927 359.632 0.0208655 361.358 0.0206953C367.05 0.0329768 372.726 0.158354 378.409 0.461619C378.921 0.488359 379.433 0.515099 379.96 0.54265C383.212 0.735142 386.3 1.17248 389.468 1.9126C391.062 2.24772 392.597 2.38801 394.22 2.50479C397.968 2.86077 401.42 3.75562 405.017 4.8383C405.97 5.12061 405.97 5.12061 406.943 5.40862C408.218 5.7892 409.493 6.17324 410.766 6.56096C412.299 7.02646 413.835 7.47665 415.374 7.92341C421.849 9.91103 427.574 12.8129 433.46 16.1022C435.121 17.0233 436.807 17.894 438.489 18.7742C452.399 26.4438 465.757 35.5663 477.127 46.6894C477.766 47.293 478.404 47.8965 479.062 48.5183C484.046 53.3272 488.259 58.5354 492.409 64.0551C492.751 64.5079 493.092 64.9608 493.444 65.4274C495.206 67.7675 496.961 70.1126 498.712 72.4611C500.316 74.6062 501.945 76.7291 503.589 78.8433C511.859 89.4825 511.859 89.4825 511.859 91.8401C512.319 91.5835 512.779 91.327 513.252 91.0627C517.898 88.4964 522.603 86.1192 527.401 83.8519C528.101 83.5195 528.801 83.1871 529.523 82.8447C531.506 81.9047 533.491 80.9679 535.476 80.0314C536.368 79.6073 537.26 79.1832 538.151 78.7589C549.558 73.395 561.366 69.4717 573.322 65.5539C575.577 64.8114 577.826 64.0548 580.076 63.2953C603.745 55.405 630.561 48.7733 655.646 48.7733C655.646 202.126 655.646 355.478 655.646 513.477C650.603 513.019 645.56 512.56 640.364 512.088C636.342 511.995 632.351 511.914 628.333 511.945C626.654 511.958 624.976 511.959 623.297 511.959C606.038 511.995 588.818 513.056 571.602 514.166C569.293 514.315 566.984 514.46 564.674 514.601C544.752 515.817 525.061 517.817 505.324 520.836C499.148 521.779 492.958 522.487 486.747 523.151C481.751 523.686 476.768 524.279 471.788 524.939C471.131 525.024 470.474 525.11 469.797 525.198C466.62 525.614 463.449 526.05 460.28 526.526C451.623 527.781 442.968 528.399 434.237 528.811C433.604 528.841 432.972 528.871 432.32 528.902C415.798 529.663 399.273 529.666 382.737 529.635C378.401 529.627 374.066 529.632 369.73 529.64C366.319 529.645 362.909 529.643 359.498 529.64C357.899 529.639 356.301 529.64 354.702 529.643C341.603 529.664 328.686 528.971 315.757 526.762C308.172 525.529 300.574 524.567 292.942 523.679C287.45 523.038 281.992 522.344 276.555 521.335C271.841 520.474 267.227 520.215 262.443 520.063C255.389 519.788 248.414 518.864 241.414 518.001C235.694 517.298 229.988 516.69 224.241 516.256C218.945 515.852 213.795 515.106 208.568 514.172C201.173 512.862 193.87 512.44 186.384 512.132C176.278 511.706 166.705 510.574 156.905 507.92C156.055 507.69 155.204 507.46 154.328 507.223C152.155 506.582 150.019 505.875 147.875 505.142C146.892 504.823 145.908 504.506 144.923 504.189C138.15 501.999 131.495 499.621 124.953 496.806C124.514 496.619 124.076 496.432 123.624 496.239C114.134 492.127 105.323 486.847 96.4731 481.525C95.9398 481.207 95.4066 480.89 94.8572 480.563C84.1566 474.186 74.0065 466.967 65.0169 458.323C63.4725 456.845 61.905 455.456 60.2657 454.087C56.4983 450.816 53.2329 447.051 49.9332 443.32C49.5962 442.941 49.2592 442.562 48.912 442.171C31.753 422.792 17.4274 400.136 9.45434 375.389C8.90123 373.709 8.31213 372.043 7.71846 370.377C-1.39211 344.512 -2.25136 317.671 4.15851 291.048C4.62716 289.074 5.06885 287.101 5.49349 285.117C10.2633 263.304 19.9038 241.455 34.6515 224.513C35.22 223.853 35.7886 223.192 36.3744 222.511C51.5664 205.192 71.5594 195.588 93.643 190.142C94.8363 189.844 96.0245 189.525 97.2111 189.202C101.793 187.963 106.434 187.1 111.104 186.266C111.723 186.153 112.342 186.04 112.979 185.924C125.715 183.718 138.225 183.347 151.131 183.444C152.778 183.451 154.424 183.457 156.071 183.463C160.054 183.478 164.037 183.501 168.019 183.531C168.007 182.779 168.007 182.779 167.995 182.013C167.962 178.43 167.998 175.038 168.706 171.51C168.852 170.766 168.998 170.022 169.148 169.255C169.306 168.493 169.463 167.731 169.626 166.946C169.865 165.75 169.865 165.75 170.11 164.529C170.561 162.294 171.024 160.061 171.493 157.829C171.6 157.317 171.707 156.806 171.817 156.278C173.383 148.885 175.477 141.631 177.887 134.472C178.439 132.822 178.976 131.167 179.511 129.51C186.213 108.865 194.348 89.3745 209.002 73.0852C209.607 72.3966 210.211 71.708 210.834 70.9986C213.717 67.7529 216.632 64.704 219.959 61.9142C221.523 60.5669 223.016 59.1567 224.511 57.7337C229.689 52.8317 235.233 48.5322 240.943 44.2698C242.619 43.0101 244.272 41.7238 245.925 40.4332C259.008 30.2387 272.975 21.3723 288.19 14.7367C288.968 14.3964 289.746 14.0562 290.547 13.7056C292.53 12.8637 294.523 12.0577 296.525 11.2636C297.209 10.9806 297.893 10.6977 298.598 10.4062C309.793 5.89493 321.435 3.34893 333.34 1.53883C334.564 1.34953 334.564 1.34953 335.813 1.15641C342.625 0.196049 349.305 -0.0452805 356.18 0.00661969Z" fill="#451062"/>
<path d="M397.246 74.4745C397.679 74.6912 398.112 74.9079 398.559 75.1311C411.359 81.5424 422.967 89.6293 433.366 99.481C434.031 100.101 434.695 100.72 435.38 101.359C449.645 114.925 459.16 133.041 459.928 152.945C460.364 174.635 455.056 193.581 443.786 212.01C445.849 212.469 447.912 212.927 450.037 213.399C450.131 212.532 450.131 212.532 450.227 211.647C450.817 208.825 451.932 206.471 453.25 203.935C453.501 203.445 453.753 202.956 454.012 202.451C454.762 201.002 455.523 199.559 456.289 198.118C456.67 197.396 457.052 196.674 457.445 195.931C462.039 187.67 467.952 180.088 474.385 173.182C475.596 171.875 476.735 170.537 477.866 169.161C480.157 166.477 482.773 164.269 485.463 161.997C486.098 161.432 486.733 160.867 487.387 160.285C493.508 154.881 500.102 150.379 506.997 146.021C507.454 145.728 507.912 145.436 508.383 145.135C515.021 140.929 521.989 137.42 529.051 133.995C529.686 133.686 529.686 133.686 530.334 133.37C536.115 130.565 541.952 128.099 547.979 125.877C549.13 125.442 550.281 125.007 551.431 124.572C552.48 124.181 553.529 123.791 554.578 123.402C555.091 123.209 555.605 123.016 556.133 122.817C564.241 119.813 572.547 117.542 580.931 115.457C581.417 115.336 581.904 115.215 582.406 115.09C590.794 113.014 599.166 111.171 607.717 109.9C608.533 109.775 609.349 109.65 610.19 109.52C625.583 107.214 639.89 107.122 655.646 107.122C655.646 174.514 655.646 241.907 655.646 311.342C635.062 323.217 635.062 323.217 627.024 326.761C625.072 327.633 623.149 328.568 621.219 329.489C608.883 335.136 593.679 341.21 579.932 341.21C580.075 341.766 580.217 342.321 580.364 342.893C580.551 343.656 580.738 344.419 580.931 345.205C581.116 345.946 581.301 346.687 581.492 347.451C587.246 375.026 582.221 406.389 567.257 430.106C563.19 436.283 558.464 441.983 553.536 447.488C553.013 448.079 552.489 448.67 551.949 449.279C530.906 471.657 498.723 479.676 469.487 484.303C468.727 484.428 467.968 484.552 467.185 484.681C464.444 485.02 461.754 485.098 458.997 485.09C458.47 485.091 457.943 485.091 457.401 485.092C456.29 485.093 455.18 485.091 454.07 485.088C452.401 485.085 450.732 485.088 449.063 485.093C440.659 485.097 432.371 484.876 424.119 483.131C423.543 483.014 422.967 482.897 422.374 482.776C416.854 481.623 411.413 480.179 405.96 478.75C401.296 477.567 397.007 476.903 392.18 476.939C389.71 476.575 388.578 475.626 386.827 473.884C386.392 471.8 386.392 471.8 386.827 469.716C388.293 467.795 389.456 467.054 391.865 466.72C400.848 466.506 409.52 468.508 418.139 470.762C452.813 479.671 494.316 473.483 525.556 455.791C546.752 443.014 562.844 422.883 568.905 398.777C569.235 397.421 569.565 396.065 569.881 394.705C570.099 393.771 570.327 392.839 570.565 391.91C571.531 387.97 571.828 384.242 571.855 380.194C571.862 379.553 571.87 378.913 571.878 378.254C571.897 376.195 571.901 374.137 571.901 372.078C571.901 371.375 571.901 370.673 571.901 369.949C571.877 359.301 571.434 349.335 568.124 339.127C567.93 338.516 567.736 337.906 567.537 337.278C560 314.253 545.91 294.56 529.225 277.305C528.854 276.919 528.484 276.534 528.103 276.137C524.008 271.888 519.79 267.917 515.161 264.243C513.197 262.677 511.293 261.052 509.384 259.418C497.229 249.299 483.901 240.31 469.58 233.567C468.453 233.021 467.336 232.454 466.224 231.877C461.263 229.315 456.283 227.287 450.992 225.512C450.197 225.244 449.401 224.976 448.582 224.7C446.999 224.172 445.414 223.648 443.828 223.128C442.562 222.712 441.297 222.29 440.037 221.856C425.137 216.73 407.35 215.262 391.689 216.178C391.059 216.212 390.429 216.246 389.779 216.282C359.448 218.07 331.616 229.475 310.779 252.084C296.185 269.34 289.428 290.694 291.161 313.143C293.263 330.601 301.072 347.397 312.502 360.66C313.049 361.308 313.596 361.956 314.16 362.624C326.215 376.392 342.283 386.252 358.347 394.697C358.767 394.923 359.186 395.149 359.619 395.383C378.718 405.676 400.276 414.109 421.558 418.314C422.479 418.522 423.399 418.73 424.32 418.938C443.638 423.012 465.658 421.463 482.815 411.064C493.619 403.532 500.909 390.645 503.217 377.741C505.418 359.838 497.388 344.114 486.571 330.233C482.984 325.773 479.18 321.551 475.044 317.593C473.334 315.894 471.635 314.187 469.956 312.457C466.085 308.496 462.065 304.988 457.678 301.617C457.025 301.09 456.371 300.564 455.697 300.021C436.115 284.455 408.507 268.498 382.746 268.796C382.138 268.802 381.531 268.807 380.905 268.813C370.656 268.99 358.983 271.149 351.401 278.694C346.789 284.026 346.806 289.329 347.118 296.066C347.41 299.572 348.614 302.587 350.011 305.785C350.224 306.282 350.437 306.779 350.656 307.292C353.844 314.672 357.288 321.163 362.515 327.318C362.974 327.889 363.433 328.46 363.907 329.049C380.408 348.65 412.848 368.823 438.664 371.251C446.292 371.731 446.292 371.731 453.511 369.69C454.096 363.38 453.293 359.406 449.343 354.408C445.646 350.001 441.04 346.6 436.506 343.11C434.344 341.443 432.245 339.71 430.154 337.954C427.601 335.844 424.991 333.977 422.209 332.18C416.527 328.466 410.134 323.794 406.971 317.593C406.66 315.817 406.744 314.543 406.971 312.731C409.367 311.256 411.131 310.85 413.917 311.342C415.159 312.358 416.188 313.496 417.273 314.679C421.445 318.904 426.521 322.427 431.586 325.495C436.132 328.3 440.004 331.818 444.003 335.334C445.733 336.831 447.515 338.259 449.299 339.691C456.163 345.32 462.286 351.806 464.625 360.66C465.19 367.049 464.583 372.228 460.457 377.331C453.546 382.905 445.794 382.645 437.317 382.025C409.962 378.864 384.121 361.798 363.904 343.989C363.299 343.486 362.695 342.982 362.072 342.464C348.858 331.221 337.947 313.445 336.119 296.06C335.545 287.467 336.197 279.999 341.841 273.075C345.694 268.897 349.599 265.57 354.874 263.412C355.538 263.128 356.203 262.843 356.887 262.55C371.735 256.474 386.775 256.29 402.108 260.634C402.615 260.771 403.122 260.909 403.644 261.05C426.104 267.148 446.561 278.72 464.625 293.281C465.33 293.844 466.036 294.406 466.763 294.985C487.509 311.929 509.853 335.3 514.637 362.744C516.116 378.059 512.077 393.984 502.723 406.342C492.428 418.793 481.451 424.934 466.014 429.428C465.529 429.579 465.045 429.73 464.546 429.886C450.394 433.977 432.087 432.055 418.085 428.733C417.177 428.537 416.269 428.343 415.36 428.15C398.445 424.485 381.534 418.232 365.988 410.673C365.064 410.248 364.14 409.824 363.215 409.403C353.826 405.106 344.919 400.091 336.119 394.697C337.485 395.532 337.485 395.532 338.897 396.78C339.257 398.307 339.257 398.307 339.266 400.088C339.272 400.745 339.278 401.403 339.284 402.08C339.271 402.781 339.258 403.482 339.245 404.204C339.233 405.283 339.233 405.283 339.221 406.383C339.066 412.579 338.084 417.993 336.119 423.871C335.859 424.669 335.6 425.466 335.332 426.288C328.913 444.418 313.095 456.467 296.569 465.071C296.164 465.288 295.759 465.506 295.342 465.73C287.763 469.528 278.996 470.847 270.686 472.104C269.251 472.322 267.818 472.553 266.385 472.785C252.483 474.974 252.483 474.974 248.813 472.755C247.637 470.626 247.544 469.335 247.902 466.938C249.155 464.998 250.08 464.833 252.368 464.341C253.396 464.202 254.426 464.069 255.456 463.942C261.531 463.078 267.544 461.983 273.559 460.773C274.398 460.611 275.236 460.45 276.1 460.283C288.883 457.677 299.754 451.552 309.723 443.32C310.355 442.804 310.987 442.287 311.639 441.755C321.674 433.177 325.802 423.351 327.783 410.673C327.905 410.022 328.026 409.371 328.152 408.701C328.482 406.478 328.557 404.393 328.546 402.147C328.543 400.945 328.543 400.945 328.539 399.719C328.533 398.893 328.527 398.066 328.521 397.215C328.517 395.951 328.517 395.951 328.512 394.661C328.504 392.589 328.492 390.517 328.478 388.445C328.043 388.231 327.608 388.018 327.16 387.797C306.883 377.501 291.291 353.818 284.445 332.857C283.176 328.741 282.17 324.576 281.244 320.372C281.094 319.71 280.944 319.048 280.79 318.367C280.11 315.045 279.845 311.954 279.832 308.558C279.769 304.193 279.468 301.242 276.208 298.013C275.125 297.11 274.027 296.224 272.908 295.365C269.435 291.892 269.435 291.892 268.236 290.644C264.701 287.011 260.97 283.838 256.932 280.778C256.53 280.47 256.128 280.161 255.713 279.843C234.967 264.017 211.672 250.946 186.267 244.56C183.996 243.963 183.996 243.963 182.056 243.279C179.013 242.316 175.931 241.76 172.795 241.184C172.141 241.063 171.486 240.941 170.812 240.816C168.956 240.472 167.099 240.134 165.241 239.795C164.468 239.65 163.694 239.505 162.897 239.356C139.74 235.211 116.306 235.564 95.0841 246.741C94.4125 247.095 94.4125 247.095 93.7274 247.456C88.027 250.485 82.6122 253.607 77.7185 257.855C77.1499 258.333 76.5813 258.81 75.9955 259.302C60.5777 272.62 53.085 291.795 51.4458 311.709C49.5935 337.53 60.5968 362.423 75.6346 382.888C75.9246 383.287 76.2146 383.686 76.5134 384.097C80.6112 389.707 85.0964 394.873 89.9032 399.885C90.849 400.878 91.7775 401.886 92.7045 402.896C100.686 411.33 110.546 417.799 120.785 423.176C121.224 423.408 121.662 423.639 122.114 423.878C151.532 439.323 188.477 448.953 221.202 438.935C231.53 435.522 240.628 430.337 245.818 420.398C251.957 406.553 250.574 392.901 245.384 379.024C235.235 355.226 215.549 333.048 193.026 320.372C192.242 319.924 191.457 319.476 190.649 319.015C181.986 314.28 172.579 311.391 163.157 308.563C162.496 308.361 161.835 308.159 161.154 307.951C144.425 302.989 126.248 303.095 110.366 310.647C106.566 312.789 103.637 315.373 101.949 319.482C99.521 328.506 101.727 337.102 106.158 345.041C109.506 350.785 113.587 355.719 118.007 360.66C118.803 361.6 119.599 362.541 120.394 363.482C126.044 369.873 132.167 375.508 138.845 380.804C139.443 381.309 140.04 381.814 140.655 382.334C156.792 395.969 176.202 406.901 197.889 405.116C201.451 404.331 203.432 403.062 205.964 400.471C207.276 397.308 207.184 395.182 206.224 391.918C199.606 376.363 185.064 366.559 170.104 359.965C163.18 357.389 156.599 357.088 149.265 357.187C149.438 361.765 150.862 364.769 153.172 368.705C154.127 370.385 154.127 370.385 154.822 372.469C155.366 372.683 155.911 372.898 156.472 373.12C158.597 373.98 159.292 374.635 160.379 376.636C160.775 378.9 160.592 379.781 159.337 381.716C157.355 383.054 155.877 383.334 153.49 383.192C149.564 382.367 147.223 379.69 145.01 376.506C140.927 369.956 136.806 362.997 138.449 355.049C139.597 351.336 141.686 348.682 145.097 346.767C160.201 343.322 175.066 348.916 187.82 356.641C197.007 362.42 205.756 369.736 211.607 378.937C212.105 379.719 212.105 379.719 212.612 380.517C216.928 387.48 218.822 394.499 216.931 402.717C214.864 408.216 209.957 412.202 204.835 414.841C194.513 418.155 182.298 416.993 172.187 413.451C171.728 413.295 171.269 413.138 170.796 412.977C153.52 406.921 138.086 395.423 124.953 382.888C124.032 382.086 123.106 381.29 122.174 380.5C115.767 374.919 109.972 368.797 104.809 362.049C104.528 361.686 104.247 361.323 103.957 360.949C94.6614 348.844 88.8551 336.593 90.2217 321.066C91.4093 312.718 95.8864 307.554 102.245 302.401C112.062 295.85 125.125 293.698 136.675 293.715C137.791 293.716 137.791 293.716 138.93 293.717C146.498 293.827 153.716 295.053 161.073 296.754C162.167 297.003 162.167 297.003 163.282 297.256C165.119 297.723 166.91 298.259 168.714 298.838C169.172 298.983 169.63 299.128 170.102 299.278C176.71 301.382 183.24 303.591 189.553 306.479C189.966 306.667 190.379 306.854 190.805 307.048C208.846 315.341 224.876 328.824 236.788 344.684C237.418 345.479 238.049 346.274 238.681 347.069C246.731 357.313 253.317 368.485 257.626 380.804C257.844 381.392 258.061 381.981 258.286 382.587C258.813 384.066 259.278 385.546 259.71 387.056C259.853 387.528 259.995 388.001 260.142 388.488C263.522 401.916 260.493 416 254.153 428.039C252.474 430.535 250.628 432.77 248.596 434.985C248.211 435.425 247.826 435.866 247.429 436.32C238.954 445.485 226.993 448.911 215.254 451.656C214.495 451.855 214.495 451.855 213.721 452.058C207.977 453.43 202.149 453.259 196.282 453.219C195.726 453.216 195.17 453.214 194.597 453.211C166.453 453.07 140.801 446.016 115.923 432.901C115.465 432.663 115.008 432.425 114.537 432.18C104.107 426.717 94.844 419.85 86.3864 411.664C85.3187 410.634 84.2375 409.619 83.1561 408.603C77.5793 403.28 72.8843 397.478 68.3414 391.259C67.3733 389.936 66.3925 388.622 65.4079 387.311C55.6636 374.187 48.0954 359.033 43.6819 343.294C43.5358 342.794 43.3897 342.293 43.2392 341.777C40.9702 333.702 40.649 325.67 40.6429 317.333C40.6415 316.833 40.6401 316.333 40.6387 315.818C40.6416 306.566 41.4011 297.641 44.4633 288.853C44.6756 288.234 44.888 287.615 45.1067 286.977C53.0735 264.436 68.9339 247.211 90.3883 236.803C91.7185 236.172 93.0531 235.551 94.3895 234.933C95.0628 234.613 95.7362 234.294 96.4299 233.964C100.825 231.998 105.362 230.595 109.975 229.246C110.856 228.985 110.856 228.985 111.756 228.719C133.93 222.458 157.126 226.572 179.134 231.46C179.833 231.61 180.533 231.76 181.253 231.914C216.313 239.479 249.037 258.11 275.182 282.528C277.046 284.271 277.046 284.271 279.057 285.779C279.549 286.192 280.042 286.604 280.549 287.03C280.549 287.488 280.549 287.947 280.549 288.419C281.007 288.419 281.466 288.419 281.938 288.419C282.022 287.61 282.107 286.802 282.193 285.969C283.295 277.23 287.078 269.132 290.968 261.329C290.573 261.147 290.179 260.965 289.772 260.778C272.546 251.648 257.135 229.288 250.77 211.234C241.899 181.95 246.206 149.784 260.391 122.887C270.663 103.914 284.683 88.3056 302.777 76.5583C303.47 76.099 304.163 75.6397 304.877 75.1664C331.185 58.6962 370.24 60.5286 397.246 74.4745Z" fill="#DF76DC"/>
<path d="M641.629 117.482C642.993 117.487 644.357 117.491 645.721 117.495C649.029 117.505 652.337 117.522 655.646 117.541C655.743 132.703 655.817 147.865 655.862 163.027C655.883 170.068 655.913 177.109 655.96 184.149C656.002 190.288 656.029 196.427 656.038 202.567C656.044 205.815 656.056 209.063 656.087 212.311C656.115 215.374 656.124 218.437 656.117 221.5C656.118 222.619 656.127 223.737 656.143 224.856C656.331 238.61 649.373 246.758 640.364 256.466C639.997 256.879 639.63 257.292 639.252 257.717C628.841 268.903 613.935 275.683 600.076 281.473C599.53 281.704 598.984 281.935 598.421 282.173C568.735 294.671 568.735 294.671 557.009 294.671C555.809 293.228 554.81 291.852 553.797 290.286C551.024 286.201 548.085 282.596 544.701 278.993C543.387 277.593 542.138 276.169 540.903 274.7C535.186 268.146 528.917 261.954 522.083 256.578C520.364 255.212 518.704 253.794 517.05 252.351C511.91 247.89 506.47 243.942 500.846 240.115C499.887 239.463 498.932 238.807 497.979 238.146C486.061 229.902 472.936 223.536 459.762 217.567C461.973 203.265 472.751 190.682 481.99 180.058C482.728 179.161 483.466 178.264 484.204 177.366C486.046 175.224 488.101 173.404 490.255 171.581C491.203 170.77 492.134 169.939 493.044 169.085C507.913 155.192 527.686 144.775 546.59 137.686C547.776 137.175 547.776 137.175 548.986 136.654C565.558 129.581 583.494 124.463 601.301 121.735C603.699 121.365 606.042 120.937 608.392 120.331C619.381 117.502 630.359 117.412 641.629 117.482Z" fill="#461062"/>
<path d="M347.45 74.2575C348.303 74.2609 349.156 74.2643 350.035 74.2678C380.96 74.6599 408.473 88.6829 430.053 110.418C437.542 118.219 442.83 126.868 446.564 136.991C446.865 137.752 447.166 138.513 447.476 139.297C453.948 158.67 448.141 181.128 439.583 198.884C435.888 206.261 435.888 206.261 433.366 208.537C429.277 208.79 425.531 208.223 421.517 207.511C414.311 206.342 407.231 206.134 399.942 206.182C397.895 206.193 395.85 206.182 393.804 206.168C380.172 206.153 366.202 207.916 353.31 212.575C350.635 213.422 349.824 213.476 347.233 212.705C334.193 204.971 324.315 190.398 319.339 176.411C316.104 162.032 320.405 149.213 327.783 136.991C332.35 130.199 337.572 125.785 345.713 124.078C357.986 122.499 368.364 124.774 378.491 132.128C389.498 140.962 399.115 154.19 400.805 168.596C400.963 174.06 399.254 178.565 395.856 182.836C392.168 186.415 389.382 187.903 384.221 187.959C376.229 187.802 372.219 184.196 366.682 178.668C366.082 178.101 366.082 178.101 365.469 177.523C362.622 174.345 362.726 170.77 362.853 166.656C363.334 163.177 364.567 160.245 365.944 157.035C366.964 154.294 366.996 152.917 365.987 150.189C364.499 148.541 363.607 148.173 361.429 147.801C359.675 147.954 359.675 147.954 358.564 149.234C357.513 151.135 356.902 152.974 356.263 155.051C355.904 155.964 355.542 156.876 355.177 157.786C352.774 164.22 352.547 171.816 354.759 178.34C358.862 187.054 367.054 193.108 375.712 196.729C380.84 198.51 388.912 198.387 393.903 196.208C394.8 195.712 395.685 195.193 396.551 194.645C397.267 194.244 397.984 193.842 398.722 193.429C404.47 188.931 407.462 183.444 409.749 176.584C410.479 160.508 405.159 145.555 394.369 133.379C390.185 128.896 385.806 124.949 380.575 121.709C379.901 121.276 379.228 120.842 378.534 120.396C367.878 114.055 353.455 111.877 341.325 114.841C327.843 119.631 320.468 128.694 314.33 141.268C308.73 153.181 306.37 167.989 310.417 180.796C311.066 182.421 311.761 184.029 312.501 185.615C312.699 186.043 312.896 186.471 313.099 186.912C318.723 198.882 327.455 209.059 337.508 217.567C336.624 220.219 335.87 220.329 333.427 221.561C326.287 225.316 320.005 229.672 313.891 234.933C313.303 235.434 312.716 235.936 312.111 236.452C306.475 241.384 301.271 246.675 297.22 252.993C294.117 252.003 292.066 250.297 289.752 248.087C289.203 247.57 289.203 247.57 288.642 247.042C287.902 246.342 287.165 245.64 286.429 244.935C285.562 244.107 284.681 243.294 283.796 242.484C278.558 237.536 274.382 231.69 270.129 225.903C269.47 225.019 269.47 225.019 268.797 224.117C265.537 219.521 263.188 214.443 261.099 209.232C260.894 208.724 260.689 208.216 260.478 207.692C251.92 185.452 256.581 156.231 265.961 134.907C276.86 110.67 296.299 88.3681 321.531 78.6423C324.744 77.5796 327.966 76.6532 331.256 75.8638C331.757 75.7396 332.257 75.6154 332.772 75.4875C337.672 74.3735 342.438 74.2337 347.45 74.2575Z" fill="#461063"/>
<path d="M655.645 353.714C655.645 391.765 655.645 429.817 655.645 469.021C646.908 466.837 639.295 460.924 632.028 455.823C631.604 455.526 631.18 455.228 630.743 454.922C620.972 447.971 612.931 439.879 607.022 429.428C606.682 428.846 606.343 428.264 605.993 427.664C602.358 420.976 599.571 412.748 599.381 405.116C599.354 404.477 599.327 403.839 599.299 403.181C598.979 389.407 603.468 375.78 613.037 365.718C625.568 353.501 637.889 353.714 655.645 353.714Z" fill="#461163"/>
<path d="M654.951 255.077C655.18 255.077 655.41 255.077 655.646 255.077C655.953 260.638 656.187 266.195 656.33 271.762C656.398 274.349 656.491 276.929 656.641 279.513C657.589 296.176 657.589 296.176 654.372 300.584C651.29 303.364 647.842 305.068 643.994 306.553C641.989 307.358 640.249 308.456 638.454 309.648C631.902 313.406 624.99 316.518 618.136 319.677C617.556 319.947 616.976 320.217 616.378 320.496C604.437 326.008 589.792 331.384 576.459 330.791C576.196 330.1 575.934 329.408 575.664 328.696C573.057 322.019 569.982 315.78 566.426 309.554C566.106 308.992 565.786 308.429 565.456 307.849C565.167 307.35 564.877 306.85 564.58 306.336C563.955 305.09 563.955 305.09 563.955 303.701C564.631 303.507 564.631 303.507 565.32 303.309C597.871 293.958 633.132 282.77 654.951 255.077Z" fill="#461063"/>
<path d="M643.142 187.004C643.776 187.37 643.776 187.37 644.423 187.743C647.052 189.281 649.643 190.863 652.173 192.561C652.824 192.89 653.476 193.22 654.148 193.559C656.727 196.625 656.002 200.344 655.863 204.196C655.839 205.419 655.839 205.419 655.815 206.668C655.774 208.681 655.717 210.693 655.646 212.705C654.463 211.158 653.394 209.646 652.39 207.973C641.089 192.396 614.321 185.978 596.643 182.874C593.624 182.434 590.62 182.247 587.572 182.142C586.884 182.113 586.196 182.085 585.487 182.055C573.738 181.631 561.987 181.804 551.452 187.699C550.841 188.033 550.231 188.366 549.601 188.711C542.562 192.851 536.087 199.129 533.663 207.162C532.68 212.147 533.519 215.852 536.225 220.145C541.761 227.515 552.948 232.604 561.871 234.238C563.902 234.434 565.91 234.471 567.949 234.455C568.766 234.45 568.766 234.45 569.6 234.445C577.139 234.294 584.171 232.777 589.656 227.292C589.697 225.888 589.697 225.888 588.962 224.514C586.242 221.976 583.17 222.092 579.636 222.172C577.264 222.514 576.159 223.665 574.375 225.208C572.286 225.686 571.019 225.523 568.818 225.208C567.038 223.776 567.038 223.776 566.039 221.735C565.909 219.347 565.909 219.347 566.734 216.873C567.845 215.655 569.009 214.689 570.321 213.693C571.771 212.628 571.771 212.628 573.419 210.708C575.069 209.232 575.069 209.232 576.936 208.928C578.542 209.232 578.542 209.232 579.932 210.621C581.301 210.821 582.678 210.973 584.056 211.099C589.785 211.923 594.058 214.121 598.003 218.387C599.774 220.779 601.01 222.939 601.204 225.946C600.182 232.389 596.88 235.932 591.74 239.795C583.328 245.751 570.385 246.461 560.482 245.352C556.596 244.678 552.993 243.407 549.368 241.879C548.903 241.686 548.437 241.492 547.957 241.292C538.159 237.096 529.792 231.112 524.362 221.735C523.917 221.004 523.473 220.274 523.016 219.521C521.176 212.92 521.638 206.36 524.584 200.185C532.463 186.224 543.117 177.772 558.463 173.16C585.081 165.957 619.679 173.448 643.142 187.004Z" fill="#DF76DC"/>
<path d="M646.311 353.627C647.211 353.633 648.11 353.639 649.037 353.646C651.24 353.662 653.443 353.687 655.645 353.714C655.645 357.152 655.645 360.59 655.645 364.133C654.489 364.159 653.332 364.185 652.14 364.212C650.588 364.257 649.036 364.304 647.484 364.35C646.725 364.366 645.967 364.381 645.185 364.398C635.506 364.713 627.003 366.719 620.089 373.858C611.296 384.381 610.373 396.13 611.189 409.284C612.479 420.7 619.877 430.674 627.86 438.458C628.326 438.93 628.792 439.402 629.271 439.888C632.734 443.193 636.65 445.863 640.581 448.573C641.441 449.171 641.441 449.171 642.32 449.78C644.819 451.483 647.244 453.095 650.018 454.315C653.971 456.099 653.971 456.099 655.645 457.907C656.604 461.555 656.124 465.331 655.645 469.021C646.983 467.188 639.131 460.809 632.028 455.824C631.604 455.526 631.18 455.229 630.743 454.922C620.972 447.971 612.931 439.879 607.022 429.428C606.682 428.846 606.343 428.264 605.993 427.664C602.358 420.976 599.571 412.748 599.381 405.116C599.354 404.477 599.327 403.839 599.299 403.181C598.979 389.407 603.468 375.78 613.037 365.718C622.743 356.255 633.097 353.451 646.311 353.627Z" fill="#DF76DB"/>
<path d="M655.646 387.056C655.646 400.351 655.646 413.646 655.646 427.344C645.784 423.399 638.211 415.537 633.808 405.897C632.379 401.974 632.134 398.127 632.723 394.002C634.216 390.849 635.834 389.242 638.975 387.75C644.37 386.401 650.084 387.056 655.646 387.056Z" fill="#DF76DC"/>
<path d="M644.369 397.396C644.89 397.4 645.41 397.404 645.946 397.408C646.705 397.41 646.705 397.41 647.479 397.413C648.125 397.419 648.772 397.425 649.438 397.432C652.511 397.453 652.511 397.453 655.646 397.475C655.646 403.435 655.646 409.395 655.646 415.536C649.272 411.711 644.941 406.564 642.638 399.372C642.544 398.777 642.544 398.777 642.448 398.17C643.143 397.475 643.143 397.475 644.369 397.396Z" fill="#481264"/>
</svg>
