<svg width="838" height="599" viewBox="0 0 838 599" fill="none" xmlns="http://www.w3.org/2000/svg">
<path d="M526.197 5.4955C545.761 -2.52759 569.231 -1.43086 588.666 6.60683C589.433 6.93576 590.179 7.25534 590.924 7.5746C608.682 15.1637 626.112 25.3549 638.968 40.0297C639.754 40.9744 640.547 41.9134 641.346 42.848C670.153 73.0385 685.348 116.414 691.355 157.133C691.724 159.651 692.118 162.145 692.598 164.645C695.186 177.489 696.482 190.454 696.929 203.54C696.956 204.483 696.981 205.397 697.008 206.312C725.301 197.351 752.776 201.342 778.863 214.857C805.635 228.963 820.625 249.856 829.558 278.326C829.94 279.545 830.326 280.764 830.718 281.98C833.192 289.664 834.874 297.417 836.23 305.373C836.328 305.95 836.422 306.509 836.516 307.069C838.69 319.42 838.116 331.584 837.067 344.023C836.666 348.746 836.358 353.458 836.164 358.195C836.067 361.266 835.86 364.149 835.148 367.146C834.385 370.344 833.996 373.533 833.636 376.799C832.963 383.019 832.269 389.18 830.819 395.274C830.466 396.747 830.119 398.223 829.806 399.705C826.901 413.662 822.776 427.167 818.454 440.737C817.881 442.535 817.313 444.334 816.752 446.136C806.951 477.669 791.05 509.977 768.7 534.562C767.153 536.225 765.607 537.874 764.139 539.607C760.915 543.465 757.286 546.81 753.568 550.182C752.799 550.876 752.03 551.57 751.262 552.265C737.935 564.497 723.722 573.939 707.061 581.048C706.032 581.479 706.031 581.479 705.022 581.902C701.449 583.42 698.138 584.745 694.253 585.141C692.195 585.263 690.601 585.58 688.685 586.349C679.415 589.336 679.414 589.337 669.824 591.194C668.945 591.373 668.092 591.548 667.239 591.722C646.581 596.001 626.459 599.007 605.314 598.995C604.509 598.992 603.727 598.99 602.945 598.988C600.658 598.982 598.371 598.974 596.084 598.956C595.355 598.949 594.648 598.943 593.94 598.936C589.55 598.9 585.231 598.717 580.865 598.24C580.096 598.151 580.096 598.15 579.342 598.063C554.596 595.333 530.29 588.354 507.386 578.643C505.287 577.749 503.195 576.907 501.042 576.153C494.894 574.056 489.067 571.485 483.21 568.691C477.327 565.824 471.933 563.79 465.355 563.123C462.519 562.862 459.704 562.485 456.883 562.095C443.778 560.284 430.681 558.491 417.463 557.814C410.997 557.494 404.6 557.004 398.178 556.206C375.095 553.317 351.915 552.1 328.657 552.086C327.798 552.087 326.964 552.089 326.131 552.089C313.459 552.097 300.791 552.278 288.164 553.425C287.612 553.48 287.077 553.533 286.542 553.586C278.144 554.416 269.481 555.126 261.44 557.814C259.192 558.642 256.966 559.426 254.673 560.125C250.081 561.493 245.628 562.945 241.227 564.86C220.527 573.977 198.254 581.15 175.719 583.726C174.964 583.81 174.231 583.89 173.499 583.971C165.084 584.97 156.79 585.566 148.313 585.538C146.451 585.525 144.588 585.513 142.725 585.511C116.1 585.514 90.3947 580.074 65.1922 571.79C64.6304 571.605 64.0842 571.424 63.5389 571.245C53.6759 568.014 43.945 564.408 35.2625 558.598C34.2646 557.891 34.2642 557.89 33.286 557.197C29.8588 554.777 26.5281 552.271 23.4217 549.447C6.54269 532.656 0.162576 509.461 0.0398771 486.162C0.0394093 485.354 0.0383781 484.571 0.037924 483.787C-0.00713318 479.655 -0.175199 475.604 0.861166 471.576C1.57943 469.124 1.57991 469.124 1.8221 467.384C3.18341 449.687 14.227 428.607 26.493 415.974C27.4326 415.061 27.4334 415.061 28.3543 414.165C36.2964 406.317 44.9754 399.215 54.6883 393.656C55.0775 393.442 55.4551 393.235 55.8328 393.028C45.5234 376.638 39.7758 359.184 36.325 340.228C36.0401 338.565 35.734 336.906 35.4002 335.252C31.2104 323.476 30.9195 310.156 30.9061 297.768C30.9067 297.142 30.9075 296.535 30.908 295.927C30.8866 284.918 31.7995 274.437 34.0516 263.631C34.705 260.535 35.3336 257.434 35.9578 254.332C36.1125 253.562 36.2629 252.814 36.4129 252.067C37.3089 247.624 38.1894 243.182 38.9725 238.718C43.4631 212.956 54.7443 188.893 73.8524 170.566C74.7612 169.717 75.6692 168.867 76.5682 168.007C99.1864 146.364 129.292 132.252 160.919 132.156C161.712 132.155 161.712 132.155 162.49 132.155C172.68 132.137 182.622 132.493 192.449 135.454C194.235 136.008 196.018 136.55 197.821 137.044C205.593 139.103 212.994 141.294 220.131 145.041C220.566 145.271 220.989 145.495 221.411 145.718C234.834 152.582 252.221 163.435 259.634 176.91C259.814 177.324 259.989 177.726 260.164 178.128H261.573C261.482 175.332 261.698 172.738 262.217 169.988C262.312 169.507 262.405 169.04 262.498 168.573C263.326 164.316 264.178 160.065 265.197 155.849C265.402 155.04 265.602 154.254 265.801 153.468C270.314 135.174 279.08 119.458 292.859 106.603C293.241 106.247 293.612 105.901 293.983 105.556C301.666 98.1838 310.286 91.6093 319.227 85.8334C319.987 85.3524 320.725 84.8852 321.463 84.4183C334.25 76.102 347.972 68.6069 362.727 64.4642C363.31 64.3014 363.876 64.1437 364.442 63.9857C390.994 56.1434 418.809 59.2405 443.376 72.0355C444.434 72.5957 444.434 72.5959 445.471 73.1449C445.331 71.1342 445.33 71.1343 445.996 69.8178C446.296 69.2722 446.588 68.7428 446.88 68.2133C452.221 58.2874 457.85 47.9018 466.475 40.4262C467.772 39.4025 469.008 38.3592 470.229 37.2445C484.602 23.9849 500.449 13.8352 519.113 7.92323C521.501 7.16971 523.867 6.41273 526.197 5.4955Z" fill="#451062"/>
<path d="M602.946 72.7493C604.845 74.4204 605.345 74.9978 605.984 77.5053C605.277 79.9523 604.75 80.9229 602.593 82.3053C599.094 82.2417 597.047 81.2877 594.138 79.4869C589.191 77.2798 584.481 77.0152 579.122 77.0649C578.32 77.0697 577.517 77.0746 576.691 77.0795C557.175 77.4443 541.192 84.38 527.496 98.1785C518.72 107.296 512.394 118.269 506.769 129.513C506.438 130.159 506.106 130.806 505.765 131.472C495.11 153.406 491.816 178.642 499.224 202.094C501.807 209.34 505.912 216.237 510.292 222.518C510.633 223.08 510.973 223.641 511.324 224.219C512.514 225.932 513.471 227.016 515.224 228.155C517.704 228.602 520.076 228.644 522.595 228.686C537.458 229.168 553.346 235.051 566.258 242.106C570.437 244.362 570.437 244.362 575.114 244.361C577.297 243.375 577.297 243.375 579.43 241.939C579.825 241.684 580.221 241.43 580.628 241.169C600.716 228.081 617.34 209.086 622.798 185.205C624.269 171.4 622.651 159.116 614.365 147.725C607.375 139.594 596.778 132.087 585.861 130.671C570.806 129.556 556.747 133.147 544.773 142.504C535.421 150.723 529.332 162.944 527.907 175.311C527.147 188.31 529.889 201.122 538.476 211.245C540.962 213.467 542.698 213.812 545.965 213.694C549.047 213.075 551.039 211.251 553.272 209.131C553.657 208.782 554.042 208.434 554.439 208.074C559.789 202.616 561.413 195.247 561.422 187.837C560.915 185.354 560.222 184.572 558.204 183.061C556.125 182.203 556.125 182.203 553.889 181.608C549.902 180.473 549.902 180.473 548.34 178.129C547.878 173.82 547.878 173.82 549.353 171.832C553.347 170.176 557.126 170.776 561.111 172.228C565.289 174.074 568.368 176.354 570.799 180.243C573.931 188.596 572.725 197.123 569.318 205.11C565.38 213.662 559.097 220.176 550.586 224.148C545.279 225.292 539.727 225.328 534.953 222.518C529.884 218.921 526.699 214.497 523.679 209.131C523.353 208.582 523.027 208.032 522.691 207.466C519.802 202.241 518.606 196.596 517.338 190.812C517.132 189.964 517.132 189.964 516.923 189.1C515.478 180.049 516.719 171.273 519.452 162.628C519.715 161.764 519.979 160.899 520.25 160.008C525.511 143.983 537.152 132.846 551.863 125.285C559.321 121.827 567.607 119.924 575.819 119.648C576.278 119.623 576.738 119.597 577.211 119.571C593.181 118.717 606.324 125.314 618.094 135.854C628.699 146.226 634.294 159.05 634.475 173.921C634.479 181.957 634.096 188.911 631.129 196.449C630.879 197.09 630.629 197.732 630.372 198.393C626.544 207.985 621.858 216.634 615.276 224.632C614.961 225.021 614.646 225.411 614.321 225.812C605.57 236.588 595.894 244.533 584.274 252.111C584.888 252.53 585.502 252.948 586.135 253.38C592.067 257.485 597.405 261.901 602.593 266.907C603.098 267.376 603.603 267.845 604.124 268.328C611.4 275.255 616.673 283.609 621.617 292.273C621.883 292.738 622.15 293.203 622.424 293.682C623.096 294.856 623.766 296.03 624.436 297.205C624.907 296.829 625.378 296.453 625.864 296.065C631.883 291.396 638.227 287.535 644.869 283.817C645.333 283.556 645.798 283.295 646.277 283.027C669.842 269.885 698.271 260.827 725.192 268.317C740.394 272.755 752.083 281.923 759.716 295.795C766.822 310.23 769.178 325.798 769.052 341.77C769.05 342.278 769.047 342.785 769.045 343.308C768.969 356.859 767.315 369.328 763.944 382.46C763.776 383.113 763.609 383.767 763.436 384.44C761.43 392.132 759.13 399.318 755.489 406.416C755.055 407.311 754.623 408.208 754.193 409.105C746.738 424.54 737.095 437.766 725.192 450.1C724.771 450.557 724.351 451.014 723.917 451.485C720.245 455.377 715.938 458.575 711.686 461.802C710.861 462.429 710.039 463.06 709.22 463.695C689.63 478.856 665.723 486.858 641.081 486.871C640.209 486.88 639.338 486.888 638.439 486.897C632.921 486.906 627.728 486.432 622.322 485.33C621.549 485.176 621.549 485.176 620.761 485.02C607.106 482.164 596.226 473.232 588.562 461.896C587.186 459.689 586.042 457.384 584.935 455.032C584.724 454.585 584.513 454.138 584.296 453.677C583.247 451.33 582.865 449.905 582.865 447.282C580.176 449.257 577.523 451.256 574.946 453.375C555.348 469.466 532.581 482.29 508.178 489.337C507.694 489.48 507.21 489.623 506.711 489.77C498.529 492.043 490.258 492.618 481.8 492.552C480.904 492.546 480.008 492.541 479.085 492.536C461.272 492.331 443.93 488.025 430.674 475.465C430.118 474.947 429.562 474.428 428.989 473.894C418.3 463.041 415.72 448.988 415.75 434.334C415.83 424.816 417.199 416.212 420.105 407.12C420.485 405.897 420.485 405.897 420.873 404.649C426.033 388.562 432.783 372.994 442.652 359.208C443.183 358.433 443.713 357.657 444.243 356.88C454.351 342.182 467.017 328.884 481.404 318.342C482.084 317.824 482.763 317.305 483.463 316.771C489.991 311.856 497.057 308.362 504.391 304.823C505.324 304.37 505.324 304.37 506.276 303.908C521.72 296.554 539.707 294.672 556.09 300.023C565.304 303.61 572.807 310.44 577.151 319.333C583.584 334.375 581.964 352.623 576.201 367.623C569.207 384.997 558.778 401.424 545.244 414.444C543.984 415.704 542.843 417.034 541.69 418.394C531.523 430.11 515.406 442.004 499.668 443.222C493.111 443.376 487.869 442.515 482.901 437.99C477.253 431.73 476.157 423.218 476.345 415.066C477.4 395.826 484.901 378.791 498.98 365.39C505.541 359.728 512.108 355.779 520.979 356.12C525.093 356.676 527.627 358.267 530.593 361.102C534.124 366.448 535.042 371.885 534.248 378.232C532.397 385.828 529.532 393.26 523.679 398.665C521.678 399.666 520.259 399.592 518.043 399.37C516.369 398.225 516.369 398.225 515.224 396.552C514.872 394.482 514.872 394.482 515.224 392.324C516.156 391.144 517.097 389.97 518.043 388.801C518.831 387.429 519.58 386.033 520.289 384.618C520.647 383.914 521.006 383.21 521.376 382.485C523.102 378.358 523.972 372.974 522.27 368.72C522.038 368.372 521.805 368.023 521.566 367.663C516.095 367.069 512.163 369.296 507.818 372.485C497.904 380.828 489.928 393.91 488.714 406.944C488.419 410.83 488.328 414.719 488.274 418.614C488.251 419.523 488.251 419.523 488.228 420.45C488.209 424.051 488.494 426.585 490.564 429.667C492.706 431.818 494.439 432.138 497.434 432.221C510.113 431.881 520.985 422.567 529.79 414.29C531.068 413.096 532.347 411.987 533.72 410.908C535.726 409.175 537.395 407.36 539.106 405.342C540.234 404.016 541.376 402.711 542.535 401.412C558.779 383.078 570.902 361.206 569.86 336.18C569.299 328.18 567.092 322.112 561.342 316.314C554.495 310.393 546.998 308.071 538.035 308.17C537.363 308.174 536.691 308.177 535.998 308.181C529.916 308.31 524.524 309.495 518.747 311.296C517.814 311.524 517.814 311.524 516.862 311.756C511.629 313.067 507.06 315.744 502.386 318.355C501.278 318.967 500.155 319.551 499.03 320.131C493.91 322.78 489.429 326.026 484.927 329.616C484.21 330.188 483.492 330.76 482.753 331.35C472.951 339.333 464.226 348.322 456.744 358.504C456.138 359.308 455.533 360.111 454.927 360.915C450.508 366.857 446.81 373.097 443.356 379.641C443.107 380.112 442.858 380.583 442.602 381.068C439.119 387.711 436.101 394.453 433.492 401.484C433.181 402.314 432.869 403.144 432.548 403.999C426.944 419.772 422.892 440.582 429.969 456.442C436.393 468.258 446.147 474.907 458.857 478.988C484.8 486.579 511.995 478.401 534.953 466.306C535.508 466.015 536.063 465.724 536.636 465.425C551.375 457.662 564.8 448.379 576.859 436.864C578.379 435.53 579.605 434.664 581.456 433.895C581.456 433.43 581.456 432.965 581.456 432.486C581.921 432.486 582.386 432.486 582.865 432.486C582.865 432.02 582.865 431.555 582.865 431.076C583.33 431.076 583.795 431.076 584.274 431.076C584.457 430.66 584.639 430.244 584.827 429.816C585.748 428.14 586.702 427.17 588.105 425.88C607.085 407.312 623.23 377.638 623.731 350.753C623.758 349.89 623.785 349.026 623.813 348.136C624.396 322.32 614.769 295.842 597.075 276.956C581.816 261.06 561.069 249.674 540.002 243.409C539.029 243.117 538.058 242.815 537.093 242.499C518.521 236.465 495.947 239.286 478.564 247.887C467.557 253.583 458.042 260.677 449.285 269.434C448.248 270.471 447.198 271.495 446.125 272.495C428.637 289.052 410.928 319.469 409.536 343.707C409.534 345.149 409.547 346.59 409.572 348.031C409.592 349.162 409.592 349.162 409.612 350.316C409.649 351.821 409.703 353.326 409.774 354.831C409.915 360.094 409.915 360.094 407.904 362.874C406.013 364.141 406.013 364.141 403.811 364.229C401.786 363.436 401.786 363.436 400.509 362.027C398.023 355.747 398.899 348.247 398.967 341.594C398.327 341.823 397.687 342.053 397.027 342.29C378.134 348.933 358.435 349.65 339.782 341.594C327.637 335.581 319.765 324.89 315.298 312.265C313.164 305.037 312.722 298.092 312.743 290.599C312.744 290.068 312.745 289.536 312.745 288.989C312.778 280.427 313.313 272.328 315.826 264.089C315.996 263.53 316.166 262.971 316.341 262.395C321.628 245.652 331.586 228.381 347.056 219.257C354.009 215.694 361.622 214.871 369.154 217.19C376.445 220.229 381.2 225.907 384.171 233.087C390.596 250.834 390.054 274.424 382.054 291.605C378.486 298.584 372.332 304.138 365.147 307.151C360.489 308.522 355.366 308.68 350.835 306.761C344.901 303.142 341.738 297.857 339.677 291.345C337.946 283.854 338.575 277.062 342.6 270.43C344.65 267.753 346.614 265.896 349.943 265.08C355.02 264.765 359.054 266.806 362.841 270.07C363.738 271.135 363.738 271.135 364.046 273.161C363.657 275.938 363.033 277.043 360.92 278.885C358.41 279.238 358.409 279.238 355.987 278.885C354.754 277.828 354.754 277.828 353.874 276.772C353.176 276.772 352.479 276.772 351.76 276.772C349.568 280.62 349.794 284.534 350.909 288.744C352.317 293.127 352.317 293.127 355.283 296.5C359.71 297.025 362.916 296.288 366.556 293.682C371.102 289.408 373.531 284.981 374.747 278.841C374.916 278.005 375.085 277.168 375.259 276.306C375.41 275.53 375.561 274.753 375.716 273.953C375.838 273.424 375.96 272.895 376.086 272.35C378.197 260.227 377.989 243.617 371.621 232.911C369.019 229.535 366.722 227.749 362.447 227.189C355.219 226.889 351.455 229.079 346.167 233.792C331.281 247.687 324.521 267.864 323.329 287.852C323.111 294.461 324.09 300.661 325.69 307.069C325.835 307.713 325.979 308.357 326.128 309.02C328.11 316.837 333.593 324.978 340.382 329.484C355.393 337.781 372.717 337.415 388.825 333.174C391.061 332.523 393.251 331.806 395.444 331.025C396.02 330.832 396.596 330.64 397.189 330.441C399.292 329.6 400.682 328.958 401.766 326.916C402.117 325.853 402.429 324.778 402.71 323.696C408.064 303.469 422.133 281.726 436.517 266.784C438.576 264.635 440.517 262.41 442.437 260.137C443.356 259.157 443.356 259.157 444.766 258.452C447.513 250.918 448.343 242.367 449.698 234.496C449.803 233.889 449.909 233.282 450.018 232.656C450.315 230.936 450.602 229.216 450.887 227.494C451.013 226.76 451.013 226.76 451.141 226.011C452.597 216.922 452.683 207.659 452.692 198.474C452.693 197.937 452.694 197.4 452.695 196.847C452.692 188.105 452.128 179.673 450.402 171.083C450.312 170.613 450.222 170.143 450.129 169.659C449.581 166.829 448.956 164.023 448.289 161.219C448.051 160.176 448.051 160.176 447.81 159.111C443.439 140.596 435.308 117.964 419.4 106.261C418.522 105.61 418.522 105.61 417.625 104.946C408.695 98.7879 399.01 98.0785 388.487 99.92C367.064 105.017 349.821 122.51 338.609 140.635C337.316 142.777 336.078 144.948 334.85 147.127C334.459 147.803 334.069 148.479 333.666 149.175C331.302 153.537 329.733 158.032 328.288 162.76C328.109 163.346 327.929 163.932 327.744 164.536C326.762 167.912 326.143 171.114 325.928 174.626C325.471 177.295 324.192 178.488 322.167 180.243C320.009 180.727 320.009 180.727 317.94 180.243C315.835 178.416 315.167 177.345 314.962 174.554C316.024 156.139 325.685 138.046 336.964 123.876C337.394 123.302 337.825 122.728 338.268 122.137C350.432 106.194 369.43 91.3847 389.706 88.1649C397.495 87.3812 404.872 87.5508 412.355 90.0558C412.952 90.2438 413.55 90.4318 414.166 90.6255C429.723 96.112 439.84 110.471 446.879 124.581C447.204 125.187 447.528 125.794 447.862 126.419C454.604 139.175 458.775 153.899 461.367 168.032C461.658 169.581 461.985 171.118 462.317 172.658C465.788 190.121 464.531 209.05 462.16 226.57C462.048 227.403 462.048 227.403 461.933 228.253C461.046 234.661 459.889 240.939 458.153 247.179C458.683 246.837 459.214 246.496 459.76 246.144C472.089 238.364 486.83 229.602 501.837 230.269C501.538 229.807 501.24 229.346 500.932 228.871C499.576 226.761 498.24 224.641 496.905 222.518C496.484 221.866 496.062 221.214 495.628 220.542C491.997 214.691 489.839 208.6 487.745 202.085C487.52 201.414 487.295 200.743 487.063 200.051C481.799 183.708 482.926 164.821 487.745 148.537C488.057 147.478 488.057 147.478 488.375 146.398C496.902 118.083 513.59 89.6413 539.885 74.5548C557.342 65.5019 585.781 60.9385 602.946 72.7493Z" fill="#DF76DC"/>
<path d="M169.61 162.546C193.601 161.841 218.701 173.243 235.99 189.232C243.398 196.427 252.37 207.203 252.809 218.07C252.413 220.404 252.413 220.404 251.664 221.814C249.501 222.93 247.751 222.774 245.367 222.518C242.929 220.813 242.282 218.112 241.316 215.428C235.533 200.377 222.019 189.713 207.713 183.028C196.643 178.132 185.456 174.307 173.279 174.474C172.21 174.484 172.21 174.484 171.119 174.494C169.093 174.519 167.069 174.559 165.044 174.606C163.687 174.637 163.687 174.637 162.303 174.669C143.912 175.598 128.867 185.516 116.604 198.474C109.143 207 104.319 217.688 100.222 228.155C99.924 228.915 99.6261 229.675 99.3192 230.459C96.9191 236.861 95.2901 243.322 93.8806 249.997C93.7362 250.669 93.5918 251.341 93.443 252.034C91.3251 262.738 90.7701 273.55 90.7981 284.434C90.7989 285.052 90.7998 285.669 90.8006 286.306C90.8344 295.349 91.046 304.037 93.8806 312.705C94.17 313.598 94.17 313.598 94.4652 314.508C99.9881 331.008 108.333 345.058 120.423 357.531C121.221 358.36 122.001 359.206 122.777 360.056C133.349 371.339 148.993 379.615 164.339 381.755C164.294 380.69 164.294 380.69 164.249 379.603C164.578 369.518 170.769 359.04 177.022 351.458C176.544 351.482 176.067 351.507 175.574 351.532C164.116 351.865 154.927 346.502 146.725 338.775C141.651 333.4 137.686 327.566 134.042 321.16C133.753 320.663 133.465 320.165 133.167 319.652C128.066 310.241 126.749 299.66 126.776 289.146C126.765 288.268 126.753 287.39 126.742 286.486C126.739 281.019 127.345 276.308 129.11 271.135C129.264 270.659 129.419 270.183 129.578 269.692C134.79 254.262 146.344 241.478 160.684 233.88C162.358 233.114 164.047 232.38 165.749 231.678C166.603 231.321 167.458 230.964 168.339 230.596C180.841 225.924 196.563 226.23 208.728 231.678C209.196 231.882 209.664 232.086 210.146 232.296C227.689 240.047 240.774 253.508 248.185 271.135C255.134 289.385 255.907 309.55 250.299 328.206C251.287 328.298 251.287 328.298 252.295 328.391C279.988 331.232 304.8 344.546 324.281 364.14C324.744 364.604 325.207 365.067 325.685 365.544C335.325 375.923 342.341 388.748 347.797 401.704C348.09 402.401 348.384 403.099 348.687 403.818C353.242 414.951 355.011 426.096 354.578 438.122C354.565 438.755 354.553 439.388 354.54 440.04C353.508 460.155 340.427 477.228 326.163 490.339C308.836 505.748 277.86 518.193 254.439 518.665C253.579 518.692 252.72 518.718 251.835 518.745C249.595 518.445 249.595 518.445 248.257 517.154C247.183 515.04 247.091 513.738 247.481 511.399C250.037 508.834 251.745 508.264 255.319 508.229C259.207 508.037 262.156 507.314 265.742 505.867C267.808 505.097 269.876 504.51 272.009 503.96C288.018 499.815 304.578 494.222 317.235 483.216C318.076 482.502 318.076 482.502 318.933 481.773C331.793 470.563 342.182 456.068 343.421 438.596C344.041 428.322 342.51 419.603 339.077 409.939C338.908 409.447 338.739 408.956 338.564 408.45C332.813 391.998 321.883 374.971 308.075 364.14C307.429 363.609 306.782 363.078 306.116 362.53C293.854 352.611 279.631 345.629 264.391 341.593C263.641 341.392 262.89 341.19 262.118 340.982C256.759 339.64 251.588 338.96 246.072 338.775C245.469 338.752 244.866 338.729 244.245 338.706C225.001 338.055 205.489 341.423 190.409 354.276C189.697 354.799 188.985 355.322 188.251 355.861C179.336 363.44 175.162 375.702 174.029 387.025C173.071 401.038 176.234 414.087 183.363 426.144C184.016 427.259 184.016 427.259 184.682 428.395C196.356 446.987 216.418 458.158 237.388 463.24C249.707 465.883 264.075 466.386 276.369 463.487C277.527 463.228 277.527 463.228 278.708 462.964C289.378 460.267 301.287 455.111 307.217 445.394C309.979 440.135 311.188 435.07 309.727 429.227C305.678 416.941 296.733 408.113 285.364 402.347C273.807 396.768 258.916 393.469 246.38 397.784C244.699 398.538 244.699 398.538 243.253 399.37C242.12 399.98 242.12 399.98 240.963 400.603C236.708 404.084 233.091 407.938 231.98 413.461C231.423 419.16 232.232 424.162 235.503 428.962C241.746 434.065 250.723 437.225 258.754 437.417C259.679 437.461 260.603 437.505 261.556 437.55C267.523 437.753 272.406 437.556 277.778 434.599C277.539 432.598 277.148 431.853 275.681 430.427C270.69 426.982 266.958 426.433 261.069 426.95C258.754 426.849 258.754 426.849 257.056 425.605C255.443 423.337 255.541 421.81 255.936 419.098C258.491 416.135 262.615 415.682 266.329 415.311C273.441 415.558 279.656 419.404 284.824 424.03C287.437 426.875 289.26 429.627 289.58 433.542C289.29 437.389 287.386 440.262 284.824 443.054C283.211 444.282 281.757 445.009 279.892 445.873C279.448 446.111 279.004 446.35 278.546 446.596C269.248 450.924 254.839 449.603 245.419 446.395C237.676 443.526 228.909 439.579 224.229 432.485C223.175 429.938 222.274 427.352 221.411 424.735C221.179 424.037 220.946 423.34 220.706 422.621C220.043 414.551 220.881 406.788 225.859 400.162C226.708 399.179 227.573 398.209 228.457 397.256C228.842 396.815 229.227 396.375 229.624 395.921C235.444 389.62 243.642 385.712 252.213 385.153C270.303 384.775 270.303 384.775 279.187 388.096C279.623 388.251 280.059 388.406 280.508 388.565C296.144 394.133 310.279 404.042 317.94 419.098C321.467 426.88 322.65 437.428 319.613 445.608C318.831 447.191 318.831 447.191 317.94 448.691C317.616 449.237 317.293 449.783 316.96 450.345C315.936 451.959 314.85 453.497 313.712 455.032C313.419 455.451 313.125 455.87 312.823 456.301C303.737 468.171 286.274 473.413 272.274 475.952C267.848 476.394 263.372 476.271 258.93 476.258C258.005 476.261 257.079 476.263 256.126 476.266C255.238 476.265 254.351 476.264 253.437 476.263C252.229 476.262 252.229 476.262 250.996 476.261C249.22 476.184 247.761 475.985 246.072 475.465C246.377 475.956 246.377 475.956 246.688 476.456C250.049 482.71 249.685 490.278 248.229 497.087C246.667 501.99 243.549 505.975 240.435 509.99C239.999 510.557 239.563 511.124 239.114 511.707C229.796 522.954 216.049 529.904 203.092 536.06C202.648 536.276 202.205 536.492 201.748 536.715C193.571 540.679 185.125 543.06 176.317 545.219C175.824 545.343 175.332 545.467 174.824 545.594C159.844 549.31 142.117 549.728 126.996 546.629C125.975 546.453 124.954 546.279 123.933 546.106C100.863 541.975 77.5415 528.898 63.7595 509.605C56.0636 498.18 50.4642 483.608 52.6622 469.716C56.5266 451.294 68.8548 436.716 84.0164 426.144C99.4442 416.216 118.031 409.921 136.535 413.06C140.199 413.941 144.007 414.888 146.648 417.697C147.429 419.098 147.429 419.098 147.385 420.904C146.547 423.084 146.013 423.708 143.906 424.735C140.881 425.125 138.764 425.064 136.156 423.326C118.299 420.741 101.219 427.483 86.9504 437.786C80.2435 442.937 74.494 448.573 69.9246 455.737C69.5786 456.264 69.2326 456.79 68.876 457.333C63.7445 465.749 62.951 476.214 64.7751 485.767C67.0734 493.777 70.8418 500.871 76.2659 507.172C76.7718 507.787 77.2777 508.403 77.799 509.038C91.8415 525.448 115.074 535.201 136.337 536.891C139.502 537.049 142.662 537.067 145.83 537.04C147.429 537.029 149.028 537.04 150.628 537.053C168.689 537.079 185.964 531.859 202.167 524.17C202.904 523.822 203.64 523.474 204.399 523.116C210.77 520.035 216.863 516.534 222.336 512.016C222.871 511.578 223.406 511.14 223.957 510.689C224.512 510.226 225.067 509.763 225.639 509.285C226.684 508.471 226.684 508.471 227.75 507.64C230.005 505.757 231.592 503.616 233.213 501.183C233.484 500.791 233.756 500.4 234.036 499.996C237.777 494.494 238.334 489.805 237.617 483.216C236.744 480.641 235.596 478.43 234.094 476.17C233.788 475.698 233.481 475.227 233.166 474.741C231.792 473.131 230.945 472.78 228.933 472.196C228.33 472.011 227.727 471.827 227.106 471.637C226.14 471.352 226.14 471.352 225.154 471.062C212.118 466.952 198.859 460.488 189.149 450.673C180.86 443.877 163.864 445.352 153.82 446.071C135.031 448.136 114.466 457.011 102.127 471.763C98.5217 476.776 96.4123 481.178 97.4036 487.443C99.5264 493.344 104.681 496.192 110.071 498.779C114.426 500.743 118.9 502.281 123.473 503.649C124.276 503.889 125.079 504.13 125.906 504.378C135.674 506.866 147.035 507.037 156.589 503.649C157.208 503.444 157.826 503.24 158.463 503.029C164.536 500.84 169.269 497.84 172.194 491.929C173.185 489.175 173.448 486.784 172.795 483.92C170.834 480.569 168.489 478.793 164.884 477.362C157.639 475.555 150.246 476.993 143.202 478.988C143.129 479.424 143.056 479.86 142.982 480.309C142.497 481.807 142.497 481.807 140.383 483.216C137.879 483.535 136.64 483.542 134.527 482.115C132.949 479.836 132.681 478.227 132.633 475.465C134.372 471.438 137.166 469.881 141.093 468.227C143.448 467.368 145.843 466.935 148.31 466.526C148.835 466.437 149.359 466.348 149.899 466.257C156.048 465.274 161.908 464.942 167.862 467.01C168.621 467.269 168.621 467.269 169.395 467.533C175.724 470.003 180.73 474.346 183.495 480.607C185.352 486.784 184.177 492.408 181.25 498.012C179.84 500.346 179.84 500.346 178.431 502.24C177.864 503.09 177.864 503.09 177.286 503.957C169.405 512.461 156.965 516.781 145.605 517.234C127.47 517.648 108.038 513.707 93.9164 501.532C88.9762 496.724 86.094 491.616 85.91 484.625C86.3311 474.097 91.6114 466.116 99.0897 458.883C119.027 440.697 144.091 434.689 170.426 435.223C172.428 435.32 174.357 435.597 176.317 436.008C175.909 435.317 175.5 434.626 175.079 433.914C167.085 420.191 163.418 407.541 162.93 391.619C162.137 391.655 161.344 391.69 160.528 391.727C157.037 391.72 153.965 390.92 150.644 389.902C150.032 389.715 149.421 389.528 148.79 389.336C135.726 385.137 125.179 377.342 115.337 367.935C114.352 366.995 113.354 366.067 112.357 365.139C103.741 356.895 97.1738 347.248 91.7669 336.661C91.539 336.215 91.3112 335.769 91.0764 335.31C87.8489 328.898 85.3982 322.391 83.3118 315.524C83.102 314.859 82.8922 314.194 82.676 313.509C80.1303 304.947 79.5614 296.2 79.6439 287.316C79.6568 285.885 79.6583 284.454 79.6581 283.023C79.6801 274.569 80.1306 266.19 81.4623 257.836C81.5575 257.233 81.6528 256.631 81.7509 256.011C81.9447 254.799 82.1406 253.587 82.3389 252.376C82.5742 250.908 82.7854 249.436 82.9926 247.963C86.4692 225.858 96.6853 203.483 112.2 187.289C112.682 186.762 113.164 186.235 113.661 185.692C120.91 178.028 129.338 173.056 138.974 168.969C139.744 168.614 140.513 168.259 141.305 167.893C144.499 166.619 147.698 165.79 151.04 165.006C151.695 164.852 152.349 164.698 153.023 164.539C158.578 163.277 163.936 162.814 169.61 162.546Z" fill="#DF76DC"/>
<path d="M725.896 279.59C726.522 279.802 727.148 280.013 727.793 280.231C738.914 284.154 746.277 292.473 751.261 302.841C752.946 306.513 754.298 310.257 755.489 314.115C755.713 314.828 755.713 314.828 755.941 315.556C759.287 326.783 758.615 338.471 758.307 350.049C758.295 350.695 758.284 351.341 758.271 352.006C758.06 362.731 755.645 373.041 752.979 383.385C752.84 383.927 752.701 384.47 752.557 385.029C751.677 388.32 750.544 391.331 749.148 394.438C748.748 395.479 748.351 396.521 747.959 397.564C741.127 414.606 730.722 429.113 718.146 442.35C717.711 442.83 717.276 443.311 716.828 443.806C700.843 460.859 673.988 475.096 650.527 476.315C647.907 476.388 645.288 476.4 642.667 476.392C641.043 476.39 639.419 476.407 637.794 476.425C624.713 476.48 613.273 473.165 603.661 463.917C597.286 457.113 592.301 448.836 591.02 439.446C591.431 436.67 592.535 435.87 594.623 434.027C599.88 429.149 604.011 423.462 608.23 417.689C608.734 417.001 609.238 416.312 609.758 415.603C612.524 411.731 615 407.711 617.39 403.597C619.296 404.551 619.271 405.39 619.944 407.385C623.289 416.024 630.061 423.553 638.497 427.493C641.762 428.744 644.891 429.46 648.392 429.667C648.963 429.704 649.534 429.742 650.123 429.78C662.218 430.187 672.919 425.887 682.212 418.394C682.747 417.975 683.282 417.556 683.833 417.125C688.768 413.032 692.507 408.014 696.304 402.893C696.711 402.357 697.117 401.821 697.537 401.269C703.657 392.72 707.079 382.674 709.691 372.596C709.817 372.152 709.943 371.709 710.073 371.252C711.851 363.123 711.322 352.537 707.577 345.117C707.27 344.508 706.963 343.9 706.647 343.273C700.347 331.947 690.556 325.842 678.336 322.282C664.512 319.009 649.599 323.967 637.118 329.616C635.947 330.093 634.774 330.566 633.595 331.025C633.425 330.207 633.254 329.39 633.078 328.548C631.843 322.761 630.555 317.169 628.407 311.635C627.868 309.533 627.93 308.406 628.663 306.364C633.228 301.381 639.692 298.267 645.573 295.091C646.281 294.702 646.281 294.702 647.003 294.306C669.632 281.886 700.218 268.943 725.896 279.59Z" fill="#461062"/>
<path d="M187.679 238.503C188.397 238.501 189.116 238.499 189.856 238.497C196.526 238.544 202.011 239.619 207.936 242.687C208.663 243.057 208.663 243.057 209.404 243.435C213.719 245.692 217.61 248.361 221.411 251.406C221.863 251.751 222.316 252.097 222.782 252.452C232.346 260.086 238.244 272.148 241.14 283.817C241.348 284.498 241.557 285.18 241.773 285.882C245.09 298.086 245.532 315.898 239.73 327.502C238.052 327.8 238.052 327.8 235.817 327.978C234.997 328.051 234.177 328.123 233.332 328.198C232.45 328.274 231.568 328.349 230.659 328.427C222.826 329.171 215.476 330.418 207.959 332.726C205.876 333.365 203.779 333.953 201.683 334.548C202.497 331.809 203.565 329.316 204.809 326.753C209.88 315.637 210.123 304.022 205.962 292.594C202.809 285.381 197.008 279.041 189.771 275.904C183.995 273.782 178.872 274.249 173.183 276.543C169.331 278.543 166.75 281.216 165.176 285.27C164.891 286.193 164.611 287.118 164.339 288.045C164.063 288.699 163.787 289.353 163.503 290.026C161.289 298.71 163.981 307.139 168.284 314.693C169.236 316.292 169.236 316.292 170.681 317.638C172.4 317.809 172.4 317.809 174.292 317.726C174.933 317.713 175.574 317.7 176.235 317.687C176.727 317.671 177.219 317.654 177.727 317.638C178.604 315.006 178.862 312.64 178.431 309.887C177.156 308.74 177.156 308.74 175.613 307.773C173.067 303.436 172.584 298.663 172.795 293.682C173.675 290.386 175.011 287.385 177.727 285.226C181.195 284.214 184.028 284.219 187.371 285.579C188.54 286.391 188.54 286.391 189.705 287.34C190.125 287.675 190.546 288.011 190.979 288.356C195.454 292.35 198.488 298.223 198.864 304.25C199.361 314.788 196.488 324.862 189.705 333.138C185.027 337.947 180.781 340.45 174.019 340.889C165.68 340.889 158.875 335.864 153.066 330.32C142.651 318.337 136.245 302.963 136.66 286.969C137.862 272.321 144.65 259.311 155.733 249.705C165.256 242.202 175.58 238.311 187.679 238.503Z" fill="#461163"/>
<path d="M690.667 338.775C694.465 342.226 697.178 346.017 699.122 350.753C699.5 351.499 699.5 351.499 699.885 352.259C700.821 355.179 700.772 357.965 700.752 361.014C700.748 361.646 700.744 362.278 700.74 362.929C700.65 367.829 700.06 372.183 698.418 376.823C698.143 377.636 697.867 378.449 697.584 379.286C691.699 395.308 680.559 410.419 664.815 417.714C658.364 420.41 650.577 421.168 643.842 419.03C636.196 415.423 631.349 409.93 627.959 402.188C626.926 397.974 627.789 395.036 629.897 391.311C631.344 389.034 632.719 387.438 635.005 385.983C637.361 385.611 638.388 385.908 640.509 387.04C643.464 388.43 645.144 388.411 648.392 388.096C650.209 387.44 650.209 387.44 651.21 385.983C651.68 383.869 651.68 383.869 651.21 381.755C649.254 379.973 647.197 379.067 644.737 378.144C641.411 376.888 641.411 376.888 640.641 376.119C639.395 376.048 638.146 376.027 636.898 376.03C635.878 376.028 635.878 376.028 634.837 376.025C633.13 376.107 631.703 376.335 630.073 376.823C630.649 373.129 631.492 369.539 632.385 365.91C633.508 360.422 633.755 354.886 633.992 349.3C634.022 348.623 634.053 347.946 634.084 347.248C634.158 345.598 634.23 343.948 634.3 342.298C652.677 333.003 672.049 325.351 690.667 338.775Z" fill="#461163"/>
</svg>
