<svg width="1060" height="336" viewBox="0 0 1060 336" fill="none" xmlns="http://www.w3.org/2000/svg">
<path d="M843.408 -17.8362C774.499 -161.395 235.436 -112.226 200.985 -17.8361C166.534 76.5538 204.574 19.1302 204.574 19.1302L832.284 37.4339L843.408 -17.8362Z" fill="#451062"/>
<path d="M843.96 -17.8086C849.309 -8.18048 854.504 1.25395 858.459 11.5439C858.654 12.0582 858.843 12.5575 859.033 13.0566C864.037 26.2062 867.774 39.5756 870.178 53.4385C870.411 54.789 870.645 56.1393 870.881 57.4893C871.255 59.621 871.627 61.7535 871.998 63.8857C872.546 67.0867 873.078 70.2908 873.689 73.4805C875.388 82.0233 876.512 90.5801 877.532 99.2285C877.587 99.704 877.642 100.165 877.696 100.627C879.486 100.666 881.189 100.641 882.965 100.398C883.563 100.289 884.143 100.182 884.722 100.075C885.407 99.9529 886.073 99.8345 886.738 99.7158C910.38 95.4842 934.501 93.4508 958.333 97.4248C958.982 97.5375 959.612 97.6464 960.242 97.7559C968.947 99.2444 977.486 101.198 985.945 103.741C986.48 103.903 986.999 104.06 987.518 104.217C994.161 106.171 1000.56 108.488 1006.9 111.277C1029.1 121.314 1048.98 135.819 1057.93 159.416C1062.91 176.722 1058.31 198.132 1050.45 213.933C1050.04 214.701 1049.65 215.447 1049.25 216.192C1041.24 231.44 1031.46 246.921 1018.95 258.876C1018.27 259.495 1017.61 260.095 1016.95 260.695C1006.21 270.455 994.229 278.207 981.654 285.383C980.963 285.775 980.293 286.156 979.623 286.536C970.064 291.983 960.392 296.93 950.31 301.336C949.125 301.853 947.941 302.371 946.757 302.893C944.424 303.923 942.089 304.952 939.753 305.976C938.806 306.389 937.86 306.804 936.914 307.218C918.829 315.17 900.006 321.052 880.678 325.09C878.384 325.564 876.097 326.052 873.813 326.573C847.78 332.645 820.35 335.507 793.622 335.527C792.967 335.527 792.331 335.526 791.695 335.525C789.851 335.524 788.007 335.519 786.164 335.507C785.584 335.502 785.02 335.497 784.458 335.492C781.705 335.476 779.027 335.405 776.299 334.987C774.333 334.628 774.333 334.628 771.509 334.477C760.089 334.061 748.87 332.617 737.617 330.65C736.906 330.523 736.216 330.4 735.527 330.276C732.363 329.712 729.254 329.149 726.179 328.207C725.024 327.789 723.866 327.377 722.699 326.991C718.033 325.476 713.352 323.993 708.778 322.216C703.375 320.03 697.916 318.36 692.306 316.803C689.586 316.049 686.884 315.287 684.2 314.412C676.94 311.98 676.94 311.98 659.12 309.596C658.54 309.518 657.977 309.443 657.414 309.368C654.501 308.978 651.588 308.585 648.673 308.207C647.561 308.063 646.449 307.918 645.337 307.772C644.503 307.662 644.503 307.662 643.686 307.554C640.602 307.148 637.56 306.702 634.513 306.067C627.03 304.452 619.714 304.126 612.069 303.911C607.962 303.798 603.863 303.621 599.76 303.405C598.927 303.36 598.119 303.316 597.31 303.272C595.66 303.184 594.01 303.094 592.36 303.005C589.878 302.868 587.395 302.731 584.913 302.599C577.568 302.207 570.222 301.829 562.889 301.245C550.671 300.265 538.473 299.775 526.222 299.494C525.082 299.468 523.942 299.442 522.802 299.416C516.515 299.271 510.227 299.131 503.94 298.997C483.401 298.56 462.865 298.155 442.339 297.31C430.535 296.82 418.75 296.461 406.935 296.45C406.226 296.45 405.537 296.45 404.849 296.45C399.035 296.444 393.175 296.282 387.386 296.907C380.076 297.587 380.076 297.588 372.739 297.93C372.125 297.961 371.529 297.99 370.933 298.021C360.829 298.541 350.727 298.95 340.612 299.178C340.095 299.189 339.592 299.2 339.09 299.211C338.118 299.234 337.173 299.257 336.229 299.279C334.637 299.313 333.045 299.369 331.455 299.456C328.038 300.062 324.727 300.339 321.265 300.492C319.668 300.559 318.071 300.628 316.474 300.701C315.597 300.742 314.746 300.781 313.895 300.82C297.873 301.557 281.95 302.542 266.021 304.451C264.742 304.606 263.463 304.761 262.184 304.915C261.554 304.991 260.942 305.063 260.331 305.137C255.583 305.706 250.858 306.096 246.082 306.317C241.385 306.528 236.733 306.855 232.059 307.393C231.29 307.486 230.543 307.576 229.797 307.666C225.113 308.195 220.503 308.774 215.914 309.862C215.417 309.985 214.935 310.105 214.454 310.224C213.538 310.442 212.648 310.653 211.759 310.865C206.479 312.138 201.185 313.356 195.877 314.507C194.769 314.745 194.769 314.745 193.683 314.979C182.612 317.439 171.671 318.316 160.347 318.28C158.317 318.267 156.287 318.254 154.257 318.252C152.902 318.252 151.546 318.251 150.19 318.247C149.526 318.245 148.882 318.242 148.238 318.239C126.86 318.211 105.23 310.688 87.1969 299.299C86.5355 298.864 85.8936 298.442 85.2516 298.021C78.6352 293.751 72.0983 289.496 66.0924 284.386C65.5291 283.897 64.982 283.422 64.4352 282.947C60.4483 279.661 56.9313 276.135 53.4948 272.272C52.4799 271.119 51.4619 269.968 50.4342 268.826C37.651 254.635 27.3302 239.098 19.3512 221.749C18.5975 220.099 17.8372 218.461 17.0123 216.845C15.5164 213.96 14.294 211.101 13.2692 208.016C13.0939 207.471 12.9237 206.941 12.7535 206.412C11.4524 202.44 10.2186 198.455 9.07483 194.434C8.18592 191.222 7.22683 188.05 6.20374 184.879C5.01765 181.301 4.37998 177.733 3.79065 174.021C3.66543 173.228 3.54403 172.458 3.42249 171.688C-3.2026 133.085 -1.5618 88.8345 20.5153 55.2266C31.1334 39.4744 45.7598 28.1193 64.6598 24.4062C66.4325 24.1098 68.1499 23.7905 69.8912 23.3408C91.9009 17.3988 110.731 19.23 132.06 26.708C133.07 27.0636 133.071 27.0634 134.061 27.4121C145.696 31.4462 156.624 36.4754 167.125 42.9346C167.763 43.3379 168.383 43.7296 169.003 44.1211C169.593 44.4899 170.166 44.8481 170.739 45.2061C172.275 46.1862 172.275 46.1863 173.54 46.793L174.975 46.0752C175.154 45.5056 175.328 44.9522 175.502 44.3994C178.793 29.7219 184.363 16.3932 191.12 2.99121C192.075 1.10551 193.027 -0.782625 193.977 -2.6709C194.477 -3.66435 194.977 -4.65802 195.477 -5.65137C197.492 -9.62665 199.251 -13.6344 200.816 -17.8086H843.96ZM719.781 17.3633H722.652V15.9277H719.781V17.3633Z" fill="#451062"/>
<path d="M263.982 -17.0911C312.594 -17.1526 361.207 -17.2097 409.819 -17.2431C410.538 -17.2436 411.258 -17.2441 411.999 -17.2446C427.633 -17.2553 443.267 -17.2652 458.9 -17.2744C466.567 -17.2788 474.234 -17.2835 481.901 -17.2882C483.045 -17.2889 483.045 -17.2889 484.213 -17.2897C508.945 -17.305 533.678 -17.3319 558.41 -17.3649C583.825 -17.3988 609.239 -17.4209 634.653 -17.4282C638.242 -17.4292 641.831 -17.4304 645.42 -17.4316C646.126 -17.4318 646.832 -17.4321 647.56 -17.4323C658.934 -17.4366 670.308 -17.4532 681.682 -17.4745C693.115 -17.4956 704.547 -17.5037 715.98 -17.4984C722.774 -17.4957 729.567 -17.503 736.361 -17.5246C740.9 -17.5381 745.438 -17.5385 749.977 -17.5283C752.563 -17.5229 755.148 -17.5232 757.734 -17.5393C760.522 -17.5566 763.31 -17.546 766.098 -17.5327C766.897 -17.5421 767.697 -17.5516 768.52 -17.5613C774.07 -17.5016 778.08 -16.1154 782.947 -13.5021C783.688 -13.1422 784.429 -12.7823 785.193 -12.4114C789.922 -9.89895 793.967 -6.94157 798.021 -3.45301C798.908 -2.71047 798.908 -2.71047 799.812 -1.95293C810.363 7.1493 817.656 18.3143 823.144 31.0011C823.741 32.2727 824.339 33.5438 824.938 34.8144C827.241 39.8996 829.139 45.1362 831.039 50.3815C831.233 50.9143 831.427 51.447 831.627 51.9959C832.213 53.6097 832.794 55.2252 833.372 56.8417C833.637 57.5754 833.637 57.5754 833.907 58.3239C837.913 69.6375 838.513 81.2405 838.486 93.1351C838.486 93.7285 838.487 94.3219 838.487 94.9332C838.46 107.916 837.678 121.804 831.757 133.646C832.125 133.523 832.494 133.401 832.873 133.275C860.302 124.594 898.173 118.752 925.788 128.621C926.625 128.905 927.463 129.189 928.326 129.482C940.928 134.277 952.325 142.489 958.568 154.638C963.762 167.222 960.838 180.112 955.978 192.278C950.222 206.088 941.981 219.654 931.222 230.152C929.941 231.417 928.777 232.751 927.627 234.137C925.085 237.073 922.301 239.544 919.328 242.032C918.692 242.588 918.057 243.143 917.402 243.715C910.309 249.819 902.715 254.664 894.474 259.08C894.004 259.333 893.533 259.586 893.048 259.847C885.785 263.647 878.354 266.317 870.428 268.367C869.637 268.578 868.846 268.789 868.031 269.007C863.384 270.234 858.736 271.312 854.009 272.18C853.285 272.313 852.562 272.446 851.816 272.584C817.503 277.906 770.012 277.408 740.244 257.016C734.327 252.592 728.807 247.747 723.37 242.75C722.959 242.403 722.549 242.056 722.125 241.699C720.34 240.129 719.804 239.304 719.422 236.918C719.781 234.855 719.781 234.855 720.544 233.509C722.718 232.246 724.49 232.499 726.959 232.701C728.723 233.786 728.723 233.786 730.414 235.348C733.966 238.447 737.631 241.286 741.45 244.051C741.987 244.447 742.524 244.842 743.077 245.249C754.743 253.686 769.888 257.692 783.983 259.922C786.446 260.313 788.88 260.736 791.321 261.255C799.707 262.99 807.891 263.156 816.436 263.09C818.786 263.073 821.135 263.075 823.484 263.08C836.897 263.062 849.612 261.856 862.622 258.542C863.225 258.39 863.828 258.238 864.449 258.082C883.136 253.296 899.556 245.182 913.58 231.718C915.009 230.359 916.262 229.206 918.049 228.347C919.731 227.465 919.977 226.502 920.763 224.805C921.557 223.984 922.384 223.194 923.231 222.428C936.436 209.534 949.558 187.958 949.969 168.997C949.909 163.393 948.306 159.138 945.168 154.462C944.874 153.994 944.58 153.527 944.277 153.046C937.24 143.451 923.753 139.884 912.868 137.235C912.358 137.106 911.849 136.978 911.324 136.846C908.482 136.389 905.688 136.4 902.813 136.396C902.181 136.394 901.55 136.391 900.899 136.389C899.558 136.385 898.217 136.384 896.877 136.384C894.875 136.382 892.873 136.369 890.871 136.356C878.122 136.315 865.791 137.666 853.291 140.106C852.77 140.204 852.249 140.301 851.712 140.402C832.836 143.963 814.246 149.642 797.303 158.768C796.867 158.999 796.432 159.229 795.983 159.466C780.388 167.752 763.5 180.86 757.824 198.247C757.314 201.702 757.38 204.84 757.824 208.296C757.919 209.087 757.919 209.087 758.015 209.894C759.374 217.074 763.533 223.987 769.309 228.394C786.258 239.517 808.894 241.254 828.711 237.706C843.44 234.421 857.114 226.817 868.365 216.91C869.282 216.123 869.282 216.123 870.218 215.32C878.134 208.401 888.392 198.636 889.45 187.525C889.362 184.434 888.311 182.682 886.309 180.302C881.455 175.821 876.598 175.568 870.288 175.723C864.837 176.039 859.828 177.742 854.726 179.584C854.254 179.749 853.782 179.914 853.296 180.085C847.212 182.235 841.809 184.997 836.431 188.529C834.628 189.634 834.628 189.634 833.193 189.634C833.133 190.048 833.074 190.463 833.013 190.89C832.273 193.111 831.514 194.004 829.604 195.376C827.479 195.804 826.083 195.658 823.861 195.376C821.869 193.82 821.736 192.637 821.214 190.172C822.164 184.992 826.744 182.159 830.815 179.181C840.3 172.799 850.185 168.827 861.187 165.946C861.8 165.782 862.414 165.617 863.046 165.447C871.95 163.343 881.209 163.683 889.27 168.189C894.429 171.653 898.663 176.698 900.441 182.68C901.592 192.579 897.834 201.001 891.803 208.834C889.359 211.86 886.785 214.762 884.156 217.627C883.345 218.516 883.345 218.516 882.519 219.422C863.739 239.042 837.436 250.127 810.497 250.854C792.094 251.046 773.15 246.813 759.26 234.137C758.806 233.749 758.353 233.361 757.886 232.962C750.961 226.662 746.963 217.448 746.214 208.179C746.021 203.865 745.921 199.568 747.057 195.376C746.457 195.398 746.457 195.398 745.845 195.421C730.795 195.91 716.388 193.53 704.708 183.173C704.135 182.702 703.562 182.231 702.972 181.746C690.518 171.185 681.761 155.604 679.585 139.388C677.412 109.767 690.533 74.3619 709.732 51.8171C710.209 51.237 710.685 50.6568 711.176 50.0591C717.793 42.3016 725.643 37.2647 734.855 33.1545C735.681 32.7645 735.681 32.7645 736.523 32.3666C742.663 29.8522 750.756 30.0941 757.017 32.0329C761.398 33.891 764.593 36.9538 767.873 40.3324C768.27 40.7229 768.667 41.1134 769.076 41.5157C786.134 59.6306 787.066 89.0576 786.6 112.345C786.262 122.501 783.635 134.948 776.352 142.439C770.172 146.284 764.381 147.566 757.106 146.566C748.201 144.288 740.179 139.695 735.144 131.888C731.596 125.435 731.122 118.589 731.042 111.349C731.021 110.723 731 110.097 730.979 109.452C730.939 105.407 731.429 103.114 734.137 99.9093C738.376 95.8931 742.448 95.4442 748.072 95.3418C750.276 95.6513 751.244 96.1754 752.8 97.7559C753.312 101.344 753.312 101.344 752.8 103.498C750.939 105.46 749.613 106.235 747.057 107.087C745.383 107.116 743.707 107.119 742.033 107.087C742.231 118.183 742.231 118.183 746.026 128.442C748.651 130.865 751.701 132.218 754.953 133.646C755.539 133.912 756.125 134.179 756.728 134.453C760.516 135.764 764.751 135.62 768.546 134.408C774.883 128.072 775.315 116.473 775.387 108.096C775.381 107.117 775.374 106.137 775.365 105.158C775.364 104.651 775.362 104.143 775.36 103.62C775.28 88.1297 773.836 71.6084 766.303 57.7838C766.026 57.2697 765.748 56.7556 765.462 56.2259C762.512 50.9441 759.144 46.374 753.966 43.1139C745.556 41.0839 738.105 43.231 730.817 47.6449C714.951 58.435 705.912 76.239 699.79 93.9819C699.096 95.9486 698.343 97.8558 697.53 99.7747C690.714 116.62 688.2 134.874 694.703 152.185C700.555 164.783 710.203 176.071 723.37 181.02C732.585 184.334 742.322 185.512 752.082 183.891C755.29 181.837 756.233 179.367 757.824 175.995C759.034 174.486 760.225 173.088 761.548 171.689C761.883 171.329 762.218 170.97 762.563 170.6C774.296 158.239 789.476 148.698 805.199 142.259C805.621 142.083 806.044 141.907 806.479 141.726C807.935 141.121 809.392 140.522 810.851 139.926C811.557 139.635 811.557 139.635 812.277 139.337C814.343 138.505 815.87 137.952 818.119 137.952C818.409 137.054 818.409 137.054 818.705 136.138C819.45 133.953 820.26 131.808 821.103 129.659C828.882 109.635 830.365 85.3311 823.861 64.7374C823.636 63.9953 823.41 63.2533 823.177 62.4887C814.408 34.8854 802.981 9.77481 776.402 -4.2034C760.641 -12.2002 742.467 -8.6045 726.358 -3.38817C712.41 1.40736 699.262 9.07263 688.198 18.7986C687.646 19.2723 687.093 19.7461 686.524 20.2342C677.318 28.2956 668.908 36.9497 661.64 46.7926C661.16 47.4199 660.679 48.0472 660.185 48.6936C644.246 69.2856 644.246 69.2856 636.517 93.4492C637.606 94.3002 638.737 95.0976 639.882 95.8717C661.846 111.54 672.903 135.7 678.149 161.64C678.392 162.717 678.392 162.717 678.64 163.815C682.782 185.067 678.775 211.296 666.564 229.423C663.307 233.919 659.931 238.206 655.898 242.032C655.582 242.388 655.266 242.743 654.941 243.109C644.969 254.015 629.78 260.179 615.701 263.566C614.863 263.777 614.863 263.777 614.009 263.993C596.635 268.24 577.523 268.207 560.431 262.848C559.602 262.592 558.773 262.336 557.919 262.072C556.08 261.445 554.314 260.755 552.535 259.977C552.002 259.758 551.469 259.539 550.92 259.313C547.405 257.743 545.321 256.041 543.204 252.799C542.8 250.915 542.8 250.915 543.204 249.21C544.37 247.506 544.37 247.506 546.075 246.339C549.245 246.339 551.165 247.529 553.814 249.132C557.455 250.953 561.505 251.875 565.456 252.799C566.232 252.983 567.008 253.167 567.807 253.356C574.315 254.787 580.482 255.294 587.169 255.222C587.891 255.218 587.891 255.218 588.628 255.213C596.626 255.158 604.305 254.546 612.112 252.799C612.815 252.655 612.815 252.655 613.532 252.508C627.071 249.697 639.632 242.342 649.437 232.701C650.191 231.961 650.191 231.961 650.96 231.207C657.192 224.659 661.633 216.098 664.511 207.578C664.675 207.096 664.839 206.614 665.008 206.117C670.5 189.211 669.704 169.877 664.511 153.026C664.358 152.507 664.205 151.988 664.047 151.453C662.288 145.538 660.037 139.908 657.333 134.363C657.009 133.663 656.685 132.963 656.352 132.241C648.191 115.058 634.416 104.067 617.854 95.6025C617.375 95.3538 616.896 95.105 616.402 94.8486C603.937 88.4937 589.452 84.5373 575.505 83.4C574.125 83.2835 574.125 83.2835 572.718 83.1645C569.342 82.9147 565.967 82.7861 562.584 82.6822C561.857 82.6578 561.13 82.6334 560.38 82.6083C528.446 81.6699 499.688 91.1233 476.18 113.06C464.467 125.016 457.536 139.753 457.428 156.57C457.423 157.241 457.418 157.912 457.414 158.603C457.622 169.91 462.215 178.977 470.051 186.961C473.129 189.838 476.344 191.939 480.038 193.94C481.115 194.555 481.115 194.555 482.214 195.182C493.725 201.39 506.699 204.634 519.517 206.861C520.093 206.968 520.669 207.075 521.262 207.186C548.654 212.163 578.813 211.417 602.242 195.196C607.711 189.728 610.685 182.769 611.035 175.098C610.721 164.283 603.815 153.692 596.57 145.957C586.052 136.314 572.819 129.497 558.311 129.832C544.875 131.21 533.802 137.538 525.032 147.791C523.177 150.317 522.038 152.975 520.952 155.897C519.07 160.741 519.07 160.741 516.646 162.357C514.896 162.671 514.896 162.671 513.057 162.357C511.352 161.101 511.352 161.101 510.185 158.768C509.657 151.735 511.866 146.242 516.208 140.843C526.422 129.054 539.533 119.978 555.406 118.572C573.69 117.344 589.235 125.088 602.913 136.786C613.556 146.706 621.757 160.678 622.43 175.412C622.175 186.684 617.271 196.277 609.241 203.989C598.106 213.402 583.352 218.247 569.044 219.781C568.317 219.86 567.59 219.94 566.841 220.022C549.392 221.578 531.629 220.587 514.46 217.175C513.09 216.916 511.712 216.705 510.334 216.495C494.588 213.991 479.8 207.469 466.4 198.965C465.973 199.677 465.547 200.39 465.107 201.124C460.032 209.488 454.602 217.662 447.437 224.407C446.217 225.606 445.179 226.886 444.103 228.215C435.153 238.541 421.797 246.057 409.694 252.082C408.928 252.465 408.162 252.848 407.373 253.242C391.334 260.943 373.523 265.592 355.895 267.693C354.509 267.863 353.129 268.069 351.749 268.277C347.589 268.793 343.401 268.694 339.216 268.681C337.985 268.685 337.985 268.685 336.73 268.689C320.093 268.67 305.175 265.396 290.361 257.824C289.916 257.603 289.471 257.382 289.012 257.155C285.932 255.507 284.286 253.714 282.645 250.646C282.645 248.08 282.886 246.887 284.574 244.949C286.927 243.867 288.082 244.117 290.54 244.904C291.493 245.735 291.493 245.735 292.464 246.583C294.995 248.754 297.668 249.889 300.769 251.05C301.327 251.263 301.885 251.476 302.459 251.695C311.701 255.095 321.63 257.172 331.483 257.277C332.025 257.284 332.566 257.291 333.125 257.298C334.871 257.316 336.617 257.325 338.363 257.33C338.959 257.332 339.555 257.334 340.169 257.336C349.539 257.339 358.249 256.602 367.344 254.235C368.361 253.997 369.377 253.763 370.395 253.531C397.301 247.292 424.972 235.313 442.713 213.321C443.248 212.668 443.784 212.016 444.336 211.344C449.433 204.951 453.644 198.108 457.786 191.069C457.449 190.541 457.111 190.012 456.763 189.468C456.316 188.768 455.869 188.067 455.409 187.346C454.967 186.654 454.526 185.963 454.071 185.251C453.639 184.565 453.207 183.88 452.762 183.173C452.383 182.578 452.003 181.983 451.612 181.37C445.042 169.681 444.368 152.898 447.737 140.106C449.597 133.821 452.103 128.306 455.448 122.694C456.464 120.857 456.464 120.857 456.317 119.211C450.602 107.874 430.527 99.6762 419.317 95.8661C416.833 95.0803 414.332 94.4026 411.801 93.7877C410.485 93.4669 409.176 93.114 407.869 92.7594C399.467 90.7265 391.006 91.0422 382.418 91.2958C381.082 91.3291 381.082 91.3291 379.718 91.3631C359.75 92.3858 339.097 100.326 323.559 112.83C322.89 113.354 322.221 113.879 321.532 114.419C306.006 126.81 293.038 144.336 290.54 164.511C290.335 167.849 290.307 171.172 290.316 174.515C290.305 175.366 290.293 176.217 290.281 177.093C290.274 190.771 295.226 204.041 304.537 214.083C311.171 220.478 318.971 223.998 327.866 226.241C328.304 226.367 328.742 226.492 329.193 226.622C345.529 230.188 363.225 224.591 377.197 216.31C380.283 214.27 383.071 212.014 385.858 209.578C387.443 208.296 387.443 208.296 389.596 207.578C389.596 207.105 389.596 206.631 389.596 206.143C390.07 206.143 390.544 206.143 391.032 206.143C391.268 205.432 391.505 204.722 391.749 203.989C392.223 203.989 392.697 203.989 393.185 203.989C393.361 203.588 393.537 203.186 393.718 202.773C394.79 200.808 396.11 199.306 397.581 197.619C405.462 188.112 409.773 178.881 408.85 166.392C407.995 160.631 404.309 155.845 399.926 152.176C398.191 150.942 396.459 149.792 394.621 148.719C393.945 148.308 393.945 148.308 393.255 147.889C386.077 145.002 377.648 148.014 370.933 150.873C362.885 154.784 354.401 161.315 349.4 168.817C350.11 169.202 350.821 169.587 351.553 169.984C353.706 171.689 353.706 171.689 354.065 173.887C353.706 175.995 353.706 175.995 352.271 178.149C348.954 179.254 345.685 179.237 342.222 178.867C339.545 177.337 338.407 175.894 337.197 173.124C336.335 169.861 336.727 167.479 338.414 164.556C348.396 150.922 363.157 139.043 380.175 136.023C381.16 135.931 382.148 135.858 383.136 135.799C383.75 135.761 384.365 135.723 384.998 135.684C394.635 135.373 402.621 139.272 409.683 145.716C418.139 154.877 420.941 163.768 420.461 175.995C419.926 181.507 417.956 186.177 415.437 191.069C415.082 191.758 414.728 192.446 414.363 193.155C411.102 199.098 406.971 203.96 402.516 209.014C401.797 209.91 401.079 210.807 400.363 211.706C397.447 215.101 393.809 217.735 390.314 220.499C389.83 220.92 389.346 221.341 388.847 221.774C380.539 228.823 369.871 233.413 359.449 236.29C358.847 236.457 358.246 236.623 357.626 236.795C346.868 239.456 335.081 239.148 324.277 237.008C323.757 236.913 323.237 236.817 322.701 236.719C312.532 234.558 303.563 228.38 296.283 221.216C295.727 220.67 295.171 220.123 294.598 219.559C283.393 207.855 278.725 192.201 278.876 176.22C278.884 175.094 278.884 175.094 278.891 173.946C279.015 164.606 279.963 156.067 283.363 147.284C283.56 146.707 283.757 146.131 283.96 145.537C287.162 136.631 293.155 126.724 299.872 120.008C299.402 119.772 298.932 119.536 298.447 119.293C279.522 109.429 266.238 92.3937 259.786 72.1645C259.221 70.247 258.68 68.3247 258.15 66.3973C257.97 65.7528 257.789 65.1084 257.603 64.4444C257.253 63.1936 256.905 61.9422 256.559 60.6902C256.149 59.2204 255.721 57.7558 255.29 56.2921C248.573 31.8973 254.253 5.5412 263.982 -17.0911Z" fill="#DF76DC"/>
<path d="M276.185 -17.8087C293.131 -17.9429 310.077 -18.0441 327.024 -18.1062C334.892 -18.1358 342.761 -18.1762 350.629 -18.2419C357.488 -18.2991 364.346 -18.3362 371.204 -18.349C374.836 -18.3565 378.467 -18.3741 382.098 -18.4158C385.517 -18.4549 388.935 -18.4668 392.355 -18.4582C393.608 -18.4598 394.862 -18.4712 396.116 -18.4932C405.58 -18.6514 405.58 -18.6514 408.652 -16.5693C409.942 -15.1247 410.9 -13.7498 411.848 -12.0664C412.411 -11.2787 412.979 -10.4935 413.55 -9.71109C419.791 0.0105151 424.593 10.029 428.357 20.9522C428.585 21.5978 428.814 22.2435 429.049 22.9087C436.247 43.7287 437.687 66.1912 429.793 86.9892C426.212 86.2731 422.861 85.4121 419.429 84.1629C407.796 80.2366 395.288 79.8799 383.136 79.0935C383.504 77.2024 383.896 75.3476 384.395 73.4857C389.631 52.8433 384.693 29.1216 374.046 11.0134C367.134 -0.129855 359.965 -7.33644 347.695 -12.3355C340.679 -13.5452 333.271 -13.6596 327.126 -9.68866C325.925 -8.82258 324.74 -7.93393 323.559 -7.0418C323.085 -7.0418 322.612 -7.0418 322.123 -7.0418C322.123 -6.56805 322.123 -6.09431 322.123 -5.60621C321.368 -4.8956 321.368 -4.8956 320.598 -4.17062C313.081 3.09107 310.027 14.2464 309.731 24.3801C309.696 26.3995 309.688 28.418 309.694 30.4377C309.697 31.9811 309.68 33.5236 309.662 35.0669C309.622 43.7977 310.143 53.9447 316.465 60.5934C320.723 64.544 323.406 65.708 329.172 65.604C331.448 65.3879 332.614 64.8184 334.326 63.302C338.428 57.6705 338.656 51.0107 337.643 44.2636C337.279 42.5539 337.279 42.5539 336.479 40.3326C336.006 40.0957 335.532 39.8588 335.044 39.6148C335.044 39.1411 335.044 38.6673 335.044 38.1792C333.667 38.4679 333.667 38.4679 332.262 38.7624C331.746 38.8707 331.23 38.9789 330.698 39.0905C329.035 39.5596 329.035 39.5596 327.866 41.7682C327.782 43.8405 327.764 45.8462 327.821 47.9143C327.952 53.798 327.952 53.798 327.148 55.4063C324.836 54.4301 323.686 53.4882 322.348 51.3687C321.899 50.6886 321.899 50.6886 321.442 49.9948C319.125 44.5693 319.838 37.9404 319.835 32.1677C319.827 31.2609 319.818 30.3541 319.809 29.4199C319.792 18.5981 321.415 9.64247 329.147 1.67267C332.504 -1.57157 334.521 -2.88901 339.216 -3.04907C346.844 -2.7387 351.832 -0.182528 357.295 5.1607C368.402 18.0485 375.449 34.7242 375.958 51.8173C375.98 52.2937 376.003 52.7701 376.026 53.2609C376.387 61.341 375.693 68.5169 373.087 76.2223C372.839 77.0041 372.591 77.786 372.335 78.5916C370.189 81.5577 367.637 81.6541 364.159 82.2787C344.796 86.3372 325.43 94.7029 311.113 108.733C309.203 109.959 309.203 109.959 306.75 109.914C299.149 107.924 293.106 103.257 287.669 97.7561C287.133 97.2352 286.596 96.7142 286.043 96.1775C280.963 90.9462 277.474 84.7525 274.031 78.3757C273.777 77.9054 273.523 77.4352 273.261 76.9508C271.435 73.4497 270.124 69.8973 268.962 66.1283C268.778 65.5367 268.593 64.9451 268.403 64.3356C260.41 38.0329 262.481 9.54412 274.806 -15.0572C275.064 -15.5729 275.323 -16.0886 275.589 -16.6199C275.884 -17.2084 275.884 -17.2084 276.185 -17.8087Z" fill="#461062"/>
<path d="M157.749 71.9155C158.241 72.0496 158.733 72.1838 159.24 72.322C182.462 78.9327 202.856 95.4667 214.917 115.976C216.596 118.829 218.377 121.576 220.242 124.314C221.627 126.48 222.681 128.181 222.844 130.775C222.35 132.928 222.35 132.928 221.228 134.364C218.656 135.419 217.125 135.081 214.454 134.364C213.018 132.74 212.033 131.398 210.955 129.563C210.501 128.841 210.501 128.841 210.038 128.103C209.103 126.61 208.189 125.105 207.276 123.597C203.443 117.368 199.56 111.574 194.356 106.37C193.82 105.834 193.285 105.298 192.733 104.746C184.567 97.0126 175.007 91.7803 164.927 86.9891C164.226 86.619 163.526 86.2489 162.804 85.8676C160.187 84.6313 157.563 83.7991 154.788 82.9964C154.297 82.847 153.807 82.6976 153.302 82.5436C135.705 77.3843 114.724 77.9467 98.1717 86.2714C97.4962 86.5961 96.8208 86.9209 96.1249 87.2555C81.4018 94.7388 74.2137 109.592 68.7478 124.48C66.7582 131.921 66.339 139.355 66.3622 147.017C66.3644 148.576 66.3475 150.134 66.3294 151.693C66.2817 162.338 68.3491 172.315 71.6133 182.456C71.89 183.322 72.1666 184.188 72.4517 185.08C80.1607 207.879 97.5021 233.434 118.27 246.339C119.134 246.902 119.998 247.466 120.861 248.03C136.3 258.027 152.479 265.673 171.118 265.944C171.743 265.957 172.368 265.97 173.013 265.983C180.855 265.972 188.954 263.415 194.939 258.228C195.457 257.621 195.976 257.014 196.509 256.389C197.376 255.5 197.376 255.5 198.259 254.594C210.306 239.64 210.947 215.004 209.046 196.966C207.647 185.764 204.916 175.036 200.816 164.511C200.5 163.684 200.183 162.856 199.857 162.004C193.296 145.728 180.699 128.899 164.927 120.725C159.295 118.388 152.449 118.371 146.713 120.411C140.53 123.287 137.179 128.118 134.779 134.364C131.57 144.391 130.989 153.863 131.164 164.327C131.186 165.694 131.195 167.063 131.201 168.431C131.702 182.919 136.153 202.616 145.546 214.039C148.041 216.398 148.041 216.398 151.288 217C154.653 215.738 156.313 213.392 157.834 210.198C158.99 206.721 158.731 203.136 158.736 199.503C158.753 198.718 158.771 197.932 158.789 197.123C158.807 192.105 158.176 188.243 155.595 183.891C154.486 182.782 153.32 183.065 151.782 182.994C149.292 182.732 148.572 182.584 146.578 180.93C145.274 178.323 145.127 176.722 145.546 173.842C146.533 172.093 146.533 172.093 148.417 170.971C152.584 170.257 156.319 170.734 159.989 172.847C164.73 176.346 168.486 181.497 169.454 187.39C170.862 198.716 171.854 210.761 164.913 220.347C161.233 224.82 157.587 227.728 151.802 228.658C147.081 228.933 143.655 227.385 139.966 224.542C126.383 212.188 122.665 190.448 120.423 173.124C120.355 172.598 120.286 172.071 120.215 171.528C118.21 155.011 119.31 133.979 129.757 120.274C135.945 113.053 143.035 108.474 152.654 107.53C166.604 106.915 176.617 113.767 186.573 122.856C199.765 135.63 208.848 151.466 214.454 168.818C214.632 169.364 214.81 169.91 214.993 170.472C216.498 175.273 217.531 180.123 218.492 185.058C218.647 185.833 218.803 186.609 218.963 187.407C223.508 210.411 222.155 238.081 209.43 258.542C202.942 267.904 193.327 274.713 181.988 276.778C173.169 277.842 164.291 277.497 155.595 275.769C154.445 275.547 154.445 275.547 153.271 275.32C135.8 271.638 118.089 261.611 104.632 249.928C104.062 249.437 103.492 248.946 102.905 248.44C101.058 246.812 99.251 245.15 97.4539 243.468C96.7729 242.834 96.0919 242.201 95.3902 241.548C86.7108 233.282 80.0199 223.491 73.7667 213.321C73.3503 212.666 72.934 212.011 72.505 211.336C66.8162 202.075 62.2551 191.906 59.0968 181.514C58.8573 180.732 58.8573 180.732 58.6129 179.935C55.8303 170.17 54.7436 160.533 54.8233 150.414C54.8349 148.673 54.8233 146.932 54.8097 145.191C54.7791 123.339 62.8355 101.575 78.3959 85.9405C79.9206 84.5479 81.4763 83.2419 83.098 81.9646C83.4737 81.6463 83.8494 81.328 84.2364 81.0001C103.979 65.3666 134.908 65.5883 157.749 71.9155Z" fill="#DF76DC"/>
<path d="M564.486 -18.1618C565.642 -18.1579 565.642 -18.1579 566.822 -18.1538C568.149 -18.1597 568.149 -18.1597 569.503 -18.1658C570.485 -18.1556 571.467 -18.1452 572.449 -18.1345C573.482 -18.1337 574.514 -18.1341 575.547 -18.1358C578.353 -18.1366 581.159 -18.1197 583.964 -18.0997C586.896 -18.0817 589.827 -18.08 592.759 -18.0766C598.311 -18.0677 603.862 -18.0441 609.414 -18.0153C615.735 -17.9832 622.055 -17.9674 628.375 -17.953C641.378 -17.923 654.38 -17.8725 667.382 -17.8085C667.5 -16.5434 667.617 -15.2782 667.734 -14.0129C667.799 -13.3084 667.864 -12.6038 667.932 -11.8779C670.437 17.3774 670.437 17.3774 664.533 26.7956C663.036 28.4191 661.48 29.9046 659.842 31.3838C657.722 33.4638 655.979 35.858 654.193 38.2242C653.604 39.0003 653.604 39.0003 653.003 39.792C649.047 45.0672 645.356 50.5074 641.793 56.0541C641.181 57.0055 640.563 57.9537 639.938 58.8973C635.547 65.5374 632.485 72.4678 629.661 79.9127C629.38 80.6325 629.099 81.3522 628.809 82.0938C628.565 82.7432 628.32 83.3927 628.068 84.0618C627.186 85.5538 627.186 85.5538 625.739 86.1641C623.823 86.3086 622.927 85.7419 621.264 84.7911C611.373 79.5871 600.626 76.8467 589.86 74.0691C591.578 72.2712 593.059 71.3261 595.334 70.3007C605.482 65.3514 612.433 57.2306 617.854 47.5107C618.255 46.8149 618.656 46.1191 619.068 45.4022C623.553 37.1301 625.269 28.9342 625.346 19.6065C625.354 18.9926 625.361 18.3787 625.368 17.7463C625.279 11.25 623.332 5.65508 620.411 -0.0880029C619.998 -0.914279 619.584 -1.74056 619.158 -2.59187C616.258 -7.6999 612.451 -11.2812 607.132 -13.7709C603.058 -14.6024 599.818 -14.7621 595.917 -13.1877C589.047 -8.60287 583.624 -0.0499684 581.965 8.03204C581.772 10.482 581.766 12.9327 581.74 15.3894C581.719 16.0473 581.699 16.7052 581.677 17.383C581.631 22.41 582.564 26.1934 585.875 30.0629C587.026 31.2001 587.026 31.2001 589.143 31.3155C591.325 31.2005 591.325 31.2005 592.642 29.7902C593.627 27.7657 593.761 26.7759 593.449 24.5413C593.094 23.7863 592.739 23.0312 592.373 22.2533C589.914 16.7941 591.246 11.2408 593.2 5.81417C594.994 1.94076 597.627 -1.17057 600.627 -4.17046C604.158 -4.01353 606.07 -3.09532 608.523 -0.581486C614.694 7.98632 616.274 17.0387 614.983 27.4125C614.066 31.6742 612.471 35.6549 610.676 39.615C610.173 40.735 610.173 40.735 609.659 41.8777C607.171 46.8465 603.82 50.7719 599.909 54.6886C599.451 55.155 598.993 55.6213 598.522 56.1018C591.419 62.8353 582.702 65.711 573.082 65.7247C572.44 65.7423 571.798 65.7599 571.136 65.778C564.219 65.8082 558.213 63.1165 553.253 58.2776C544.636 47.9028 544.196 34.5365 545.357 21.6701C546.063 16.9703 547.385 12.511 548.946 8.03204C549.104 7.56107 549.261 7.0901 549.423 6.60486C552.042 -1.101 555.983 -8.14408 560.431 -14.9374C560.716 -15.4303 561.001 -15.9232 561.295 -16.4311C562.584 -17.8085 562.584 -17.8085 564.486 -18.1618Z" fill="#461163"/>
<path d="M489.369 -17.8086C509.266 -17.8086 529.164 -17.8086 549.664 -17.8086C548.637 -15.2413 547.574 -12.9525 546.242 -10.5509C539.978 0.762264 535.693 12.9565 535.308 25.9768C535.252 27.3703 535.252 27.3703 535.196 28.7919C534.812 42.3569 537.103 55.1767 546.299 65.6798C547.167 66.5761 548.048 67.4605 548.946 68.3267C549.665 69.0436 550.383 69.7613 551.099 70.4801C550.627 70.5303 550.155 70.5804 549.669 70.6322C532.44 72.496 516.693 75.402 500.801 82.5143C499.124 83.2216 497.604 83.7554 495.829 84.1181C482.736 67.0722 477.544 48.0705 477.66 26.7395C477.661 26.2375 477.663 25.7355 477.664 25.2182C477.696 17.8464 477.992 10.8536 480.038 3.72522C480.282 2.83695 480.526 1.94868 480.778 1.0335C482.89 -5.93108 485.844 -11.1982 489.369 -17.8086Z" fill="#461062"/>
<path d="M420.461 -17.8086C439.174 -17.8086 457.887 -17.8086 477.167 -17.8086C476.204 -14.9215 475.21 -12.303 473.963 -9.55467C464.645 11.521 464.682 40.3394 472.445 61.945C475.578 69.8725 479.206 77.6424 484.05 84.6733C485.111 86.3476 485.819 88.0027 486.498 89.8605C485.347 90.8026 484.195 91.7447 483.044 92.6868C482.323 93.279 481.602 93.8712 480.859 94.4813C479.433 95.6493 477.997 96.7964 476.547 97.9357C471.955 101.573 468.028 105.486 464.246 109.959C463.948 109.697 463.649 109.436 463.341 109.166C460.214 106.454 457.011 103.878 453.704 101.39C452.962 100.832 452.962 100.832 452.205 100.262C448.023 97.1617 443.712 94.4818 439.124 92.0139C442.103 79.9179 442.103 79.9179 443.475 76.4467C448.059 60.2506 444.623 39.5721 439.841 23.8235C439.644 23.171 439.447 22.5186 439.244 21.8464C435.213 8.7233 430.029 -2.60535 422.617 -14.1243C421.179 -16.373 421.179 -16.373 420.461 -17.8086Z" fill="#461063"/>
<path d="M678.149 -17.8086C696.388 -17.8086 714.627 -17.8086 733.419 -17.8086C733.419 -17.5717 733.419 -17.3348 733.419 -17.0908C732.531 -16.8549 732.531 -16.8549 731.625 -16.6141C712.79 -11.4429 694.925 -3.02011 680.709 10.6676C679.585 11.621 679.585 11.621 678.149 11.621C678.149 1.9092 678.149 -7.80255 678.149 -17.8086Z" fill="#481264"/>
</svg>
