<svg width="816" height="443" viewBox="0 0 816 443" fill="none" xmlns="http://www.w3.org/2000/svg">
<path d="M282.565 7.79301C317.144 -3.74328 356.974 -2.91624 390.008 13.2686C390.727 13.6272 390.728 13.627 391.433 13.9786C403.431 19.9266 415.457 26.4957 426.022 34.7657C427.147 35.6602 428.275 36.5525 429.419 37.4229C437.95 43.8613 445.438 50.7912 452.111 59.2061C452.633 59.8848 453.141 60.5435 453.648 61.2022C464.807 75.5263 470.292 93.3642 473.442 111.026C473.593 111.926 473.74 112.8 473.887 113.673H474.636C475.05 113.068 475.453 112.48 475.855 111.893C477.634 109.17 479.45 106.479 481.332 103.826C482.114 102.743 482.115 102.742 482.882 101.68C491.666 89.402 502.607 77.9949 514.788 69.0498C516.137 68.0817 517.482 67.1105 518.812 66.1162C541.707 48.9491 568.271 38.6117 596.976 38.4854C597.771 38.4833 597.772 38.4826 598.551 38.4805C601.502 38.4643 604.449 38.4882 607.4 38.5616C625.665 39.5228 644.726 45.8307 657.482 59.4805C658.265 60.3498 658.265 60.3502 659.033 61.2022C683.751 87.063 696.462 125.04 698.902 160.194C698.948 161.031 698.992 161.843 699.037 162.655C699.082 163.42 699.125 164.163 699.168 164.905C699.262 166.896 699.263 166.897 699.511 168.393C701.009 169.142 701.01 169.142 703.416 169.988C730.643 179.348 762.296 191.851 781.362 214.58C782.714 216.366 782.714 216.366 784.442 218.198C792 226.078 798.711 234.813 804.32 244.189C815.173 263.162 819.088 284.731 813.397 306.081C813.159 306.925 812.928 307.745 812.697 308.564C807.896 325.798 800.112 343.787 786.275 355.788C784.625 357.106 783.011 358.432 781.42 359.822C762.205 376.639 740.19 388.475 714.72 392.263C714.136 392.349 713.57 392.434 713.003 392.518C701.698 394.351 690.585 394.953 679.151 394.956C678.427 394.955 677.725 394.954 677.023 394.953C665.304 394.943 653.605 394.651 641.934 393.527L640.293 393.36C637.3 393.088 634.322 392.782 631.36 392.267C623.588 390.854 616.096 389.919 608.194 389.821C606.984 389.807 605.773 389.789 604.564 389.767C600.146 389.681 595.728 389.613 591.311 389.555C589.37 389.529 587.429 389.503 585.488 389.477C583.825 389.454 582.162 389.431 580.498 389.408C578.163 389.376 575.827 389.346 573.491 389.314C572.304 389.297 571.116 389.28 569.929 389.264C569.32 389.255 568.729 389.247 568.138 389.239C564.584 389.191 561.03 389.144 557.477 389.103C548.164 388.996 538.833 389.015 529.533 388.481C519.873 387.894 519.872 387.894 500.129 387.92C497.323 387.924 494.516 387.926 491.71 387.922C489.485 387.918 487.259 387.917 485.033 387.918C483.97 387.919 482.905 387.919 481.842 387.92C476.945 387.912 472.055 387.82 467.183 388.379C465.214 388.635 463.297 388.828 461.311 388.968C459.865 389.045 458.418 389.123 456.972 389.203C456.426 389.233 455.895 389.263 455.365 389.292C444.831 389.863 434.304 390.475 423.805 391.525C422.993 391.608 422.204 391.688 421.416 391.768C407.822 393.106 394.318 394.78 380.845 397.049C380.16 397.165 379.495 397.277 378.83 397.39C372.164 398.5 365.563 399.601 359.071 401.512C355.927 402.461 352.8 403.303 349.586 403.983C349.065 404.091 348.559 404.195 348.054 404.3C347.01 404.517 345.965 404.734 344.921 404.95C329.931 408.057 315.422 412.31 300.859 416.998C298.97 417.607 297.08 418.21 295.189 418.809C291.869 419.852 288.551 420.9 285.238 421.965C283.064 422.665 280.889 423.364 278.713 424.061C276.879 424.647 275.046 425.235 273.212 425.822C271.803 426.274 271.803 426.274 270.422 426.717C266.437 427.993 262.445 429.25 258.485 430.601C233.514 439.316 206.842 442.607 180.466 442.039C179.815 442.022 179.183 442.006 178.552 441.989C165.74 441.657 152.616 440.364 140.13 437.448C139.176 437.208 138.25 436.975 137.324 436.742C124.313 433.52 111.8 429.902 99.4845 424.574C97.0145 423.506 94.5605 422.508 92.0314 421.637C87.6479 419.297 83.3478 416.702 79.0558 414.001C77.3368 412.91 75.6255 411.836 73.9015 410.815C73.4346 410.377 73.1469 410.165 72.3898 409.606C71.8971 409.266 71.4188 408.934 70.9406 408.604C70.3928 408.222 69.86 407.853 69.3283 407.482C57.126 399.004 46.3432 389.643 36.3156 378.691C35.5055 377.803 34.6949 376.914 33.883 376.026C11.2829 352.029 -0.93444 324.114 0.0558362 290.926C1.00245 272.662 10.053 253.377 23.5178 240.824C24.2095 240.208 24.2096 240.207 24.8879 239.603C26.7102 237.915 28.541 236.241 30.3986 234.593C31.0734 234.003 31.729 233.429 32.384 232.856C41.4057 224.91 51.6604 218.73 62.3859 213.354C63.1331 212.982 63.1338 212.982 63.8664 212.618C76.4092 206.314 89.272 202.811 103.272 201.676C104.628 201.576 105.985 201.475 107.342 201.374C126.368 199.762 145.303 199.71 164.386 199.852C165.379 199.86 166.344 199.867 167.308 199.875C167.367 197.292 167.43 194.709 167.501 192.127C167.531 191.056 167.56 189.984 167.589 188.912C168.032 169.333 172.279 151.006 178.841 132.579C180.405 128.2 181.935 123.838 183.217 119.368C189.94 95.4191 203.661 72.9633 219.67 54.043C220.216 53.4191 220.747 52.8136 221.278 52.208C224.599 48.3968 227.908 44.6179 231.725 41.292C233.385 39.8968 235.013 38.4914 236.607 37.0196C250.141 24.4333 265.014 14.039 282.565 7.79301Z" fill="#451062"/>
<path d="M385.436 60.4527C394.433 68.5607 401.361 79.8819 405.675 91.1855C406.123 92.3523 406.123 92.3523 406.58 93.5426C410.515 104.516 413.278 116.874 413.256 128.555C413.256 129.038 413.256 129.521 413.256 130.019C413.256 131.597 413.25 133.174 413.244 134.752C413.243 135.854 413.242 136.955 413.241 138.057C413.238 140.942 413.231 143.827 413.222 146.711C413.215 149.661 413.211 152.611 413.208 155.56C413.2 161.337 413.187 167.113 413.171 172.89C413.913 172.642 414.655 172.395 415.42 172.14C417.264 172.059 419.086 172.017 420.93 172.014C421.479 172.012 422.028 172.009 422.594 172.007C423.762 172.003 424.93 172.001 426.098 172.001C427.839 172 429.579 171.986 431.319 171.972C441.664 171.932 451.797 172.905 461.941 174.998C462.556 175.122 463.172 175.247 463.806 175.375C469.798 176.635 475.592 178.412 481.383 180.386C481.462 179.653 481.541 178.921 481.623 178.166C484.456 158.61 498.109 138.926 511.366 124.917C512.182 123.968 512.994 123.015 513.802 122.059C520.388 114.549 527.524 107.869 535.538 101.911C536.836 100.942 538.118 99.9534 539.399 98.9624C555.795 86.5161 574.763 81.597 595.22 84.0352C617.194 88.6932 639.245 104.637 651.538 123.418C656.916 131.952 661.028 140.866 664.281 150.402C664.545 151.177 664.545 151.177 664.816 151.967C670.892 170.158 671.953 188.365 671.776 207.371C672.293 207.172 672.81 206.972 673.343 206.767C684.93 202.412 696.652 200.614 708.418 205.464C720.089 211.242 726.248 220.509 731.099 232.274C733.449 239.868 733.572 247.413 733.57 255.297C733.571 255.925 733.572 256.553 733.572 257.2C733.551 268.679 732.31 279.411 729.494 290.574C729.242 291.619 729.242 291.619 728.984 292.686C724.102 312.464 712.695 327.716 695.576 338.688C680.219 347.731 663.395 354.808 645.409 350.666C637.013 348.102 629.515 343.726 623.054 337.798C622.487 337.3 621.921 336.802 621.338 336.29C613.504 329.007 607.405 319.216 605.813 308.564C604.959 308.962 604.105 309.36 603.225 309.77C584.968 318.026 564.154 321.153 544.908 313.927C532.516 308.682 521.993 300.177 514.364 289.075C513.7 289.6 513.035 290.126 512.35 290.668C511.976 290.963 511.602 291.259 511.217 291.564C509.726 292.896 509.726 292.896 508.136 294.957C489.047 318.242 448.177 328.741 419.917 332.551C417.117 332.738 414.337 332.761 411.531 332.738C410.832 332.744 410.133 332.75 409.413 332.755C399.287 332.727 399.287 332.727 395.509 329.318C394.431 327.303 394.431 327.303 394.478 325.336C395.255 323.368 395.748 322.575 397.43 321.307C399.5 321.03 399.5 321.03 402.015 321.029C403.406 321.012 403.406 321.012 404.825 320.996C405.561 320.992 405.561 320.992 406.312 320.989C418.39 320.91 430.381 319.998 441.684 315.398C444.111 314.482 446.558 313.767 449.05 313.053C465.431 308.349 481.416 301.982 494.875 291.324C495.648 290.752 496.421 290.18 497.218 289.59C502.698 284.467 507.097 278.442 510.616 271.834C511.112 270.904 511.112 270.904 511.618 269.955C517.772 257.46 519.96 241.841 516.238 228.265C510.115 212.199 498.97 201.383 483.535 194.077C475.595 190.577 467.328 188.352 458.895 186.382C458.363 186.255 457.831 186.128 457.282 185.997C425.055 178.656 383.422 184.838 354.498 199.95C353.348 200.549 352.172 201.097 350.994 201.637C344.785 204.525 339.688 208.252 334.465 212.618C333.956 213.04 333.447 213.462 332.922 213.897C326.086 220.133 319.341 230.968 318.449 240.203C318.271 250.185 320.451 257.695 327.344 265.135C336.547 273.798 349.069 279.467 360.8 283.769C362.647 284.464 364.402 285.23 366.182 286.077C373.345 289.328 381.397 291.69 389.184 292.823C389.748 292.906 390.311 292.989 390.891 293.075C401.259 294.287 412.747 294.576 422.916 292.073C424.114 291.798 424.114 291.798 425.337 291.517C435.253 288.985 445.316 284.844 452.899 277.831C453.465 277.333 454.031 276.834 454.615 276.32C462.195 269.272 467.052 260.466 467.562 250.097C467.437 245.035 466.338 241.634 462.643 238.103C454.584 232.67 443.235 233.307 433.945 234.593C431.124 235.188 428.537 236.176 425.914 237.354C425.287 237.599 424.66 237.845 424.014 238.098C417.349 240.991 411.635 246.216 406.679 251.455C404.926 253.095 404.926 253.095 402.208 253.47C399.679 253.095 399.679 253.095 398.226 252.299C396.931 249.937 397.119 248.257 397.43 245.599C398.673 243.608 400.265 242.089 401.974 240.493C402.447 240.039 402.92 239.586 403.408 239.119C414.52 228.76 427.138 222.73 442.405 221.613C443.369 221.533 444.333 221.454 445.327 221.372C455.428 220.801 463.943 223.882 471.624 230.608C477.056 235.987 479.221 241.556 479.415 249.207C479.081 261.666 473.947 272.428 465.642 281.579C465.079 282.211 464.517 282.843 463.937 283.494C459.321 288.41 454.281 291.813 448.401 295.071C447.803 295.416 447.205 295.761 446.589 296.117C423.642 308.558 396.474 307.92 372.034 300.773C356.804 296.095 340.762 290.129 328.255 279.995C324.861 278.886 321.987 280.419 318.724 281.579C298.946 287.853 274.204 288.29 255.179 279.073C239.845 270.365 230.747 256.552 223.444 241.012C222.851 239.758 222.235 238.516 221.615 237.275C209.917 212.396 207.163 183.475 207.786 156.399C207.793 155.785 207.801 155.171 207.809 154.538C208.06 135.584 213.866 117.468 222.777 100.93C223.027 100.461 223.277 99.9921 223.534 99.5089C226.751 93.4995 230.36 88.1394 234.771 82.9401C235.294 82.2792 235.818 81.6183 236.358 80.9374C249.318 64.6101 267.431 50.6761 287.85 45.1683C289.43 44.7282 290.917 44.1895 292.442 43.5872C323.714 31.8059 360.581 38.3975 385.436 60.4527Z" fill="#DF76DC"/>
<path d="M374.752 65.7109C383.26 73.1214 389.022 81.6479 393.682 91.9345C394.012 92.6408 394.343 93.3472 394.683 94.0749C399.106 104.007 400.76 114.201 401.927 124.916C402.055 125.671 402.182 126.426 402.314 127.203C402.767 130.904 402.784 134.532 402.776 138.256C402.777 139.028 402.778 139.8 402.778 140.595C402.779 142.222 402.777 143.85 402.774 145.478C402.77 147.947 402.774 150.416 402.779 152.885C402.779 154.474 402.778 156.063 402.776 157.652C402.778 158.38 402.779 159.108 402.781 159.858C402.764 164.737 402.444 169.537 401.927 174.388C401.477 174.468 401.027 174.547 400.564 174.628C391.981 176.147 383.602 177.962 375.238 180.42C372.693 181.135 372.693 181.135 371.194 181.135C371.082 180.709 370.969 180.283 370.853 179.844C368.595 171.403 366.269 163.415 362.199 155.649C361.669 154.581 361.669 154.581 361.128 153.491C358.535 148.453 355.389 144.197 351.705 139.908C351.206 139.299 350.706 138.69 350.191 138.063C339.969 126.038 325.562 116.488 309.729 114.422C295.633 113.581 285.28 116.046 274.405 125.666C262.481 136.725 254.972 153.453 254.116 169.598C253.959 179.666 255.054 188.534 259.507 197.625C259.839 198.328 260.171 199.03 260.514 199.754C264.772 208.188 271.044 214.753 279.324 219.27C286.725 221.693 295.588 220.896 302.493 217.524C308.264 214.159 313.214 210.338 315.424 203.795C316.748 196.453 316.373 189.639 312.613 183.105C309.79 179.089 306.135 174.75 301.483 172.889C298.266 172.368 296.115 172.569 293.191 174.06C291.45 175.853 291.45 175.853 291.786 178.605C292.273 181.166 292.273 181.166 293.987 182.634C294.93 182.696 295.874 182.757 296.845 182.821C299.563 183.107 299.944 183.346 302.092 185.351C304.72 189.079 306.526 192.927 306.274 197.593C305.507 201.602 303.611 204.127 300.324 206.497C294.824 209.597 289.75 210.686 283.493 209.619C275.561 206.851 271.699 198.441 268.185 191.421C265.502 185.395 264.333 179.712 264.379 173.123C264.383 172.404 264.388 171.685 264.392 170.944C264.552 164.507 265.857 159.309 268.502 153.4C268.698 152.948 268.895 152.496 269.098 152.031C274.261 140.309 281.997 130.708 293.987 125.666C302.772 122.737 312.958 124.753 321.07 128.692C339.478 138.166 350.653 153.456 358.03 172.468C358.308 173.171 358.308 173.171 358.591 173.888C359.938 177.528 360.41 181.045 360.7 184.882C360.293 185.059 359.886 185.236 359.467 185.419C339.221 194.258 320.192 205.275 310.853 226.344C306.533 237.365 305.732 248.862 310.414 259.966C312.139 263.592 314.292 266.971 316.475 270.335C299.383 276.632 279.108 277.506 262.262 269.869C259.146 268.263 256.301 266.457 253.51 264.338C253.011 263.963 252.513 263.588 251.999 263.202C242.999 255.903 237.055 244.97 232.522 234.495C232.2 233.753 231.878 233.012 231.547 232.247C228.435 224.876 226.245 217.36 224.276 209.619C224.04 208.739 223.803 207.86 223.559 206.954C222.224 201.889 221.269 196.813 220.528 191.629C220.388 190.756 220.248 189.884 220.104 188.985C218.943 181.009 218.868 173.015 218.842 164.972C218.838 164.422 218.834 163.872 218.83 163.305C218.772 152.772 219.328 142.177 222.215 131.99C222.378 131.4 222.541 130.81 222.709 130.201C230.572 102.484 248.49 77.6743 273.76 63.3432C304.85 46.4501 345.822 41.7303 374.752 65.7109Z" fill="#461062"/>
<path d="M582.764 94.7928C583.431 94.7836 584.099 94.7745 584.787 94.765C604.508 94.7221 621.207 106.798 634.813 120.053C640.813 126.176 645.011 133.659 648.539 141.407C648.907 142.18 649.276 142.953 649.655 143.75C657.992 162.018 660.8 181.637 660.814 201.561C660.816 202.439 660.816 202.439 660.818 203.335C660.815 213.303 660.065 223.028 657.16 232.622C656.97 233.249 656.781 233.875 656.585 234.521C647.933 261.483 625.387 285.938 600.457 298.863C585.217 306.6 567.523 309.2 551.003 304.093C538.462 299.706 527.121 290.617 521.111 278.581C521.231 275.278 522.386 272.526 523.64 269.492C529.976 253.415 530.889 235.552 524.39 219.402C523.203 216.768 521.847 214.306 520.3 211.868C519.382 209.869 519.303 208.818 519.611 206.621C520.457 204.52 521.517 202.559 522.61 200.577C522.916 200.013 523.222 199.449 523.538 198.867C527.955 190.841 533.094 183.557 539.101 176.638C539.504 176.161 539.908 175.685 540.324 175.194C544.085 171.084 548.814 168.215 553.572 165.399C554.669 164.747 555.75 164.067 556.827 163.382C564.289 159.227 574.584 159.836 582.717 161.74C592.169 164.885 598.913 172.542 603.377 181.182C605.949 186.334 606.82 191.096 606.75 196.783C606.745 197.382 606.739 197.981 606.733 198.598C606.54 209.161 603.022 218.933 595.603 226.619C591.605 230.331 587.279 232.506 581.873 233.278C577.17 232.978 573.036 230.787 569.716 227.515C567.199 224.462 565.441 221.956 565.336 217.865C565.816 217.601 566.296 217.337 566.791 217.065C574.005 213.126 574.005 213.126 578.574 206.621C579.202 202.92 579.342 200.685 577.282 197.439C573.588 193.611 570.024 192.987 564.867 192.847C561.302 192.822 559.238 193.262 556.341 195.377C551.691 200.673 552.184 205.889 552.593 212.618C553.693 221.639 557.692 231.187 564.586 237.354C566.497 238.806 568.455 239.995 570.583 241.102C571.036 241.342 571.489 241.583 571.956 241.831C578.202 244.658 585.063 244.044 591.384 241.804C602.052 237.221 608.73 229.079 613.309 218.614C613.548 218.072 613.786 217.53 614.032 216.972C618.43 206.142 618.814 192.399 615.107 181.343C613.155 176.77 610.739 172.575 608.062 168.392C607.691 167.805 607.32 167.217 606.938 166.612C600.881 157.802 591.367 152.761 581.074 150.777C577.617 150.277 574.166 150.189 570.677 150.168C569.795 150.162 569.795 150.162 568.895 150.155C555.501 150.322 544.444 157.676 534.603 166.144C534.113 166.561 533.623 166.978 533.119 167.408C523.763 176.051 517.48 188.122 511.366 199.125C510.789 198.691 510.789 198.691 510.201 198.248C504.156 193.706 498.039 189.265 491.877 184.883C493.423 159.123 515.564 135.069 533.104 118.17C547.516 105.529 563.03 94.8069 582.764 94.7928Z" fill="#461062"/>
<path d="M155.83 237.916C156.751 237.922 157.671 237.928 158.62 237.935C173.433 238.116 186.726 239.843 198.791 249.347C200.146 250.834 200.146 250.834 201.039 252.345C200.794 257.088 200.794 257.088 198.791 259.092C195.792 259.431 194.18 259.589 191.755 257.695C191.108 257.166 190.462 256.638 189.796 256.093C187.808 255.026 187.808 255.026 185.673 254.172C184.641 253.73 184.641 253.73 183.588 253.279C175.631 250.613 168.231 249.755 159.859 249.862C158.919 249.86 157.978 249.858 157.009 249.855C148.244 249.905 139.604 250.686 131.282 253.563C130.714 253.757 130.147 253.951 129.563 254.151C120.791 257.303 113.52 262.673 106.592 268.836C105.644 269.677 105.644 269.677 104.677 270.534C92.4783 282.011 83.8492 298.935 83.077 315.782C82.708 333.507 87.6011 349.33 99.8313 362.581C112.085 374.984 131.097 383.446 148.423 383.742C176.433 383.903 198.928 372.691 219.029 353.539C219.934 352.707 219.934 352.707 220.856 351.858C227.442 345.615 232.752 337.927 236.27 329.552C236.508 328.989 236.747 328.426 236.993 327.845C239.225 321.663 239.759 314.082 237.807 307.759C236.111 304.179 234.077 301.377 231.023 298.819C230.626 298.477 230.23 298.135 229.822 297.783C216.116 286.643 198.241 283.548 181.082 283.593C180.168 283.581 179.254 283.569 178.312 283.557C166.45 283.551 154.346 286.714 145.57 295.071C138.294 302.739 137.002 312.594 137.164 322.771C137.46 330.644 140.433 337.848 145.758 343.654C150.882 348.382 155.895 349.523 162.793 349.281C166.885 348.848 169.268 347.593 172.555 345.059C174.326 343.13 174.326 343.13 173.914 340.562C173.612 339.564 173.612 339.564 173.305 338.547C170.855 337.879 169.426 337.823 166.887 338.313C164.31 338.547 164.31 338.547 162.483 337.376C160.958 334.998 160.801 333.83 161.312 331.051C163.402 328.565 165.627 326.12 168.93 325.5C174.32 325.294 177.495 326.802 181.55 330.302C185.427 334.377 186.49 338.383 186.379 343.908C185.808 347.592 183.967 350.033 181.55 352.789C181.179 353.213 180.808 353.638 180.426 354.075C174.873 359.53 167.337 361.403 159.766 361.503C150.388 361.36 143.318 357.754 136.575 351.29C127.351 341.383 124.642 328.725 125.024 315.615C125.692 303.895 129.973 293.365 138.613 285.257C151.073 274.845 165.047 271.679 180.894 271.694C181.574 271.695 182.255 271.695 182.955 271.696C189.083 271.751 194.992 272.349 201.039 273.334C201.702 273.433 202.365 273.533 203.048 273.635C215.327 275.749 228.191 281.019 237.769 289.075C238.403 289.508 239.037 289.941 239.69 290.387C245.648 295.887 250.232 303.69 250.638 311.849C250.733 330.137 243.762 345.019 231.055 357.981C230.673 358.364 230.292 358.747 229.899 359.142C228.81 360.248 227.755 361.378 226.704 362.519C212.49 377.699 193.449 388.363 173.305 393.267C172.55 393.456 171.795 393.645 171.018 393.84C155.481 397.486 139.46 396.792 124.582 391.018C124.04 390.813 123.498 390.609 122.94 390.399C103.074 382.77 86.3328 369.451 77.3586 349.791C69.86 331.818 69.2174 311.988 75.8594 293.572C77.5995 289.443 79.6971 285.502 81.856 281.579C82.2358 280.876 82.6155 280.172 83.0068 279.447C93.9985 260.097 112.511 246.797 133.495 240.358C140.919 238.42 148.177 237.854 155.83 237.916Z" fill="#DF76DC"/>
<path d="M707.344 217.139C712.544 221.152 716.624 225.959 719 232.107C719.307 232.876 719.307 232.876 719.621 233.662C724.969 248.264 723.195 264.363 720.499 279.33C720.399 279.915 720.299 280.499 720.195 281.101C717.065 298.89 709.406 315.401 694.335 326.066C688.14 330.244 681.636 334.077 674.775 337.048C673.715 337.512 673.715 337.512 672.635 337.985C663.96 341.217 652.272 341.915 643.527 338.547C631.599 332.446 621.345 322.555 616.917 309.735C616.267 306.888 615.997 304.726 616.308 301.818C617.959 300.12 617.959 300.12 620.243 298.632C621.076 298.06 621.907 297.484 622.735 296.905C623.162 296.607 623.59 296.31 624.03 296.003C627.732 293.293 630.988 289.993 634.298 286.826C634.993 286.17 635.689 285.514 636.406 284.838C640.076 281.288 643.485 277.603 646.666 273.615C647.008 273.187 647.35 272.759 647.703 272.318C649.62 269.841 651.247 267.338 652.744 264.585C657.572 255.851 657.572 255.851 661.736 254.407C669.488 254.154 676.717 256.779 682.692 261.668C687.545 266.32 688.258 271.266 688.502 277.738C688.441 282.658 687.452 286.005 684.06 289.611C680.799 292.568 677.537 294.92 673.042 295.259C671.027 295.072 671.027 295.072 670.277 294.322C670.223 293.058 670.215 291.792 670.231 290.527C670.237 289.838 670.244 289.149 670.251 288.44C670.26 287.907 670.268 287.375 670.277 286.826C668.341 286.181 667.029 285.914 665.03 285.842C664.52 285.814 664.01 285.786 663.484 285.757C661.91 285.966 661.91 285.966 660.744 287.371C659.055 290.366 659.267 293.236 659.783 296.571C661.039 300.069 662.588 302.593 665.546 304.863C672.219 306.752 678.293 305.416 684.519 302.567C692.099 297.982 696.549 291.598 698.761 283.078C700.466 274.264 698.624 266.436 694.097 258.743C687.689 249.603 677.681 246.287 667.147 244.434C666.449 244.324 665.75 244.214 665.03 244.1C665.475 240.24 666.369 236.73 667.607 233.044C669.158 228.281 670.322 223.584 671.027 218.614C682.511 214.249 695.988 210.328 707.344 217.139Z" fill="#461163"/>
</svg>
