<svg width="686" height="574" viewBox="0 0 686 574" fill="none" xmlns="http://www.w3.org/2000/svg">
<g clip-path="url(#clip0_1198_66704)">
<path d="M105.607 104.125C105.223 125.739 122.809 158.231 121.35 167.458C120.409 173.411 108.556 170.699 100.093 171.036C91.6311 171.372 54.5934 172.345 36.1192 191.381C17.645 210.417 14.4129 230.229 16.4797 250.492C18.5465 270.756 36.9439 296.689 53.1975 305.392C69.451 314.094 103.586 320.148 89.4383 324.338C77.0965 327.994 56.3454 332.259 36.3895 346.908C19.7693 359.108 8.47811 376.571 6.24683 388.157C4.99697 394.647 3.26983 409.687 15.7443 419.614C28.2189 429.541 54.339 431.276 73.5468 427.646C92.7546 424.017 153.917 389.281 124.495 416.305C112.595 427.236 104.308 440.652 104.897 456.114C105.485 471.576 109.097 481.753 119.83 493.749C130.564 505.744 139.105 511.491 152.141 513.352C165.177 515.213 182.326 513.609 199.966 506.451C217.607 499.292 228.655 485.254 246.333 475.846C249.713 474.047 253.434 473.959 253.776 476.681C254.647 483.631 240.222 510.047 249.836 533.203C259.451 556.359 271.573 566.145 293.547 568.09C315.522 570.034 343.637 564.21 356.216 539.997C368.796 515.784 368.42 492.381 378.864 492.682C390.483 493.016 402.001 524.966 420.38 536.102C438.759 547.238 463.509 544.791 476.846 539.691C490.183 534.591 504.522 521.265 509.266 498.81C514.01 476.355 494.834 452.786 510.73 447.922C514.027 446.913 532.709 458.433 538.266 460.062C555.076 464.99 582.537 466.251 607.246 454.325C631.955 442.4 650.31 431.666 659.668 411.162C669.026 390.658 671.001 376.28 666.768 358.084C662.534 339.888 647.134 319.357 630.787 308.269C614.441 297.182 581.876 296.837 581.655 286.602C581.389 274.319 602.17 284.536 648.965 263.752C695.76 242.969 686.155 203.709 669.448 176.66C652.742 149.61 621.232 147.624 593.699 152.432C566.166 157.241 538.942 174.985 514.881 184.989C508.042 187.833 506.923 179.787 511.183 175.67C528.65 158.787 549.947 149.701 562.378 135.866C574.809 122.03 580.35 100.509 574.234 85.0968C568.119 69.6844 552.468 53.8999 536.305 52.9527C520.142 52.0056 505.791 53.4752 476.891 69.893C447.991 86.3108 430.901 120.544 422.928 117.774C418.968 116.398 420.424 112.539 422.994 102.887C425.565 93.2353 428.992 80.366 429.432 59.9697C429.873 39.5734 417.462 21.2015 399.207 9.60554C380.952 -1.9904 341.577 -0.14353 315.439 18.9335C289.3 38.0104 287.494 54.5356 282.185 71.6924C277.776 85.9391 277.558 124.169 270.924 113.886C266.698 107.334 259.725 86.0604 250.817 70.0643C241.91 54.0682 229.44 39.8471 205.4 30.8762C181.36 21.9054 158.337 24.1039 135.421 39.4719C112.505 54.84 105.991 82.5124 105.607 104.125Z" fill="white" stroke="black" stroke-width="4.76571" stroke-linecap="round"/>
</g>
<path d="M228.691 297.824C227.754 297.824 226.797 297.57 225.82 297.062C224.688 296.477 224.121 295.754 224.121 294.895C224.121 294.66 227.09 289.172 233.027 278.43C231.23 276.008 228.496 272.395 224.824 267.59C223.652 266.262 221.953 264.23 219.727 261.496C216.797 257.707 215.332 254.953 215.332 253.234C215.332 252.336 215.742 251.281 216.562 250.07C217.383 248.82 218.125 248.195 218.789 248.195C219.414 248.195 220.176 248.918 221.074 250.363C221.66 251.379 222.246 252.395 222.832 253.41C227.012 260.168 231.504 266.594 236.309 272.688C240.41 265.5 243.73 259.875 246.27 255.812C247.168 254.25 248.594 251.945 250.547 248.898C251.367 247.766 252.539 247.199 254.062 247.199C256.094 247.199 257.598 247.883 258.574 249.25C258.887 249.719 259.043 250.188 259.043 250.656C259.043 251.203 258.242 252.531 256.641 254.641C255.781 255.734 254.531 257.395 252.891 259.621C245.508 269.816 239.434 279.816 234.668 289.621C234.199 290.754 233.477 292.453 232.5 294.719C231.602 296.789 230.332 297.824 228.691 297.824ZM277.031 297.883C273.828 297.883 271.387 297.766 269.707 297.531C268.184 297.336 267.207 296.652 266.777 295.48C266.035 293.527 265.625 288.254 265.547 279.66C265.469 275.363 265.371 269.484 265.254 262.023C265.137 262.062 264.98 262.082 264.785 262.082C263.887 262.082 263.203 261.477 262.734 260.266C262.344 259.719 262.148 259.074 262.148 258.332C262.148 257.199 262.48 255.988 263.145 254.699C263.73 253.566 265.527 252.434 268.535 251.301C276.934 248.293 284.766 246.867 292.031 247.023C295.234 247.102 297.617 247.629 299.18 248.605C300 249.113 300.41 250.031 300.41 251.359C300.41 252.375 300.156 253.02 299.648 253.293C299.141 253.566 298.438 253.664 297.539 253.586C293.75 253.156 289.238 253.566 284.004 254.816C279.395 255.598 275.098 257.355 271.113 260.09L271.055 266.301L271.348 270.637C274.004 269.816 277.266 269.406 281.133 269.406C282.461 269.406 283.867 269.445 285.352 269.523C287.773 269.68 290.215 270.129 292.676 270.871C295.137 271.613 297.695 273.176 300.352 275.559C303.125 278.098 304.512 280.793 304.512 283.645C304.512 288.879 300.996 292.824 293.965 295.48C289.668 297.082 284.023 297.883 277.031 297.883ZM284.121 276.086C279.98 275.695 276.27 276.73 272.988 279.191C273.223 283.996 273.496 287.941 273.809 291.027C278.184 291.379 281.953 291.555 285.117 291.555C288.281 291.164 290.84 290.715 292.793 290.207C296.699 289.27 298.652 287.258 298.652 284.172C298.262 282.219 297.363 280.676 295.957 279.543C294.551 278.41 292.891 277.551 290.977 276.965C289.102 276.379 286.816 276.086 284.121 276.086ZM317.168 275.734C317.324 280.422 317.773 285.227 318.516 290.148H319.043C322.676 290.148 326.816 289.699 331.465 288.801C333.613 288.371 337.695 287.434 343.711 285.988C344.531 285.793 345.176 285.695 345.645 285.695C347.168 285.695 347.93 286.359 347.93 287.688C347.93 288.547 347.617 289.504 346.992 290.559C346.367 291.574 345.664 292.277 344.883 292.668C341.484 294.426 337.227 295.832 332.109 296.887C327.5 297.824 323.066 298.293 318.809 298.293C317.012 298.293 315.84 298.254 315.293 298.176C313.223 297.902 312.012 295.969 311.66 292.375C311.426 290.383 311.309 287.844 311.309 284.758C311.27 282.219 311.25 279.68 311.25 277.141C309.648 276.594 308.848 275.324 308.848 273.332C308.848 271.613 309.57 270.461 311.016 269.875H311.074C311.035 269.68 311.016 269.035 311.016 267.941L310.957 263.605C310.918 262.004 310.898 260.461 310.898 258.977L310.84 255.988C310.84 254.035 311.094 252.785 311.602 252.238C312.109 251.652 313.32 251.047 315.234 250.422L322.559 248.02C325.02 247.238 327.715 246.848 330.645 246.848C334.434 246.848 336.973 246.984 338.262 247.258C339.277 247.492 340.273 248.176 341.25 249.309C342.305 250.559 342.832 251.633 342.832 252.531C342.832 253.898 341.621 254.66 339.199 254.816C333.613 255.168 329.902 255.52 328.066 255.871C325.293 256.379 321.699 257.57 317.285 259.445C317.09 262.883 316.992 265.734 316.992 268C326.055 265.383 334.824 264.074 343.301 264.074C344.746 264.074 346.211 264.328 347.695 264.836C349.766 265.578 350.801 266.652 350.801 268.059C350.801 269.152 349.473 269.836 346.816 270.109C334.434 271.359 324.551 273.234 317.168 275.734ZM363.281 284.934C363.281 284.973 363.535 286.574 364.043 289.738L364.512 293.02C364.668 294.035 364.746 294.699 364.746 295.012C364.746 295.949 364.121 296.711 362.871 297.297C361.816 297.844 360.742 298.117 359.648 298.117C358.594 298.117 357.949 297.785 357.715 297.121C357.285 295.832 356.895 285.91 356.543 267.355C355.879 266.418 355.547 265.285 355.547 263.957C355.547 262.551 356.504 260.734 358.418 258.508C361.348 255.148 364.336 252.609 367.383 250.891C371.484 248.586 375.43 247.434 379.219 247.434C383.789 247.434 387.754 248.82 391.113 251.594C394.668 254.523 396.445 258.234 396.445 262.727C396.445 269.289 392.383 274.66 384.258 278.84C378.633 281.73 371.641 283.762 363.281 284.934ZM388.887 264.543C388.887 261.73 387.402 259.387 384.434 257.512C381.816 255.91 379.004 255.109 375.996 255.109C371.66 255.109 367.227 257.375 362.695 261.906C362.578 264.367 362.52 266.828 362.52 269.289C362.52 272.219 362.598 275.168 362.754 278.137C374.473 277.785 382.031 275.754 385.43 272.043C387.734 269.504 388.887 267.004 388.887 264.543ZM439.863 293.488C439.863 294.934 438.789 295.91 436.641 296.418C436.055 296.574 435.488 296.652 434.941 296.652C433.73 296.652 432.969 296.145 432.656 295.129C432.5 294.621 432.441 293.605 432.48 292.082C432.48 290.91 432.461 286.477 432.422 278.781C429.531 281.242 426.582 283.586 423.574 285.812C414.16 293.039 408.203 296.652 405.703 296.652C404.141 296.652 403.164 296.301 402.773 295.598C402.5 295.168 402.363 294.133 402.363 292.492V289.504C402.363 286.379 402.246 282.824 402.012 278.84C401.699 273.605 401.543 270.793 401.543 270.402C401.348 265.52 401.25 262.102 401.25 260.148C401.25 256.555 401.328 253.996 401.484 252.473C401.602 251.223 402.246 250.246 403.418 249.543C404.473 248.918 405.664 248.605 406.992 248.605C408.75 248.605 409.629 249.172 409.629 250.305C409.629 251.086 409.531 252.258 409.336 253.82C409.219 254.445 409.082 255.363 408.926 256.574C408.418 260.52 408.164 265.617 408.164 271.867C408.164 281.438 408.477 286.281 409.102 286.398C409.258 286.672 409.609 286.809 410.156 286.809C411.484 286.027 414.98 283.547 420.645 279.367C425.723 275.422 429.336 272.395 431.484 270.285L431.602 268.176C431.484 264.934 431.426 262.297 431.426 260.266C431.426 256.594 431.504 253.996 431.66 252.473C431.777 251.262 432.422 250.305 433.594 249.602C434.609 248.938 435.762 248.605 437.051 248.605C438.887 248.605 439.805 249.172 439.805 250.305C439.805 251.438 439.59 253.703 439.16 257.102C439.082 257.648 439.023 258.098 438.984 258.449C438.555 262.395 438.34 267.102 438.34 272.57V274.328C438.34 275.5 438.418 277.531 438.574 280.422C438.73 283.312 438.926 285.598 439.16 287.277C439.277 288.332 439.473 289.934 439.746 292.082C439.824 292.746 439.863 293.215 439.863 293.488ZM219.141 307.199C221.836 307.395 223.262 308.195 223.418 309.602C223.574 311.164 223.789 313.508 224.062 316.633C225.117 327.57 227.363 337.863 230.801 347.512C231.387 349.074 232.246 351.418 233.379 354.543C233.613 355.246 233.691 355.715 233.613 355.949C233.535 357.16 232.363 357.668 230.098 357.473C227.793 357.355 226.367 356.359 225.82 354.484C223.711 347.102 222.129 341.125 221.074 336.555L220.957 336.145C219.98 332.395 218.594 326.75 216.797 319.211C214.57 323.781 212.5 328.586 210.586 333.625C209.258 337.18 208.301 339.777 207.715 341.418C206.699 344.387 205.898 347.121 205.312 349.621L204.551 352.785C204.355 353.762 204.004 355.09 203.496 356.77C203.027 357.629 202.422 358.117 201.68 358.234C200.664 358.391 199.629 358.117 198.574 357.414C197.402 356.633 196.855 355.734 196.934 354.719C197.012 353.547 199.688 345.988 204.961 332.043C206.406 328.137 207.871 324.211 209.355 320.266C211.309 315.109 212.949 311.281 214.277 308.781C214.941 307.531 216.562 307.004 219.141 307.199ZM277.617 353.488C277.617 354.934 276.543 355.91 274.395 356.418C273.809 356.574 273.242 356.652 272.695 356.652C271.484 356.652 270.723 356.145 270.41 355.129C270.254 354.621 270.195 353.605 270.234 352.082C270.234 350.91 270.215 346.477 270.176 338.781C267.285 341.242 264.336 343.586 261.328 345.812C251.914 353.039 245.957 356.652 243.457 356.652C241.895 356.652 240.918 356.301 240.527 355.598C240.254 355.168 240.117 354.133 240.117 352.492V349.504C240.117 346.379 240 342.824 239.766 338.84C239.453 333.605 239.297 330.793 239.297 330.402C239.102 325.52 239.004 322.102 239.004 320.148C239.004 316.555 239.082 313.996 239.238 312.473C239.355 311.223 240 310.246 241.172 309.543C242.227 308.918 243.418 308.605 244.746 308.605C246.504 308.605 247.383 309.172 247.383 310.305C247.383 311.086 247.285 312.258 247.09 313.82C246.973 314.445 246.836 315.363 246.68 316.574C246.172 320.52 245.918 325.617 245.918 331.867C245.918 341.438 246.23 346.281 246.855 346.398C247.012 346.672 247.363 346.809 247.91 346.809C249.238 346.027 252.734 343.547 258.398 339.367C263.477 335.422 267.09 332.395 269.238 330.285L269.355 328.176C269.238 324.934 269.18 322.297 269.18 320.266C269.18 316.594 269.258 313.996 269.414 312.473C269.531 311.262 270.176 310.305 271.348 309.602C272.363 308.938 273.516 308.605 274.805 308.605C276.641 308.605 277.559 309.172 277.559 310.305C277.559 311.438 277.344 313.703 276.914 317.102C276.836 317.648 276.777 318.098 276.738 318.449C276.309 322.395 276.094 327.102 276.094 332.57V334.328C276.094 335.5 276.172 337.531 276.328 340.422C276.484 343.312 276.68 345.598 276.914 347.277C277.031 348.332 277.227 349.934 277.5 352.082C277.578 352.746 277.617 353.215 277.617 353.488ZM326.074 343.41C326.074 344.152 325.488 345.012 324.316 345.988C323.379 346.652 322.461 347.316 321.562 347.98C312.695 354.387 304.609 357.59 297.305 357.59C292.539 357.59 288.809 355.93 286.113 352.609C283.652 349.523 282.422 345.539 282.422 340.656C282.422 331.281 286.074 323.352 293.379 316.867C300.41 310.578 308.672 307.434 318.164 307.434C319.492 307.434 320.391 307.551 320.859 307.785C321.562 308.176 321.914 308.957 321.914 310.129V312.004C321.914 312.785 322.129 314.016 322.559 315.695C323.027 317.336 323.262 318.312 323.262 318.625C323.262 319.406 322.578 320.246 321.211 321.145C319.844 322.043 318.75 322.492 317.93 322.492C317.188 322.492 316.562 321.633 316.055 319.914C315.859 319.016 315.527 317.707 315.059 315.988C305.957 317.355 299.082 320.734 294.434 326.125C290.254 330.969 288.164 335.5 288.164 339.719C288.164 343 289.453 345.559 292.031 347.395C294.297 349.035 297.148 349.855 300.586 349.855C303.398 349.855 306.738 349.055 310.605 347.453C311.035 347.258 313.516 345.969 318.047 343.586C321.992 341.477 324.219 340.422 324.727 340.422C325.625 340.422 326.074 341.418 326.074 343.41ZM351.738 316.047C351.426 320.5 351.27 324.719 351.27 328.703C351.27 336.477 351.758 343.41 352.734 349.504C352.93 350.441 353.164 351.809 353.438 353.605C353.516 354.23 353.555 354.66 353.555 354.895C353.555 355.637 352.949 356.32 351.738 356.945C350.684 357.492 349.629 357.766 348.574 357.766C347.363 357.766 346.66 357.375 346.465 356.594C346.309 355.93 346.211 355.012 346.172 353.84C346.172 352.004 346.172 351.086 346.172 351.086C345.703 342.727 345.391 331.496 345.234 317.395C345.742 317.395 345.664 317.512 345 317.746C344.609 317.863 343.77 318.098 342.48 318.449C341.23 318.762 340.469 318.957 340.195 319.035C336.875 320.207 335 320.793 334.57 320.793C333.398 320.793 332.461 320.227 331.758 319.094C331.172 318.117 330.879 317.004 330.879 315.754C330.879 313.605 331.738 312.16 333.457 311.418C340.02 308.645 347.129 307.258 354.785 307.258C358.34 307.258 360.742 307.395 361.992 307.668C363.516 308.02 364.844 308.605 365.977 309.426C367.383 310.441 368.086 311.633 368.086 313C368.086 314.367 366.406 315.188 363.047 315.461C360.508 315.578 356.738 315.773 351.738 316.047ZM379.98 325.539C386.23 323.859 391.836 323.02 396.797 323.02C398.281 323.02 399.727 323.098 401.133 323.254C409.297 324.191 413.379 327.961 413.379 334.562C413.379 339.094 411.602 343.527 408.047 347.863C404.492 352.199 400.488 355.227 396.035 356.945C393.379 357.961 390.664 358.469 387.891 358.469C385.195 358.469 382.676 358 380.332 357.062C377.363 355.891 375.059 354.387 373.418 352.551C372.598 351.652 372.188 350.734 372.188 349.797C372.188 348.469 372.5 347.199 373.125 345.988C373.555 323.371 373.965 311.281 374.355 309.719C374.59 308.898 375.254 308.312 376.348 307.961C377.168 307.531 378.184 307.355 379.395 307.434C380.762 307.551 381.445 308.098 381.445 309.074C381.445 310.715 381.191 314.016 380.684 318.977C380.215 323.234 379.98 325.422 379.98 325.539ZM406.582 334.855C406.582 332.59 405.371 330.832 402.949 329.582C401.66 328.723 400.039 328.293 398.086 328.293C393.789 327.902 387.676 329.172 379.746 332.102C379.59 334.914 379.512 337.844 379.512 340.891C379.512 343.547 379.57 346.105 379.688 348.566C382.617 350.324 385.488 351.203 388.301 351.203C393.105 351.203 397.832 348.82 402.48 344.055C405.605 340.852 406.973 337.785 406.582 334.855ZM426.621 355.832C426.621 355.012 427.988 353.84 430.723 352.316C432.168 351.418 434.043 350.246 436.348 348.801C438.184 347.473 439.707 346.301 440.918 345.285L445.078 342.121C443.789 342.238 442.383 342.297 440.859 342.297C436.172 342.297 432.148 341.711 428.789 340.539C422.578 338.352 419.473 334.426 419.473 328.762C419.863 323.996 421.855 319.465 425.449 315.168C428.73 311.926 432.812 309.562 437.695 308.078C440.039 307.375 442.324 307.023 444.551 307.023C450.801 306.242 456.543 308.254 461.777 313.059C462.871 314.074 463.418 315.051 463.418 315.988C463.418 316.965 463.086 318.02 462.422 319.152C461.797 320.246 461.055 321.008 460.195 321.438C460.195 322.727 460.039 328.156 459.727 337.727L459.492 344.934C459.414 350.441 459.219 353.977 458.906 355.539C458.633 356.867 457.344 357.629 455.039 357.824C452.734 358.02 451.582 357.414 451.582 356.008C451.582 355.266 451.758 353.957 452.109 352.082C452.5 347.277 452.695 344.719 452.695 344.406C448.242 348.586 443.047 352.082 437.109 354.895C432.773 357.043 430.352 358.215 429.844 358.41C427.695 357.902 426.621 357.043 426.621 355.832ZM426.27 327.648C426.27 330.344 427.656 332.629 430.43 334.504C432.07 335.402 434.824 336.047 438.691 336.438C442.715 336.438 447.383 335.559 452.695 333.801C453.281 330.559 453.574 327.824 453.574 325.598C453.965 322.98 453.691 320.227 452.754 317.336C450.176 314.992 447.266 313.82 444.023 313.82C439.648 313.43 435.234 314.973 430.781 318.449C428.164 321.301 426.66 324.367 426.27 327.648Z" fill="black"/>
<path d="M3.41485 536.605C4.91801 523.907 9.71009 517.094 11.585 515.435C16.9216 510.715 33.7066 508.847 43.7146 510.715C53.7225 512.582 57.8335 516.862 60.5742 522.211C63.3148 527.561 64 531.483 64 538.973C64 546.462 60.334 554.945 55.778 560.013C51.222 565.081 41.3299 571.028 35.3174 571C21.7962 570.937 18.2049 570.453 15.5256 568.261C12.4782 565.768 8.45589 562.817 4.55725 552.318C3.31665 548.977 2.4463 544.787 3.41485 536.605Z" fill="white" stroke="black" stroke-width="6" stroke-linecap="round"/>
<defs>
<clipPath id="clip0_1198_66704">
<rect width="683" height="571" fill="white" transform="translate(3)"/>
</clipPath>
</defs>
</svg>
