<svg width="686" height="574" viewBox="0 0 686 574" fill="none" xmlns="http://www.w3.org/2000/svg">
<g clip-path="url(#clip0_1198_66711)">
<path d="M105.607 104.125C105.223 125.739 122.809 158.231 121.35 167.458C120.409 173.411 108.556 170.699 100.093 171.036C91.6311 171.372 54.5934 172.345 36.1192 191.381C17.645 210.417 14.4129 230.229 16.4797 250.492C18.5465 270.756 36.9439 296.689 53.1975 305.392C69.451 314.094 103.586 320.148 89.4383 324.338C77.0965 327.994 56.3454 332.259 36.3895 346.908C19.7693 359.108 8.47811 376.571 6.24683 388.157C4.99697 394.647 3.26983 409.687 15.7443 419.614C28.2189 429.541 54.339 431.276 73.5468 427.646C92.7546 424.017 153.917 389.281 124.495 416.305C112.595 427.236 104.308 440.652 104.897 456.114C105.485 471.576 109.097 481.753 119.83 493.749C130.564 505.744 139.105 511.491 152.141 513.352C165.177 515.213 182.326 513.609 199.966 506.451C217.607 499.292 228.655 485.254 246.333 475.846C249.713 474.047 253.434 473.959 253.776 476.681C254.647 483.631 240.222 510.047 249.836 533.203C259.451 556.359 271.573 566.145 293.547 568.09C315.522 570.034 343.637 564.21 356.216 539.997C368.796 515.784 368.42 492.381 378.864 492.682C390.483 493.016 402.001 524.966 420.38 536.102C438.759 547.238 463.509 544.791 476.846 539.691C490.183 534.591 504.522 521.265 509.266 498.81C514.01 476.355 494.834 452.786 510.73 447.922C514.027 446.913 532.709 458.433 538.266 460.062C555.076 464.99 582.537 466.251 607.246 454.325C631.955 442.4 650.31 431.666 659.668 411.162C669.026 390.658 671.001 376.28 666.768 358.084C662.534 339.888 647.134 319.357 630.787 308.269C614.441 297.182 581.876 296.837 581.655 286.602C581.389 274.319 602.17 284.536 648.965 263.752C695.76 242.969 686.155 203.709 669.448 176.66C652.742 149.61 621.232 147.624 593.699 152.432C566.166 157.241 538.942 174.985 514.881 184.989C508.042 187.833 506.923 179.787 511.183 175.67C528.65 158.787 549.947 149.701 562.378 135.866C574.809 122.03 580.35 100.509 574.234 85.0965C568.119 69.6841 552.468 53.8996 536.305 52.9524C520.142 52.0053 505.791 53.4749 476.891 69.8927C447.991 86.3105 430.901 120.544 422.928 117.774C418.968 116.398 420.424 112.539 422.994 102.887C425.565 93.235 428.992 80.3657 429.432 59.9694C429.873 39.5731 417.462 21.2012 399.207 9.6053C380.952 -1.99064 341.577 -0.143774 315.439 18.9332C289.3 38.0101 287.494 54.5353 282.185 71.6921C277.776 85.9388 277.558 124.169 270.924 113.886C266.698 107.334 259.725 86.0601 250.817 70.064C241.91 54.0679 229.44 39.8468 205.4 30.8759C181.36 21.9051 158.337 24.1036 135.421 39.4716C112.505 54.8397 105.991 82.5121 105.607 104.125Z" fill="white" stroke="black" stroke-width="4.76571" stroke-linecap="round"/>
</g>
<path d="M237.715 269.992C237.715 277.805 234.668 284.523 228.574 290.148C222.637 295.656 215.742 298.41 207.891 298.41C202.93 298.41 198.438 297.16 194.414 294.66C190.273 292.082 187.246 288.566 185.332 284.113C184.043 281.223 183.398 278.078 183.398 274.68C183.398 266.984 186.445 260.285 192.539 254.582C198.516 248.996 205.391 246.203 213.164 246.203C219.961 246.203 225.742 248.508 230.508 253.117C235.312 257.688 237.715 263.312 237.715 269.992ZM228.867 272.746C228.867 267.316 227.148 262.629 223.711 258.684C220.117 254.582 215.645 252.531 210.293 252.531C205.02 252.531 200.547 254.602 196.875 258.742C193.398 262.688 191.66 267.355 191.66 272.746C191.66 278.176 193.398 282.844 196.875 286.75C200.508 290.812 205 292.844 210.352 292.844C215.625 292.844 220.059 290.793 223.652 286.691C227.129 282.746 228.867 278.098 228.867 272.746ZM263.32 256.047C263.008 260.5 262.852 264.719 262.852 268.703C262.852 276.477 263.34 283.41 264.316 289.504C264.512 290.441 264.746 291.809 265.02 293.605C265.098 294.23 265.137 294.66 265.137 294.895C265.137 295.637 264.531 296.32 263.32 296.945C262.266 297.492 261.211 297.766 260.156 297.766C258.945 297.766 258.242 297.375 258.047 296.594C257.891 295.93 257.793 295.012 257.754 293.84C257.754 292.004 257.754 291.086 257.754 291.086C257.285 282.727 256.973 271.496 256.816 257.395C257.324 257.395 257.246 257.512 256.582 257.746C256.191 257.863 255.352 258.098 254.062 258.449C252.812 258.762 252.051 258.957 251.777 259.035C248.457 260.207 246.582 260.793 246.152 260.793C244.98 260.793 244.043 260.227 243.34 259.094C242.754 258.117 242.461 257.004 242.461 255.754C242.461 253.605 243.32 252.16 245.039 251.418C251.602 248.645 258.711 247.258 266.367 247.258C269.922 247.258 272.324 247.395 273.574 247.668C275.098 248.02 276.426 248.605 277.559 249.426C278.965 250.441 279.668 251.633 279.668 253C279.668 254.367 277.988 255.188 274.629 255.461C272.09 255.578 268.32 255.773 263.32 256.047ZM323.672 252.004C323.672 252.004 322.441 253.234 319.98 255.695C318.105 257.57 315.762 259.816 312.949 262.434C311.816 263.488 310.84 264.406 310.02 265.188L308.496 266.711L302.285 272.57C300.332 274.406 298.535 276.145 296.895 277.785C303.262 282.629 310.254 286.789 317.871 290.266C318.535 290.5 319.531 290.891 320.859 291.438C322.07 292.062 322.676 292.551 322.676 292.902C322.676 293.684 321.855 294.426 320.215 295.129C318.77 295.793 317.559 296.125 316.582 296.125C315.918 296.125 311.562 294.758 303.516 292.023C299.023 290.5 295.098 288.41 291.738 285.754C291.738 285.988 291.797 286.457 291.914 287.16L292.207 289.445C292.52 291.633 292.676 292.98 292.676 293.488C292.676 294.543 292.109 295.363 290.977 295.949C290.039 296.457 289.004 296.711 287.871 296.711C286.426 296.711 285.605 295.793 285.41 293.957C285.293 293.176 285.254 292.336 285.293 291.438C285.332 290.148 285.352 289.289 285.352 288.859L284.648 270.168C284.492 264.582 284.414 259.621 284.414 255.285V253.586C284.414 253.195 284.434 252.824 284.473 252.473C284.59 251.262 285.254 250.285 286.465 249.543C287.52 248.918 288.711 248.605 290.039 248.605C291.758 248.605 292.617 249.172 292.617 250.305C292.617 250.656 292.578 251.223 292.5 252.004L292.266 254.465C292.148 255.246 292.012 256.398 291.855 257.922C291.426 263.781 291.211 268.742 291.211 272.805L291.27 272.922L291.387 272.98C298.574 266.301 305.84 259.816 313.184 253.527C315.957 251.145 318.223 249.953 319.98 249.953C322.441 249.953 323.672 250.637 323.672 252.004ZM336.152 284.934C336.152 284.973 336.406 286.574 336.914 289.738L337.383 293.02C337.539 294.035 337.617 294.699 337.617 295.012C337.617 295.949 336.992 296.711 335.742 297.297C334.688 297.844 333.613 298.117 332.52 298.117C331.465 298.117 330.82 297.785 330.586 297.121C330.156 295.832 329.766 285.91 329.414 267.355C328.75 266.418 328.418 265.285 328.418 263.957C328.418 262.551 329.375 260.734 331.289 258.508C334.219 255.148 337.207 252.609 340.254 250.891C344.355 248.586 348.301 247.434 352.09 247.434C356.66 247.434 360.625 248.82 363.984 251.594C367.539 254.523 369.316 258.234 369.316 262.727C369.316 269.289 365.254 274.66 357.129 278.84C351.504 281.73 344.512 283.762 336.152 284.934ZM361.758 264.543C361.758 261.73 360.273 259.387 357.305 257.512C354.688 255.91 351.875 255.109 348.867 255.109C344.531 255.109 340.098 257.375 335.566 261.906C335.449 264.367 335.391 266.828 335.391 269.289C335.391 272.219 335.469 275.168 335.625 278.137C347.344 277.785 354.902 275.754 358.301 272.043C360.605 269.504 361.758 267.004 361.758 264.543ZM428.438 269.992C428.438 277.805 425.391 284.523 419.297 290.148C413.359 295.656 406.465 298.41 398.613 298.41C393.652 298.41 389.16 297.16 385.137 294.66C380.996 292.082 377.969 288.566 376.055 284.113C374.766 281.223 374.121 278.078 374.121 274.68C374.121 266.984 377.168 260.285 383.262 254.582C389.238 248.996 396.113 246.203 403.887 246.203C410.684 246.203 416.465 248.508 421.23 253.117C426.035 257.688 428.438 263.312 428.438 269.992ZM419.59 272.746C419.59 267.316 417.871 262.629 414.434 258.684C410.84 254.582 406.367 252.531 401.016 252.531C395.742 252.531 391.27 254.602 387.598 258.742C384.121 262.688 382.383 267.355 382.383 272.746C382.383 278.176 384.121 282.844 387.598 286.75C391.23 290.812 395.723 292.844 401.074 292.844C406.348 292.844 410.781 290.793 414.375 286.691C417.852 282.746 419.59 278.098 419.59 272.746ZM451.992 254.934C451.172 254.934 450.41 254.699 449.707 254.23C449.004 253.762 448.652 253.137 448.652 252.355C448.652 251.379 449.16 249.797 450.176 247.609C450.918 246.047 451.66 244.465 452.402 242.863C452.91 241.34 453.828 239.113 455.156 236.184C455.82 234.973 456.816 234.367 458.145 234.367C459.121 234.367 460.02 234.602 460.84 235.07C461.855 235.617 462.363 236.34 462.363 237.238C462.363 237.512 461.152 240.09 458.73 244.973C457.832 246.926 456.387 249.719 454.395 253.352C453.73 254.406 452.93 254.934 451.992 254.934ZM471.797 293.488C471.797 294.934 470.723 295.91 468.574 296.418C467.988 296.574 467.422 296.652 466.875 296.652C465.664 296.652 464.902 296.145 464.59 295.129C464.434 294.621 464.375 293.605 464.414 292.082C464.414 290.91 464.395 286.477 464.355 278.781C461.465 281.242 458.516 283.586 455.508 285.812C446.094 293.039 440.137 296.652 437.637 296.652C436.074 296.652 435.098 296.301 434.707 295.598C434.434 295.168 434.297 294.133 434.297 292.492V289.504C434.297 286.379 434.18 282.824 433.945 278.84C433.633 273.605 433.477 270.793 433.477 270.402C433.281 265.52 433.184 262.102 433.184 260.148C433.184 256.555 433.262 253.996 433.418 252.473C433.535 251.223 434.18 250.246 435.352 249.543C436.406 248.918 437.598 248.605 438.926 248.605C440.684 248.605 441.562 249.172 441.562 250.305C441.562 251.086 441.465 252.258 441.27 253.82C441.152 254.445 441.016 255.363 440.859 256.574C440.352 260.52 440.098 265.617 440.098 271.867C440.098 281.438 440.41 286.281 441.035 286.398C441.191 286.672 441.543 286.809 442.09 286.809C443.418 286.027 446.914 283.547 452.578 279.367C457.656 275.422 461.27 272.395 463.418 270.285L463.535 268.176C463.418 264.934 463.359 262.297 463.359 260.266C463.359 256.594 463.438 253.996 463.594 252.473C463.711 251.262 464.355 250.305 465.527 249.602C466.543 248.938 467.695 248.605 468.984 248.605C470.82 248.605 471.738 249.172 471.738 250.305C471.738 251.438 471.523 253.703 471.094 257.102C471.016 257.648 470.957 258.098 470.918 258.449C470.488 262.395 470.273 267.102 470.273 272.57V274.328C470.273 275.5 470.352 277.531 470.508 280.422C470.664 283.312 470.859 285.598 471.094 287.277C471.211 288.332 471.406 289.934 471.68 292.082C471.758 292.746 471.797 293.215 471.797 293.488ZM210.82 354.367C209.805 351.75 209.297 349.797 209.297 348.508C209.297 346.281 211.035 344.797 214.512 344.055C217.051 343.508 219.004 342.16 220.371 340.012C223.496 335.754 227.676 327.434 232.91 315.051L235.723 308.664C236.816 306.633 238.066 305.578 239.473 305.5C242.09 305.305 243.75 306.301 244.453 308.488C247.422 319.465 249.863 327.395 251.777 332.277C253.73 337.16 254.941 340.051 255.41 340.949C257.715 340.793 258.926 340.715 259.043 340.715L261.68 340.539C264.297 340.734 265.605 341.535 265.605 342.941C265.605 344.27 265.547 345.266 265.43 345.93C264.18 349.484 262.539 353.527 260.508 358.059C259.961 358.488 258.984 358.898 257.578 359.289C257.031 359.289 256.426 359.387 255.762 359.582C254.199 359.504 253.32 359.113 253.125 358.41C252.891 357.512 253.535 355.812 255.059 353.312C256.035 351.711 256.641 350.52 256.875 349.738C256.953 349.348 256.895 349.074 256.699 348.918C256.504 348.723 256.152 348.664 255.645 348.742C252.676 348.781 249.16 348.938 245.098 349.211C241.035 349.484 236.855 349.816 232.559 350.207C228.105 350.285 223.965 350.598 220.137 351.145C219.16 351.262 218.613 351.535 218.496 351.965C218.418 352.277 218.496 352.863 218.73 353.723C218.77 353.879 219.102 354.68 219.727 356.125C220.156 357.141 220.371 357.902 220.371 358.41C220.371 359.816 219.316 360.852 217.207 361.516C215.996 361.906 215.059 362.023 214.395 361.867C213.145 361.555 212.266 360.266 211.758 358C211.484 356.945 211.172 355.734 210.82 354.367ZM226.934 342.414C230.684 342.297 235.215 342.121 240.527 341.887C242.363 341.691 244.512 341.438 246.973 341.125C244.824 333.156 242.266 325.051 239.297 316.809C236.602 322.395 232.48 330.93 226.934 342.414ZM281.66 357.883C278.457 357.883 276.016 357.785 274.336 357.59C272.812 357.395 271.836 356.789 271.406 355.773C270.664 354.094 270.254 349.66 270.176 342.473C270.098 338.879 270 334.289 269.883 328.703C269.766 328.742 269.609 328.762 269.414 328.762C268.516 328.762 267.832 328.215 267.363 327.121C266.973 326.262 266.777 325.324 266.777 324.309C266.777 323.137 267.109 322.043 267.773 321.027C267.93 320.793 268.652 319.895 269.941 318.332C272.91 314.738 275.82 312.102 278.672 310.422C281.992 308.469 285.742 307.492 289.922 307.492C294.766 307.492 298.691 308.703 301.699 311.125C304.98 313.742 306.621 317.414 306.621 322.141C306.621 326.906 303.496 331.145 297.246 334.855C300.137 335.637 302.715 336.965 304.98 338.84C307.754 341.105 309.141 343.527 309.141 346.105C309.141 350.129 305.625 353.332 298.594 355.715C294.297 357.16 288.652 357.883 281.66 357.883ZM300.879 322.785C300.879 320.363 299.453 318.41 296.602 316.926C294.141 315.637 291.621 314.992 289.043 314.992C284.707 314.992 280.371 317.219 276.035 321.672C275.957 324.016 275.918 326.379 275.918 328.762V331.633C275.918 332.609 275.938 333.586 275.977 334.562C287.109 334.211 294.297 332.414 297.539 329.172C299.766 326.945 300.879 324.816 300.879 322.785ZM287.578 339.895C283.438 339.895 279.727 341.105 276.445 343.527C276.68 345.91 276.953 348.234 277.266 350.5C281.641 350.812 285.41 350.969 288.574 350.969C291.738 350.969 294.492 350.754 296.836 350.324C301.133 349.543 303.281 348.176 303.281 346.223C303.281 344.23 301.094 342.609 296.719 341.359C293.32 340.383 290.273 339.895 287.578 339.895ZM322.207 335.734C322.363 340.422 322.812 345.227 323.555 350.148H324.082C327.715 350.148 331.855 349.699 336.504 348.801C338.652 348.371 342.734 347.434 348.75 345.988C349.57 345.793 350.215 345.695 350.684 345.695C352.207 345.695 352.969 346.359 352.969 347.688C352.969 348.547 352.656 349.504 352.031 350.559C351.406 351.574 350.703 352.277 349.922 352.668C346.523 354.426 342.266 355.832 337.148 356.887C332.539 357.824 328.105 358.293 323.848 358.293C322.051 358.293 320.879 358.254 320.332 358.176C318.262 357.902 317.051 355.969 316.699 352.375C316.465 350.383 316.348 347.844 316.348 344.758C316.309 342.219 316.289 339.68 316.289 337.141C314.688 336.594 313.887 335.324 313.887 333.332C313.887 331.613 314.609 330.461 316.055 329.875H316.113C316.074 329.68 316.055 329.035 316.055 327.941L315.996 323.605C315.957 322.004 315.938 320.461 315.938 318.977L315.879 315.988C315.879 314.035 316.133 312.785 316.641 312.238C317.148 311.652 318.359 311.047 320.273 310.422L327.598 308.02C330.059 307.238 332.754 306.848 335.684 306.848C339.473 306.848 342.012 306.984 343.301 307.258C344.316 307.492 345.312 308.176 346.289 309.309C347.344 310.559 347.871 311.633 347.871 312.531C347.871 313.898 346.66 314.66 344.238 314.816C338.652 315.168 334.941 315.52 333.105 315.871C330.332 316.379 326.738 317.57 322.324 319.445C322.129 322.883 322.031 325.734 322.031 328C331.094 325.383 339.863 324.074 348.34 324.074C349.785 324.074 351.25 324.328 352.734 324.836C354.805 325.578 355.84 326.652 355.84 328.059C355.84 329.152 354.512 329.836 351.855 330.109C339.473 331.359 329.59 333.234 322.207 335.734ZM368.32 344.934C368.32 344.973 368.574 346.574 369.082 349.738L369.551 353.02C369.707 354.035 369.785 354.699 369.785 355.012C369.785 355.949 369.16 356.711 367.91 357.297C366.855 357.844 365.781 358.117 364.688 358.117C363.633 358.117 362.988 357.785 362.754 357.121C362.324 355.832 361.934 345.91 361.582 327.355C360.918 326.418 360.586 325.285 360.586 323.957C360.586 322.551 361.543 320.734 363.457 318.508C366.387 315.148 369.375 312.609 372.422 310.891C376.523 308.586 380.469 307.434 384.258 307.434C388.828 307.434 392.793 308.82 396.152 311.594C399.707 314.523 401.484 318.234 401.484 322.727C401.484 329.289 397.422 334.66 389.297 338.84C383.672 341.73 376.68 343.762 368.32 344.934ZM393.926 324.543C393.926 321.73 392.441 319.387 389.473 317.512C386.855 315.91 384.043 315.109 381.035 315.109C376.699 315.109 372.266 317.375 367.734 321.906C367.617 324.367 367.559 326.828 367.559 329.289C367.559 332.219 367.637 335.168 367.793 338.137C379.512 337.785 387.07 335.754 390.469 332.043C392.773 329.504 393.926 327.004 393.926 324.543ZM414.258 325.539C420.508 323.859 426.113 323.02 431.074 323.02C432.559 323.02 434.004 323.098 435.41 323.254C443.574 324.191 447.656 327.961 447.656 334.562C447.656 339.094 445.879 343.527 442.324 347.863C438.77 352.199 434.766 355.227 430.312 356.945C427.656 357.961 424.941 358.469 422.168 358.469C419.473 358.469 416.953 358 414.609 357.062C411.641 355.891 409.336 354.387 407.695 352.551C406.875 351.652 406.465 350.734 406.465 349.797C406.465 348.469 406.777 347.199 407.402 345.988C407.832 323.371 408.242 311.281 408.633 309.719C408.867 308.898 409.531 308.312 410.625 307.961C411.445 307.531 412.461 307.355 413.672 307.434C415.039 307.551 415.723 308.098 415.723 309.074C415.723 310.715 415.469 314.016 414.961 318.977C414.492 323.234 414.258 325.422 414.258 325.539ZM440.859 334.855C440.859 332.59 439.648 330.832 437.227 329.582C435.938 328.723 434.316 328.293 432.363 328.293C428.066 327.902 421.953 329.172 414.023 332.102C413.867 334.914 413.789 337.844 413.789 340.891C413.789 343.547 413.848 346.105 413.965 348.566C416.895 350.324 419.766 351.203 422.578 351.203C427.383 351.203 432.109 348.82 436.758 344.055C439.883 340.852 441.25 337.785 440.859 334.855Z" fill="black"/>
<path d="M3.41485 536.605C4.91801 523.907 9.71009 517.094 11.585 515.435C16.9216 510.715 33.7066 508.847 43.7146 510.715C53.7225 512.582 57.8335 516.862 60.5742 522.211C63.3148 527.561 64 531.483 64 538.973C64 546.462 60.334 554.945 55.778 560.013C51.222 565.081 41.3299 571.028 35.3174 571C21.7962 570.937 18.2049 570.453 15.5256 568.261C12.4782 565.768 8.45589 562.817 4.55725 552.318C3.31665 548.977 2.4463 544.787 3.41485 536.605Z" fill="white" stroke="black" stroke-width="6" stroke-linecap="round"/>
<defs>
<clipPath id="clip0_1198_66711">
<rect width="683" height="571" fill="white" transform="translate(3)"/>
</clipPath>
</defs>
</svg>
