<svg width="686" height="574" viewBox="0 0 686 574" fill="none" xmlns="http://www.w3.org/2000/svg">
<g clip-path="url(#clip0_1161_66681)">
<path d="M105.607 104.125C105.223 125.739 122.809 158.231 121.35 167.458C120.409 173.411 108.556 170.699 100.093 171.036C91.6311 171.372 54.5934 172.345 36.1192 191.381C17.645 210.417 14.4129 230.229 16.4797 250.492C18.5465 270.756 36.9439 296.689 53.1975 305.392C69.451 314.094 103.586 320.148 89.4383 324.338C77.0965 327.994 56.3454 332.259 36.3895 346.908C19.7693 359.108 8.47811 376.571 6.24683 388.157C4.99697 394.647 3.26983 409.687 15.7443 419.614C28.2189 429.541 54.339 431.276 73.5468 427.646C92.7546 424.017 153.917 389.281 124.495 416.305C112.595 427.236 104.308 440.652 104.897 456.114C105.485 471.576 109.097 481.753 119.83 493.749C130.564 505.744 139.105 511.491 152.141 513.352C165.177 515.213 182.326 513.609 199.966 506.451C217.607 499.292 228.655 485.254 246.333 475.846C249.713 474.047 253.434 473.959 253.776 476.681C254.647 483.631 240.222 510.047 249.836 533.203C259.451 556.359 271.573 566.145 293.547 568.09C315.522 570.034 343.637 564.21 356.216 539.997C368.796 515.784 368.42 492.381 378.864 492.682C390.483 493.016 402.001 524.966 420.38 536.102C438.759 547.238 463.509 544.791 476.846 539.691C490.183 534.591 504.522 521.265 509.266 498.81C514.01 476.355 494.834 452.786 510.73 447.922C514.027 446.913 532.709 458.433 538.266 460.062C555.076 464.99 582.537 466.251 607.246 454.325C631.955 442.4 650.31 431.666 659.668 411.162C669.026 390.658 671.001 376.28 666.768 358.084C662.534 339.888 647.134 319.357 630.787 308.269C614.441 297.182 581.876 296.837 581.655 286.602C581.389 274.319 602.17 284.536 648.965 263.752C695.76 242.969 686.155 203.709 669.448 176.66C652.742 149.61 621.232 147.624 593.699 152.432C566.166 157.241 538.942 174.985 514.881 184.989C508.042 187.833 506.923 179.787 511.183 175.67C528.65 158.787 549.947 149.701 562.378 135.866C574.809 122.03 580.35 100.509 574.234 85.0968C568.119 69.6844 552.468 53.8999 536.305 52.9527C520.142 52.0056 505.791 53.4752 476.891 69.893C447.991 86.3108 430.901 120.544 422.928 117.774C418.968 116.398 420.424 112.539 422.994 102.887C425.565 93.2353 428.992 80.366 429.432 59.9697C429.873 39.5734 417.462 21.2015 399.207 9.60554C380.952 -1.9904 341.577 -0.14353 315.439 18.9335C289.3 38.0104 287.494 54.5356 282.185 71.6924C277.776 85.9391 277.558 124.169 270.924 113.886C266.698 107.334 259.725 86.0604 250.817 70.0643C241.91 54.0682 229.44 39.8471 205.4 30.8762C181.36 21.9054 158.337 24.1039 135.421 39.4719C112.505 54.84 105.991 82.5124 105.607 104.125Z" fill="white" stroke="black" stroke-width="4.76571" stroke-linecap="round"/>
</g>
<path d="M244.424 262.375C244.424 263.312 243.896 264.074 242.842 264.66C241.826 265.246 240.732 265.539 239.561 265.539C237.842 265.539 236.982 264.191 236.982 261.496C236.982 260.949 236.963 260.109 236.924 258.977C236.885 257.805 236.865 256.926 236.865 256.34V253.645C236.865 253.254 236.709 249.309 236.396 241.809C228.154 242.941 220.85 244.699 214.482 247.082C214.678 251.926 215.01 255.793 215.479 258.684L215.596 259.387C215.596 259.504 215.674 259.934 215.83 260.676C215.986 261.418 216.084 261.848 216.123 261.965C216.396 263.957 216.533 265.051 216.533 265.246C216.533 266.027 215.908 266.711 214.658 267.297C213.604 267.844 212.588 268.117 211.611 268.117C210.244 268.117 209.443 267.219 209.209 265.422C209.17 264.289 209.111 262.609 209.033 260.383C208.721 256.594 208.271 250.91 207.686 243.332C207.217 236.73 206.982 231.047 206.982 226.281V223.996C206.982 222.824 207.627 221.867 208.916 221.125C210.088 220.422 211.299 220.07 212.549 220.07C214.229 220.07 215.068 220.734 215.068 222.062C215.068 222.297 215.049 222.668 215.01 223.176L214.893 224.816C214.502 230.285 214.307 235.109 214.307 239.289C221.533 236.945 228.838 235.559 236.221 235.129L236.104 222.473C236.299 220.754 236.768 219.543 237.51 218.84C238.682 217.941 240.205 217.492 242.08 217.492C243.604 217.492 244.365 218.039 244.365 219.133C244.365 219.719 244.17 222.023 243.779 226.047L243.311 230.969C243.154 232.609 243.057 233.977 243.018 235.07C243.994 235.305 244.951 235.773 245.889 236.477C247.021 237.336 247.588 238.195 247.588 239.055C247.588 240.344 246.025 240.988 242.9 240.988V242.688C242.9 248.938 243.154 253.645 243.662 256.809C243.779 257.395 243.916 258.234 244.072 259.328L244.307 261.145C244.385 261.73 244.424 262.141 244.424 262.375ZM298.975 261.203C298.975 262.258 298.428 263.215 297.334 264.074C296.279 264.934 295.186 265.363 294.053 265.363C293.037 265.363 292.08 264.406 291.182 262.492C290.752 261.359 289.658 259.309 287.9 256.34C281.26 257.355 272.783 258.664 262.471 260.266C260.322 265.461 258.721 268.059 257.666 268.059C256.572 268.059 255.518 267.414 254.502 266.125C253.486 264.836 252.979 263.605 252.979 262.434C252.979 261.926 253.486 260.871 254.502 259.27C255.01 258.488 255.752 257.277 256.729 255.637C260.088 249.895 264.385 240.129 269.619 226.34C270.361 224.387 271.143 222.219 271.963 219.836C272.666 217.805 274.189 216.789 276.533 216.789C277.822 216.789 278.896 217.746 279.756 219.66C280.225 221.105 280.967 223.254 281.982 226.105C286.201 237.238 290.635 246.691 295.283 254.465C296.064 255.637 297.158 257.453 298.564 259.914C298.838 260.461 298.975 260.891 298.975 261.203ZM284.678 248.898C282.334 243.117 279.463 235.93 276.064 227.336C274.307 231.359 272.393 236.008 270.322 241.281L265.986 252.355C272.666 251.613 278.896 250.461 284.678 248.898ZM322.295 224.934C321.475 224.934 320.713 224.699 320.01 224.23C319.307 223.762 318.955 223.137 318.955 222.355C318.955 221.379 319.463 219.797 320.479 217.609C321.221 216.047 321.963 214.465 322.705 212.863C323.213 211.34 324.131 209.113 325.459 206.184C326.123 204.973 327.119 204.367 328.447 204.367C329.424 204.367 330.322 204.602 331.143 205.07C332.158 205.617 332.666 206.34 332.666 207.238C332.666 207.512 331.455 210.09 329.033 214.973C328.135 216.926 326.689 219.719 324.697 223.352C324.033 224.406 323.232 224.934 322.295 224.934ZM342.1 263.488C342.1 264.934 341.025 265.91 338.877 266.418C338.291 266.574 337.725 266.652 337.178 266.652C335.967 266.652 335.205 266.145 334.893 265.129C334.736 264.621 334.678 263.605 334.717 262.082C334.717 260.91 334.697 256.477 334.658 248.781C331.768 251.242 328.818 253.586 325.811 255.812C316.396 263.039 310.439 266.652 307.939 266.652C306.377 266.652 305.4 266.301 305.01 265.598C304.736 265.168 304.6 264.133 304.6 262.492V259.504C304.6 256.379 304.482 252.824 304.248 248.84C303.936 243.605 303.779 240.793 303.779 240.402C303.584 235.52 303.486 232.102 303.486 230.148C303.486 226.555 303.564 223.996 303.721 222.473C303.838 221.223 304.482 220.246 305.654 219.543C306.709 218.918 307.9 218.605 309.229 218.605C310.986 218.605 311.865 219.172 311.865 220.305C311.865 221.086 311.768 222.258 311.572 223.82C311.455 224.445 311.318 225.363 311.162 226.574C310.654 230.52 310.4 235.617 310.4 241.867C310.4 251.438 310.713 256.281 311.338 256.398C311.494 256.672 311.846 256.809 312.393 256.809C313.721 256.027 317.217 253.547 322.881 249.367C327.959 245.422 331.572 242.395 333.721 240.285L333.838 238.176C333.721 234.934 333.662 232.297 333.662 230.266C333.662 226.594 333.74 223.996 333.896 222.473C334.014 221.262 334.658 220.305 335.83 219.602C336.846 218.938 337.998 218.605 339.287 218.605C341.123 218.605 342.041 219.172 342.041 220.305C342.041 221.438 341.826 223.703 341.396 227.102C341.318 227.648 341.26 228.098 341.221 228.449C340.791 232.395 340.576 237.102 340.576 242.57V244.328C340.576 245.5 340.654 247.531 340.811 250.422C340.967 253.312 341.162 255.598 341.396 257.277C341.514 258.332 341.709 259.934 341.982 262.082C342.061 262.746 342.1 263.215 342.1 263.488ZM349.541 264.367C348.525 261.75 348.018 259.797 348.018 258.508C348.018 256.281 349.756 254.797 353.232 254.055C355.771 253.508 357.725 252.16 359.092 250.012C362.217 245.754 366.396 237.434 371.631 225.051L374.443 218.664C375.537 216.633 376.787 215.578 378.193 215.5C380.811 215.305 382.471 216.301 383.174 218.488C386.143 229.465 388.584 237.395 390.498 242.277C392.451 247.16 393.662 250.051 394.131 250.949C396.436 250.793 397.646 250.715 397.764 250.715L400.4 250.539C403.018 250.734 404.326 251.535 404.326 252.941C404.326 254.27 404.268 255.266 404.15 255.93C402.9 259.484 401.26 263.527 399.229 268.059C398.682 268.488 397.705 268.898 396.299 269.289C395.752 269.289 395.146 269.387 394.482 269.582C392.92 269.504 392.041 269.113 391.846 268.41C391.611 267.512 392.256 265.812 393.779 263.312C394.756 261.711 395.361 260.52 395.596 259.738C395.674 259.348 395.615 259.074 395.42 258.918C395.225 258.723 394.873 258.664 394.365 258.742C391.396 258.781 387.881 258.938 383.818 259.211C379.756 259.484 375.576 259.816 371.279 260.207C366.826 260.285 362.686 260.598 358.857 261.145C357.881 261.262 357.334 261.535 357.217 261.965C357.139 262.277 357.217 262.863 357.451 263.723C357.49 263.879 357.822 264.68 358.447 266.125C358.877 267.141 359.092 267.902 359.092 268.41C359.092 269.816 358.037 270.852 355.928 271.516C354.717 271.906 353.779 272.023 353.115 271.867C351.865 271.555 350.986 270.266 350.479 268C350.205 266.945 349.893 265.734 349.541 264.367ZM365.654 252.414C369.404 252.297 373.936 252.121 379.248 251.887C381.084 251.691 383.232 251.438 385.693 251.125C383.545 243.156 380.986 235.051 378.018 226.809C375.322 232.395 371.201 240.93 365.654 252.414ZM448.213 263.488C448.213 264.934 447.139 265.91 444.99 266.418C444.404 266.574 443.838 266.652 443.291 266.652C442.08 266.652 441.318 266.145 441.006 265.129C440.85 264.621 440.791 263.605 440.83 262.082C440.83 260.91 440.811 256.477 440.771 248.781C437.881 251.242 434.932 253.586 431.924 255.812C422.51 263.039 416.553 266.652 414.053 266.652C412.49 266.652 411.514 266.301 411.123 265.598C410.85 265.168 410.713 264.133 410.713 262.492V259.504C410.713 256.379 410.596 252.824 410.361 248.84C410.049 243.605 409.893 240.793 409.893 240.402C409.697 235.52 409.6 232.102 409.6 230.148C409.6 226.555 409.678 223.996 409.834 222.473C409.951 221.223 410.596 220.246 411.768 219.543C412.822 218.918 414.014 218.605 415.342 218.605C417.1 218.605 417.979 219.172 417.979 220.305C417.979 221.086 417.881 222.258 417.686 223.82C417.568 224.445 417.432 225.363 417.275 226.574C416.768 230.52 416.514 235.617 416.514 241.867C416.514 251.438 416.826 256.281 417.451 256.398C417.607 256.672 417.959 256.809 418.506 256.809C419.834 256.027 423.33 253.547 428.994 249.367C434.072 245.422 437.686 242.395 439.834 240.285L439.951 238.176C439.834 234.934 439.775 232.297 439.775 230.266C439.775 226.594 439.854 223.996 440.01 222.473C440.127 221.262 440.771 220.305 441.943 219.602C442.959 218.938 444.111 218.605 445.4 218.605C447.236 218.605 448.154 219.172 448.154 220.305C448.154 221.438 447.939 223.703 447.51 227.102C447.432 227.648 447.373 228.098 447.334 228.449C446.904 232.395 446.689 237.102 446.689 242.57V244.328C446.689 245.5 446.768 247.531 446.924 250.422C447.08 253.312 447.275 255.598 447.51 257.277C447.627 258.332 447.822 259.934 448.096 262.082C448.174 262.746 448.213 263.215 448.213 263.488ZM229.746 322.375C229.746 323.312 229.219 324.074 228.164 324.66C227.148 325.246 226.055 325.539 224.883 325.539C223.164 325.539 222.305 324.191 222.305 321.496C222.305 320.949 222.285 320.109 222.246 318.977C222.207 317.805 222.188 316.926 222.188 316.34V313.645C222.188 311.574 222.168 308.293 222.129 303.801C222.051 299.309 222.051 293.586 222.129 286.633C213.887 287.805 206.582 289.582 200.215 291.965C200.137 308.645 200.078 313.137 200.039 305.441C200.078 311.379 200.332 315.793 200.801 318.684L200.918 319.387C200.918 319.504 200.996 319.934 201.152 320.676C201.309 321.418 201.406 321.848 201.445 321.965C201.719 323.957 201.855 325.051 201.855 325.246C201.855 326.027 201.23 326.711 199.98 327.297C198.926 327.844 197.91 328.117 196.934 328.117C195.566 328.117 194.766 327.219 194.531 325.422C194.492 324.289 194.434 322.609 194.355 320.383C194.043 316.594 193.594 310.91 193.008 303.332C192.539 296.73 192.305 291.047 192.305 286.281V283.996C192.305 282.824 192.949 281.867 194.238 281.125C195.41 280.422 196.621 280.07 197.871 280.07C199.551 280.07 200.391 280.734 200.391 282.062C200.391 282.727 200.273 283.41 200.039 284.113C207.305 281.848 214.902 280.09 222.832 278.84C223.77 278.645 225.176 278.43 227.051 278.195C228.809 278.156 229.688 278.723 229.688 279.895C229.688 280.676 229.492 282.922 229.102 286.633L228.633 291.145C228.398 293.605 228.262 296.262 228.223 299.113C228.184 299.973 228.184 301.164 228.223 302.688L228.398 309.895C228.477 312.668 228.672 314.973 228.984 316.809C228.984 316.965 229.023 317.277 229.102 317.746C229.219 318.215 229.316 318.742 229.395 319.328L229.629 321.145C229.707 321.73 229.746 322.141 229.746 322.375ZM281.426 321.203C281.426 322.258 280.879 323.215 279.785 324.074C278.73 324.934 277.637 325.363 276.504 325.363C275.488 325.363 274.531 324.406 273.633 322.492C273.203 321.359 272.109 319.309 270.352 316.34C263.711 317.355 255.234 318.664 244.922 320.266C242.773 325.461 241.172 328.059 240.117 328.059C239.023 328.059 237.969 327.414 236.953 326.125C235.938 324.836 235.43 323.605 235.43 322.434C235.43 321.926 235.938 320.871 236.953 319.27C237.461 318.488 238.203 317.277 239.18 315.637C242.539 309.895 246.836 300.129 252.07 286.34C252.812 284.387 253.594 282.219 254.414 279.836C255.117 277.805 256.641 276.789 258.984 276.789C260.273 276.789 261.348 277.746 262.207 279.66C262.676 281.105 263.418 283.254 264.434 286.105C268.652 297.238 273.086 306.691 277.734 314.465C278.516 315.637 279.609 317.453 281.016 319.914C281.289 320.461 281.426 320.891 281.426 321.203ZM267.129 308.898C264.785 303.117 261.914 295.93 258.516 287.336C256.758 291.359 254.844 296.008 252.773 301.281L248.438 312.355C255.117 311.613 261.348 310.461 267.129 308.898ZM290.801 314.934C290.801 314.973 291.055 316.574 291.562 319.738L292.031 323.02C292.188 324.035 292.266 324.699 292.266 325.012C292.266 325.949 291.641 326.711 290.391 327.297C289.336 327.844 288.262 328.117 287.168 328.117C286.113 328.117 285.469 327.785 285.234 327.121C284.805 325.832 284.414 315.91 284.062 297.355C283.398 296.418 283.066 295.285 283.066 293.957C283.066 292.551 284.023 290.734 285.938 288.508C288.867 285.148 291.855 282.609 294.902 280.891C299.004 278.586 302.949 277.434 306.738 277.434C311.309 277.434 315.273 278.82 318.633 281.594C322.188 284.523 323.965 288.234 323.965 292.727C323.965 299.289 319.902 304.66 311.777 308.84C306.152 311.73 299.16 313.762 290.801 314.934ZM316.406 294.543C316.406 291.73 314.922 289.387 311.953 287.512C309.336 285.91 306.523 285.109 303.516 285.109C299.18 285.109 294.746 287.375 290.215 291.906C290.098 294.367 290.039 296.828 290.039 299.289C290.039 302.219 290.117 305.168 290.273 308.137C301.992 307.785 309.551 305.754 312.949 302.043C315.254 299.504 316.406 297.004 316.406 294.543ZM383.086 299.992C383.086 307.805 380.039 314.523 373.945 320.148C368.008 325.656 361.113 328.41 353.262 328.41C348.301 328.41 343.809 327.16 339.785 324.66C335.645 322.082 332.617 318.566 330.703 314.113C329.414 311.223 328.77 308.078 328.77 304.68C328.77 296.984 331.816 290.285 337.91 284.582C343.887 278.996 350.762 276.203 358.535 276.203C365.332 276.203 371.113 278.508 375.879 283.117C380.684 287.688 383.086 293.312 383.086 299.992ZM374.238 302.746C374.238 297.316 372.52 292.629 369.082 288.684C365.488 284.582 361.016 282.531 355.664 282.531C350.391 282.531 345.918 284.602 342.246 288.742C338.77 292.688 337.031 297.355 337.031 302.746C337.031 308.176 338.77 312.844 342.246 316.75C345.879 320.812 350.371 322.844 355.723 322.844C360.996 322.844 365.43 320.793 369.023 316.691C372.5 312.746 374.238 308.098 374.238 302.746ZM405.293 277.199C407.988 277.395 409.414 278.195 409.57 279.602C409.727 281.164 409.941 283.508 410.215 286.633C411.27 297.57 413.516 307.863 416.953 317.512C417.539 319.074 418.398 321.418 419.531 324.543C419.766 325.246 419.844 325.715 419.766 325.949C419.688 327.16 418.516 327.668 416.25 327.473C413.945 327.355 412.52 326.359 411.973 324.484C409.863 317.102 408.281 311.125 407.227 306.555L407.109 306.145C406.133 302.395 404.746 296.75 402.949 289.211C400.723 293.781 398.652 298.586 396.738 303.625C395.41 307.18 394.453 309.777 393.867 311.418C392.852 314.387 392.051 317.121 391.465 319.621L390.703 322.785C390.508 323.762 390.156 325.09 389.648 326.77C389.18 327.629 388.574 328.117 387.832 328.234C386.816 328.391 385.781 328.117 384.727 327.414C383.555 326.633 383.008 325.734 383.086 324.719C383.164 323.547 385.84 315.988 391.113 302.043C392.559 298.137 394.023 294.211 395.508 290.266C397.461 285.109 399.102 281.281 400.43 278.781C401.094 277.531 402.715 277.004 405.293 277.199ZM432.48 295.539C438.73 293.859 444.336 293.02 449.297 293.02C450.781 293.02 452.227 293.098 453.633 293.254C461.797 294.191 465.879 297.961 465.879 304.562C465.879 309.094 464.102 313.527 460.547 317.863C456.992 322.199 452.988 325.227 448.535 326.945C445.879 327.961 443.164 328.469 440.391 328.469C437.695 328.469 435.176 328 432.832 327.062C429.863 325.891 427.559 324.387 425.918 322.551C425.098 321.652 424.688 320.734 424.688 319.797C424.688 318.469 425 317.199 425.625 315.988C426.055 293.371 426.465 281.281 426.855 279.719C427.09 278.898 427.754 278.312 428.848 277.961C429.668 277.531 430.684 277.355 431.895 277.434C433.262 277.551 433.945 278.098 433.945 279.074C433.945 280.715 433.691 284.016 433.184 288.977C432.715 293.234 432.48 295.422 432.48 295.539ZM459.082 304.855C459.082 302.59 457.871 300.832 455.449 299.582C454.16 298.723 452.539 298.293 450.586 298.293C446.289 297.902 440.176 299.172 432.246 302.102C432.09 304.914 432.012 307.844 432.012 310.891C432.012 313.547 432.07 316.105 432.188 318.566C435.117 320.324 437.988 321.203 440.801 321.203C445.605 321.203 450.332 318.82 454.98 314.055C458.105 310.852 459.473 307.785 459.082 304.855ZM178.418 359.992C178.418 367.805 175.371 374.523 169.277 380.148C163.34 385.656 156.445 388.41 148.594 388.41C143.633 388.41 139.141 387.16 135.117 384.66C130.977 382.082 127.949 378.566 126.035 374.113C124.746 371.223 124.102 368.078 124.102 364.68C124.102 356.984 127.148 350.285 133.242 344.582C139.219 338.996 146.094 336.203 153.867 336.203C160.664 336.203 166.445 338.508 171.211 343.117C176.016 347.688 178.418 353.312 178.418 359.992ZM169.57 362.746C169.57 357.316 167.852 352.629 164.414 348.684C160.82 344.582 156.348 342.531 150.996 342.531C145.723 342.531 141.25 344.602 137.578 348.742C134.102 352.688 132.363 357.355 132.363 362.746C132.363 368.176 134.102 372.844 137.578 376.75C141.211 380.812 145.703 382.844 151.055 382.844C156.328 382.844 160.762 380.793 164.355 376.691C167.832 372.746 169.57 368.098 169.57 362.746ZM220.605 382.375C220.605 383.312 220.078 384.074 219.023 384.66C218.008 385.246 216.914 385.539 215.742 385.539C214.023 385.539 213.164 384.191 213.164 381.496C213.164 380.949 213.145 380.109 213.105 378.977C213.066 377.805 213.047 376.926 213.047 376.34V373.645C213.047 373.254 212.891 369.309 212.578 361.809C204.336 362.941 197.031 364.699 190.664 367.082C190.859 371.926 191.191 375.793 191.66 378.684L191.777 379.387C191.777 379.504 191.855 379.934 192.012 380.676C192.168 381.418 192.266 381.848 192.305 381.965C192.578 383.957 192.715 385.051 192.715 385.246C192.715 386.027 192.09 386.711 190.84 387.297C189.785 387.844 188.77 388.117 187.793 388.117C186.426 388.117 185.625 387.219 185.391 385.422C185.352 384.289 185.293 382.609 185.215 380.383C184.902 376.594 184.453 370.91 183.867 363.332C183.398 356.73 183.164 351.047 183.164 346.281V343.996C183.164 342.824 183.809 341.867 185.098 341.125C186.27 340.422 187.48 340.07 188.73 340.07C190.41 340.07 191.25 340.734 191.25 342.062C191.25 342.297 191.23 342.668 191.191 343.176L191.074 344.816C190.684 350.285 190.488 355.109 190.488 359.289C197.715 356.945 205.02 355.559 212.402 355.129L212.285 342.473C212.48 340.754 212.949 339.543 213.691 338.84C214.863 337.941 216.387 337.492 218.262 337.492C219.785 337.492 220.547 338.039 220.547 339.133C220.547 339.719 220.352 342.023 219.961 346.047L219.492 350.969C219.336 352.609 219.238 353.977 219.199 355.07C220.176 355.305 221.133 355.773 222.07 356.477C223.203 357.336 223.77 358.195 223.77 359.055C223.77 360.344 222.207 360.988 219.082 360.988V362.688C219.082 368.938 219.336 373.645 219.844 376.809C219.961 377.395 220.098 378.234 220.254 379.328L220.488 381.145C220.566 381.73 220.605 382.141 220.605 382.375ZM271.992 374.934C271.992 374.973 272.246 376.574 272.754 379.738L273.223 383.02C273.379 384.035 273.457 384.699 273.457 385.012C273.457 385.949 272.832 386.711 271.582 387.297C270.527 387.844 269.453 388.117 268.359 388.117C267.305 388.117 266.66 387.785 266.426 387.121C265.996 385.832 265.605 375.91 265.254 357.355C264.59 356.418 264.258 355.285 264.258 353.957C264.258 352.551 265.215 350.734 267.129 348.508C270.059 345.148 273.047 342.609 276.094 340.891C280.195 338.586 284.141 337.434 287.93 337.434C292.5 337.434 296.465 338.82 299.824 341.594C303.379 344.523 305.156 348.234 305.156 352.727C305.156 359.289 301.094 364.66 292.969 368.84C287.344 371.73 280.352 373.762 271.992 374.934ZM297.598 354.543C297.598 351.73 296.113 349.387 293.145 347.512C290.527 345.91 287.715 345.109 284.707 345.109C280.371 345.109 275.938 347.375 271.406 351.906C271.289 354.367 271.23 356.828 271.23 359.289C271.23 362.219 271.309 365.168 271.465 368.137C283.184 367.785 290.742 365.754 294.141 362.043C296.445 359.504 297.598 357.004 297.598 354.543ZM319.043 385.832C319.043 385.012 320.41 383.84 323.145 382.316C324.59 381.418 326.465 380.246 328.77 378.801C330.605 377.473 332.129 376.301 333.34 375.285L337.5 372.121C336.211 372.238 334.805 372.297 333.281 372.297C328.594 372.297 324.57 371.711 321.211 370.539C315 368.352 311.895 364.426 311.895 358.762C312.285 353.996 314.277 349.465 317.871 345.168C321.152 341.926 325.234 339.562 330.117 338.078C332.461 337.375 334.746 337.023 336.973 337.023C343.223 336.242 348.965 338.254 354.199 343.059C355.293 344.074 355.84 345.051 355.84 345.988C355.84 346.965 355.508 348.02 354.844 349.152C354.219 350.246 353.477 351.008 352.617 351.438C352.617 352.727 352.461 358.156 352.148 367.727L351.914 374.934C351.836 380.441 351.641 383.977 351.328 385.539C351.055 386.867 349.766 387.629 347.461 387.824C345.156 388.02 344.004 387.414 344.004 386.008C344.004 385.266 344.18 383.957 344.531 382.082C344.922 377.277 345.117 374.719 345.117 374.406C340.664 378.586 335.469 382.082 329.531 384.895C325.195 387.043 322.773 388.215 322.266 388.41C320.117 387.902 319.043 387.043 319.043 385.832ZM318.691 357.648C318.691 360.344 320.078 362.629 322.852 364.504C324.492 365.402 327.246 366.047 331.113 366.438C335.137 366.438 339.805 365.559 345.117 363.801C345.703 360.559 345.996 357.824 345.996 355.598C346.387 352.98 346.113 350.227 345.176 347.336C342.598 344.992 339.688 343.82 336.445 343.82C332.07 343.43 327.656 344.973 323.203 348.449C320.586 351.301 319.082 354.367 318.691 357.648ZM360.703 384.367C359.688 381.75 359.18 379.797 359.18 378.508C359.18 376.281 360.918 374.797 364.395 374.055C366.934 373.508 368.887 372.16 370.254 370.012C373.379 365.754 377.559 357.434 382.793 345.051L385.605 338.664C386.699 336.633 387.949 335.578 389.355 335.5C391.973 335.305 393.633 336.301 394.336 338.488C397.305 349.465 399.746 357.395 401.66 362.277C403.613 367.16 404.824 370.051 405.293 370.949C407.598 370.793 408.809 370.715 408.926 370.715L411.562 370.539C414.18 370.734 415.488 371.535 415.488 372.941C415.488 374.27 415.43 375.266 415.312 375.93C414.062 379.484 412.422 383.527 410.391 388.059C409.844 388.488 408.867 388.898 407.461 389.289C406.914 389.289 406.309 389.387 405.645 389.582C404.082 389.504 403.203 389.113 403.008 388.41C402.773 387.512 403.418 385.812 404.941 383.312C405.918 381.711 406.523 380.52 406.758 379.738C406.836 379.348 406.777 379.074 406.582 378.918C406.387 378.723 406.035 378.664 405.527 378.742C402.559 378.781 399.043 378.938 394.98 379.211C390.918 379.484 386.738 379.816 382.441 380.207C377.988 380.285 373.848 380.598 370.02 381.145C369.043 381.262 368.496 381.535 368.379 381.965C368.301 382.277 368.379 382.863 368.613 383.723C368.652 383.879 368.984 384.68 369.609 386.125C370.039 387.141 370.254 387.902 370.254 388.41C370.254 389.816 369.199 390.852 367.09 391.516C365.879 391.906 364.941 392.023 364.277 391.867C363.027 391.555 362.148 390.266 361.641 388C361.367 386.945 361.055 385.734 360.703 384.367ZM376.816 372.414C380.566 372.297 385.098 372.121 390.41 371.887C392.246 371.691 394.395 371.438 396.855 371.125C394.707 363.156 392.148 355.051 389.18 346.809C386.484 352.395 382.363 360.93 376.816 372.414ZM475.078 359.992C475.078 367.805 472.031 374.523 465.938 380.148C460 385.656 453.105 388.41 445.254 388.41C440.293 388.41 435.801 387.16 431.777 384.66C427.637 382.082 424.609 378.566 422.695 374.113C421.406 371.223 420.762 368.078 420.762 364.68C420.762 356.984 423.809 350.285 429.902 344.582C435.879 338.996 442.754 336.203 450.527 336.203C457.324 336.203 463.105 338.508 467.871 343.117C472.676 347.688 475.078 353.312 475.078 359.992ZM466.23 362.746C466.23 357.316 464.512 352.629 461.074 348.684C457.48 344.582 453.008 342.531 447.656 342.531C442.383 342.531 437.91 344.602 434.238 348.742C430.762 352.688 429.023 357.355 429.023 362.746C429.023 368.176 430.762 372.844 434.238 376.75C437.871 380.812 442.363 382.844 447.715 382.844C452.988 382.844 457.422 380.793 461.016 376.691C464.492 372.746 466.23 368.098 466.23 362.746ZM531.094 381.672C531.094 382.727 530.566 383.82 529.512 384.953C528.496 386.047 527.48 386.594 526.465 386.594C525.527 386.594 524.336 384.23 522.891 379.504C522.109 376.691 521.348 373.879 520.605 371.066C519.16 365.793 517.383 359.719 515.273 352.844C513.789 357.492 511.973 363.781 509.824 371.711C507.207 381.281 505.566 386.652 504.902 387.824C504.512 388.527 504.023 388.879 503.438 388.879C502.461 388.879 501.543 388.137 500.684 386.652C499.863 385.363 499.453 384.152 499.453 383.02C499.453 382.824 499.492 382.492 499.57 382.023L491.074 354.777C487.676 366.027 484.707 375.422 482.168 382.961C481.777 384.992 481.113 386.711 480.176 388.117C479.824 388.625 479.434 388.879 479.004 388.879C478.105 388.879 477.188 388.137 476.25 386.652C475.391 385.285 474.961 384.074 474.961 383.02C474.961 382.551 475.273 381.613 475.898 380.207C476.25 379.465 476.758 378.332 477.422 376.809C478.75 373.527 480.176 369.582 481.699 364.973C484.395 356.73 486.484 349.113 487.969 342.121C488.398 340.012 489.473 338.957 491.191 338.957C492.09 338.957 492.812 339.855 493.359 341.652C493.594 342.629 493.945 344.074 494.414 345.988C496.367 353.645 499.297 362.57 503.203 372.766C507.07 361.984 510.234 350.559 512.695 338.488C513.125 336.418 514.18 335.383 515.859 335.383C516.641 335.383 517.52 336.789 518.496 339.602C519.238 341.906 519.609 343.684 519.609 344.934C522.773 357.668 525.703 367.551 528.398 374.582C528.75 375.246 529.258 376.223 529.922 377.512C530.703 379.23 531.094 380.617 531.094 381.672Z" fill="black"/>
<path d="M3.41485 536.605C4.91801 523.907 9.71009 517.094 11.585 515.435C16.9216 510.715 33.7066 508.847 43.7146 510.715C53.7225 512.582 57.8335 516.862 60.5742 522.211C63.3148 527.561 64 531.483 64 538.973C64 546.462 60.334 554.945 55.778 560.013C51.222 565.081 41.3299 571.028 35.3174 571C21.7962 570.937 18.2049 570.453 15.5256 568.261C12.4782 565.768 8.45589 562.817 4.55725 552.318C3.31665 548.977 2.4463 544.787 3.41485 536.605Z" fill="white" stroke="black" stroke-width="6" stroke-linecap="round"/>
<defs>
<clipPath id="clip0_1161_66681">
<rect width="683" height="571" fill="white" transform="translate(3)"/>
</clipPath>
</defs>
</svg>
