<svg width="686" height="574" viewBox="0 0 686 574" fill="none" xmlns="http://www.w3.org/2000/svg">
<g clip-path="url(#clip0_1161_66680)">
<path d="M105.607 104.125C105.223 125.739 122.809 158.231 121.35 167.458C120.409 173.411 108.556 170.699 100.093 171.036C91.6311 171.372 54.5934 172.345 36.1192 191.381C17.645 210.417 14.4129 230.229 16.4797 250.492C18.5465 270.756 36.9439 296.689 53.1975 305.392C69.451 314.094 103.586 320.148 89.4383 324.338C77.0965 327.994 56.3454 332.259 36.3895 346.908C19.7693 359.108 8.47811 376.571 6.24683 388.157C4.99697 394.647 3.26983 409.687 15.7443 419.614C28.2189 429.541 54.339 431.276 73.5468 427.646C92.7546 424.017 153.917 389.281 124.495 416.305C112.595 427.236 104.308 440.652 104.897 456.114C105.485 471.576 109.097 481.753 119.83 493.749C130.564 505.744 139.105 511.491 152.141 513.352C165.177 515.213 182.326 513.609 199.966 506.451C217.607 499.292 228.655 485.254 246.333 475.846C249.713 474.047 253.434 473.959 253.776 476.681C254.647 483.631 240.222 510.047 249.836 533.203C259.451 556.359 271.573 566.145 293.547 568.09C315.522 570.034 343.637 564.21 356.216 539.997C368.796 515.784 368.42 492.381 378.864 492.682C390.483 493.016 402.001 524.966 420.38 536.102C438.759 547.238 463.509 544.791 476.846 539.691C490.183 534.591 504.522 521.265 509.266 498.81C514.01 476.355 494.834 452.786 510.73 447.922C514.027 446.913 532.709 458.433 538.266 460.062C555.076 464.99 582.537 466.251 607.246 454.325C631.955 442.4 650.31 431.666 659.668 411.162C669.026 390.658 671.001 376.28 666.768 358.084C662.534 339.888 647.134 319.357 630.787 308.269C614.441 297.182 581.876 296.837 581.655 286.602C581.389 274.319 602.17 284.536 648.965 263.752C695.76 242.969 686.155 203.709 669.448 176.66C652.742 149.61 621.232 147.624 593.699 152.432C566.166 157.241 538.942 174.985 514.881 184.989C508.042 187.833 506.923 179.787 511.183 175.67C528.65 158.787 549.947 149.701 562.378 135.866C574.809 122.03 580.35 100.509 574.234 85.0968C568.119 69.6844 552.468 53.8999 536.305 52.9527C520.142 52.0056 505.791 53.4752 476.891 69.893C447.991 86.3108 430.901 120.544 422.928 117.774C418.968 116.398 420.424 112.539 422.994 102.887C425.565 93.2353 428.992 80.366 429.432 59.9697C429.873 39.5734 417.462 21.2015 399.207 9.60554C380.952 -1.9904 341.577 -0.14353 315.439 18.9335C289.3 38.0104 287.494 54.5356 282.185 71.6924C277.776 85.9391 277.558 124.169 270.924 113.886C266.698 107.334 259.725 86.0604 250.817 70.0643C241.91 54.0682 229.44 39.8471 205.4 30.8762C181.36 21.9054 158.337 24.1039 135.421 39.4719C112.505 54.84 105.991 82.5124 105.607 104.125Z" fill="white" stroke="black" stroke-width="4.76571" stroke-linecap="round"/>
</g>
<path d="M122.109 262.375C122.109 263.312 121.582 264.074 120.527 264.66C119.512 265.246 118.418 265.539 117.246 265.539C115.527 265.539 114.668 264.191 114.668 261.496C114.668 260.949 114.648 260.109 114.609 258.977C114.57 257.805 114.551 256.926 114.551 256.34V253.645C114.551 251.574 114.531 248.293 114.492 243.801C114.414 239.309 114.414 233.586 114.492 226.633C106.25 227.805 98.9453 229.582 92.5781 231.965C92.5 248.645 92.4414 253.137 92.4023 245.441C92.4414 251.379 92.6953 255.793 93.1641 258.684L93.2812 259.387C93.2812 259.504 93.3594 259.934 93.5156 260.676C93.6719 261.418 93.7695 261.848 93.8086 261.965C94.082 263.957 94.2188 265.051 94.2188 265.246C94.2188 266.027 93.5938 266.711 92.3438 267.297C91.2891 267.844 90.2734 268.117 89.2969 268.117C87.9297 268.117 87.1289 267.219 86.8945 265.422C86.8555 264.289 86.7969 262.609 86.7188 260.383C86.4062 256.594 85.957 250.91 85.3711 243.332C84.9023 236.73 84.668 231.047 84.668 226.281V223.996C84.668 222.824 85.3125 221.867 86.6016 221.125C87.7734 220.422 88.9844 220.07 90.2344 220.07C91.9141 220.07 92.7539 220.734 92.7539 222.062C92.7539 222.727 92.6367 223.41 92.4023 224.113C99.668 221.848 107.266 220.09 115.195 218.84C116.133 218.645 117.539 218.43 119.414 218.195C121.172 218.156 122.051 218.723 122.051 219.895C122.051 220.676 121.855 222.922 121.465 226.633L120.996 231.145C120.762 233.605 120.625 236.262 120.586 239.113C120.547 239.973 120.547 241.164 120.586 242.688L120.762 249.895C120.84 252.668 121.035 254.973 121.348 256.809C121.348 256.965 121.387 257.277 121.465 257.746C121.582 258.215 121.68 258.742 121.758 259.328L121.992 261.145C122.07 261.73 122.109 262.141 122.109 262.375ZM181.172 239.992C181.172 247.805 178.125 254.523 172.031 260.148C166.094 265.656 159.199 268.41 151.348 268.41C146.387 268.41 141.895 267.16 137.871 264.66C133.73 262.082 130.703 258.566 128.789 254.113C127.5 251.223 126.855 248.078 126.855 244.68C126.855 236.984 129.902 230.285 135.996 224.582C141.973 218.996 148.848 216.203 156.621 216.203C163.418 216.203 169.199 218.508 173.965 223.117C178.77 227.688 181.172 233.312 181.172 239.992ZM172.324 242.746C172.324 237.316 170.605 232.629 167.168 228.684C163.574 224.582 159.102 222.531 153.75 222.531C148.477 222.531 144.004 224.602 140.332 228.742C136.855 232.688 135.117 237.355 135.117 242.746C135.117 248.176 136.855 252.844 140.332 256.75C143.965 260.812 148.457 262.844 153.809 262.844C159.082 262.844 163.516 260.793 167.109 256.691C170.586 252.746 172.324 248.098 172.324 242.746ZM237.188 261.672C237.188 262.727 236.66 263.82 235.605 264.953C234.59 266.047 233.574 266.594 232.559 266.594C231.621 266.594 230.43 264.23 228.984 259.504C228.203 256.691 227.441 253.879 226.699 251.066C225.254 245.793 223.477 239.719 221.367 232.844C219.883 237.492 218.066 243.781 215.918 251.711C213.301 261.281 211.66 266.652 210.996 267.824C210.605 268.527 210.117 268.879 209.531 268.879C208.555 268.879 207.637 268.137 206.777 266.652C205.957 265.363 205.547 264.152 205.547 263.02C205.547 262.824 205.586 262.492 205.664 262.023L197.168 234.777C193.77 246.027 190.801 255.422 188.262 262.961C187.871 264.992 187.207 266.711 186.27 268.117C185.918 268.625 185.527 268.879 185.098 268.879C184.199 268.879 183.281 268.137 182.344 266.652C181.484 265.285 181.055 264.074 181.055 263.02C181.055 262.551 181.367 261.613 181.992 260.207C182.344 259.465 182.852 258.332 183.516 256.809C184.844 253.527 186.27 249.582 187.793 244.973C190.488 236.73 192.578 229.113 194.062 222.121C194.492 220.012 195.566 218.957 197.285 218.957C198.184 218.957 198.906 219.855 199.453 221.652C199.688 222.629 200.039 224.074 200.508 225.988C202.461 233.645 205.391 242.57 209.297 252.766C213.164 241.984 216.328 230.559 218.789 218.488C219.219 216.418 220.273 215.383 221.953 215.383C222.734 215.383 223.613 216.789 224.59 219.602C225.332 221.906 225.703 223.684 225.703 224.934C228.867 237.668 231.797 247.551 234.492 254.582C234.844 255.246 235.352 256.223 236.016 257.512C236.797 259.23 237.188 260.617 237.188 261.672ZM293.262 239.992C293.262 247.805 290.215 254.523 284.121 260.148C278.184 265.656 271.289 268.41 263.438 268.41C258.477 268.41 253.984 267.16 249.961 264.66C245.82 262.082 242.793 258.566 240.879 254.113C239.59 251.223 238.945 248.078 238.945 244.68C238.945 236.984 241.992 230.285 248.086 224.582C254.062 218.996 260.938 216.203 268.711 216.203C275.508 216.203 281.289 218.508 286.055 223.117C290.859 227.688 293.262 233.312 293.262 239.992ZM284.414 242.746C284.414 237.316 282.695 232.629 279.258 228.684C275.664 224.582 271.191 222.531 265.84 222.531C260.566 222.531 256.094 224.602 252.422 228.742C248.945 232.688 247.207 237.355 247.207 242.746C247.207 248.176 248.945 252.844 252.422 256.75C256.055 260.812 260.547 262.844 265.898 262.844C271.172 262.844 275.605 260.793 279.199 256.691C282.676 252.746 284.414 248.098 284.414 242.746ZM309.141 217.082C311.367 216.691 313.574 216.457 315.762 216.379C320.996 216.184 325.938 216.516 330.586 217.375C332.891 217.844 334.805 218.352 336.328 218.898C337.148 219.211 337.871 219.855 338.496 220.832C339.16 221.809 339.492 222.727 339.492 223.586C339.492 224.953 338.672 225.793 337.031 226.105C336.289 226.145 335.605 226.145 334.98 226.105L320.801 224.934C318.809 224.895 316.875 224.914 315 224.992C313.672 225.07 311.738 225.266 309.199 225.578L308.613 225.695C307.559 232.609 307.031 239.914 307.031 247.609C307.031 251.125 307.188 255.031 307.5 259.328L307.91 264.367C307.949 265.07 307.969 265.559 307.969 265.832C307.969 266.652 307.539 267.258 306.68 267.648C306.016 267.922 305.234 268 304.336 267.883C301.914 267.648 300.664 266.535 300.586 264.543C300.547 264.309 300.527 263.898 300.527 263.312V260.91C300.527 254.973 300.664 247.902 300.938 239.699C300.898 236.184 301.035 230.949 301.348 223.996C301.66 220.52 302.988 218.43 305.332 217.727C306.309 217.57 307.578 217.355 309.141 217.082ZM384.141 263.488C384.141 264.934 383.066 265.91 380.918 266.418C380.332 266.574 379.766 266.652 379.219 266.652C378.008 266.652 377.246 266.145 376.934 265.129C376.777 264.621 376.719 263.605 376.758 262.082C376.758 260.91 376.738 256.477 376.699 248.781C373.809 251.242 370.859 253.586 367.852 255.812C358.438 263.039 352.48 266.652 349.98 266.652C348.418 266.652 347.441 266.301 347.051 265.598C346.777 265.168 346.641 264.133 346.641 262.492V259.504C346.641 256.379 346.523 252.824 346.289 248.84C345.977 243.605 345.82 240.793 345.82 240.402C345.625 235.52 345.527 232.102 345.527 230.148C345.527 226.555 345.605 223.996 345.762 222.473C345.879 221.223 346.523 220.246 347.695 219.543C348.75 218.918 349.941 218.605 351.27 218.605C353.027 218.605 353.906 219.172 353.906 220.305C353.906 221.086 353.809 222.258 353.613 223.82C353.496 224.445 353.359 225.363 353.203 226.574C352.695 230.52 352.441 235.617 352.441 241.867C352.441 251.438 352.754 256.281 353.379 256.398C353.535 256.672 353.887 256.809 354.434 256.809C355.762 256.027 359.258 253.547 364.922 249.367C370 245.422 373.613 242.395 375.762 240.285L375.879 238.176C375.762 234.934 375.703 232.297 375.703 230.266C375.703 226.594 375.781 223.996 375.938 222.473C376.055 221.262 376.699 220.305 377.871 219.602C378.887 218.938 380.039 218.605 381.328 218.605C383.164 218.605 384.082 219.172 384.082 220.305C384.082 221.438 383.867 223.703 383.438 227.102C383.359 227.648 383.301 228.098 383.262 228.449C382.832 232.395 382.617 237.102 382.617 242.57V244.328C382.617 245.5 382.695 247.531 382.852 250.422C383.008 253.312 383.203 255.598 383.438 257.277C383.555 258.332 383.75 259.934 384.023 262.082C384.102 262.746 384.141 263.215 384.141 263.488ZM480.762 261.672C480.762 262.727 480.234 263.82 479.18 264.953C478.164 266.047 477.148 266.594 476.133 266.594C475.195 266.594 474.004 264.23 472.559 259.504C471.777 256.691 471.016 253.879 470.273 251.066C468.828 245.793 467.051 239.719 464.941 232.844C463.457 237.492 461.641 243.781 459.492 251.711C456.875 261.281 455.234 266.652 454.57 267.824C454.18 268.527 453.691 268.879 453.105 268.879C452.129 268.879 451.211 268.137 450.352 266.652C449.531 265.363 449.121 264.152 449.121 263.02C449.121 262.824 449.16 262.492 449.238 262.023L440.742 234.777C437.344 246.027 434.375 255.422 431.836 262.961C431.445 264.992 430.781 266.711 429.844 268.117C429.492 268.625 429.102 268.879 428.672 268.879C427.773 268.879 426.855 268.137 425.918 266.652C425.059 265.285 424.629 264.074 424.629 263.02C424.629 262.551 424.941 261.613 425.566 260.207C425.918 259.465 426.426 258.332 427.09 256.809C428.418 253.527 429.844 249.582 431.367 244.973C434.062 236.73 436.152 229.113 437.637 222.121C438.066 220.012 439.141 218.957 440.859 218.957C441.758 218.957 442.48 219.855 443.027 221.652C443.262 222.629 443.613 224.074 444.082 225.988C446.035 233.645 448.965 242.57 452.871 252.766C456.738 241.984 459.902 230.559 462.363 218.488C462.793 216.418 463.848 215.383 465.527 215.383C466.309 215.383 467.188 216.789 468.164 219.602C468.906 221.906 469.277 223.684 469.277 224.934C472.441 237.668 475.371 247.551 478.066 254.582C478.418 255.246 478.926 256.223 479.59 257.512C480.371 259.23 480.762 260.617 480.762 261.672ZM523.008 262.375C523.008 263.312 522.48 264.074 521.426 264.66C520.41 265.246 519.316 265.539 518.145 265.539C516.426 265.539 515.566 264.191 515.566 261.496C515.566 260.949 515.547 260.109 515.508 258.977C515.469 257.805 515.449 256.926 515.449 256.34V253.645C515.449 253.254 515.293 249.309 514.98 241.809C506.738 242.941 499.434 244.699 493.066 247.082C493.262 251.926 493.594 255.793 494.062 258.684L494.18 259.387C494.18 259.504 494.258 259.934 494.414 260.676C494.57 261.418 494.668 261.848 494.707 261.965C494.98 263.957 495.117 265.051 495.117 265.246C495.117 266.027 494.492 266.711 493.242 267.297C492.188 267.844 491.172 268.117 490.195 268.117C488.828 268.117 488.027 267.219 487.793 265.422C487.754 264.289 487.695 262.609 487.617 260.383C487.305 256.594 486.855 250.91 486.27 243.332C485.801 236.73 485.566 231.047 485.566 226.281V223.996C485.566 222.824 486.211 221.867 487.5 221.125C488.672 220.422 489.883 220.07 491.133 220.07C492.812 220.07 493.652 220.734 493.652 222.062C493.652 222.297 493.633 222.668 493.594 223.176L493.477 224.816C493.086 230.285 492.891 235.109 492.891 239.289C500.117 236.945 507.422 235.559 514.805 235.129L514.688 222.473C514.883 220.754 515.352 219.543 516.094 218.84C517.266 217.941 518.789 217.492 520.664 217.492C522.188 217.492 522.949 218.039 522.949 219.133C522.949 219.719 522.754 222.023 522.363 226.047L521.895 230.969C521.738 232.609 521.641 233.977 521.602 235.07C522.578 235.305 523.535 235.773 524.473 236.477C525.605 237.336 526.172 238.195 526.172 239.055C526.172 240.344 524.609 240.988 521.484 240.988V242.688C521.484 248.938 521.738 253.645 522.246 256.809C522.363 257.395 522.5 258.234 522.656 259.328L522.891 261.145C522.969 261.73 523.008 262.141 523.008 262.375ZM539.297 245.734C539.453 250.422 539.902 255.227 540.645 260.148H541.172C544.805 260.148 548.945 259.699 553.594 258.801C555.742 258.371 559.824 257.434 565.84 255.988C566.66 255.793 567.305 255.695 567.773 255.695C569.297 255.695 570.059 256.359 570.059 257.688C570.059 258.547 569.746 259.504 569.121 260.559C568.496 261.574 567.793 262.277 567.012 262.668C563.613 264.426 559.355 265.832 554.238 266.887C549.629 267.824 545.195 268.293 540.938 268.293C539.141 268.293 537.969 268.254 537.422 268.176C535.352 267.902 534.141 265.969 533.789 262.375C533.555 260.383 533.438 257.844 533.438 254.758C533.398 252.219 533.379 249.68 533.379 247.141C531.777 246.594 530.977 245.324 530.977 243.332C530.977 241.613 531.699 240.461 533.145 239.875H533.203C533.164 239.68 533.145 239.035 533.145 237.941L533.086 233.605C533.047 232.004 533.027 230.461 533.027 228.977L532.969 225.988C532.969 224.035 533.223 222.785 533.73 222.238C534.238 221.652 535.449 221.047 537.363 220.422L544.688 218.02C547.148 217.238 549.844 216.848 552.773 216.848C556.562 216.848 559.102 216.984 560.391 217.258C561.406 217.492 562.402 218.176 563.379 219.309C564.434 220.559 564.961 221.633 564.961 222.531C564.961 223.898 563.75 224.66 561.328 224.816C555.742 225.168 552.031 225.52 550.195 225.871C547.422 226.379 543.828 227.57 539.414 229.445C539.219 232.883 539.121 235.734 539.121 238C548.184 235.383 556.953 234.074 565.43 234.074C566.875 234.074 568.34 234.328 569.824 234.836C571.895 235.578 572.93 236.652 572.93 238.059C572.93 239.152 571.602 239.836 568.945 240.109C556.562 241.359 546.68 243.234 539.297 245.734ZM203.877 322.375C203.877 323.312 203.35 324.074 202.295 324.66C201.279 325.246 200.186 325.539 199.014 325.539C197.295 325.539 196.436 324.191 196.436 321.496C196.436 320.949 196.416 320.109 196.377 318.977C196.338 317.805 196.318 316.926 196.318 316.34V313.645C196.318 311.574 196.299 308.293 196.26 303.801C196.182 299.309 196.182 293.586 196.26 286.633C188.018 287.805 180.713 289.582 174.346 291.965C174.268 308.645 174.209 313.137 174.17 305.441C174.209 311.379 174.463 315.793 174.932 318.684L175.049 319.387C175.049 319.504 175.127 319.934 175.283 320.676C175.439 321.418 175.537 321.848 175.576 321.965C175.85 323.957 175.986 325.051 175.986 325.246C175.986 326.027 175.361 326.711 174.111 327.297C173.057 327.844 172.041 328.117 171.064 328.117C169.697 328.117 168.896 327.219 168.662 325.422C168.623 324.289 168.564 322.609 168.486 320.383C168.174 316.594 167.725 310.91 167.139 303.332C166.67 296.73 166.436 291.047 166.436 286.281V283.996C166.436 282.824 167.08 281.867 168.369 281.125C169.541 280.422 170.752 280.07 172.002 280.07C173.682 280.07 174.521 280.734 174.521 282.062C174.521 282.727 174.404 283.41 174.17 284.113C181.436 281.848 189.033 280.09 196.963 278.84C197.9 278.645 199.307 278.43 201.182 278.195C202.939 278.156 203.818 278.723 203.818 279.895C203.818 280.676 203.623 282.922 203.232 286.633L202.764 291.145C202.529 293.605 202.393 296.262 202.354 299.113C202.314 299.973 202.314 301.164 202.354 302.688L202.529 309.895C202.607 312.668 202.803 314.973 203.115 316.809C203.115 316.965 203.154 317.277 203.232 317.746C203.35 318.215 203.447 318.742 203.525 319.328L203.76 321.145C203.838 321.73 203.877 322.141 203.877 322.375ZM262.939 299.992C262.939 307.805 259.893 314.523 253.799 320.148C247.861 325.656 240.967 328.41 233.115 328.41C228.154 328.41 223.662 327.16 219.639 324.66C215.498 322.082 212.471 318.566 210.557 314.113C209.268 311.223 208.623 308.078 208.623 304.68C208.623 296.984 211.67 290.285 217.764 284.582C223.74 278.996 230.615 276.203 238.389 276.203C245.186 276.203 250.967 278.508 255.732 283.117C260.537 287.688 262.939 293.312 262.939 299.992ZM254.092 302.746C254.092 297.316 252.373 292.629 248.936 288.684C245.342 284.582 240.869 282.531 235.518 282.531C230.244 282.531 225.771 284.602 222.1 288.742C218.623 292.688 216.885 297.355 216.885 302.746C216.885 308.176 218.623 312.844 222.1 316.75C225.732 320.812 230.225 322.844 235.576 322.844C240.85 322.844 245.283 320.793 248.877 316.691C252.354 312.746 254.092 308.098 254.092 302.746ZM307.471 322.375C307.471 323.312 306.943 324.074 305.889 324.66C304.873 325.246 303.779 325.539 302.607 325.539C300.889 325.539 300.029 324.191 300.029 321.496C300.029 320.949 300.01 320.109 299.971 318.977C299.932 317.805 299.912 316.926 299.912 316.34V313.645C299.912 311.574 299.893 308.293 299.854 303.801C299.775 299.309 299.775 293.586 299.854 286.633C291.611 287.805 284.307 289.582 277.939 291.965C277.861 308.645 277.803 313.137 277.764 305.441C277.803 311.379 278.057 315.793 278.525 318.684L278.643 319.387C278.643 319.504 278.721 319.934 278.877 320.676C279.033 321.418 279.131 321.848 279.17 321.965C279.443 323.957 279.58 325.051 279.58 325.246C279.58 326.027 278.955 326.711 277.705 327.297C276.65 327.844 275.635 328.117 274.658 328.117C273.291 328.117 272.49 327.219 272.256 325.422C272.217 324.289 272.158 322.609 272.08 320.383C271.768 316.594 271.318 310.91 270.732 303.332C270.264 296.73 270.029 291.047 270.029 286.281V283.996C270.029 282.824 270.674 281.867 271.963 281.125C273.135 280.422 274.346 280.07 275.596 280.07C277.275 280.07 278.115 280.734 278.115 282.062C278.115 282.727 277.998 283.41 277.764 284.113C285.029 281.848 292.627 280.09 300.557 278.84C301.494 278.645 302.9 278.43 304.775 278.195C306.533 278.156 307.412 278.723 307.412 279.895C307.412 280.676 307.217 282.922 306.826 286.633L306.357 291.145C306.123 293.605 305.986 296.262 305.947 299.113C305.908 299.973 305.908 301.164 305.947 302.688L306.123 309.895C306.201 312.668 306.396 314.973 306.709 316.809C306.709 316.965 306.748 317.277 306.826 317.746C306.943 318.215 307.041 318.742 307.119 319.328L307.354 321.145C307.432 321.73 307.471 322.141 307.471 322.375ZM359.15 321.203C359.15 322.258 358.604 323.215 357.51 324.074C356.455 324.934 355.361 325.363 354.229 325.363C353.213 325.363 352.256 324.406 351.357 322.492C350.928 321.359 349.834 319.309 348.076 316.34C341.436 317.355 332.959 318.664 322.646 320.266C320.498 325.461 318.896 328.059 317.842 328.059C316.748 328.059 315.693 327.414 314.678 326.125C313.662 324.836 313.154 323.605 313.154 322.434C313.154 321.926 313.662 320.871 314.678 319.27C315.186 318.488 315.928 317.277 316.904 315.637C320.264 309.895 324.561 300.129 329.795 286.34C330.537 284.387 331.318 282.219 332.139 279.836C332.842 277.805 334.365 276.789 336.709 276.789C337.998 276.789 339.072 277.746 339.932 279.66C340.4 281.105 341.143 283.254 342.158 286.105C346.377 297.238 350.811 306.691 355.459 314.465C356.24 315.637 357.334 317.453 358.74 319.914C359.014 320.461 359.15 320.891 359.15 321.203ZM344.854 308.898C342.51 303.117 339.639 295.93 336.24 287.336C334.482 291.359 332.568 296.008 330.498 301.281L326.162 312.355C332.842 311.613 339.072 310.461 344.854 308.898ZM404.443 313.41C404.443 314.152 403.857 315.012 402.686 315.988C401.748 316.652 400.83 317.316 399.932 317.98C391.064 324.387 382.979 327.59 375.674 327.59C370.908 327.59 367.178 325.93 364.482 322.609C362.021 319.523 360.791 315.539 360.791 310.656C360.791 301.281 364.443 293.352 371.748 286.867C378.779 280.578 387.041 277.434 396.533 277.434C397.861 277.434 398.76 277.551 399.229 277.785C399.932 278.176 400.283 278.957 400.283 280.129V282.004C400.283 282.785 400.498 284.016 400.928 285.695C401.396 287.336 401.631 288.312 401.631 288.625C401.631 289.406 400.947 290.246 399.58 291.145C398.213 292.043 397.119 292.492 396.299 292.492C395.557 292.492 394.932 291.633 394.424 289.914C394.229 289.016 393.896 287.707 393.428 285.988C384.326 287.355 377.451 290.734 372.803 296.125C368.623 300.969 366.533 305.5 366.533 309.719C366.533 313 367.822 315.559 370.4 317.395C372.666 319.035 375.518 319.855 378.955 319.855C381.768 319.855 385.107 319.055 388.975 317.453C389.404 317.258 391.885 315.969 396.416 313.586C400.361 311.477 402.588 310.422 403.096 310.422C403.994 310.422 404.443 311.418 404.443 313.41ZM430.107 286.047C429.795 290.5 429.639 294.719 429.639 298.703C429.639 306.477 430.127 313.41 431.104 319.504C431.299 320.441 431.533 321.809 431.807 323.605C431.885 324.23 431.924 324.66 431.924 324.895C431.924 325.637 431.318 326.32 430.107 326.945C429.053 327.492 427.998 327.766 426.943 327.766C425.732 327.766 425.029 327.375 424.834 326.594C424.678 325.93 424.58 325.012 424.541 323.84C424.541 322.004 424.541 321.086 424.541 321.086C424.072 312.727 423.76 301.496 423.604 287.395C424.111 287.395 424.033 287.512 423.369 287.746C422.979 287.863 422.139 288.098 420.85 288.449C419.6 288.762 418.838 288.957 418.564 289.035C415.244 290.207 413.369 290.793 412.939 290.793C411.768 290.793 410.83 290.227 410.127 289.094C409.541 288.117 409.248 287.004 409.248 285.754C409.248 283.605 410.107 282.16 411.826 281.418C418.389 278.645 425.498 277.258 433.154 277.258C436.709 277.258 439.111 277.395 440.361 277.668C441.885 278.02 443.213 278.605 444.346 279.426C445.752 280.441 446.455 281.633 446.455 283C446.455 284.367 444.775 285.188 441.416 285.461C438.877 285.578 435.107 285.773 430.107 286.047ZM458.35 295.539C464.6 293.859 470.205 293.02 475.166 293.02C476.65 293.02 478.096 293.098 479.502 293.254C487.666 294.191 491.748 297.961 491.748 304.562C491.748 309.094 489.971 313.527 486.416 317.863C482.861 322.199 478.857 325.227 474.404 326.945C471.748 327.961 469.033 328.469 466.26 328.469C463.564 328.469 461.045 328 458.701 327.062C455.732 325.891 453.428 324.387 451.787 322.551C450.967 321.652 450.557 320.734 450.557 319.797C450.557 318.469 450.869 317.199 451.494 315.988C451.924 293.371 452.334 281.281 452.725 279.719C452.959 278.898 453.623 278.312 454.717 277.961C455.537 277.531 456.553 277.355 457.764 277.434C459.131 277.551 459.814 278.098 459.814 279.074C459.814 280.715 459.561 284.016 459.053 288.977C458.584 293.234 458.35 295.422 458.35 295.539ZM484.951 304.855C484.951 302.59 483.74 300.832 481.318 299.582C480.029 298.723 478.408 298.293 476.455 298.293C472.158 297.902 466.045 299.172 458.115 302.102C457.959 304.914 457.881 307.844 457.881 310.891C457.881 313.547 457.939 316.105 458.057 318.566C460.986 320.324 463.857 321.203 466.67 321.203C471.475 321.203 476.201 318.82 480.85 314.055C483.975 310.852 485.342 307.785 484.951 304.855ZM168.047 387.883C164.844 387.883 162.402 387.785 160.723 387.59C159.199 387.395 158.223 386.789 157.793 385.773C157.051 384.094 156.641 379.66 156.562 372.473C156.484 368.879 156.387 364.289 156.27 358.703C156.152 358.742 155.996 358.762 155.801 358.762C154.902 358.762 154.219 358.215 153.75 357.121C153.359 356.262 153.164 355.324 153.164 354.309C153.164 353.137 153.496 352.043 154.16 351.027C154.316 350.793 155.039 349.895 156.328 348.332C159.297 344.738 162.207 342.102 165.059 340.422C168.379 338.469 172.129 337.492 176.309 337.492C181.152 337.492 185.078 338.703 188.086 341.125C191.367 343.742 193.008 347.414 193.008 352.141C193.008 356.906 189.883 361.145 183.633 364.855C186.523 365.637 189.102 366.965 191.367 368.84C194.141 371.105 195.527 373.527 195.527 376.105C195.527 380.129 192.012 383.332 184.98 385.715C180.684 387.16 175.039 387.883 168.047 387.883ZM187.266 352.785C187.266 350.363 185.84 348.41 182.988 346.926C180.527 345.637 178.008 344.992 175.43 344.992C171.094 344.992 166.758 347.219 162.422 351.672C162.344 354.016 162.305 356.379 162.305 358.762V361.633C162.305 362.609 162.324 363.586 162.363 364.562C173.496 364.211 180.684 362.414 183.926 359.172C186.152 356.945 187.266 354.816 187.266 352.785ZM173.965 369.895C169.824 369.895 166.113 371.105 162.832 373.527C163.066 375.91 163.34 378.234 163.652 380.5C168.027 380.812 171.797 380.969 174.961 380.969C178.125 380.969 180.879 380.754 183.223 380.324C187.52 379.543 189.668 378.176 189.668 376.223C189.668 374.23 187.48 372.609 183.105 371.359C179.707 370.383 176.66 369.895 173.965 369.895ZM275.215 342.004C275.215 342.004 273.984 343.234 271.523 345.695C269.648 347.57 267.305 349.816 264.492 352.434C263.359 353.488 262.383 354.406 261.562 355.188L260.039 356.711L253.828 362.57C251.875 364.406 250.078 366.145 248.438 367.785C254.805 372.629 261.797 376.789 269.414 380.266C270.078 380.5 271.074 380.891 272.402 381.438C273.613 382.062 274.219 382.551 274.219 382.902C274.219 383.684 273.398 384.426 271.758 385.129C270.312 385.793 269.102 386.125 268.125 386.125C267.461 386.125 263.105 384.758 255.059 382.023C250.566 380.5 246.641 378.41 243.281 375.754C243.281 375.988 243.34 376.457 243.457 377.16L243.75 379.445C244.062 381.633 244.219 382.98 244.219 383.488C244.219 384.543 243.652 385.363 242.52 385.949C241.582 386.457 240.547 386.711 239.414 386.711C237.969 386.711 237.148 385.793 236.953 383.957C236.836 383.176 236.797 382.336 236.836 381.438C236.875 380.148 236.895 379.289 236.895 378.859L236.191 360.168C236.035 354.582 235.957 349.621 235.957 345.285V343.586C235.957 343.195 235.977 342.824 236.016 342.473C236.133 341.262 236.797 340.285 238.008 339.543C239.062 338.918 240.254 338.605 241.582 338.605C243.301 338.605 244.16 339.172 244.16 340.305C244.16 340.656 244.121 341.223 244.043 342.004L243.809 344.465C243.691 345.246 243.555 346.398 243.398 347.922C242.969 353.781 242.754 358.742 242.754 362.805L242.812 362.922L242.93 362.98C250.117 356.301 257.383 349.816 264.727 343.527C267.5 341.145 269.766 339.953 271.523 339.953C273.984 339.953 275.215 340.637 275.215 342.004ZM318.574 383.488C318.574 384.934 317.5 385.91 315.352 386.418C314.766 386.574 314.199 386.652 313.652 386.652C312.441 386.652 311.68 386.145 311.367 385.129C311.211 384.621 311.152 383.605 311.191 382.082C311.191 380.91 311.172 376.477 311.133 368.781C308.242 371.242 305.293 373.586 302.285 375.812C292.871 383.039 286.914 386.652 284.414 386.652C282.852 386.652 281.875 386.301 281.484 385.598C281.211 385.168 281.074 384.133 281.074 382.492V379.504C281.074 376.379 280.957 372.824 280.723 368.84C280.41 363.605 280.254 360.793 280.254 360.402C280.059 355.52 279.961 352.102 279.961 350.148C279.961 346.555 280.039 343.996 280.195 342.473C280.312 341.223 280.957 340.246 282.129 339.543C283.184 338.918 284.375 338.605 285.703 338.605C287.461 338.605 288.34 339.172 288.34 340.305C288.34 341.086 288.242 342.258 288.047 343.82C287.93 344.445 287.793 345.363 287.637 346.574C287.129 350.52 286.875 355.617 286.875 361.867C286.875 371.438 287.188 376.281 287.812 376.398C287.969 376.672 288.32 376.809 288.867 376.809C290.195 376.027 293.691 373.547 299.355 369.367C304.434 365.422 308.047 362.395 310.195 360.285L310.312 358.176C310.195 354.934 310.137 352.297 310.137 350.266C310.137 346.594 310.215 343.996 310.371 342.473C310.488 341.262 311.133 340.305 312.305 339.602C313.32 338.938 314.473 338.605 315.762 338.605C317.598 338.605 318.516 339.172 318.516 340.305C318.516 341.438 318.301 343.703 317.871 347.102C317.793 347.648 317.734 348.098 317.695 348.449C317.266 352.395 317.051 357.102 317.051 362.57V364.328C317.051 365.5 317.129 367.531 317.285 370.422C317.441 373.312 317.637 375.598 317.871 377.277C317.988 378.332 318.184 379.934 318.457 382.082C318.535 382.746 318.574 383.215 318.574 383.488ZM331.113 374.934C331.113 374.973 331.367 376.574 331.875 379.738L332.344 383.02C332.5 384.035 332.578 384.699 332.578 385.012C332.578 385.949 331.953 386.711 330.703 387.297C329.648 387.844 328.574 388.117 327.48 388.117C326.426 388.117 325.781 387.785 325.547 387.121C325.117 385.832 324.727 375.91 324.375 357.355C323.711 356.418 323.379 355.285 323.379 353.957C323.379 352.551 324.336 350.734 326.25 348.508C329.18 345.148 332.168 342.609 335.215 340.891C339.316 338.586 343.262 337.434 347.051 337.434C351.621 337.434 355.586 338.82 358.945 341.594C362.5 344.523 364.277 348.234 364.277 352.727C364.277 359.289 360.215 364.66 352.09 368.84C346.465 371.73 339.473 373.762 331.113 374.934ZM356.719 354.543C356.719 351.73 355.234 349.387 352.266 347.512C349.648 345.91 346.836 345.109 343.828 345.109C339.492 345.109 335.059 347.375 330.527 351.906C330.41 354.367 330.352 356.828 330.352 359.289C330.352 362.219 330.43 365.168 330.586 368.137C342.305 367.785 349.863 365.754 353.262 362.043C355.566 359.504 356.719 357.004 356.719 354.543ZM383.965 387.883C380.762 387.883 378.32 387.785 376.641 387.59C375.117 387.395 374.141 386.789 373.711 385.773C372.969 384.094 372.559 379.66 372.48 372.473C372.402 368.879 372.305 364.289 372.188 358.703C372.07 358.742 371.914 358.762 371.719 358.762C370.82 358.762 370.137 358.215 369.668 357.121C369.277 356.262 369.082 355.324 369.082 354.309C369.082 353.137 369.414 352.043 370.078 351.027C370.234 350.793 370.957 349.895 372.246 348.332C375.215 344.738 378.125 342.102 380.977 340.422C384.297 338.469 388.047 337.492 392.227 337.492C397.07 337.492 400.996 338.703 404.004 341.125C407.285 343.742 408.926 347.414 408.926 352.141C408.926 356.906 405.801 361.145 399.551 364.855C402.441 365.637 405.02 366.965 407.285 368.84C410.059 371.105 411.445 373.527 411.445 376.105C411.445 380.129 407.93 383.332 400.898 385.715C396.602 387.16 390.957 387.883 383.965 387.883ZM403.184 352.785C403.184 350.363 401.758 348.41 398.906 346.926C396.445 345.637 393.926 344.992 391.348 344.992C387.012 344.992 382.676 347.219 378.34 351.672C378.262 354.016 378.223 356.379 378.223 358.762V361.633C378.223 362.609 378.242 363.586 378.281 364.562C389.414 364.211 396.602 362.414 399.844 359.172C402.07 356.945 403.184 354.816 403.184 352.785ZM389.883 369.895C385.742 369.895 382.031 371.105 378.75 373.527C378.984 375.91 379.258 378.234 379.57 380.5C383.945 380.812 387.715 380.969 390.879 380.969C394.043 380.969 396.797 380.754 399.141 380.324C403.438 379.543 405.586 378.176 405.586 376.223C405.586 374.23 403.398 372.609 399.023 371.359C395.625 370.383 392.578 369.895 389.883 369.895ZM429.551 387.824C428.613 387.824 427.656 387.57 426.68 387.062C425.547 386.477 424.98 385.754 424.98 384.895C424.98 384.66 427.949 379.172 433.887 368.43C432.09 366.008 429.355 362.395 425.684 357.59C424.512 356.262 422.812 354.23 420.586 351.496C417.656 347.707 416.191 344.953 416.191 343.234C416.191 342.336 416.602 341.281 417.422 340.07C418.242 338.82 418.984 338.195 419.648 338.195C420.273 338.195 421.035 338.918 421.934 340.363C422.52 341.379 423.105 342.395 423.691 343.41C427.871 350.168 432.363 356.594 437.168 362.688C441.27 355.5 444.59 349.875 447.129 345.812C448.027 344.25 449.453 341.945 451.406 338.898C452.227 337.766 453.398 337.199 454.922 337.199C456.953 337.199 458.457 337.883 459.434 339.25C459.746 339.719 459.902 340.188 459.902 340.656C459.902 341.203 459.102 342.531 457.5 344.641C456.641 345.734 455.391 347.395 453.75 349.621C446.367 359.816 440.293 369.816 435.527 379.621C435.059 380.754 434.336 382.453 433.359 384.719C432.461 386.789 431.191 387.824 429.551 387.824ZM450.879 384.367C449.863 381.75 449.355 379.797 449.355 378.508C449.355 376.281 451.094 374.797 454.57 374.055C457.109 373.508 459.062 372.16 460.43 370.012C463.555 365.754 467.734 357.434 472.969 345.051L475.781 338.664C476.875 336.633 478.125 335.578 479.531 335.5C482.148 335.305 483.809 336.301 484.512 338.488C487.48 349.465 489.922 357.395 491.836 362.277C493.789 367.16 495 370.051 495.469 370.949C497.773 370.793 498.984 370.715 499.102 370.715L501.738 370.539C504.355 370.734 505.664 371.535 505.664 372.941C505.664 374.27 505.605 375.266 505.488 375.93C504.238 379.484 502.598 383.527 500.566 388.059C500.02 388.488 499.043 388.898 497.637 389.289C497.09 389.289 496.484 389.387 495.82 389.582C494.258 389.504 493.379 389.113 493.184 388.41C492.949 387.512 493.594 385.812 495.117 383.312C496.094 381.711 496.699 380.52 496.934 379.738C497.012 379.348 496.953 379.074 496.758 378.918C496.562 378.723 496.211 378.664 495.703 378.742C492.734 378.781 489.219 378.938 485.156 379.211C481.094 379.484 476.914 379.816 472.617 380.207C468.164 380.285 464.023 380.598 460.195 381.145C459.219 381.262 458.672 381.535 458.555 381.965C458.477 382.277 458.555 382.863 458.789 383.723C458.828 383.879 459.16 384.68 459.785 386.125C460.215 387.141 460.43 387.902 460.43 388.41C460.43 389.816 459.375 390.852 457.266 391.516C456.055 391.906 455.117 392.023 454.453 391.867C453.203 391.555 452.324 390.266 451.816 388C451.543 386.945 451.23 385.734 450.879 384.367ZM466.992 372.414C470.742 372.297 475.273 372.121 480.586 371.887C482.422 371.691 484.57 371.438 487.031 371.125C484.883 363.156 482.324 355.051 479.355 346.809C476.66 352.395 472.539 360.93 466.992 372.414Z" fill="black"/>
<path d="M3.41485 536.605C4.91801 523.907 9.71009 517.094 11.585 515.435C16.9216 510.715 33.7066 508.847 43.7146 510.715C53.7225 512.582 57.8335 516.862 60.5742 522.211C63.3148 527.561 64 531.483 64 538.973C64 546.462 60.334 554.945 55.778 560.013C51.222 565.081 41.3299 571.028 35.3174 571C21.7962 570.937 18.2049 570.453 15.5256 568.261C12.4782 565.768 8.45589 562.817 4.55725 552.318C3.31665 548.977 2.4463 544.787 3.41485 536.605Z" fill="white" stroke="black" stroke-width="6" stroke-linecap="round"/>
<defs>
<clipPath id="clip0_1161_66680">
<rect width="683" height="571" fill="white" transform="translate(3)"/>
</clipPath>
</defs>
</svg>
