<svg width="305" height="255" viewBox="0 0 305 255" fill="none" xmlns="http://www.w3.org/2000/svg">
<g clip-path="url(#clip0_1230_69343)">
<path d="M46.8506 46.193C46.6803 55.7817 54.482 70.1961 53.8347 74.2895C53.4173 76.9304 48.1589 75.7273 44.4046 75.8768C40.6505 76.0259 24.2194 76.4575 16.0237 84.9025C7.82797 93.3475 6.39411 102.137 7.31101 111.126C8.22791 120.116 16.3896 131.62 23.6002 135.481C30.8107 139.342 45.9541 142.028 39.6777 143.886C34.2025 145.508 24.9967 147.4 16.1436 153.899C8.77038 159.311 3.76124 167.059 2.77138 172.198C2.2169 175.078 1.45069 181.75 6.98476 186.154C12.5189 190.558 24.1066 191.327 32.6277 189.717C41.1489 188.107 68.2825 172.697 55.2299 184.686C49.9507 189.535 46.2744 195.487 46.5357 202.346C46.7965 209.206 48.3989 213.721 53.1604 219.042C57.9223 224.364 61.7114 226.913 67.4946 227.739C73.2777 228.564 80.8856 227.853 88.7112 224.677C96.5373 221.501 101.439 215.274 109.281 211.1C110.781 210.302 112.431 210.263 112.583 211.47C112.969 214.554 106.57 226.273 110.835 236.545C115.101 246.818 120.478 251.159 130.227 252.022C139.975 252.885 152.448 250.301 158.029 239.559C163.609 228.818 163.443 218.435 168.076 218.569C173.23 218.717 178.34 232.891 186.494 237.831C194.647 242.772 205.627 241.686 211.544 239.424C217.46 237.161 223.822 231.249 225.926 221.288C228.031 211.326 219.524 200.87 226.576 198.712C228.038 198.264 236.326 203.375 238.792 204.098C246.249 206.284 258.432 206.843 269.393 201.553C280.355 196.262 288.498 191.5 292.649 182.404C296.801 173.308 297.677 166.929 295.799 158.857C293.921 150.785 287.089 141.677 279.837 136.758C272.585 131.839 258.138 131.686 258.04 127.145C257.922 121.696 267.141 126.229 287.901 117.009C308.661 107.789 304.4 90.3716 296.988 78.3718C289.577 66.3716 275.598 65.4905 263.383 67.6235C251.169 69.7569 239.092 77.6287 228.417 82.0668C225.383 83.3285 224.887 79.759 226.777 77.9326C234.526 70.4428 243.974 66.412 249.488 60.2743C255.003 54.1362 257.461 44.5889 254.748 37.7515C252.035 30.9141 245.092 23.9116 237.922 23.4914C230.751 23.0712 224.385 23.7232 211.564 31.0066C198.743 38.2901 191.161 53.477 187.624 52.2481C185.867 51.6377 186.513 49.9257 187.653 45.6438C188.794 41.362 190.314 35.6528 190.509 26.6043C190.705 17.5559 185.199 9.40554 177.101 4.26122C169.002 -0.883099 151.534 -0.0637709 139.939 8.39939C128.343 16.8625 127.541 24.1936 125.186 31.8049C123.23 38.1252 123.133 55.0852 120.19 50.5233C118.316 47.6166 115.222 38.179 111.27 31.0826C107.319 23.9862 101.787 17.6773 91.1219 13.6975C80.457 9.71782 70.2433 10.6931 60.0771 17.5109C49.9108 24.3286 47.021 36.605 46.8506 46.193Z" fill="white" stroke="black" stroke-width="2.11422" stroke-linecap="round"/>
</g>
<path d="M110.261 139.547C110.261 142.172 108.761 144.984 105.761 147.984C100.667 153.078 95.1982 155.625 89.3545 155.625C84.8857 155.625 81.2295 153.609 78.3857 149.578C75.8545 145.984 74.5889 141.844 74.5889 137.156C74.5889 130.688 77.1357 125.25 82.2295 120.844C85.9795 117.594 91.0576 115.969 97.4639 115.969C98.5264 115.969 99.2764 116.078 99.7139 116.297C100.308 116.609 100.729 117.219 100.979 118.125C101.667 120.688 102.542 122.859 103.604 124.641C103.698 124.797 103.745 124.969 103.745 125.156C103.745 125.781 103.354 126.422 102.573 127.078C101.792 127.703 101.042 128.016 100.323 128.016C99.6982 128.016 98.9951 127.312 98.2139 125.906C97.8701 125.219 97.3545 124.188 96.667 122.812C91.7295 123.625 87.6982 125.438 84.5732 128.25C81.0732 131.406 79.3545 135.141 79.417 139.453C89.0732 135.984 96.5889 134.25 101.964 134.25C107.495 134.25 110.261 136.016 110.261 139.547ZM105.104 141.656C105.104 141.031 104.604 140.547 103.604 140.203C102.729 139.953 101.823 139.828 100.886 139.828C97.5732 139.828 90.9482 141.594 81.0107 145.125C82.8232 148 85.7607 149.438 89.8232 149.438C93.5107 149.438 97.4482 148.141 101.636 145.547C103.948 144.109 105.104 142.812 105.104 141.656ZM129.901 154.641C129.183 154.641 128.495 154.516 127.839 154.266C126.964 153.922 126.526 153.438 126.526 152.812C126.526 151.531 130.776 141.578 139.276 122.953C137.464 122.891 135.761 122.859 134.167 122.859C131.698 122.859 129.339 122.953 127.089 123.141C125.589 123.266 123.386 123.547 120.479 123.984L119.964 124.078C119.901 124.109 119.073 124.266 117.479 124.547C117.042 124.641 116.729 124.688 116.542 124.688C115.792 124.688 115.183 124.391 114.714 123.797C114.276 123.203 114.058 122.516 114.058 121.734C114.058 120.141 114.761 119.125 116.167 118.688C119.323 117.719 124.011 117.234 130.229 117.234C135.979 117.234 140.058 117.562 142.464 118.219C143.089 118.375 143.808 118.812 144.62 119.531C145.526 120.344 145.979 121.047 145.979 121.641C145.979 121.859 145.839 122.188 145.558 122.625C140.37 130.781 136.401 139.484 133.651 148.734C133.37 149.797 132.917 151.375 132.292 153.469C132.011 154.25 131.214 154.641 129.901 154.641ZM158.167 122.766L159.995 131.25C167.089 131.594 171.933 133.422 174.526 136.734C176.339 139.047 177.245 141.438 177.245 143.906C177.245 146.312 176.339 148.578 174.526 150.703C172.964 152.547 170.964 154.016 168.526 155.109C166.62 155.953 164.308 156.375 161.589 156.375C157.901 156.375 154.714 155.734 152.026 154.453C150.526 153.734 149.776 152.516 149.776 150.797C149.776 149.797 150.089 149.297 150.714 149.297C151.026 149.297 151.62 149.469 152.495 149.812C155.245 150.875 158.073 151.406 160.979 151.406C163.542 151.406 165.854 150.734 167.917 149.391C170.292 147.859 171.479 145.875 171.479 143.438C171.479 141.375 170.636 139.641 168.948 138.234C167.354 136.922 165.495 136.266 163.37 136.266C163.026 136.266 161.964 136.406 160.183 136.688C158.214 137 157.229 137.156 157.229 137.156C155.604 137.156 154.479 135.906 153.854 133.406L151.136 122.625C150.917 121.75 150.808 121.234 150.808 121.078C150.808 119.828 151.386 118.953 152.542 118.453C158.073 116.078 164.245 114.891 171.058 114.891H172.417C173.073 114.891 173.776 115.031 174.526 115.312C175.495 115.688 176.308 116.266 176.964 117.047C177.276 117.422 177.433 117.781 177.433 118.125C177.433 119 176.386 119.547 174.292 119.766C167.167 120.453 161.792 121.453 158.167 122.766ZM215.026 132.188C215.026 136.625 213.276 141.188 209.776 145.875C212.245 147.75 213.479 148.953 213.479 149.484C213.479 149.922 213.104 150.312 212.354 150.656C211.729 150.969 211.167 151.125 210.667 151.125C210.011 151.125 208.761 150.516 206.917 149.297C201.511 154.953 196.808 157.781 192.808 157.781C189.495 157.781 186.714 156.375 184.464 153.562C182.308 150.875 181.229 147.875 181.229 144.562C181.229 142.031 181.917 140.047 183.292 138.609C184.698 137.141 186.667 136.406 189.198 136.406C193.354 136.406 198.667 138.406 205.136 142.406C208.042 138.219 209.495 134.469 209.495 131.156C209.495 128 208.604 125.469 206.823 123.562C205.042 121.656 202.589 120.703 199.464 120.703C197.026 120.703 194.667 121.312 192.386 122.531C191.511 123.156 190.198 124.094 188.448 125.344C186.104 126.969 184.558 127.781 183.808 127.781C182.745 127.781 182.214 127.328 182.214 126.422C182.214 125.578 183.026 124.109 184.651 122.016C188.651 116.859 193.323 114.281 198.667 114.281C203.479 114.281 207.448 116.094 210.573 119.719C213.542 123.156 215.026 127.312 215.026 132.188ZM190.37 141.562C187.683 141.562 186.339 143.453 186.339 147.234C186.339 148.828 186.651 149.984 187.276 150.703C187.901 151.391 188.995 151.734 190.558 151.734C193.776 151.734 196.87 150.547 199.839 148.172C200.87 147.359 201.386 146.75 201.386 146.344C201.386 145.969 199.917 145.094 196.979 143.719C193.886 142.281 191.683 141.562 190.37 141.562Z" fill="black"/>
<path d="M1.5151 238.055C2.18194 232.421 4.30786 229.399 5.13961 228.663C7.50712 226.569 14.9534 225.74 19.3933 226.569C23.8331 227.397 25.6569 229.296 26.8727 231.669C28.0886 234.042 28.3925 235.783 28.3925 239.105C28.3925 242.427 26.7662 246.191 24.745 248.439C22.7238 250.688 18.3354 253.326 15.668 253.313C9.66965 253.285 8.07643 253.071 6.8878 252.098C5.53589 250.992 3.75146 249.683 2.0219 245.025C1.47153 243.543 1.08541 241.684 1.5151 238.055Z" fill="white" stroke="black" stroke-width="2.66179" stroke-linecap="round"/>
<defs>
<clipPath id="clip0_1230_69343">
<rect width="303" height="253.313" fill="white" transform="translate(1.33105)"/>
</clipPath>
</defs>
</svg>
