<svg width="198" height="604" viewBox="0 0 198 604" fill="none" xmlns="http://www.w3.org/2000/svg">
<path d="M75.6615 144.891C75.6615 143.092 74.2032 141.634 72.4043 141.634C70.6055 141.634 69.1471 143.092 69.1471 144.891C69.1471 145.01 69.1813 152.7 69.3865 165.09C69.5048 172.233 72.2253 175.968 75.9001 185.252C77.794 190.037 80.1319 197.248 84.5424 202.847C88.9409 208.431 95.6858 216.006 102.17 222.893C108.809 229.945 108.724 241.982 113.205 246.809C118.187 252.838 120.871 256.385 122.678 259.76C124.44 263.051 122.944 263.048 124.276 268.645C124.779 272.502 124.946 277.064 125.121 281.978C125.185 283.776 134.974 282.042 136.772 281.978C138.569 281.914 139.975 280.404 139.91 278.606C139.736 273.714 139.563 268.75 138.992 264.479L138.97 264.318L138.932 264.159C137.557 258.361 136.404 254.385 134.208 250.283C132.048 246.247 128.949 242.227 123.953 236.183L123.894 236.111L123.831 236.043C119.525 231.402 113.159 225.062 106.913 218.428C100.481 211.596 93.8857 204.181 89.6604 198.817C85.4472 193.468 83.5981 190.465 82.0287 186.5C78.2494 176.951 72.4993 166.966 72.4043 161.23C72.302 155.049 75.7384 153.795 75.7044 150.325C75.6874 148.59 75.6766 147.238 75.6702 146.315C75.6671 145.854 75.6652 145.5 75.6639 145.258C75.6632 145.138 75.6626 145.045 75.6623 144.982C75.662 144.913 75.6615 144.887 75.6615 144.891Z" fill="#320352"/>
<path d="M87.1198 504.885C87.1198 503.604 88.1583 502.565 89.4393 502.565C90.7203 502.565 91.7588 503.604 91.7588 504.885C91.7588 504.97 91.7344 510.446 91.5884 519.269C91.5041 524.356 89.5668 527.015 86.9499 533.627C85.6012 537.034 83.9363 542.17 80.7955 546.157C77.6632 550.133 72.8601 555.528 68.2427 560.432C63.5147 565.453 63.5754 574.025 60.3839 577.462C56.8364 581.756 54.9253 584.282 53.6383 586.686C52.3835 589.029 53.449 589.027 52.5007 593.012C52.1419 595.76 52.0233 599.008 51.8987 602.507C51.8531 603.788 44.8821 602.553 43.6019 602.507C42.3217 602.462 41.3211 601.387 41.3667 600.106C41.4908 596.623 41.614 593.087 42.0208 590.046L42.0366 589.931L42.0633 589.818C43.0426 585.689 43.8637 582.857 45.4276 579.936C46.966 577.063 49.1725 574.2 52.7304 569.896L52.7723 569.845L52.8176 569.796C55.8835 566.491 60.4167 561.976 64.8648 557.252C69.4455 552.387 74.142 547.106 77.1509 543.286C80.1512 539.477 81.468 537.339 82.5855 534.515C85.2769 527.715 89.3717 520.605 89.4393 516.521C89.5122 512.118 87.065 511.226 87.0892 508.754C87.1013 507.519 87.109 506.556 87.1136 505.899C87.1158 505.571 87.1172 505.318 87.1181 505.146C87.1186 505.06 87.119 504.995 87.1192 504.949C87.1195 504.9 87.1198 504.882 87.1198 504.885Z" fill="#320352"/>
<path d="M72.5729 149.08C94.8591 93.3794 122.5 -11.1687 54.7759 16.2469C-12.9486 43.6625 38.422 116.226 72.5729 149.08Z" fill="url(#paint0_linear_1226_69330)"/>
<path d="M89.3192 507.868C73.4488 468.202 53.7648 393.751 101.993 413.275C150.221 432.798 113.639 484.472 89.3192 507.868Z" fill="url(#paint1_linear_1226_69330)"/>
<path d="M72.6472 148.814C92.609 92.2382 140.746 -4.59786 173.597 60.6631C206.449 125.924 119.985 146.622 72.6472 148.814Z" fill="url(#paint2_linear_1226_69330)"/>
<path d="M89.2664 507.678C75.0511 467.39 40.772 398.431 17.3777 444.904C-6.01671 491.378 55.5558 506.118 89.2664 507.678Z" fill="url(#paint3_linear_1226_69330)"/>
<defs>
<linearGradient id="paint0_linear_1226_69330" x1="73.999" y1="10.659" x2="84.4515" y2="171.187" gradientUnits="userSpaceOnUse">
<stop stop-color="#FF00FF"/>
<stop offset="0.855769" stop-color="#92BFCD"/>
</linearGradient>
<linearGradient id="paint1_linear_1226_69330" x1="88.3037" y1="409.295" x2="80.8603" y2="523.611" gradientUnits="userSpaceOnUse">
<stop stop-color="#FF00FF"/>
<stop offset="0.855769" stop-color="#92BFCD"/>
</linearGradient>
<linearGradient id="paint2_linear_1226_69330" x1="162.826" y1="43.7889" x2="49.1418" y2="157.606" gradientUnits="userSpaceOnUse">
<stop stop-color="#FF00FF"/>
<stop offset="0.855769" stop-color="#92BFCD"/>
</linearGradient>
<linearGradient id="paint3_linear_1226_69330" x1="25.0479" y1="432.888" x2="106.005" y2="513.94" gradientUnits="userSpaceOnUse">
<stop stop-color="#FF00FF"/>
<stop offset="0.855769" stop-color="#92BFCD"/>
</linearGradient>
</defs>
</svg>
