<svg width="367" height="223" viewBox="0 0 367 223" fill="none" xmlns="http://www.w3.org/2000/svg">
<path d="M290.483 0.140625C296.919 3.51951 300.123 11.3758 302.495 17.9414C303.22 20.3309 303.882 22.7169 304.483 25.1406C304.657 25.7569 304.831 26.3733 305.01 27.0082C305.503 29.2289 305.603 31.1779 305.596 33.4502C305.596 34.2908 305.596 35.1313 305.596 35.9974C305.591 36.8954 305.586 37.7935 305.581 38.7188C305.579 40.1086 305.578 40.1086 305.576 41.5266C305.571 44.4813 305.558 47.4359 305.545 50.3906C305.54 52.3958 305.536 54.401 305.532 56.4062C305.521 61.3177 305.504 66.2292 305.483 71.1406C306.653 69.9645 306.653 69.9645 307.847 68.7646C310.066 66.5557 312.315 64.4502 314.67 62.3906C315.682 61.5012 315.682 61.5012 316.713 60.5938C319.034 58.6878 320.283 58.1673 323.295 57.7656C327.507 58.2611 328.788 59.9842 331.483 63.1406C331.813 63.4706 332.143 63.8006 332.483 64.1406C332.643 66.6594 332.742 69.154 332.799 71.6758C332.831 72.8057 332.831 72.8057 332.862 73.9584C332.928 76.3732 332.987 78.7881 333.045 81.2031C333.089 82.8366 333.132 84.4701 333.176 86.1035C333.284 90.1158 333.385 94.1281 333.483 98.1406C334.244 98.1302 335.006 98.1197 335.79 98.1089C339.25 98.0672 342.71 98.0413 346.17 98.0156C347.369 97.9989 348.567 97.9821 349.801 97.9648C350.958 97.9584 352.115 97.952 353.307 97.9453C354.902 97.9296 354.902 97.9296 356.529 97.9136C360.722 98.2359 363.498 99.1556 366.483 102.141C366.977 105.819 366.893 107.547 364.76 110.633C363.988 111.419 363.216 112.205 362.42 113.016C361.59 113.884 360.76 114.753 359.905 115.648C359.106 116.471 358.306 117.293 357.483 118.141C356.368 119.381 355.263 120.63 354.17 121.891C353.612 122.534 353.054 123.177 352.479 123.84C351.82 124.599 351.162 125.358 350.483 126.141C349.843 126.867 349.843 126.867 349.19 127.608C341.417 136.433 334.286 145.551 327.483 155.141C326.988 155.836 326.492 156.532 325.982 157.249C322.92 161.551 319.881 165.869 316.853 170.195C315.641 171.916 314.413 173.625 313.182 175.332C306.492 184.713 300.791 194.642 294.984 204.584C292.955 208.04 290.89 211.473 288.795 214.891C288.193 215.875 287.591 216.86 286.971 217.875C285.483 220.141 285.483 220.141 283.483 222.141C279.347 221.871 276.402 221.172 273.483 218.141C273.483 216.821 273.483 215.501 273.483 214.141C267.05 214.553 261.119 215.617 254.928 217.422C245.615 219.365 236.197 219.272 226.733 218.891C225.662 218.864 224.591 218.836 223.487 218.809C217.136 218.566 212.31 217.661 206.483 215.141C205.056 214.763 203.62 214.419 202.17 214.141C193.175 212.225 185.106 209.737 176.847 205.684C173.509 204.049 170.318 202.73 166.733 201.766C163.228 200.013 163.011 199.893 161.858 196.453C161.657 195.671 161.456 194.888 161.249 194.082C160.255 190.263 158.955 186.597 157.608 182.891C157.375 182.205 157.142 181.52 156.902 180.814C154.918 175.329 152.269 171.699 147.045 168.777C136.576 164.899 127.54 164.906 117.221 169.117C108.1 172.526 95.6176 174.317 86.3228 171.02C84.4331 170.141 82.5635 169.216 80.7252 168.234C78.4494 166.921 78.4494 166.921 75.483 167.141C73.828 168.958 73.828 168.958 72.233 171.203C70.3853 173.418 70.3853 173.418 68.483 175.141C64.7819 175.266 62.6819 174.758 59.4205 173.078C56.5162 171.673 54.6652 171.621 51.483 172.141C48.7432 174.962 48.7432 174.962 46.483 178.141C42.9873 180.471 41.5964 180.728 37.483 180.141C35.108 177.641 35.108 177.641 33.483 175.141C29.7776 175.502 27.1465 176.218 24.0455 178.203C20.3745 180.401 17.8019 180.747 13.483 180.141C9.24007 179.062 6.46657 177.492 3.86578 173.918C-0.70849 165.144 -0.779359 155.619 1.35797 146.078C3.04729 141.177 6.09937 137.577 9.35748 133.603C13.197 128.804 16.1355 123.703 18.983 118.266C19.4039 117.469 19.8249 116.673 20.2586 115.852C22.0531 112.35 23.4781 109.158 24.5572 105.355C25.5141 102.033 26.6454 100.243 28.7955 97.5781C31.6228 93.7295 33.2475 90.318 34.6705 85.7656C40.7779 67.3425 52.8491 51.4597 68.483 40.1406C70.7953 38.9845 72.2235 38.9747 74.7955 38.9531C75.5547 38.9389 76.314 38.9248 77.0963 38.9102C79.483 39.1406 79.483 39.1406 81.7359 40.1538C84.975 41.3174 87.3895 41.2922 90.8228 41.1602C92.6553 41.111 92.6553 41.111 94.5247 41.0608C96.4531 41.0075 96.4531 41.0075 98.4205 40.9531C113.151 40.7639 123.068 42.3879 135.065 51.3711C143.969 57.8876 155.164 63.3084 166.483 62.1406C168.34 60.6901 168.34 60.6901 169.608 58.5781C170.104 57.8485 170.601 57.1189 171.112 56.3672C172.311 54.4196 173.446 52.458 174.545 50.4531C176.512 47.0914 178.628 44.7645 181.483 42.1406C181.813 41.8106 182.143 41.4806 182.483 41.1406C184.564 41.0407 186.649 41.011 188.733 41.0156C189.873 41.013 191.012 41.0105 192.186 41.0078C195.483 41.1406 195.483 41.1406 198.112 41.8242C201.39 42.2616 202.505 41.2294 205.17 39.3281C220.991 28.6897 238.118 20.819 255.698 13.5664C256.753 13.1307 257.809 12.695 258.897 12.2461C260.928 11.4121 262.962 10.5847 264.999 9.76562C270.927 7.34708 276.412 4.60202 281.893 1.28394C284.976 -0.0769172 287.145 -0.154731 290.483 0.140625Z" fill="#FCFBFC"/>
<path d="M290.483 0.140625C296.919 3.51951 300.123 11.3758 302.495 17.9414C303.22 20.3309 303.882 22.7169 304.483 25.1406C304.657 25.7569 304.831 26.3733 305.01 27.0082C305.503 29.2289 305.603 31.1779 305.596 33.4502C305.596 34.2908 305.596 35.1313 305.596 35.9974C305.591 36.8954 305.586 37.7935 305.581 38.7188C305.579 40.1086 305.578 40.1086 305.576 41.5266C305.571 44.4813 305.558 47.4359 305.545 50.3906C305.54 52.3958 305.536 54.401 305.532 56.4062C305.521 61.3177 305.504 66.2292 305.483 71.1406C306.653 69.9645 306.653 69.9645 307.847 68.7646C310.066 66.5557 312.315 64.4502 314.67 62.3906C315.682 61.5012 315.682 61.5012 316.713 60.5938C319.034 58.6878 320.283 58.1673 323.295 57.7656C327.507 58.2611 328.788 59.9842 331.483 63.1406C331.813 63.4706 332.143 63.8006 332.483 64.1406C332.643 66.6594 332.742 69.154 332.799 71.6758C332.831 72.8057 332.831 72.8057 332.862 73.9584C332.928 76.3732 332.987 78.7881 333.045 81.2031C333.089 82.8366 333.132 84.4701 333.176 86.1035C333.284 90.1158 333.385 94.1281 333.483 98.1406C334.244 98.1302 335.006 98.1197 335.79 98.1089C339.25 98.0672 342.71 98.0413 346.17 98.0156C347.369 97.9989 348.567 97.9821 349.801 97.9648C350.958 97.9584 352.115 97.952 353.307 97.9453C354.902 97.9296 354.902 97.9296 356.529 97.9136C360.722 98.2359 363.498 99.1556 366.483 102.141C366.977 105.819 366.893 107.547 364.76 110.633C363.988 111.419 363.216 112.205 362.42 113.016C361.59 113.884 360.76 114.753 359.905 115.648C359.106 116.471 358.306 117.293 357.483 118.141C356.368 119.381 355.263 120.63 354.17 121.891C353.612 122.534 353.054 123.177 352.479 123.84C351.82 124.599 351.162 125.358 350.483 126.141C349.843 126.867 349.843 126.867 349.19 127.608C341.417 136.433 334.286 145.551 327.483 155.141C326.988 155.836 326.492 156.532 325.982 157.249C322.92 161.551 319.881 165.869 316.853 170.195C315.641 171.916 314.413 173.625 313.182 175.332C306.492 184.713 300.791 194.642 294.984 204.584C292.955 208.04 290.89 211.473 288.795 214.891C288.193 215.875 287.591 216.86 286.971 217.875C285.483 220.141 285.483 220.141 283.483 222.141C279.347 221.871 276.402 221.172 273.483 218.141C273.483 216.821 273.483 215.501 273.483 214.141C267.05 214.553 261.119 215.617 254.928 217.422C245.615 219.365 236.197 219.272 226.733 218.891C225.662 218.864 224.591 218.836 223.487 218.809C217.136 218.566 212.31 217.661 206.483 215.141C205.056 214.763 203.62 214.419 202.17 214.141C193.175 212.225 185.106 209.737 176.847 205.684C173.509 204.049 170.318 202.73 166.733 201.766C163.228 200.013 163.011 199.893 161.858 196.453C161.657 195.671 161.456 194.888 161.249 194.082C160.255 190.263 158.955 186.597 157.608 182.891C157.375 182.205 157.142 181.52 156.902 180.814C154.918 175.329 152.269 171.699 147.045 168.777C136.576 164.899 127.54 164.906 117.221 169.117C108.1 172.526 95.6176 174.317 86.3228 171.02C84.4331 170.141 82.5635 169.216 80.7252 168.234C78.4494 166.921 78.4494 166.921 75.483 167.141C73.828 168.958 73.828 168.958 72.233 171.203C70.3853 173.418 70.3853 173.418 68.483 175.141C64.7819 175.266 62.6819 174.758 59.4205 173.078C56.5162 171.673 54.6652 171.621 51.483 172.141C48.7432 174.962 48.7432 174.962 46.483 178.141C42.9873 180.471 41.5964 180.728 37.483 180.141C35.108 177.641 35.108 177.641 33.483 175.141C29.7776 175.502 27.1465 176.218 24.0455 178.203C20.3745 180.401 17.8019 180.747 13.483 180.141C9.24007 179.062 6.46657 177.492 3.86578 173.918C-0.70849 165.144 -0.779359 155.619 1.35797 146.078C3.04729 141.177 6.09937 137.577 9.35748 133.603C13.197 128.804 16.1355 123.703 18.983 118.266C19.4039 117.469 19.8249 116.673 20.2586 115.852C22.0531 112.35 23.4781 109.158 24.5572 105.355C25.5141 102.033 26.6454 100.243 28.7955 97.5781C31.6228 93.7295 33.2475 90.318 34.6705 85.7656C40.7779 67.3425 52.8491 51.4597 68.483 40.1406C70.7953 38.9845 72.2235 38.9747 74.7955 38.9531C75.5547 38.9389 76.314 38.9248 77.0963 38.9102C79.483 39.1406 79.483 39.1406 81.7359 40.1538C84.975 41.3174 87.3895 41.2922 90.8228 41.1602C92.6553 41.111 92.6553 41.111 94.5247 41.0608C96.4531 41.0075 96.4531 41.0075 98.4205 40.9531C113.151 40.7639 123.068 42.3879 135.065 51.3711C143.969 57.8876 155.164 63.3084 166.483 62.1406C168.34 60.6901 168.34 60.6901 169.608 58.5781C170.104 57.8485 170.601 57.1189 171.112 56.3672C172.311 54.4196 173.446 52.458 174.545 50.4531C176.512 47.0914 178.628 44.7645 181.483 42.1406C181.813 41.8106 182.143 41.4806 182.483 41.1406C184.564 41.0407 186.649 41.011 188.733 41.0156C189.873 41.013 191.012 41.0105 192.186 41.0078C195.483 41.1406 195.483 41.1406 198.112 41.8242C201.39 42.2616 202.505 41.2294 205.17 39.3281C220.991 28.6897 238.118 20.819 255.698 13.5664C256.753 13.1307 257.809 12.695 258.897 12.2461C260.928 11.4121 262.962 10.5847 264.999 9.76562C270.927 7.34708 276.412 4.60202 281.893 1.28394C284.976 -0.0769172 287.145 -0.154731 290.483 0.140625ZM280.233 12.7656C276 15.4106 271.728 17.3318 267.045 19.0156C245.48 26.7948 223.085 36.1282 204.256 49.418C201.483 51.1406 201.483 51.1406 197.733 50.9531C194.483 50.1406 194.483 50.1406 192.483 49.1406C189.155 48.3053 189.155 48.3053 185.483 49.1406C182.942 51.8039 181.297 54.9562 179.483 58.1406C178.239 60.0613 176.989 61.9779 175.733 63.8906C174.024 66.5235 172.612 68.7051 171.717 71.7188C170.191 74.7131 168.294 75.5927 165.369 77.104C162.297 78.7928 159.747 81.0387 157.108 83.3281C156.553 83.8072 155.998 84.2862 155.426 84.7798C153.769 86.2229 152.124 87.6791 150.483 89.1406C149.534 89.9798 148.585 90.819 147.608 91.6836C146.783 92.4532 145.958 93.2227 145.108 94.0156C144.378 94.6937 143.649 95.3717 142.897 96.0703C141.292 98.0659 141.292 98.0659 141.233 100.605C143.253 104.703 146.855 105.902 150.858 107.828C152.611 108.712 154.363 109.596 156.116 110.48C157.013 110.925 157.911 111.37 158.836 111.828C175.789 120.236 192.16 129.627 207.948 140.07C208.598 140.499 209.249 140.929 209.919 141.371C211.599 142.489 213.268 143.625 214.936 144.762C215.777 145.217 216.617 145.672 217.483 146.141C218.473 145.811 219.463 145.481 220.483 145.141C220.642 144.276 220.8 143.411 220.963 142.52C230.187 92.7325 230.187 92.7325 233.483 86.1406C235.149 86.0979 236.817 86.1 238.483 86.1406C238.813 86.4706 239.143 86.8006 239.483 87.1406C238.986 92.3676 238.08 97.4105 236.96 102.543C236.659 103.934 236.358 105.326 236.058 106.718C235.902 107.431 235.747 108.144 235.587 108.879C233.191 119.881 230.854 130.872 229.088 141.996C228.336 145.904 227.439 149.631 225.295 153.016C222.195 154.94 220.08 154.597 216.483 154.141C209.711 151.707 203.895 147.459 197.997 143.433C182.412 132.918 165.656 123.334 148.639 115.316C147.688 114.862 147.688 114.862 146.718 114.398C144.987 113.577 143.247 112.776 141.506 111.977C137.803 109.728 135.988 107.667 133.483 104.141C132.805 99.9236 133.01 97.9346 135.202 94.2578C141.809 85.2287 150.275 78.3564 159.483 72.1406C156.245 70.3582 153.043 69.4174 149.483 68.4531C139.813 65.5369 131.722 60.1721 123.518 54.4023C115.305 49.3103 105.95 48.8275 96.5455 48.9531C95.6012 48.9538 94.657 48.9544 93.6841 48.9551C88.9253 48.8094 88.9253 48.8094 84.483 50.1406C82.15 50.1808 79.8159 50.1838 77.483 50.1406C77.153 49.1506 76.823 48.1606 76.483 47.1406C71.6946 47.5791 68.9875 49.8304 65.608 53.0156C65.0791 53.511 64.5503 54.0064 64.0054 54.5168C53.3006 64.8787 47.2615 79.6079 41.4127 93.1172C39.3326 97.6444 37.025 102.187 33.9322 106.105C32.3374 108.345 31.6642 110.268 30.858 112.891C27.094 123.649 21.0638 133.456 13.9244 142.285C8.81743 148.859 8.51491 156.118 9.48297 164.141C10.6604 167.042 12.264 168.922 14.483 171.141C17.4602 171.566 19.6103 171.712 22.19 170.023C23.0466 169.339 23.0466 169.339 23.9205 168.641C26.6416 166.526 27.4993 166.138 31.108 165.641C34.6558 166.166 36.5361 167.176 39.483 169.141C40.473 169.141 41.463 169.141 42.483 169.141C43.8368 167.491 45.1697 165.823 46.483 164.141C53.247 161.886 59.7754 163.402 66.483 165.141C66.8581 164.503 67.2332 163.864 67.6197 163.207C68.3873 161.968 68.3873 161.968 69.1705 160.703C69.6693 159.879 70.1682 159.056 70.6822 158.207C72.483 156.141 72.483 156.141 74.9048 155.18C78.1864 155.13 79.4325 156.013 82.0455 157.953C89.0963 163.098 93.7236 163.914 102.483 163.141C113.514 161.543 113.514 161.543 123.483 157.141C134.456 155.925 147.254 157.662 156.483 164.141C162.069 168.878 164.513 173.934 166.463 180.918C166.8 181.981 167.136 183.045 167.483 184.141C167.701 184.865 167.92 185.59 168.145 186.337C170.264 192.225 172.82 194.62 178.44 197.285C179.341 197.671 180.242 198.056 181.17 198.453C182.563 199.083 182.563 199.083 183.983 199.727C191.161 202.859 198.334 204.965 206.014 206.422C209.483 207.141 209.483 207.141 211.995 208.195C217.715 210.369 224.399 209.92 230.483 210.141C231.497 210.184 231.497 210.184 232.531 210.228C242.559 210.615 255.241 210.762 264.483 206.141C266.944 206.156 266.944 206.156 269.858 206.391C270.814 206.458 271.771 206.525 272.756 206.594C275.758 207.196 277.149 208.228 279.483 210.141C280.143 210.141 280.803 210.141 281.483 210.141C281.921 209.362 282.36 208.583 282.811 207.781C285.017 203.89 287.244 200.013 289.483 196.141C290.15 194.984 290.15 194.984 290.83 193.805C297.604 182.115 304.904 171.046 312.962 160.204C314.857 157.634 316.701 155.029 318.541 152.419C328.124 138.835 338.647 125.134 350.96 113.887C352.784 111.796 353.583 109.748 354.483 107.141C351.245 106.061 348.905 106.026 345.503 106.043C343.757 106.048 343.757 106.048 341.977 106.053C340.155 106.065 340.155 106.065 338.295 106.078C336.456 106.085 336.456 106.085 334.579 106.092C331.547 106.104 328.515 106.12 325.483 106.141C325.483 105.481 325.483 104.821 325.483 104.141C320.132 105.567 316.383 108.028 312.045 111.328C311.352 111.856 310.658 112.383 309.943 112.927C298.483 121.852 288.6 131.731 281.07 144.214C279.85 146.168 279.85 146.168 277.483 149.141C274.741 149.645 274.741 149.645 272.483 149.141C271.483 148.141 271.483 148.141 271.247 145.851C271.526 142.646 272.356 141.339 274.264 138.777C274.86 137.972 275.455 137.167 276.069 136.338C276.701 135.51 277.332 134.681 277.983 133.828C278.584 133.012 279.184 132.195 279.803 131.354C285.693 123.49 292.366 116.683 300.108 110.641C300.696 110.18 301.283 109.719 301.888 109.245C308.686 104.042 316.331 98.8578 324.483 96.1406C324.153 86.5706 323.823 77.0006 323.483 67.1406C319.492 69.1361 317.523 70.9526 314.483 74.1406C308.041 80.897 308.041 80.897 302.858 81.3906C300.483 81.1406 300.483 81.1406 298.483 79.1406C297.483 72.7487 297.406 66.3958 297.342 59.9414C297.333 59.0983 297.323 58.2551 297.313 57.3864C297.233 50.2437 297.233 50.2437 297.232 46.8127C297.35 27.1059 297.35 27.1059 288.483 10.1406C284.208 10.1406 283.573 10.4882 280.233 12.7656Z" fill="#340E55"/>
<path d="M108.482 118.141C109.482 119.141 109.482 119.141 109.732 122.078C109.65 123.089 109.567 124.099 109.482 125.141C105.949 127.496 104.372 127.416 100.182 127.484C98.2653 127.527 98.2653 127.527 96.3103 127.571C95.6342 127.582 94.9581 127.593 94.2614 127.605C90.7459 127.665 87.2314 127.757 83.7168 127.855C82.6641 127.885 82.6641 127.885 81.5901 127.915C73.6216 128.162 65.7173 128.911 57.791 129.738C54.3347 130.08 50.9572 130.392 47.4824 130.141C46.8224 129.481 46.1624 128.821 45.4824 128.141C46.038 123.585 46.038 123.585 47.4824 122.141C52.5785 121.268 57.7244 120.694 62.8574 120.078C63.6168 119.986 64.3761 119.894 65.1584 119.8C79.4721 118.1 94.077 116.898 108.482 118.141Z" fill="#340E54"/>
<path d="M218.67 169.828C222.42 170.245 224.36 172.039 227.482 174.141C233.178 176.758 238.182 177.431 244.416 177.051C246.482 177.141 246.482 177.141 248.482 179.141C248.153 182.438 247.86 183.763 245.482 186.141C236.262 187.562 226.564 185.027 218.795 179.953C216.482 178.141 216.482 178.141 215.482 177.141C215.357 174.141 215.357 174.141 215.482 171.141C216.482 170.141 216.482 170.141 218.67 169.828Z" fill="#361056"/>
</svg>
