<svg width="244" height="348" viewBox="0 0 244 348" fill="none" xmlns="http://www.w3.org/2000/svg">
<path d="M150.239 177.934C150.239 175.725 152.03 173.934 154.239 173.934C156.448 173.934 158.239 175.725 158.239 177.934C158.239 178.081 158.197 187.524 157.945 202.74C157.8 211.512 154.459 216.098 149.946 227.5C147.62 233.376 144.749 242.232 139.333 249.108C133.931 255.966 125.648 265.268 117.685 273.725C109.532 282.385 109.636 297.167 104.133 303.095C98.0151 310.499 94.7193 314.855 92.5 319C90.336 323.042 92.1734 323.038 90.5381 329.911C89.9194 334.648 89.7149 340.25 89.5 346.285C89.4214 348.493 77.3998 346.363 75.192 346.285C72.9844 346.206 71.2589 344.352 71.3375 342.144C71.5515 336.136 71.764 330.04 72.4655 324.796L72.4928 324.597L72.5387 324.402C74.2276 317.282 75.6435 312.398 78.3405 307.361C80.9936 302.405 84.7987 297.468 90.9342 290.046L91.0065 289.958L91.0846 289.874C96.3717 284.174 104.189 276.389 111.86 268.242C119.759 259.852 127.859 250.745 133.048 244.158C138.222 237.589 140.492 233.901 142.42 229.032C147.061 217.306 154.122 205.044 154.239 198C154.365 190.409 150.144 188.869 150.186 184.607C150.207 182.476 150.22 180.816 150.228 179.683C150.232 179.117 150.234 178.682 150.236 178.385C150.237 178.237 150.238 178.123 150.238 178.046C150.238 177.961 150.239 177.93 150.239 177.934Z" fill="#320352"/>
</svg>
