<svg width="973" height="494" viewBox="0 0 973 494" fill="none" xmlns="http://www.w3.org/2000/svg">
<path d="M964.874 324.3C964.874 322.091 966.665 320.3 968.874 320.3C971.083 320.301 972.874 322.091 972.874 324.3C972.874 324.447 972.832 333.89 972.58 349.106C972.434 357.878 969.093 362.465 964.581 373.866C962.255 379.743 959.384 388.598 953.967 395.474C948.566 402.332 940.283 411.634 932.32 420.091C924.167 428.751 924.271 443.534 918.768 449.461C912.65 456.865 909.354 461.221 907.135 465.366C904.971 469.408 906.808 469.404 905.173 476.277C904.554 481.014 904.35 486.616 904.135 492.651C904.056 494.859 892.035 492.73 889.827 492.651C887.619 492.572 885.894 490.718 885.972 488.51C886.186 482.503 886.399 476.406 887.1 471.162L887.128 470.964L887.173 470.768C888.862 463.648 890.278 458.765 892.975 453.727C895.628 448.772 899.433 443.835 905.569 436.412L905.641 436.324L905.719 436.24C911.006 430.54 918.824 422.755 926.495 414.608C934.394 406.218 942.493 397.111 947.682 390.524C952.856 383.956 955.127 380.267 957.054 375.398C961.696 363.672 968.757 351.41 968.874 344.366C968.999 336.775 964.779 335.235 964.821 330.973C964.842 328.843 964.855 327.183 964.863 326.049C964.867 325.483 964.869 325.048 964.871 324.752C964.872 324.603 964.872 324.49 964.873 324.412C964.873 324.327 964.874 324.296 964.874 324.3Z" fill="#320352"/>
<path d="M34.2963 3.25718C34.2963 1.45829 32.838 0 31.0391 0C29.2403 0.000114151 27.7819 1.45836 27.7819 3.25718C27.7819 3.37645 27.8161 11.0661 28.0213 23.4563C28.1396 30.5992 30.8601 34.3341 34.5348 43.6184C36.4288 48.4035 38.7667 55.6144 43.1772 61.2137C47.5757 66.7977 54.3205 74.3727 60.8046 81.2593C67.4439 88.3109 67.3587 100.348 71.8402 105.175C76.8218 111.204 79.5056 114.751 81.3128 118.126C83.0749 121.418 81.5787 121.414 82.9104 127.011C83.4142 130.869 83.5807 135.43 83.7557 140.344C83.8197 142.142 93.6088 140.408 95.4066 140.344C97.2042 140.28 98.6093 138.77 98.5453 136.973C98.371 132.08 98.198 127.116 97.6268 122.846L97.6045 122.684L97.5672 122.525C96.1919 116.728 95.0389 112.751 92.8428 108.649C90.6824 104.614 87.5839 100.593 82.5878 94.5489L82.5289 94.4773L82.4653 94.4089C78.1601 89.7677 71.7942 83.4283 65.548 76.7942C59.1155 69.9623 52.5204 62.5469 48.2951 57.1828C44.082 51.834 42.2329 48.8308 40.6635 44.8658C36.8842 35.3171 31.134 25.3324 31.0391 19.5967C30.9367 13.4151 34.3732 12.1612 34.3392 8.69085C34.3222 6.95586 34.3114 5.60421 34.305 4.6814C34.3018 4.22014 34.3 3.86595 34.2986 3.62457C34.298 3.50387 34.2973 3.41124 34.2971 3.34783C34.2967 3.2788 34.2963 3.25351 34.2963 3.25718Z" fill="#320352"/>
<path d="M45.7546 363.251C45.7546 361.97 46.793 360.932 48.0741 360.932C49.355 360.932 50.3936 361.97 50.3936 363.251C50.3936 363.336 50.3692 368.812 50.2231 377.635C50.1389 382.722 48.2015 385.382 45.5847 391.993C44.236 395.401 42.5711 400.536 39.4303 404.523C36.298 408.5 31.4948 413.894 26.8774 418.798C22.1494 423.82 22.2101 432.392 19.0187 435.829C15.4712 440.122 13.56 442.648 12.2731 445.052C11.0183 447.396 12.0838 447.393 11.1354 451.379C10.7767 454.126 10.6581 457.374 10.5335 460.874C10.4879 462.154 3.51684 460.919 2.23663 460.874C0.95647 460.828 -0.0440904 459.753 0.00149799 458.473C0.125559 454.989 0.248795 451.453 0.655558 448.412L0.671414 448.298L0.69803 448.184C1.6774 444.056 2.49845 441.224 4.06233 438.303C5.6008 435.429 7.80729 432.566 11.3652 428.262L11.4071 428.211L11.4524 428.162C14.5182 424.857 19.0515 420.343 23.4995 415.618C28.0802 410.753 32.7767 405.472 35.7857 401.653C38.786 397.844 40.1027 395.705 41.2203 392.881C43.9117 386.082 48.0064 378.971 48.0741 374.887C48.147 370.485 45.6998 369.592 45.724 367.12C45.7361 365.885 45.7438 364.922 45.7483 364.265C45.7506 363.937 45.7519 363.685 45.7529 363.513C45.7533 363.427 45.7538 363.361 45.754 363.316C45.7542 363.266 45.7546 363.248 45.7546 363.251Z" fill="#320352"/>
</svg>
