<svg width="683" height="574" viewBox="0 0 683 574" fill="none" xmlns="http://www.w3.org/2000/svg">
<g clip-path="url(#clip0_1272_71253)">
<path d="M102.607 104.125C102.223 125.739 119.809 158.231 118.35 167.458C117.409 173.411 105.556 170.699 97.0934 171.036C88.6311 171.372 51.5934 172.345 33.1192 191.381C14.645 210.417 11.4129 230.229 13.4797 250.492C15.5465 270.756 33.9439 296.689 50.1975 305.392C66.451 314.094 100.586 320.148 86.4383 324.338C74.0965 327.994 53.3454 332.259 33.3895 346.908C16.7693 359.108 5.47811 376.571 3.24683 388.157C1.99697 394.647 0.269827 409.687 12.7443 419.614C25.2189 429.541 51.339 431.276 70.5468 427.646C89.7546 424.017 150.917 389.281 121.495 416.305C109.595 427.236 101.308 440.652 101.897 456.114C102.485 471.576 106.097 481.753 116.83 493.749C127.564 505.744 136.105 511.491 149.141 513.352C162.177 515.213 179.326 513.609 196.966 506.451C214.607 499.292 225.655 485.254 243.333 475.846C246.713 474.047 250.434 473.959 250.776 476.681C251.647 483.631 237.222 510.047 246.836 533.203C256.451 556.359 268.573 566.145 290.547 568.09C312.522 570.034 340.637 564.21 353.216 539.997C365.796 515.784 365.42 492.381 375.864 492.682C387.483 493.016 399.001 524.966 417.38 536.102C435.759 547.238 460.509 544.791 473.846 539.691C487.183 534.591 501.522 521.265 506.266 498.81C511.01 476.355 491.834 452.786 507.73 447.922C511.027 446.913 529.709 458.433 535.266 460.062C552.076 464.99 579.537 466.251 604.246 454.325C628.955 442.4 647.31 431.666 656.668 411.162C666.026 390.658 668.001 376.28 663.768 358.084C659.534 339.888 644.134 319.357 627.787 308.269C611.441 297.182 578.876 296.837 578.655 286.602C578.389 274.319 599.17 284.536 645.965 263.752C692.76 242.969 683.155 203.709 666.448 176.66C649.742 149.61 618.232 147.624 590.699 152.432C563.166 157.241 535.942 174.985 511.881 184.989C505.042 187.833 503.923 179.787 508.183 175.67C525.65 158.787 546.947 149.701 559.378 135.866C571.809 122.03 577.35 100.509 571.234 85.0965C565.119 69.6841 549.468 53.8996 533.305 52.9524C517.142 52.0053 502.791 53.4749 473.891 69.8927C444.991 86.3105 427.901 120.544 419.928 117.774C415.968 116.398 417.424 112.539 419.994 102.887C422.565 93.235 425.992 80.3657 426.432 59.9694C426.873 39.5731 414.462 21.2012 396.207 9.6053C377.952 -1.99064 338.577 -0.143774 312.439 18.9332C286.3 38.0101 284.494 54.5353 279.185 71.6921C274.776 85.9388 274.558 124.169 267.924 113.886C263.698 107.334 256.725 86.0601 247.817 70.064C238.91 54.0679 226.44 39.8468 202.4 30.8759C178.36 21.9051 155.337 24.1036 132.421 39.4716C109.505 54.8397 102.991 82.5121 102.607 104.125Z" fill="white" stroke="black" stroke-width="4.76571" stroke-linecap="round"/>
</g>
<path d="M619.415 536.605C620.918 523.907 625.71 517.094 627.585 515.435C632.922 510.715 649.707 508.847 659.715 510.715C669.723 512.582 673.834 516.862 676.574 522.211C679.315 527.561 680 531.483 680 538.973C680 546.462 676.334 554.945 671.778 560.013C667.222 565.081 657.33 571.028 651.317 571C637.796 570.937 634.205 570.453 631.526 568.261C628.478 565.768 624.456 562.817 620.557 552.318C619.317 548.977 618.446 544.787 619.415 536.605Z" fill="white" stroke="black" stroke-width="6" stroke-linecap="round"/>
<path d="M227.949 262.375C227.949 263.312 227.422 264.074 226.367 264.66C225.352 265.246 224.258 265.539 223.086 265.539C221.367 265.539 220.508 264.191 220.508 261.496C220.508 260.949 220.488 260.109 220.449 258.977C220.41 257.805 220.391 256.926 220.391 256.34V253.645C220.391 253.254 220.234 249.309 219.922 241.809C211.68 242.941 204.375 244.699 198.008 247.082C198.203 251.926 198.535 255.793 199.004 258.684L199.121 259.387C199.121 259.504 199.199 259.934 199.355 260.676C199.512 261.418 199.609 261.848 199.648 261.965C199.922 263.957 200.059 265.051 200.059 265.246C200.059 266.027 199.434 266.711 198.184 267.297C197.129 267.844 196.113 268.117 195.137 268.117C193.77 268.117 192.969 267.219 192.734 265.422C192.695 264.289 192.637 262.609 192.559 260.383C192.246 256.594 191.797 250.91 191.211 243.332C190.742 236.73 190.508 231.047 190.508 226.281V223.996C190.508 222.824 191.152 221.867 192.441 221.125C193.613 220.422 194.824 220.07 196.074 220.07C197.754 220.07 198.594 220.734 198.594 222.062C198.594 222.297 198.574 222.668 198.535 223.176L198.418 224.816C198.027 230.285 197.832 235.109 197.832 239.289C205.059 236.945 212.363 235.559 219.746 235.129L219.629 222.473C219.824 220.754 220.293 219.543 221.035 218.84C222.207 217.941 223.73 217.492 225.605 217.492C227.129 217.492 227.891 218.039 227.891 219.133C227.891 219.719 227.695 222.023 227.305 226.047L226.836 230.969C226.68 232.609 226.582 233.977 226.543 235.07C227.52 235.305 228.477 235.773 229.414 236.477C230.547 237.336 231.113 238.195 231.113 239.055C231.113 240.344 229.551 240.988 226.426 240.988V242.688C226.426 248.938 226.68 253.645 227.188 256.809C227.305 257.395 227.441 258.234 227.598 259.328L227.832 261.145C227.91 261.73 227.949 262.141 227.949 262.375ZM282.5 261.203C282.5 262.258 281.953 263.215 280.859 264.074C279.805 264.934 278.711 265.363 277.578 265.363C276.562 265.363 275.605 264.406 274.707 262.492C274.277 261.359 273.184 259.309 271.426 256.34C264.785 257.355 256.309 258.664 245.996 260.266C243.848 265.461 242.246 268.059 241.191 268.059C240.098 268.059 239.043 267.414 238.027 266.125C237.012 264.836 236.504 263.605 236.504 262.434C236.504 261.926 237.012 260.871 238.027 259.27C238.535 258.488 239.277 257.277 240.254 255.637C243.613 249.895 247.91 240.129 253.145 226.34C253.887 224.387 254.668 222.219 255.488 219.836C256.191 217.805 257.715 216.789 260.059 216.789C261.348 216.789 262.422 217.746 263.281 219.66C263.75 221.105 264.492 223.254 265.508 226.105C269.727 237.238 274.16 246.691 278.809 254.465C279.59 255.637 280.684 257.453 282.09 259.914C282.363 260.461 282.5 260.891 282.5 261.203ZM268.203 248.898C265.859 243.117 262.988 235.93 259.59 227.336C257.832 231.359 255.918 236.008 253.848 241.281L249.512 252.355C256.191 251.613 262.422 250.461 268.203 248.898ZM357.676 222.004C357.676 222.082 356.465 223.312 354.043 225.695C350.996 228.664 348.652 230.91 347.012 232.434C345.84 233.488 344.844 234.406 344.023 235.188L342.5 236.711L336.348 242.57C334.395 244.406 332.598 246.145 330.957 247.785C337.246 252.59 344.238 256.75 351.934 260.266C352.598 260.5 353.594 260.891 354.922 261.438C356.133 262.062 356.738 262.551 356.738 262.902C356.738 263.645 355.918 264.387 354.277 265.129C352.832 265.793 351.621 266.125 350.645 266.125C349.941 266.125 345.566 264.758 337.52 262.023C333.066 260.5 329.16 258.41 325.801 255.754C325.801 256.496 325.84 257.512 325.918 258.801C325.996 260.324 326.055 261.359 326.094 261.906C326.094 262.688 326.094 263.234 326.094 263.547C326.094 265.344 324.727 266.438 321.992 266.828C320.156 266.633 319.023 265.871 318.594 264.543C318.359 263.918 318.242 263.176 318.242 262.316V259.68C318.242 259.25 318.262 258.586 318.301 257.688C318.379 256.789 318.418 256.125 318.418 255.695C315.723 257.883 312.383 259.797 308.398 261.438C305.898 262.453 302.227 263.684 297.383 265.129C295.156 265.793 293.906 266.125 293.633 266.125C292.656 266.125 291.445 265.793 290 265.129C288.398 264.465 287.559 263.723 287.48 262.902C287.441 262.551 288.047 262.043 289.297 261.379C289.961 261.066 290.938 260.695 292.227 260.266C299.453 257.023 306.484 252.863 313.32 247.785C311.641 246.145 309.824 244.406 307.871 242.57L301.602 236.711C301.094 236.047 299.062 234.055 295.508 230.734C293.867 229.289 292.227 227.863 290.586 226.457C287.852 223.957 286.484 222.492 286.484 222.062C286.523 220.656 287.734 219.953 290.117 219.953C292.266 219.953 294.531 221.145 296.914 223.527C303.633 229.074 310.918 234.602 318.77 240.109L318.887 240.051L318.945 239.934C319.141 239.543 319.258 238.859 319.297 237.883C319.297 236.711 319.219 235.012 319.062 232.785C318.906 230.52 318.828 228.859 318.828 227.805C318.789 227.57 318.711 226.398 318.594 224.289C318.516 222.648 318.477 221.32 318.477 220.305C318.477 219.172 319.336 218.605 321.055 218.605H323.398C325.117 218.605 325.977 219.172 325.977 220.305C325.977 221.125 325.938 222.18 325.859 223.469C325.781 225.109 325.742 226.164 325.742 226.633C325.703 227.297 325.664 227.727 325.625 227.922C325.352 232.961 325.215 236.984 325.215 239.992L325.273 240.109L325.449 240.168C333.73 234.387 340.996 228.84 347.246 223.527C348.73 222.277 349.766 221.477 350.352 221.125C351.602 220.344 352.832 219.953 354.043 219.953C356.465 219.953 357.676 220.637 357.676 222.004ZM416.27 261.672C416.27 262.727 415.742 263.82 414.688 264.953C413.672 266.047 412.656 266.594 411.641 266.594C410.703 266.594 409.512 264.23 408.066 259.504C407.285 256.691 406.523 253.879 405.781 251.066C404.336 245.793 402.559 239.719 400.449 232.844C398.965 237.492 397.148 243.781 395 251.711C392.383 261.281 390.742 266.652 390.078 267.824C389.688 268.527 389.199 268.879 388.613 268.879C387.637 268.879 386.719 268.137 385.859 266.652C385.039 265.363 384.629 264.152 384.629 263.02C384.629 262.824 384.668 262.492 384.746 262.023L376.25 234.777C372.852 246.027 369.883 255.422 367.344 262.961C366.953 264.992 366.289 266.711 365.352 268.117C365 268.625 364.609 268.879 364.18 268.879C363.281 268.879 362.363 268.137 361.426 266.652C360.566 265.285 360.137 264.074 360.137 263.02C360.137 262.551 360.449 261.613 361.074 260.207C361.426 259.465 361.934 258.332 362.598 256.809C363.926 253.527 365.352 249.582 366.875 244.973C369.57 236.73 371.66 229.113 373.145 222.121C373.574 220.012 374.648 218.957 376.367 218.957C377.266 218.957 377.988 219.855 378.535 221.652C378.77 222.629 379.121 224.074 379.59 225.988C381.543 233.645 384.473 242.57 388.379 252.766C392.246 241.984 395.41 230.559 397.871 218.488C398.301 216.418 399.355 215.383 401.035 215.383C401.816 215.383 402.695 216.789 403.672 219.602C404.414 221.906 404.785 223.684 404.785 224.934C407.949 237.668 410.879 247.551 413.574 254.582C413.926 255.246 414.434 256.223 415.098 257.512C415.879 259.23 416.27 260.617 416.27 261.672ZM459.688 263.488C459.688 264.934 458.613 265.91 456.465 266.418C455.879 266.574 455.312 266.652 454.766 266.652C453.555 266.652 452.793 266.145 452.48 265.129C452.324 264.621 452.266 263.605 452.305 262.082C452.305 260.91 452.285 256.477 452.246 248.781C449.355 251.242 446.406 253.586 443.398 255.812C433.984 263.039 428.027 266.652 425.527 266.652C423.965 266.652 422.988 266.301 422.598 265.598C422.324 265.168 422.188 264.133 422.188 262.492V259.504C422.188 256.379 422.07 252.824 421.836 248.84C421.523 243.605 421.367 240.793 421.367 240.402C421.172 235.52 421.074 232.102 421.074 230.148C421.074 226.555 421.152 223.996 421.309 222.473C421.426 221.223 422.07 220.246 423.242 219.543C424.297 218.918 425.488 218.605 426.816 218.605C428.574 218.605 429.453 219.172 429.453 220.305C429.453 221.086 429.355 222.258 429.16 223.82C429.043 224.445 428.906 225.363 428.75 226.574C428.242 230.52 427.988 235.617 427.988 241.867C427.988 251.438 428.301 256.281 428.926 256.398C429.082 256.672 429.434 256.809 429.98 256.809C431.309 256.027 434.805 253.547 440.469 249.367C445.547 245.422 449.16 242.395 451.309 240.285L451.426 238.176C451.309 234.934 451.25 232.297 451.25 230.266C451.25 226.594 451.328 223.996 451.484 222.473C451.602 221.262 452.246 220.305 453.418 219.602C454.434 218.938 455.586 218.605 456.875 218.605C458.711 218.605 459.629 219.172 459.629 220.305C459.629 221.438 459.414 223.703 458.984 227.102C458.906 227.648 458.848 228.098 458.809 228.449C458.379 232.395 458.164 237.102 458.164 242.57V244.328C458.164 245.5 458.242 247.531 458.398 250.422C458.555 253.312 458.75 255.598 458.984 257.277C459.102 258.332 459.297 259.934 459.57 262.082C459.648 262.746 459.688 263.215 459.688 263.488ZM318.125 322.375C318.125 323.312 317.598 324.074 316.543 324.66C315.527 325.246 314.434 325.539 313.262 325.539C311.543 325.539 310.684 324.191 310.684 321.496C310.684 320.949 310.664 320.109 310.625 318.977C310.586 317.805 310.566 316.926 310.566 316.34V313.645C310.566 313.254 310.41 309.309 310.098 301.809C301.855 302.941 294.551 304.699 288.184 307.082C288.379 311.926 288.711 315.793 289.18 318.684L289.297 319.387C289.297 319.504 289.375 319.934 289.531 320.676C289.688 321.418 289.785 321.848 289.824 321.965C290.098 323.957 290.234 325.051 290.234 325.246C290.234 326.027 289.609 326.711 288.359 327.297C287.305 327.844 286.289 328.117 285.312 328.117C283.945 328.117 283.145 327.219 282.91 325.422C282.871 324.289 282.812 322.609 282.734 320.383C282.422 316.594 281.973 310.91 281.387 303.332C280.918 296.73 280.684 291.047 280.684 286.281V283.996C280.684 282.824 281.328 281.867 282.617 281.125C283.789 280.422 285 280.07 286.25 280.07C287.93 280.07 288.77 280.734 288.77 282.062C288.77 282.297 288.75 282.668 288.711 283.176L288.594 284.816C288.203 290.285 288.008 295.109 288.008 299.289C295.234 296.945 302.539 295.559 309.922 295.129L309.805 282.473C310 280.754 310.469 279.543 311.211 278.84C312.383 277.941 313.906 277.492 315.781 277.492C317.305 277.492 318.066 278.039 318.066 279.133C318.066 279.719 317.871 282.023 317.48 286.047L317.012 290.969C316.855 292.609 316.758 293.977 316.719 295.07C317.695 295.305 318.652 295.773 319.59 296.477C320.723 297.336 321.289 298.195 321.289 299.055C321.289 300.344 319.727 300.988 316.602 300.988V302.688C316.602 308.938 316.855 313.645 317.363 316.809C317.48 317.395 317.617 318.234 317.773 319.328L318.008 321.145C318.086 321.73 318.125 322.141 318.125 322.375ZM372.676 321.203C372.676 322.258 372.129 323.215 371.035 324.074C369.98 324.934 368.887 325.363 367.754 325.363C366.738 325.363 365.781 324.406 364.883 322.492C364.453 321.359 363.359 319.309 361.602 316.34C354.961 317.355 346.484 318.664 336.172 320.266C334.023 325.461 332.422 328.059 331.367 328.059C330.273 328.059 329.219 327.414 328.203 326.125C327.188 324.836 326.68 323.605 326.68 322.434C326.68 321.926 327.188 320.871 328.203 319.27C328.711 318.488 329.453 317.277 330.43 315.637C333.789 309.895 338.086 300.129 343.32 286.34C344.062 284.387 344.844 282.219 345.664 279.836C346.367 277.805 347.891 276.789 350.234 276.789C351.523 276.789 352.598 277.746 353.457 279.66C353.926 281.105 354.668 283.254 355.684 286.105C359.902 297.238 364.336 306.691 368.984 314.465C369.766 315.637 370.859 317.453 372.266 319.914C372.539 320.461 372.676 320.891 372.676 321.203ZM358.379 308.898C356.035 303.117 353.164 295.93 349.766 287.336C348.008 291.359 346.094 296.008 344.023 301.281L339.688 312.355C346.367 311.613 352.598 310.461 358.379 308.898ZM169.912 337.199C172.607 337.395 174.033 338.195 174.189 339.602C174.346 341.164 174.561 343.508 174.834 346.633C175.889 357.57 178.135 367.863 181.572 377.512C182.158 379.074 183.018 381.418 184.15 384.543C184.385 385.246 184.463 385.715 184.385 385.949C184.307 387.16 183.135 387.668 180.869 387.473C178.564 387.355 177.139 386.359 176.592 384.484C174.482 377.102 172.9 371.125 171.846 366.555L171.729 366.145C170.752 362.395 169.365 356.75 167.568 349.211C165.342 353.781 163.271 358.586 161.357 363.625C160.029 367.18 159.072 369.777 158.486 371.418C157.471 374.387 156.67 377.121 156.084 379.621L155.322 382.785C155.127 383.762 154.775 385.09 154.268 386.77C153.799 387.629 153.193 388.117 152.451 388.234C151.436 388.391 150.4 388.117 149.346 387.414C148.174 386.633 147.627 385.734 147.705 384.719C147.783 383.547 150.459 375.988 155.732 362.043C157.178 358.137 158.643 354.211 160.127 350.266C162.08 345.109 163.721 341.281 165.049 338.781C165.713 337.531 167.334 337.004 169.912 337.199ZM228.389 383.488C228.389 384.934 227.314 385.91 225.166 386.418C224.58 386.574 224.014 386.652 223.467 386.652C222.256 386.652 221.494 386.145 221.182 385.129C221.025 384.621 220.967 383.605 221.006 382.082C221.006 380.91 220.986 376.477 220.947 368.781C218.057 371.242 215.107 373.586 212.1 375.812C202.686 383.039 196.729 386.652 194.229 386.652C192.666 386.652 191.689 386.301 191.299 385.598C191.025 385.168 190.889 384.133 190.889 382.492V379.504C190.889 376.379 190.771 372.824 190.537 368.84C190.225 363.605 190.068 360.793 190.068 360.402C189.873 355.52 189.775 352.102 189.775 350.148C189.775 346.555 189.854 343.996 190.01 342.473C190.127 341.223 190.771 340.246 191.943 339.543C192.998 338.918 194.189 338.605 195.518 338.605C197.275 338.605 198.154 339.172 198.154 340.305C198.154 341.086 198.057 342.258 197.861 343.82C197.744 344.445 197.607 345.363 197.451 346.574C196.943 350.52 196.689 355.617 196.689 361.867C196.689 371.438 197.002 376.281 197.627 376.398C197.783 376.672 198.135 376.809 198.682 376.809C200.01 376.027 203.506 373.547 209.17 369.367C214.248 365.422 217.861 362.395 220.01 360.285L220.127 358.176C220.01 354.934 219.951 352.297 219.951 350.266C219.951 346.594 220.029 343.996 220.186 342.473C220.303 341.262 220.947 340.305 222.119 339.602C223.135 338.938 224.287 338.605 225.576 338.605C227.412 338.605 228.33 339.172 228.33 340.305C228.33 341.438 228.115 343.703 227.686 347.102C227.607 347.648 227.549 348.098 227.51 348.449C227.08 352.395 226.865 357.102 226.865 362.57V364.328C226.865 365.5 226.943 367.531 227.1 370.422C227.256 373.312 227.451 375.598 227.686 377.277C227.803 378.332 227.998 379.934 228.271 382.082C228.35 382.746 228.389 383.215 228.389 383.488ZM276.846 373.41C276.846 374.152 276.26 375.012 275.088 375.988C274.15 376.652 273.232 377.316 272.334 377.98C263.467 384.387 255.381 387.59 248.076 387.59C243.311 387.59 239.58 385.93 236.885 382.609C234.424 379.523 233.193 375.539 233.193 370.656C233.193 361.281 236.846 353.352 244.15 346.867C251.182 340.578 259.443 337.434 268.936 337.434C270.264 337.434 271.162 337.551 271.631 337.785C272.334 338.176 272.686 338.957 272.686 340.129V342.004C272.686 342.785 272.9 344.016 273.33 345.695C273.799 347.336 274.033 348.312 274.033 348.625C274.033 349.406 273.35 350.246 271.982 351.145C270.615 352.043 269.521 352.492 268.701 352.492C267.959 352.492 267.334 351.633 266.826 349.914C266.631 349.016 266.299 347.707 265.83 345.988C256.729 347.355 249.854 350.734 245.205 356.125C241.025 360.969 238.936 365.5 238.936 369.719C238.936 373 240.225 375.559 242.803 377.395C245.068 379.035 247.92 379.855 251.357 379.855C254.17 379.855 257.51 379.055 261.377 377.453C261.807 377.258 264.287 375.969 268.818 373.586C272.764 371.477 274.99 370.422 275.498 370.422C276.396 370.422 276.846 371.418 276.846 373.41ZM302.51 346.047C302.197 350.5 302.041 354.719 302.041 358.703C302.041 366.477 302.529 373.41 303.506 379.504C303.701 380.441 303.936 381.809 304.209 383.605C304.287 384.23 304.326 384.66 304.326 384.895C304.326 385.637 303.721 386.32 302.51 386.945C301.455 387.492 300.4 387.766 299.346 387.766C298.135 387.766 297.432 387.375 297.236 386.594C297.08 385.93 296.982 385.012 296.943 383.84C296.943 382.004 296.943 381.086 296.943 381.086C296.475 372.727 296.162 361.496 296.006 347.395C296.514 347.395 296.436 347.512 295.771 347.746C295.381 347.863 294.541 348.098 293.252 348.449C292.002 348.762 291.24 348.957 290.967 349.035C287.646 350.207 285.771 350.793 285.342 350.793C284.17 350.793 283.232 350.227 282.529 349.094C281.943 348.117 281.65 347.004 281.65 345.754C281.65 343.605 282.51 342.16 284.229 341.418C290.791 338.645 297.9 337.258 305.557 337.258C309.111 337.258 311.514 337.395 312.764 337.668C314.287 338.02 315.615 338.605 316.748 339.426C318.154 340.441 318.857 341.633 318.857 343C318.857 344.367 317.178 345.188 313.818 345.461C311.279 345.578 307.51 345.773 302.51 346.047ZM369.893 359.992C369.893 367.805 366.846 374.523 360.752 380.148C354.814 385.656 347.92 388.41 340.068 388.41C335.107 388.41 330.615 387.16 326.592 384.66C322.451 382.082 319.424 378.566 317.51 374.113C316.221 371.223 315.576 368.078 315.576 364.68C315.576 356.984 318.623 350.285 324.717 344.582C330.693 338.996 337.568 336.203 345.342 336.203C352.139 336.203 357.92 338.508 362.686 343.117C367.49 347.688 369.893 353.312 369.893 359.992ZM361.045 362.746C361.045 357.316 359.326 352.629 355.889 348.684C352.295 344.582 347.822 342.531 342.471 342.531C337.197 342.531 332.725 344.602 329.053 348.742C325.576 352.688 323.838 357.355 323.838 362.746C323.838 368.176 325.576 372.844 329.053 376.75C332.686 380.812 337.178 382.844 342.529 382.844C347.803 382.844 352.236 380.793 355.83 376.691C359.307 372.746 361.045 368.098 361.045 362.746ZM413.604 369.074C413.721 370.598 413.877 372.902 414.072 375.988C414.15 377.355 414.189 379.758 414.189 383.195V383.547C414.189 384.367 413.545 385.07 412.256 385.656C411.162 386.164 410.146 386.418 409.209 386.418C408.115 386.418 407.412 385.988 407.1 385.129C406.982 384.738 406.924 383.82 406.924 382.375C406.924 381.125 406.963 379.758 407.041 378.273L407.217 373.762C407.256 372.277 407.256 370.988 407.217 369.895C402.881 370.129 397.803 370.969 391.982 372.414C391.865 372.453 391.338 372.609 390.4 372.883L380.498 375.871C379.521 375.871 378.721 375.461 378.096 374.641C377.471 373.82 377.158 372.902 377.158 371.887C377.158 371.418 377.256 370.93 377.451 370.422C377.139 360.656 376.982 353.645 376.982 349.387V346.691C376.982 346.066 377.002 345.656 377.041 345.461C377.08 344.211 377.568 343.176 378.506 342.355C379.443 341.496 380.537 341.066 381.787 341.066C383.311 341.066 384.072 341.672 384.072 342.883C384.072 344.289 383.955 346.379 383.721 349.152C383.369 353.293 383.193 356.301 383.193 358.176V360.93C383.193 363.586 383.252 365.676 383.369 367.199C390.283 365.09 398.135 363.723 406.924 363.098C406.963 359.152 407.002 355.715 407.041 352.785V345.695C407.041 343.547 407.295 342.023 407.803 341.125C408.506 339.836 409.834 339.191 411.787 339.191C413.271 339.191 414.014 339.738 414.014 340.832C414.014 341.574 413.877 343.41 413.604 346.34C413.525 346.77 413.486 347.16 413.486 347.512C413.252 353.02 413.135 356.242 413.135 357.18C413.135 358.742 413.193 360.734 413.311 363.156C413.467 366.477 413.564 368.449 413.604 369.074ZM427.49 365.734C427.646 370.422 428.096 375.227 428.838 380.148H429.365C432.998 380.148 437.139 379.699 441.787 378.801C443.936 378.371 448.018 377.434 454.033 375.988C454.854 375.793 455.498 375.695 455.967 375.695C457.49 375.695 458.252 376.359 458.252 377.688C458.252 378.547 457.939 379.504 457.314 380.559C456.689 381.574 455.986 382.277 455.205 382.668C451.807 384.426 447.549 385.832 442.432 386.887C437.822 387.824 433.389 388.293 429.131 388.293C427.334 388.293 426.162 388.254 425.615 388.176C423.545 387.902 422.334 385.969 421.982 382.375C421.748 380.383 421.631 377.844 421.631 374.758C421.592 372.219 421.572 369.68 421.572 367.141C419.971 366.594 419.17 365.324 419.17 363.332C419.17 361.613 419.893 360.461 421.338 359.875H421.396C421.357 359.68 421.338 359.035 421.338 357.941L421.279 353.605C421.24 352.004 421.221 350.461 421.221 348.977L421.162 345.988C421.162 344.035 421.416 342.785 421.924 342.238C422.432 341.652 423.643 341.047 425.557 340.422L432.881 338.02C435.342 337.238 438.037 336.848 440.967 336.848C444.756 336.848 447.295 336.984 448.584 337.258C449.6 337.492 450.596 338.176 451.572 339.309C452.627 340.559 453.154 341.633 453.154 342.531C453.154 343.898 451.943 344.66 449.521 344.816C443.936 345.168 440.225 345.52 438.389 345.871C435.615 346.379 432.021 347.57 427.607 349.445C427.412 352.883 427.314 355.734 427.314 358C436.377 355.383 445.146 354.074 453.623 354.074C455.068 354.074 456.533 354.328 458.018 354.836C460.088 355.578 461.123 356.652 461.123 358.059C461.123 359.152 459.795 359.836 457.139 360.109C444.756 361.359 434.873 363.234 427.49 365.734ZM505.127 342.004C505.127 342.004 503.896 343.234 501.436 345.695C499.561 347.57 497.217 349.816 494.404 352.434C493.271 353.488 492.295 354.406 491.475 355.188L489.951 356.711L483.74 362.57C481.787 364.406 479.99 366.145 478.35 367.785C484.717 372.629 491.709 376.789 499.326 380.266C499.99 380.5 500.986 380.891 502.314 381.438C503.525 382.062 504.131 382.551 504.131 382.902C504.131 383.684 503.311 384.426 501.67 385.129C500.225 385.793 499.014 386.125 498.037 386.125C497.373 386.125 493.018 384.758 484.971 382.023C480.479 380.5 476.553 378.41 473.193 375.754C473.193 375.988 473.252 376.457 473.369 377.16L473.662 379.445C473.975 381.633 474.131 382.98 474.131 383.488C474.131 384.543 473.564 385.363 472.432 385.949C471.494 386.457 470.459 386.711 469.326 386.711C467.881 386.711 467.061 385.793 466.865 383.957C466.748 383.176 466.709 382.336 466.748 381.438C466.787 380.148 466.807 379.289 466.807 378.859L466.104 360.168C465.947 354.582 465.869 349.621 465.869 345.285V343.586C465.869 343.195 465.889 342.824 465.928 342.473C466.045 341.262 466.709 340.285 467.92 339.543C468.975 338.918 470.166 338.605 471.494 338.605C473.213 338.605 474.072 339.172 474.072 340.305C474.072 340.656 474.033 341.223 473.955 342.004L473.721 344.465C473.604 345.246 473.467 346.398 473.311 347.922C472.881 353.781 472.666 358.742 472.666 362.805L472.725 362.922L472.842 362.98C480.029 356.301 487.295 349.816 494.639 343.527C497.412 341.145 499.678 339.953 501.436 339.953C503.896 339.953 505.127 340.637 505.127 342.004Z" fill="black"/>
<defs>
<clipPath id="clip0_1272_71253">
<rect width="683" height="571" fill="white"/>
</clipPath>
</defs>
</svg>
