<svg width="566" height="365" viewBox="0 0 566 365" fill="none" xmlns="http://www.w3.org/2000/svg">
<path d="M117.684 12.0557C129.393 6.33477 141.21 4.02576 151.162 5.37598C160.961 6.70547 168.987 11.5513 173.881 20.4873C180.689 32.9188 196.541 40.895 216.235 46.4961C236.273 52.1949 261.814 55.8375 289.983 58.501C318.192 61.1681 349.313 62.8767 380.557 64.6328C411.847 66.3916 443.273 68.1986 472.275 71.0615C501.172 73.914 521.264 78.474 534.933 84.0234C548.599 89.572 555.353 95.903 558.423 102.017C561.47 108.086 561.358 114.885 559.221 122.453C557.061 130.099 553.011 137.923 548.853 145.736C538.246 165.664 537.51 190.426 539.554 216.779C540.581 230.028 542.343 243.958 544.045 258.11C545.753 272.313 547.41 286.797 548.275 301.382C549.891 328.61 534.043 348.029 516.687 355.585C507.982 359.374 499.274 360.022 492.372 357.628C485.689 355.31 480.114 349.956 477.605 340.325C473.038 322.792 456.971 313.008 437.253 307.164C417.361 301.268 392.041 298.853 366.122 297.255C339.953 295.642 313.214 294.862 289.551 292.356C265.738 289.835 246.306 285.657 234.513 277.907C220.496 268.697 202.594 263.775 183.291 260.905C163.952 258.03 142.693 257.15 121.772 256.34C100.731 255.525 80.0424 254.779 61.3701 252.24C42.6586 249.696 26.5223 245.411 14.417 237.846C9.70152 234.899 7.24863 232.144 6.05664 229.646C4.90903 227.241 4.67375 224.539 5.45801 221.104C6.26827 217.557 8.126 213.429 10.9766 208.472C13.8142 203.537 17.4496 198.09 21.6289 191.873C38.2802 167.102 62.3211 131.982 68.7295 79.6943C72.6221 47.9329 94.24 23.5092 117.684 12.0557Z" fill="white" stroke="#320352" stroke-width="10"/>
<path d="M226.796 166.208C226.7 166.794 226.126 167.396 225.074 168.016C224.248 168.418 223.437 168.824 222.642 169.232C214.813 173.142 208.015 174.624 202.248 173.678C198.486 173.061 195.755 171.268 194.057 168.298C192.514 165.543 192.058 162.238 192.69 158.383C193.904 150.982 197.814 145.195 204.42 141.021C210.784 136.966 217.714 135.553 225.207 136.782C226.256 136.954 226.95 137.163 227.29 137.408C227.794 137.808 227.971 138.47 227.819 139.395L227.576 140.875C227.475 141.492 227.486 142.491 227.607 143.873C227.765 145.229 227.824 146.03 227.783 146.277C227.682 146.894 227.034 147.468 225.838 148C224.643 148.533 223.721 148.746 223.073 148.64C222.487 148.544 222.105 147.784 221.927 146.362C221.889 145.627 221.796 144.551 221.649 143.133C214.286 143.035 208.421 144.812 204.054 148.466C200.127 151.749 197.891 155.056 197.345 158.387C196.92 160.977 197.607 163.164 199.404 164.947C200.981 166.535 203.126 167.552 205.839 167.997C208.06 168.361 210.8 168.161 214.06 167.397C214.425 167.299 216.55 166.602 220.436 165.307C223.823 164.153 225.718 163.608 226.118 163.674C226.828 163.79 227.053 164.635 226.796 166.208ZM250.598 147.927C249.775 151.402 249.106 154.713 248.59 157.858C247.584 163.995 247.072 169.532 247.054 174.469C247.087 175.235 247.095 176.344 247.078 177.798C247.059 178.302 247.034 178.646 247.004 178.831C246.908 179.417 246.341 179.878 245.304 180.215C244.401 180.51 243.533 180.59 242.7 180.453C241.744 180.296 241.24 179.897 241.187 179.255C241.149 178.71 241.191 177.973 241.312 177.043C241.55 175.593 241.668 174.869 241.668 174.869C242.38 168.209 243.587 159.302 245.289 148.149C245.69 148.215 245.613 148.298 245.059 148.397C244.735 148.439 244.042 148.515 242.979 148.626C241.951 148.71 241.325 148.766 241.099 148.792C238.326 149.288 236.77 149.508 236.43 149.452C235.505 149.3 234.838 148.732 234.43 147.747C234.094 146.9 234.007 145.983 234.168 144.996C234.446 143.3 235.312 142.27 236.765 141.907C242.305 140.567 248.097 140.392 254.141 141.383C256.947 141.843 258.826 142.262 259.778 142.64C260.935 143.114 261.908 143.749 262.696 144.543C263.674 145.527 264.075 146.559 263.898 147.638C263.721 148.717 262.289 149.147 259.602 148.928C257.582 148.692 254.581 148.359 250.598 147.927ZM272.39 185.368C271.65 185.247 270.927 184.923 270.222 184.395C269.404 183.786 269.05 183.142 269.161 182.464C269.192 182.279 272.246 178.33 278.323 170.618C277.218 168.474 275.527 165.267 273.25 160.999C272.497 159.799 271.419 157.975 270.015 155.528C268.192 152.158 267.392 149.794 267.615 148.437C267.731 147.728 268.191 146.948 268.996 146.099C269.805 145.218 270.472 144.821 270.996 144.907C271.49 144.987 271.997 145.657 272.52 146.914C272.851 147.791 273.182 148.669 273.513 149.547C275.938 155.423 278.653 161.077 281.657 166.51C285.825 161.366 289.175 157.355 291.705 154.477C292.617 153.36 294.04 151.725 295.977 149.572C296.771 148.784 297.769 148.489 298.972 148.686C300.576 148.949 301.675 149.683 302.269 150.889C302.455 151.299 302.517 151.69 302.457 152.06C302.386 152.491 301.582 153.436 300.044 154.894C299.224 155.646 298.023 156.795 296.439 158.341C289.291 165.434 283.201 172.542 278.17 179.666C277.653 180.499 276.863 181.747 275.799 183.41C274.821 184.928 273.685 185.581 272.39 185.368ZM333.333 180.16C333.228 181.378 333.053 183.217 332.808 185.679C332.692 186.768 332.412 188.67 331.967 191.384L331.922 191.661C331.816 192.309 331.216 192.78 330.122 193.076C329.193 193.335 328.359 193.404 327.618 193.283C326.755 193.142 326.255 192.711 326.12 191.992C326.078 191.669 326.151 190.937 326.338 189.796C326.499 188.809 326.707 187.734 326.961 186.573L327.684 183.034C327.907 181.867 328.074 180.849 328.184 179.981C324.731 179.604 320.613 179.61 315.831 179.998C315.734 180.014 315.297 180.069 314.522 180.163L306.317 181.241C305.546 181.114 304.967 180.687 304.58 179.958C304.193 179.23 304.065 178.465 304.196 177.663C304.257 177.293 304.397 176.92 304.617 176.544C305.635 168.794 306.419 163.239 306.97 159.877L307.319 157.749C307.4 157.256 307.468 156.935 307.524 156.786C307.717 155.804 308.236 155.05 309.083 154.523C309.934 153.966 310.853 153.769 311.84 153.931C313.043 154.128 313.566 154.704 313.409 155.66C313.227 156.77 312.864 158.405 312.32 160.564C311.506 163.788 310.978 166.139 310.736 167.62L310.379 169.794C310.035 171.891 309.811 173.548 309.706 174.766C315.438 173.996 321.813 173.933 328.833 174.577C329.374 171.467 329.85 168.759 330.26 166.451L331.178 160.854C331.456 159.157 331.853 157.988 332.371 157.344C333.093 156.417 334.225 156.081 335.766 156.333C336.938 156.525 337.453 157.053 337.312 157.917C337.216 158.503 336.87 159.934 336.275 162.212C336.158 162.541 336.076 162.844 336.031 163.122C335.133 167.44 334.623 169.969 334.502 170.709C334.3 171.942 334.088 173.523 333.867 175.45C333.561 178.091 333.383 179.661 333.333 180.16ZM367.085 197.379C366.898 198.52 365.924 199.152 364.162 199.274C363.679 199.322 363.222 199.31 362.79 199.24C361.834 199.083 361.298 198.583 361.183 197.741C361.125 197.32 361.211 196.511 361.439 195.313C361.59 194.388 362.149 190.885 363.114 184.805C360.513 186.374 357.882 187.842 355.219 189.211C346.852 193.697 341.681 195.779 339.707 195.455C338.474 195.253 337.749 194.849 337.531 194.243C337.371 193.869 337.397 193.034 337.609 191.739L337.996 189.379C338.401 186.912 338.768 184.091 339.099 180.915C339.53 176.742 339.77 174.502 339.821 174.193C340.299 170.313 340.664 167.602 340.917 166.06C341.382 163.223 341.775 161.213 342.095 160.031C342.35 159.059 342.985 158.372 344.001 157.968C344.915 157.612 345.896 157.519 346.944 157.691C348.332 157.918 348.952 158.479 348.806 159.374C348.705 159.99 348.476 160.903 348.119 162.111C347.946 162.589 347.719 163.296 347.439 164.232C346.528 167.281 345.667 171.273 344.858 176.207C343.62 183.762 343.239 187.627 343.718 187.8C343.806 188.036 344.065 188.19 344.497 188.26C345.647 187.815 348.728 186.31 353.74 183.743C358.26 181.286 361.504 179.363 363.474 177.976L363.839 176.326C364.166 173.751 364.461 171.662 364.724 170.059C365.199 167.16 365.597 165.119 365.918 163.937C366.167 162.996 366.8 162.324 367.816 161.92C368.704 161.528 369.656 161.415 370.674 161.582C372.124 161.819 372.775 162.385 372.628 163.279C372.482 164.174 372.019 165.935 371.24 168.562C371.107 168.984 371.003 169.331 370.926 169.603C370.077 172.662 369.298 176.35 368.59 180.668L368.362 182.055C368.211 182.981 368.009 184.594 367.759 186.896C367.508 189.199 367.366 191.028 367.334 192.384C367.29 193.232 367.237 194.522 367.175 196.253C367.15 196.788 367.12 197.163 367.085 197.379Z" fill="black"/>
</svg>
