<svg width="560" height="933" viewBox="0 0 560 933" fill="none" xmlns="http://www.w3.org/2000/svg">
<path d="M242.84 43.3317C243.69 43.3383 244.54 43.3448 245.416 43.3516C248.214 43.3801 251.01 43.4252 253.807 43.4741C255.261 43.4962 255.261 43.4962 256.743 43.5187C292.489 44.1224 327.251 49.9293 360.394 63.7944C381.018 73.5191 381.018 73.5191 402.696 72.4827C403.296 72.2076 403.896 71.9324 404.515 71.6489C413.583 67.8558 425.135 66.7624 434.485 70.0762C438.757 72.0226 441.576 74.1673 443.716 78.4174C445.114 85.2154 442.934 91.0605 439.342 96.81C436.038 101.566 431.824 106.349 427.004 109.562C428.035 113.06 429.482 115.9 431.372 119.01C436.857 128.321 440.914 138.855 442.862 149.491C443.441 152.337 444.546 154.616 445.9 157.182C453.543 171.928 454.073 189.767 455.611 205.992C455.838 208.29 455.838 208.29 456.269 210.436C456.751 213.69 456.778 216.896 456.817 220.181C456.841 221.634 456.865 223.087 456.889 224.539C456.901 225.294 456.913 226.048 456.925 226.825C457.116 238.661 457.406 250.409 458.667 262.185C459.143 266.804 459.542 271.43 459.945 276.056C460.088 277.688 460.238 279.319 460.388 280.951C461.855 297.288 462.074 313.676 462.286 330.068C462.355 335.447 462.438 340.825 462.52 346.204C462.528 346.727 462.536 347.251 462.544 347.79C462.942 373.856 463.415 399.848 468.024 425.571C468.131 426.171 468.238 426.771 468.349 427.39C469.324 432.762 470.515 438.039 472.016 443.289C472.812 446.146 473.478 449.031 474.146 451.921C474.985 454.872 476.035 457.714 477.098 460.59C477.846 462.647 478.549 464.711 479.232 466.79C482.556 476.823 486.587 486.322 491.101 495.871C493.485 500.952 495.803 506.063 498.125 511.172C498.37 511.711 498.616 512.249 498.868 512.804C502.115 519.938 505.286 527.098 508.339 534.318C509.894 537.987 511.514 541.613 513.223 545.213C516.282 551.692 519.105 558.266 521.878 564.872C522.655 566.712 523.445 568.546 524.238 570.379C532.178 589.117 537.386 609.308 541.899 629.106C543.325 635.314 544.78 641.51 546.362 647.681C546.496 648.205 546.63 648.729 546.769 649.269C546.903 649.79 547.036 650.312 547.174 650.849C552.371 671.128 554.005 690.215 554.004 711.118C554.006 714.047 554.02 716.975 554.034 719.903C554.036 721.791 554.038 723.679 554.038 725.567C554.044 726.429 554.049 727.291 554.055 728.179C554.039 733.809 553.387 739.093 552.344 744.618C551.78 748.41 551.348 752.214 550.976 756.029C550.843 757.349 550.682 758.666 550.516 759.983C550.011 766.675 552.897 771.149 556.161 776.727C558.4 780.702 560.371 784.804 559.94 789.436C559.439 789.938 558.938 790.439 558.421 790.955C556.57 790.908 556.57 790.908 554.623 790.196C552.695 787.382 551.331 784.322 549.923 781.223C549.52 780.34 549.118 779.458 548.703 778.549C548.401 777.88 548.098 777.211 547.786 776.522C546.961 778.165 546.145 779.812 545.341 781.466C545.02 782.122 544.699 782.778 544.368 783.454C544.047 784.114 543.725 784.774 543.395 785.454C542.469 787.157 542.469 787.157 540.95 788.677C541.287 794.221 542.832 799.518 544.261 804.865C545.265 808.843 545.786 811.949 544.748 816.023C544.246 816.776 543.745 817.528 543.228 818.302C541.282 818.492 541.282 818.492 539.43 818.302C538.076 816.948 538.122 814.922 537.792 813.089C537.627 812.18 537.461 811.27 537.291 810.334C537.119 809.375 536.948 808.417 536.772 807.43C536.432 805.55 536.092 803.669 535.751 801.789C535.525 800.531 535.525 800.531 535.295 799.248C534.957 797.474 534.577 795.738 534.113 793.994C533.361 794.245 532.609 794.495 531.834 794.754C525.9 795.29 521.721 794.878 516.641 791.715C516.39 791.464 516.14 791.214 515.882 790.955C515.843 791.533 515.805 792.111 515.766 792.706C515.588 795.367 515.402 798.028 515.217 800.688C515.127 802.051 515.127 802.051 515.036 803.441C513.954 818.711 513.954 818.711 511.324 821.341C509.377 821.483 509.377 821.483 507.526 821.341C506.766 820.581 506.766 820.581 506.665 819C506.668 817.973 506.668 817.973 506.671 816.926C506.669 816.263 506.667 815.6 506.665 814.917C506.752 812.597 506.915 810.309 507.113 807.997C507.251 806.368 507.388 804.739 507.526 803.11C507.595 802.306 507.664 801.502 507.735 800.673C508.692 787.982 507.651 780.322 499.566 770.424C497.806 768.143 496.486 765.695 495.181 763.134C494.83 762.456 494.83 762.456 494.472 761.765C493.75 760.358 493.04 758.946 492.333 757.532C491.759 756.395 491.185 755.259 490.612 754.122C489.148 751.213 487.698 748.297 486.256 745.377C486.042 745.946 485.829 746.515 485.609 747.101C479.579 763.075 473.009 777.915 462.961 791.824C461.986 793.181 461.029 794.551 460.078 795.926C456.298 801.359 452.258 806.521 448.05 811.629C444.655 815.76 441.47 820 438.399 824.379C439.226 824.695 439.226 824.695 440.069 825.017C443.722 826.53 447.101 828.538 450.553 830.456C451.528 830.983 452.503 831.509 453.479 832.035C460.041 835.604 465.973 839.459 471.823 844.13C472.477 844.638 473.131 845.146 473.805 845.67C475.7 847.156 477.565 848.67 479.419 850.207C480.07 850.746 480.721 851.284 481.392 851.839C484.614 854.609 487.229 857.183 489.484 860.794C492.065 864.771 495.355 867.088 499.256 869.655C501.722 871.281 503.757 872.684 505.247 875.275C505.058 876.923 504.911 877.89 503.727 879.073C502.113 879.406 502.113 879.406 499.929 879.073C498.465 878.03 497.176 876.889 495.864 875.661C494.51 874.364 494.51 874.364 492.333 872.996C491.061 873.22 489.796 873.481 488.535 873.756C486.254 873.829 483.979 873.8 481.698 873.756C482.02 874.115 482.342 874.474 482.674 874.845C485.154 877.641 487.579 880.473 489.911 883.394C490.339 883.929 490.767 884.465 491.208 885.017C492.333 886.67 492.333 886.67 492.92 888.483C494.302 891.426 496.547 893.08 499.027 895.12C499.496 895.519 499.964 895.918 500.447 896.328C502.479 898.034 504.409 899.538 506.707 900.88C507.228 901.204 507.748 901.528 508.285 901.862C508.618 903.809 508.618 903.809 508.285 905.66C507.784 906.162 507.282 906.663 506.766 907.18C502.245 907.173 499.86 904.792 496.701 901.91C495.99 901.282 495.99 901.282 495.265 900.641C493.483 899.061 491.738 897.469 490.054 895.785C488.556 895.776 488.556 895.776 486.825 895.975C478.496 896.143 470.484 890.708 463.467 886.67C463.216 886.92 462.965 887.171 462.707 887.429C463.315 888.053 463.315 888.053 463.936 888.69C478.842 904.551 478.842 904.551 478.707 912.497C479.135 917.754 483.068 921.482 486.256 925.411C487.305 927.509 487.16 929.169 487.015 931.488C486.514 931.989 486.013 932.491 485.496 933.007C484.045 932.942 484.045 932.942 482.458 932.248C481.131 930.699 481.131 930.699 479.846 928.734C479.382 928.049 478.918 927.363 478.44 926.657C477.676 925.478 476.928 924.287 476.22 923.073C474.03 919.5 471.896 918.616 468.007 917.251C463.06 915.16 458.724 911.781 454.351 908.699C453.794 908.309 453.236 907.919 452.662 907.518C446.408 903.133 440.329 898.658 434.578 893.629C431.209 890.721 427.644 888.147 424.013 885.578C418.28 881.514 412.952 877.149 407.683 872.506C405.856 870.925 403.966 869.424 402.079 867.916C398.256 864.808 394.512 861.553 391.301 857.803C391.301 857.302 391.301 856.801 391.301 856.284C390.661 856.386 390.021 856.488 389.361 856.593C381.704 857.722 374.124 858.137 366.393 858.394C351.095 858.912 335.831 859.8 320.56 860.842C319.626 860.906 318.693 860.969 317.73 861.035C314.984 861.223 312.238 861.412 309.492 861.602C308.149 861.694 308.149 861.694 306.778 861.788C302.19 862.106 297.603 862.437 293.018 862.789C281.255 863.677 269.59 864.103 257.795 864.023C256.177 864.017 254.559 864.012 252.94 864.006C223.048 863.873 223.048 863.873 217.345 862.361C214.816 861.79 214.816 861.79 212.027 862.361C210.335 863.697 208.946 865.166 207.493 866.759C206.057 868.323 204.579 869.68 202.959 871.05C200.764 872.931 198.742 874.9 196.74 876.984C192.695 881.078 188.225 884.554 183.638 888.013C182.579 888.814 181.531 889.629 180.485 890.447C172.804 896.201 162.148 901.986 152.396 901.957C149.086 902.219 147.569 902.774 145.369 905.281C144.521 906.401 143.699 907.542 142.9 908.699C141.993 909.972 141.075 911.238 140.147 912.497C139.745 913.077 139.344 913.657 138.93 914.254C137.583 915.536 137.583 915.536 135.619 915.821C133.785 915.536 133.785 915.536 132.266 914.016C132.342 910.155 134.729 907.698 137.061 904.853C137.43 904.389 137.8 903.924 138.181 903.445C139.742 901.503 141.27 899.689 143.084 897.975C144.669 896.278 145.135 894.913 145.797 892.699C147.403 887.912 149.926 883.972 152.776 879.833C152.196 880.097 152.196 880.097 151.605 880.367C149.829 881.174 148.05 881.975 146.271 882.776C145.664 883.054 145.056 883.331 144.43 883.616C135.586 887.587 135.586 887.587 130.509 887.429C125.366 887.952 122.493 892.034 119.352 895.785C117.658 897.979 115.983 900.188 114.404 902.467C112.931 904.512 112.078 905.56 109.634 906.322C109.081 906.354 108.527 906.387 107.957 906.42C106.862 904.23 106.947 902.78 107.198 900.343C108.248 898.582 109.233 897.157 110.521 895.595C110.859 895.169 111.198 894.742 111.546 894.303C114.397 890.78 117.518 887.633 120.847 884.557C122.492 882.76 123.062 881.331 123.91 879.073C124.787 877.825 125.706 876.605 126.663 875.417C127.143 874.817 127.623 874.217 128.117 873.598C128.484 873.149 128.85 872.7 129.227 872.236C126.922 872.236 126.032 872.535 124.002 873.486C123.431 873.749 122.86 874.012 122.271 874.282C121.668 874.563 121.065 874.844 120.444 875.133C104.34 882.425 104.34 882.425 96.5627 879.833C95.1672 880.683 95.1672 880.683 93.8091 882.017C93.0115 882.745 93.0115 882.745 92.1978 883.489C89.8258 885.791 87.549 888.18 85.3017 890.604C83.4291 892.171 82.2788 892.626 79.8507 892.747C78.3315 891.227 78.3315 891.227 77.9724 889.515C78.496 886.473 80.3842 884.939 82.5569 882.919C83.1803 882.32 83.1803 882.32 83.8162 881.709C85.0155 880.565 86.2276 879.436 87.4471 878.314C88.0199 877.784 88.5928 877.254 89.183 876.708C92.5019 873.756 92.5019 873.756 94.2838 873.756C94.4552 873.096 94.6265 872.436 94.8031 871.756C95.9371 868.855 97.5231 866.939 99.6487 864.735C100.027 864.337 100.405 863.939 100.794 863.529C101.906 862.37 103.03 861.225 104.159 860.082C104.684 859.539 105.209 858.995 105.75 858.435C117.054 847.557 133.568 840.165 148.218 835.014C146.162 832.57 144.102 830.161 141.898 827.848C135.246 820.849 129.599 813.178 123.91 805.389C123.211 804.444 122.513 803.499 121.815 802.555C112.598 789.988 104.787 776.51 97.3224 762.849C96.9139 762.103 96.5055 761.357 96.0846 760.588C90.37 750.075 85.3367 739.369 80.7142 728.34C80.4147 727.63 80.4147 727.63 80.1091 726.905C79.5671 725.615 79.0304 724.324 78.4941 723.032C77.6752 721.001 77.6752 721.001 76.0526 719.55C75.6932 720.15 75.3338 720.751 74.9636 721.37C73.6018 723.641 72.2366 725.91 70.869 728.178C70.2828 729.152 69.698 730.126 69.1146 731.102C68.2658 732.52 67.4124 733.936 66.5571 735.351C66.2752 735.82 65.9934 736.29 65.7029 736.774C63.8986 739.731 61.9068 742.385 59.7145 745.075C56.3506 749.591 56.2543 753.606 56.397 759.098C56.4047 760.785 56.407 762.471 56.4029 764.158C56.4252 765.259 56.4252 765.259 56.4478 766.383C56.302 768.166 56.302 768.166 54.7828 769.686C52.8837 769.923 52.8837 769.923 50.9846 769.686C49.0922 766.847 49.3084 765.322 49.3704 761.947C49.3841 760.98 49.3978 760.014 49.4119 759.018C49.4295 758.277 49.4472 757.536 49.4653 756.772C48.9855 757.046 48.5057 757.32 48.0113 757.603C42.0591 760.69 37.1069 761.006 30.4744 760.57C29.0246 765.231 28.2753 769.865 27.6125 774.693C26.7475 780.384 26.7475 780.384 24.3974 782.6C22.4508 782.884 22.4508 782.884 20.5992 782.6C19.0799 781.08 19.0799 781.08 18.8722 778.831C18.9848 775.016 19.9649 771.379 20.884 767.692C21.0525 766.987 21.2209 766.282 21.3944 765.555C22.1941 762.272 23.0015 759.104 24.3974 756.012C23.896 755.871 23.3946 755.73 22.8781 755.585C18.3923 753.436 14.9511 749.643 11.4836 746.137C9.58599 754.257 8.11043 761.997 7.96727 770.35C7.68537 772.724 7.68537 772.724 6.64681 774.181C4.88959 775.346 3.66886 775.267 1.60829 775.003C0.0890198 773.484 0.0890198 773.484 0 770.852C0.0491038 769.719 0.111391 768.586 0.183974 767.454C0.220878 766.851 0.257783 766.247 0.295805 765.625C0.906152 757.388 2.19855 748.76 5.64385 741.199C8.12777 735.576 6.53257 729.926 4.49601 724.387C2.53227 718.586 2.1401 712.808 2.16615 706.728C2.16469 705.96 2.16324 705.192 2.16174 704.401C2.16072 702.784 2.16348 701.167 2.16986 699.55C2.17793 697.118 2.16994 694.687 2.16021 692.255C2.15389 683.261 2.53274 674.509 3.8872 665.616C3.98598 664.947 4.08475 664.279 4.18653 663.59C4.44779 661.961 4.74648 660.348 5.07413 658.731C5.25479 657.834 5.25479 657.834 5.43911 656.919C6.80846 650.476 8.57206 644.135 10.3441 637.794C10.4894 637.271 10.6347 636.748 10.7844 636.209C12.3091 630.746 13.9313 625.388 16.1259 620.152C17.1142 617.76 17.902 615.33 18.7001 612.868C19.7681 609.602 20.8647 606.354 22.071 603.136C23.3593 599.641 24.4825 596.105 25.5843 592.548C27.5945 586.097 29.7299 579.69 31.9112 573.294C32.2794 572.213 32.646 571.132 33.0112 570.05C34.8903 564.489 36.8512 559.158 39.5901 553.949C40.2835 552.204 40.9476 550.446 41.5841 548.679C43.5973 543.175 45.7559 537.736 47.9461 532.3C50.0838 526.984 52.2124 521.669 54.213 516.3C54.3899 515.825 54.5667 515.351 54.7488 514.862C55.6441 512.449 56.5264 510.031 57.4029 507.611C60.3698 499.479 63.803 491.655 67.7915 483.968C69.4732 480.654 70.7433 477.189 72.0467 473.713C72.6406 472.139 73.2504 470.57 73.8864 469.012C76.2492 463.177 78.1347 457.221 79.9932 451.209C80.2554 450.363 80.5177 449.517 80.7879 448.646C81.1627 447.417 81.1627 447.417 81.5451 446.164C81.7676 445.435 81.99 444.706 82.2192 443.956C83.6451 438.779 84.6622 433.573 85.3766 428.254C85.4581 427.65 85.5395 427.047 85.6235 426.425C88.0865 407.735 88.7081 389.374 88.5418 370.542C88.5116 366.576 88.5056 362.609 88.497 358.643C88.4777 351.168 88.4402 343.693 88.3944 336.217C88.3128 322.823 88.2594 309.428 88.2183 296.033C88.2031 291.358 88.1787 286.683 88.1467 282.008C88.0294 264.117 88.1775 246.613 91.1791 228.924C91.9958 224.082 92.4065 219.24 92.7646 214.345C93.2676 207.525 93.8649 200.727 94.6162 193.929C94.7417 192.723 94.7417 192.723 94.8699 191.492C95.4384 186.502 96.4711 181.923 98.082 177.17C98.5109 175.85 98.5109 175.85 98.9485 174.502C101.673 166.703 104.909 159.147 109.002 151.96C113.415 143.075 109.931 132.689 107.008 123.901C103.901 115.672 99.5124 109.225 93.7427 102.689C89.0745 97.3907 85.5624 92.667 85.7261 85.3164C86.1828 81.7361 87.7888 79.4207 90.45 77.1533C97.6392 72.0505 104.606 71.0783 113.275 70.821C113.855 70.8003 114.435 70.7797 115.032 70.7583C122.889 70.5091 130.462 70.8497 138.248 71.9605C149.072 73.4833 157.559 74.5997 167.209 68.5421C168.428 67.7884 169.648 67.0347 170.868 66.281C172.926 65.0043 174.982 63.7254 177.036 62.4422C192.816 52.6146 206.704 48.0135 225.106 45.3419C226.993 45.0309 228.809 44.6243 230.662 44.1566C234.714 43.2195 238.699 43.2795 242.84 43.3317Z" fill="#FEFCFC"/>
<path d="M242.84 43.3317C243.69 43.3383 244.54 43.3448 245.416 43.3516C248.214 43.3801 251.01 43.4252 253.807 43.4741C255.261 43.4962 255.261 43.4962 256.743 43.5187C292.489 44.1224 327.251 49.9293 360.394 63.7944C381.018 73.5191 381.018 73.5191 402.696 72.4827C403.296 72.2076 403.896 71.9324 404.515 71.6489C413.583 67.8558 425.135 66.7624 434.485 70.0762C438.757 72.0226 441.576 74.1673 443.716 78.4174C445.114 85.2154 442.934 91.0605 439.342 96.81C436.038 101.566 431.824 106.349 427.004 109.562C428.035 113.06 429.482 115.9 431.372 119.01C436.857 128.321 440.914 138.855 442.862 149.491C443.441 152.337 444.546 154.616 445.9 157.182C453.543 171.928 454.073 189.767 455.611 205.992C455.838 208.29 455.838 208.29 456.269 210.436C456.751 213.69 456.778 216.896 456.817 220.181C456.841 221.634 456.865 223.087 456.889 224.539C456.901 225.294 456.913 226.048 456.925 226.825C457.116 238.661 457.406 250.409 458.667 262.185C459.143 266.804 459.542 271.43 459.945 276.056C460.088 277.688 460.238 279.319 460.388 280.951C461.855 297.288 462.074 313.676 462.286 330.068C462.355 335.447 462.438 340.825 462.52 346.204C462.528 346.727 462.536 347.251 462.544 347.79C462.942 373.856 463.415 399.848 468.024 425.571C468.131 426.171 468.238 426.771 468.349 427.39C469.324 432.762 470.515 438.039 472.016 443.289C472.812 446.146 473.478 449.031 474.146 451.921C474.985 454.872 476.035 457.714 477.098 460.59C477.846 462.647 478.549 464.711 479.232 466.79C482.556 476.823 486.587 486.322 491.101 495.871C493.485 500.952 495.803 506.063 498.125 511.172C498.37 511.711 498.616 512.249 498.868 512.804C502.115 519.938 505.286 527.098 508.339 534.318C509.894 537.987 511.514 541.613 513.223 545.213C516.282 551.692 519.105 558.266 521.878 564.872C522.655 566.712 523.445 568.546 524.238 570.379C532.178 589.117 537.386 609.308 541.899 629.106C543.325 635.314 544.78 641.51 546.362 647.681C546.496 648.205 546.63 648.729 546.769 649.269C546.903 649.79 547.036 650.312 547.174 650.849C552.371 671.128 554.005 690.215 554.004 711.118C554.006 714.047 554.02 716.975 554.034 719.903C554.036 721.791 554.038 723.679 554.038 725.567C554.044 726.429 554.049 727.291 554.055 728.179C554.039 733.809 553.387 739.093 552.344 744.618C551.78 748.41 551.348 752.214 550.976 756.029C550.843 757.349 550.682 758.666 550.516 759.983C550.011 766.675 552.897 771.149 556.161 776.727C558.4 780.702 560.371 784.804 559.94 789.436C559.439 789.938 558.938 790.439 558.421 790.955C556.57 790.908 556.57 790.908 554.623 790.196C552.695 787.382 551.331 784.322 549.923 781.223C549.52 780.34 549.118 779.458 548.703 778.549C548.401 777.88 548.098 777.211 547.786 776.522C546.961 778.165 546.145 779.812 545.341 781.466C545.02 782.122 544.699 782.778 544.368 783.454C544.047 784.114 543.725 784.774 543.395 785.454C542.469 787.157 542.469 787.157 540.95 788.677C541.287 794.221 542.832 799.518 544.261 804.865C545.265 808.843 545.786 811.949 544.748 816.023C544.246 816.776 543.745 817.528 543.228 818.302C541.282 818.492 541.282 818.492 539.43 818.302C538.076 816.948 538.122 814.922 537.792 813.089C537.627 812.18 537.461 811.27 537.291 810.334C537.119 809.375 536.948 808.417 536.772 807.43C536.432 805.55 536.092 803.669 535.751 801.789C535.525 800.531 535.525 800.531 535.295 799.248C534.957 797.474 534.577 795.738 534.113 793.994C533.361 794.245 532.609 794.495 531.834 794.754C525.9 795.29 521.721 794.878 516.641 791.715C516.39 791.464 516.14 791.214 515.882 790.955C515.843 791.533 515.805 792.111 515.766 792.706C515.588 795.367 515.402 798.028 515.217 800.688C515.127 802.051 515.127 802.051 515.036 803.441C513.954 818.711 513.954 818.711 511.324 821.341C509.377 821.483 509.377 821.483 507.526 821.341C506.766 820.581 506.766 820.581 506.665 819C506.668 817.973 506.668 817.973 506.671 816.926C506.669 816.263 506.667 815.6 506.665 814.917C506.752 812.597 506.915 810.309 507.113 807.997C507.251 806.368 507.388 804.739 507.526 803.11C507.595 802.306 507.664 801.502 507.735 800.673C508.692 787.982 507.651 780.322 499.566 770.424C497.806 768.143 496.486 765.695 495.181 763.134C494.83 762.456 494.83 762.456 494.472 761.765C493.75 760.358 493.04 758.946 492.333 757.532C491.759 756.395 491.185 755.259 490.612 754.122C489.148 751.213 487.698 748.297 486.256 745.377C486.042 745.946 485.829 746.515 485.609 747.101C479.579 763.075 473.009 777.915 462.961 791.824C461.986 793.181 461.029 794.551 460.078 795.926C456.298 801.359 452.258 806.521 448.05 811.629C444.655 815.76 441.47 820 438.399 824.379C439.226 824.695 439.226 824.695 440.069 825.017C443.722 826.53 447.101 828.538 450.553 830.456C451.528 830.983 452.503 831.509 453.479 832.035C460.041 835.604 465.973 839.459 471.823 844.13C472.477 844.638 473.131 845.146 473.805 845.67C475.7 847.156 477.565 848.67 479.419 850.207C480.07 850.746 480.721 851.284 481.392 851.839C484.614 854.609 487.229 857.183 489.484 860.794C492.065 864.771 495.355 867.088 499.256 869.655C501.722 871.281 503.757 872.684 505.247 875.275C505.058 876.923 504.911 877.89 503.727 879.073C502.113 879.406 502.113 879.406 499.929 879.073C498.465 878.03 497.176 876.889 495.864 875.661C494.51 874.364 494.51 874.364 492.333 872.996C491.061 873.22 489.796 873.481 488.535 873.756C486.254 873.829 483.979 873.8 481.698 873.756C482.02 874.115 482.342 874.474 482.674 874.845C485.154 877.641 487.579 880.473 489.911 883.394C490.339 883.929 490.767 884.465 491.208 885.017C492.333 886.67 492.333 886.67 492.92 888.483C494.302 891.426 496.547 893.08 499.027 895.12C499.496 895.519 499.964 895.918 500.447 896.328C502.479 898.034 504.409 899.538 506.707 900.88C507.228 901.204 507.748 901.528 508.285 901.862C508.618 903.809 508.618 903.809 508.285 905.66C507.784 906.162 507.282 906.663 506.766 907.18C502.245 907.173 499.86 904.792 496.701 901.91C495.99 901.282 495.99 901.282 495.265 900.641C493.483 899.061 491.738 897.469 490.054 895.785C488.556 895.776 488.556 895.776 486.825 895.975C478.496 896.143 470.484 890.708 463.467 886.67C463.216 886.92 462.965 887.171 462.707 887.429C463.315 888.053 463.315 888.053 463.936 888.69C478.842 904.551 478.842 904.551 478.707 912.497C479.135 917.754 483.068 921.482 486.256 925.411C487.305 927.509 487.16 929.169 487.015 931.488C486.514 931.989 486.013 932.491 485.496 933.007C484.045 932.942 484.045 932.942 482.458 932.248C481.131 930.699 481.131 930.699 479.846 928.734C479.382 928.049 478.918 927.363 478.44 926.657C477.676 925.478 476.928 924.287 476.22 923.073C474.03 919.5 471.896 918.616 468.007 917.251C463.06 915.16 458.724 911.781 454.351 908.699C453.794 908.309 453.236 907.919 452.662 907.518C446.408 903.133 440.329 898.658 434.578 893.629C431.209 890.721 427.644 888.147 424.013 885.578C418.28 881.514 412.952 877.149 407.683 872.506C405.856 870.925 403.966 869.424 402.079 867.916C398.256 864.808 394.512 861.553 391.301 857.803C391.301 857.302 391.301 856.801 391.301 856.284C390.661 856.386 390.021 856.488 389.361 856.593C381.704 857.722 374.124 858.137 366.393 858.394C351.095 858.912 335.831 859.8 320.56 860.842C319.626 860.906 318.693 860.969 317.73 861.035C314.984 861.223 312.238 861.412 309.492 861.602C308.149 861.694 308.149 861.694 306.778 861.788C302.19 862.106 297.603 862.437 293.018 862.789C281.255 863.677 269.59 864.103 257.795 864.023C256.177 864.017 254.559 864.012 252.94 864.006C223.048 863.873 223.048 863.873 217.345 862.361C214.816 861.79 214.816 861.79 212.027 862.361C210.335 863.697 208.946 865.166 207.493 866.759C206.057 868.323 204.579 869.68 202.959 871.05C200.764 872.931 198.742 874.9 196.74 876.984C192.695 881.078 188.225 884.554 183.638 888.013C182.579 888.814 181.531 889.629 180.485 890.447C172.804 896.201 162.148 901.986 152.396 901.957C149.086 902.219 147.569 902.774 145.369 905.281C144.521 906.401 143.699 907.542 142.9 908.699C141.993 909.972 141.075 911.238 140.147 912.497C139.745 913.077 139.344 913.657 138.93 914.254C137.583 915.536 137.583 915.536 135.619 915.821C133.785 915.536 133.785 915.536 132.266 914.016C132.342 910.155 134.729 907.698 137.061 904.853C137.43 904.389 137.8 903.924 138.181 903.445C139.742 901.503 141.27 899.689 143.084 897.975C144.669 896.278 145.135 894.913 145.797 892.699C147.403 887.912 149.926 883.972 152.776 879.833C152.196 880.097 152.196 880.097 151.605 880.367C149.829 881.174 148.05 881.975 146.271 882.776C145.664 883.054 145.056 883.331 144.43 883.616C135.586 887.587 135.586 887.587 130.509 887.429C125.366 887.952 122.493 892.034 119.352 895.785C117.658 897.979 115.983 900.188 114.404 902.467C112.931 904.512 112.078 905.56 109.634 906.322C109.081 906.354 108.527 906.387 107.957 906.42C106.862 904.23 106.947 902.78 107.198 900.343C108.248 898.582 109.233 897.157 110.521 895.595C110.859 895.169 111.198 894.742 111.546 894.303C114.397 890.78 117.518 887.633 120.847 884.557C122.492 882.76 123.062 881.331 123.91 879.073C124.787 877.825 125.706 876.605 126.663 875.417C127.143 874.817 127.623 874.217 128.117 873.598C128.484 873.149 128.85 872.7 129.227 872.236C126.922 872.236 126.032 872.535 124.002 873.486C123.431 873.749 122.86 874.012 122.271 874.282C121.668 874.563 121.065 874.844 120.444 875.133C104.34 882.425 104.34 882.425 96.5627 879.833C95.1672 880.683 95.1672 880.683 93.8091 882.017C93.0115 882.745 93.0115 882.745 92.1978 883.489C89.8258 885.791 87.549 888.18 85.3017 890.604C83.4291 892.171 82.2788 892.626 79.8507 892.747C78.3315 891.227 78.3315 891.227 77.9724 889.515C78.496 886.473 80.3842 884.939 82.5569 882.919C83.1803 882.32 83.1803 882.32 83.8162 881.709C85.0155 880.565 86.2276 879.436 87.4471 878.314C88.0199 877.784 88.5928 877.254 89.183 876.708C92.5019 873.756 92.5019 873.756 94.2838 873.756C94.4552 873.096 94.6265 872.436 94.8031 871.756C95.9371 868.855 97.5231 866.939 99.6487 864.735C100.027 864.337 100.405 863.939 100.794 863.529C101.906 862.37 103.03 861.225 104.159 860.082C104.684 859.539 105.209 858.995 105.75 858.435C117.054 847.557 133.568 840.165 148.218 835.014C146.162 832.57 144.102 830.161 141.898 827.848C135.246 820.849 129.599 813.178 123.91 805.389C123.211 804.444 122.513 803.499 121.815 802.555C112.598 789.988 104.787 776.51 97.3224 762.849C96.9139 762.103 96.5055 761.357 96.0846 760.588C90.37 750.075 85.3367 739.369 80.7142 728.34C80.4147 727.63 80.4147 727.63 80.1091 726.905C79.5671 725.615 79.0304 724.324 78.4941 723.032C77.6752 721.001 77.6752 721.001 76.0526 719.55C75.6932 720.15 75.3338 720.751 74.9636 721.37C73.6018 723.641 72.2366 725.91 70.869 728.178C70.2828 729.152 69.698 730.126 69.1146 731.102C68.2658 732.52 67.4124 733.936 66.5571 735.351C66.2752 735.82 65.9934 736.29 65.7029 736.774C63.8986 739.731 61.9068 742.385 59.7145 745.075C56.3506 749.591 56.2543 753.606 56.397 759.098C56.4047 760.785 56.407 762.471 56.4029 764.158C56.4252 765.259 56.4252 765.259 56.4478 766.383C56.302 768.166 56.302 768.166 54.7828 769.686C52.8837 769.923 52.8837 769.923 50.9846 769.686C49.0922 766.847 49.3084 765.322 49.3704 761.947C49.3841 760.98 49.3978 760.014 49.4119 759.018C49.4295 758.277 49.4472 757.536 49.4653 756.772C48.9855 757.046 48.5057 757.32 48.0113 757.603C42.0591 760.69 37.1069 761.006 30.4744 760.57C29.0246 765.231 28.2753 769.865 27.6125 774.693C26.7475 780.384 26.7475 780.384 24.3974 782.6C22.4508 782.884 22.4508 782.884 20.5992 782.6C19.0799 781.08 19.0799 781.08 18.8722 778.831C18.9848 775.016 19.9649 771.379 20.884 767.692C21.0525 766.987 21.2209 766.282 21.3944 765.555C22.1941 762.272 23.0015 759.104 24.3974 756.012C23.896 755.871 23.3946 755.73 22.8781 755.585C18.3923 753.436 14.9511 749.643 11.4836 746.137C9.58599 754.257 8.11043 761.997 7.96727 770.35C7.68537 772.724 7.68537 772.724 6.64681 774.181C4.88959 775.346 3.66886 775.267 1.60829 775.003C0.0890198 773.484 0.0890198 773.484 0 770.852C0.0491038 769.719 0.111391 768.586 0.183974 767.454C0.220878 766.851 0.257783 766.247 0.295805 765.625C0.906152 757.388 2.19855 748.76 5.64385 741.199C8.12777 735.576 6.53257 729.926 4.49601 724.387C2.53227 718.586 2.1401 712.808 2.16615 706.728C2.16469 705.96 2.16324 705.192 2.16174 704.401C2.16072 702.784 2.16348 701.167 2.16986 699.55C2.17793 697.118 2.16994 694.687 2.16021 692.255C2.15389 683.261 2.53274 674.509 3.8872 665.616C3.98598 664.947 4.08475 664.279 4.18653 663.59C4.44779 661.961 4.74648 660.348 5.07413 658.731C5.25479 657.834 5.25479 657.834 5.43911 656.919C6.80846 650.476 8.57206 644.135 10.3441 637.794C10.4894 637.271 10.6347 636.748 10.7844 636.209C12.3091 630.746 13.9313 625.388 16.1259 620.152C17.1142 617.76 17.902 615.33 18.7001 612.868C19.7681 609.602 20.8647 606.354 22.071 603.136C23.3593 599.641 24.4825 596.105 25.5843 592.548C27.5945 586.097 29.7299 579.69 31.9112 573.294C32.2794 572.213 32.646 571.132 33.0112 570.05C34.8903 564.489 36.8512 559.158 39.5901 553.949C40.2835 552.204 40.9476 550.446 41.5841 548.679C43.5973 543.175 45.7559 537.736 47.9461 532.3C50.0838 526.984 52.2124 521.669 54.213 516.3C54.3899 515.825 54.5667 515.351 54.7488 514.862C55.6441 512.449 56.5264 510.031 57.4029 507.611C60.3698 499.479 63.803 491.655 67.7915 483.968C69.4732 480.654 70.7433 477.189 72.0467 473.713C72.6406 472.139 73.2504 470.57 73.8864 469.012C76.2492 463.177 78.1347 457.221 79.9932 451.209C80.2554 450.363 80.5177 449.517 80.7879 448.646C81.1627 447.417 81.1627 447.417 81.5451 446.164C81.7676 445.435 81.99 444.706 82.2192 443.956C83.6451 438.779 84.6622 433.573 85.3766 428.254C85.4581 427.65 85.5395 427.047 85.6235 426.425C88.0865 407.735 88.7081 389.374 88.5418 370.542C88.5116 366.576 88.5056 362.609 88.497 358.643C88.4777 351.168 88.4402 343.693 88.3944 336.217C88.3128 322.823 88.2594 309.428 88.2183 296.033C88.2031 291.358 88.1787 286.683 88.1467 282.008C88.0294 264.117 88.1775 246.613 91.1791 228.924C91.9958 224.082 92.4065 219.24 92.7646 214.345C93.2676 207.525 93.8649 200.727 94.6162 193.929C94.7417 192.723 94.7417 192.723 94.8699 191.492C95.4384 186.502 96.4711 181.923 98.082 177.17C98.5109 175.85 98.5109 175.85 98.9485 174.502C101.673 166.703 104.909 159.147 109.002 151.96C113.415 143.075 109.931 132.689 107.008 123.901C103.901 115.672 99.5124 109.225 93.7427 102.689C89.0745 97.3907 85.5624 92.667 85.7261 85.3164C86.1828 81.7361 87.7888 79.4207 90.45 77.1533C97.6392 72.0505 104.606 71.0783 113.275 70.821C113.855 70.8003 114.435 70.7797 115.032 70.7583C122.889 70.5091 130.462 70.8497 138.248 71.9605C149.072 73.4833 157.559 74.5997 167.209 68.5421C168.428 67.7884 169.648 67.0347 170.868 66.281C172.926 65.0043 174.982 63.7254 177.036 62.4422C192.816 52.6146 206.704 48.0135 225.106 45.3419C226.993 45.0309 228.809 44.6243 230.662 44.1566C234.714 43.2195 238.699 43.2795 242.84 43.3317ZM167.69 110.147C162.453 116.809 158.404 124.204 154.295 131.592C154.01 132.097 153.725 132.601 153.431 133.121C149.616 139.879 146.511 146.819 143.565 153.995C142.376 156.884 141.1 159.721 139.767 162.547C136.11 170.383 133.067 178.427 130.177 186.57C129.953 187.193 129.73 187.816 129.5 188.458C128.085 192.506 127.047 196.516 126.189 200.719C124.052 200.909 124.052 200.909 121.631 200.719C118.752 197.84 118.766 194.543 118.307 190.674C118.051 188.553 118.051 188.553 116.683 187.583C115.02 185.673 115.261 184.155 115.245 181.657C115.228 180.749 115.212 179.841 115.195 178.906C115.181 176.989 115.167 175.072 115.153 173.155C115.136 172.247 115.12 171.34 115.103 170.404C115.097 169.572 115.092 168.739 115.086 167.881C114.765 165.566 114.344 164.885 112.515 163.497C111.763 163.747 111.011 163.998 110.236 164.256C109.231 166.329 108.379 168.325 107.577 170.476C107.342 171.103 107.106 171.729 106.863 172.375C104.912 177.701 103.52 182.959 102.64 188.565C102.518 189.331 102.395 190.098 102.269 190.888C100.781 200.371 99.4889 209.745 99.0998 219.339C98.7906 224.539 97.8547 229.691 96.9782 234.821C93.5962 255.718 94.0651 276.894 94.134 297.989C94.1415 300.539 94.1458 303.088 94.1492 305.637C94.1744 324.823 94.2507 344.004 94.6636 363.186C94.6804 363.975 94.6972 364.764 94.7145 365.576C94.8303 370.957 94.9514 376.338 95.0869 381.718C95.6575 404.489 94.0545 428.555 87.5895 450.544C87.372 451.285 87.1544 452.027 86.9302 452.791C82.2136 468.172 75.7347 483.158 68.9323 497.718C63.8819 508.624 59.7095 519.94 55.5424 531.208C53.199 537.536 50.6239 543.769 48.0469 550.006C43.78 560.376 39.959 570.854 36.458 581.505C35.47 584.511 34.4737 587.513 33.4774 590.516C33.1844 591.399 33.1844 591.399 32.8855 592.3C31.3332 596.972 29.7331 601.625 28.1006 606.269C19.0498 631.644 19.0498 631.644 12.1008 657.639C11.9829 658.17 11.865 658.701 11.7436 659.248C9.25409 671.276 8.94195 683.24 8.96485 695.486C8.96727 698.196 8.94929 700.905 8.93017 703.615C8.92844 705.364 8.92791 707.113 8.92868 708.861C8.92169 709.658 8.91468 710.455 8.90747 711.277C8.94064 716.63 9.83126 721.297 11.4836 726.386C11.9849 726.386 12.4863 726.386 13.0028 726.386C13.4327 725.573 13.8626 724.759 14.3055 723.921C14.8682 722.859 15.431 721.798 15.9939 720.737C16.2774 720.2 16.5609 719.662 16.8529 719.109C18.9939 715.078 18.9939 715.078 19.8395 714.232C21.1052 714.201 22.3721 714.2 23.6377 714.232C24.0318 718.37 22.8935 719.989 20.5992 723.348C19.5567 725.196 18.6229 727.086 17.7031 728.998C17.4568 729.476 17.2105 729.954 16.9568 730.447C15.2667 733.969 14.9922 736.305 16.0414 740.06C17.2886 742.198 17.2886 742.198 18.9375 744.048C19.4594 744.679 19.9813 745.309 20.5191 745.959C21.9988 747.529 23.3002 748.835 25.157 749.935C25.909 749.684 26.6611 749.434 27.4359 749.176C28.2294 747.318 28.2294 747.318 28.7682 745.027C28.9939 744.183 29.2196 743.339 29.4522 742.469C29.6799 741.58 29.9075 740.691 30.1421 739.775C30.5984 738.027 31.0582 736.281 31.5219 734.535C31.7222 733.756 31.9225 732.977 32.1289 732.175C32.7533 730.185 32.7533 730.185 34.2726 727.906C36.2192 727.716 36.2192 727.716 38.0708 727.906C38.8304 728.665 38.8304 728.665 39.0203 731.182C38.8304 733.983 38.8304 733.983 37.78 735.3C36.0799 737.682 35.5769 740.244 34.9373 743.051C34.809 743.585 34.6807 744.119 34.5486 744.67C33.8923 747.427 33.2871 750.19 32.7533 752.974C35.1299 754.162 36.9519 753.946 39.5901 753.733C43.5193 752.364 47.0346 750.315 49.4653 746.897C49.7104 744.446 49.6716 742.493 49.4653 740.06C49.3405 738.388 49.2224 736.716 49.1111 735.043C49.0313 733.87 48.9422 732.697 48.8433 731.525C48.7373 730.069 48.7152 728.606 48.7057 727.146C49.2071 726.645 49.7084 726.143 50.225 725.627C51.7917 725.817 51.7917 725.817 53.2635 726.386C54.3394 728.538 54.2862 730.545 54.4504 732.938C54.5141 733.841 54.5777 734.744 54.6433 735.674C54.6893 736.369 54.7354 737.065 54.7828 737.781C55.5348 737.781 56.2869 737.781 57.0617 737.781C58.4293 735.86 59.6285 733.973 60.8124 731.941C61.1749 731.332 61.5375 730.723 61.911 730.095C63.0896 728.105 64.2541 726.107 65.4177 724.108C65.8119 723.438 66.2062 722.768 66.6124 722.078C71.4653 713.828 76.1152 705.586 79.8507 696.761C80.2084 695.917 80.2084 695.917 80.5733 695.057C83.8428 687.27 86.7261 679.4 89.3432 671.372C90.8069 666.888 92.3715 662.462 94.0778 658.064C95.186 655.187 96.1933 652.297 97.1354 649.361C97.3641 648.663 97.5927 647.964 97.8283 647.245C98.2746 645.874 98.7084 644.498 99.128 643.119C99.6922 641.404 100.229 639.838 101.121 638.269C103.135 637.411 103.135 637.411 104.919 637.509C105.678 638.269 105.678 638.269 105.916 640.88C105.863 644.185 104.904 646.655 103.601 649.66C102.442 652.412 101.443 655.202 100.456 658.019C100.263 658.567 100.07 659.115 99.8711 659.68C98.8562 662.58 97.8678 665.488 96.9099 668.408C96.7164 668.997 96.5229 669.586 96.3235 670.193C95.9611 671.301 95.602 672.411 95.2471 673.522C93.6749 678.344 91.7113 682.981 89.726 687.645C88.2434 691.138 86.7733 694.636 85.3106 698.138C84.9292 699.03 84.5478 699.923 84.1549 700.842C83.795 701.709 83.4351 702.576 83.0644 703.47C82.5755 704.63 82.5755 704.63 82.0768 705.813C80.6258 710.621 81.4117 714.254 83.3166 718.79C83.5214 719.281 83.7261 719.771 83.9371 720.277C87.7245 729.246 92.0124 737.99 96.4299 746.663C97.055 747.891 97.6774 749.12 98.2979 750.35C108.784 771.101 120.772 791.004 135.304 809.187C135.881 809.91 136.458 810.634 137.052 811.38C146.175 822.73 146.175 822.73 157.334 831.976C159.142 832.021 159.142 832.021 161.132 831.738C161.867 831.657 162.603 831.576 163.36 831.492C164.513 831.355 164.513 831.355 165.69 831.216C167.224 831.052 168.759 830.893 170.295 830.741C170.977 830.669 171.66 830.596 172.363 830.522C174.046 830.456 174.046 830.456 175.565 831.216C175.597 832.482 175.596 833.749 175.565 835.014C174.159 836.42 171.76 836.145 169.868 836.344C144.614 839.447 118.695 853.333 101.88 872.236C101.88 872.738 101.88 873.239 101.88 873.756C108.239 873.139 113.536 870.956 119.352 868.438C119.998 868.162 120.644 867.887 121.309 867.603C131.301 863.313 141.363 858.783 149.886 851.898C152.026 850.444 154.067 850.822 156.574 850.967C155.613 856.057 152.077 858.868 148.503 862.314C147.611 863.194 147.611 863.194 146.702 864.093C143.427 867.305 140.082 870.389 136.569 873.339C134.725 875.054 133.533 876.907 132.266 879.073C132.516 879.575 132.767 880.076 133.025 880.592C140.876 877.818 148.632 874.994 155.909 870.907C156.407 870.631 156.905 870.354 157.418 870.069C159.453 868.884 160.987 867.874 162.399 865.969C163.411 864.64 163.411 864.64 164.963 864.343C166.471 864.442 167.979 864.541 169.488 864.64C168.48 868.285 166.871 870.937 164.598 873.898C161.331 878.303 158.464 882.872 155.719 887.619C155.351 888.253 154.982 888.887 154.602 889.539C152.716 892.486 152.716 892.486 152.016 895.785C168.757 892.948 182.933 881.259 194.425 869.361C197.639 866.084 201.159 863.167 204.716 860.272C206.814 858.63 206.814 858.63 208.229 856.284C209.846 855.869 209.846 855.869 211.695 855.714C212.307 855.656 212.919 855.597 213.55 855.536C214.05 855.532 214.55 855.529 215.066 855.524C215.317 855.775 215.567 856.026 215.826 856.284C222.416 857.321 229.161 857.179 235.813 857.198C236.938 857.203 238.063 857.209 239.187 857.214C242.794 857.229 246.402 857.232 250.009 857.234C250.626 857.234 251.242 857.235 251.877 857.235C269.722 857.244 287.414 856.882 305.198 855.303C314.126 854.517 323.07 853.953 332.011 853.352C336.723 853.034 341.434 852.71 346.145 852.385C346.953 852.33 347.762 852.274 348.596 852.217C352.655 851.938 356.712 851.64 360.769 851.317C364.252 851.047 367.711 850.853 371.204 850.78C372.159 850.755 373.114 850.73 374.098 850.704C376.072 850.657 378.047 850.613 380.021 850.573C381.438 850.535 381.438 850.535 382.883 850.495C384.161 850.466 384.161 850.466 385.465 850.437C387.617 850.409 387.617 850.409 389.022 848.688C391.263 848.829 392.46 849.123 394.141 850.637C394.536 851.138 394.93 851.638 395.337 852.154C400.261 858.107 405.737 862.931 411.811 867.679C412.676 868.373 413.54 869.07 414.402 869.768C419.771 874.108 425.211 878.322 430.758 882.432C434.451 885.185 438.026 888.059 441.58 890.99C450.635 898.427 460.449 904.664 470.303 910.978C470.554 910.476 470.805 909.975 471.063 909.459C464.959 900.179 458.069 891.82 450.268 883.916C449.907 883.548 449.546 883.179 449.174 882.8C445.14 878.582 445.14 878.582 439.918 876.794C439.918 875.04 439.918 873.285 439.918 871.477C443.801 871.174 446.453 872.165 449.841 873.898C453.419 875.652 456.967 877.27 460.713 878.646C467.752 881.271 474.551 884.551 481.226 887.993C483.077 889.058 483.077 889.058 484.736 888.948C483.096 885.339 480.563 882.725 477.9 879.833C477.5 879.392 477.101 878.952 476.689 878.498C469.121 870.521 459.581 864.887 449.793 860.082C449.034 859.323 449.034 859.323 448.939 857.424C449.034 855.524 449.034 855.524 449.793 854.765C453.948 854.942 456.778 856.286 460.419 858.21C464.597 860.242 468.987 861.755 473.355 863.326C474.402 863.711 475.444 864.112 476.481 864.524C479.177 865.588 481.039 866.159 483.977 866.159C482.067 859.156 474.163 854.467 468.784 850.207C468.141 849.676 467.497 849.146 466.835 848.599C459.887 843.077 452.139 838.965 444.382 834.701C442.337 833.573 440.301 832.431 438.268 831.281C437.077 830.611 435.886 829.94 434.695 829.27C434.169 828.971 433.642 828.672 433.099 828.365C429.911 826.585 426.675 825.049 423.327 823.594C420.941 822.526 418.667 821.308 416.369 820.059C415.523 819.602 414.677 819.144 413.806 818.673C411.811 817.543 411.811 817.543 411.052 816.783C411.021 815.517 411.019 814.251 411.052 812.985C415.575 812.475 418.369 814.186 422.161 816.356C423.293 816.991 424.427 817.623 425.562 818.252C426.058 818.534 426.554 818.817 427.065 819.108C428.613 819.865 429.844 820.395 431.562 820.581C436.512 816.44 440.281 811.073 444.195 805.975C445.128 804.768 446.08 803.576 447.034 802.386C459.725 786.404 469.702 769.281 477.567 750.505C477.871 749.785 477.871 749.784 478.181 749.05C478.76 747.666 479.329 746.279 479.897 744.891C480.226 744.088 480.556 743.284 480.895 742.457C482.366 738.066 482.903 734.872 481.004 730.582C480.678 729.828 480.352 729.073 480.017 728.295C479.663 727.509 479.309 726.722 478.944 725.912C478.23 724.268 477.517 722.624 476.805 720.98C476.292 719.81 476.292 719.81 475.769 718.616C474.739 716.227 473.81 713.826 472.915 711.384C470.045 703.766 466.519 696.397 463.102 689.013C461.156 684.8 459.373 680.537 457.671 676.221C456.661 673.66 455.632 671.11 454.559 668.574C451.732 661.882 449.254 655.152 447.028 648.236C446.33 646.07 445.562 643.948 444.74 641.827C443.746 639.111 443.376 637.325 443.716 634.471C445.235 632.951 445.235 632.951 447.229 632.856C447.825 632.888 448.42 632.919 449.034 632.951C449.436 634.904 449.805 636.839 450.073 638.816C450.617 641.641 451.535 644.224 452.574 646.895C452.775 647.423 452.977 647.951 453.185 648.495C453.838 650.2 454.498 651.902 455.158 653.604C455.61 654.776 456.061 655.949 456.513 657.122C459.485 664.82 462.573 672.46 465.857 680.032C466.593 681.777 467.281 683.537 467.971 685.301C469.466 689.062 471.214 692.661 473.01 696.286C476.671 703.796 479.744 711.495 482.71 719.299C483.041 720.165 483.372 721.031 483.713 721.924C484.003 722.693 484.292 723.463 484.591 724.256C485.49 726.372 486.584 728.222 487.775 730.185C488.291 731.367 488.779 732.561 489.238 733.766C492.747 742.764 496.793 751.558 501.306 760.095C501.58 760.614 501.854 761.132 502.136 761.667C503.776 764.714 505.514 767.627 507.526 770.445C507.776 770.445 508.027 770.445 508.285 770.445C508.285 765.933 508.285 761.421 508.285 756.772C509.539 756.772 510.792 756.772 512.083 756.772C513.034 760.52 513.699 764.046 513.896 767.911C513.936 768.653 513.976 769.396 514.017 770.16C514.089 771.685 514.146 773.21 514.189 774.736C514.429 778.731 514.806 781.247 517.653 784.184C520.624 786.816 523.086 788.13 527.086 788.012C527.997 787.991 527.997 787.991 528.926 787.97C529.384 787.953 529.842 787.935 530.315 787.917C531.755 783.959 530.112 781.096 528.51 777.472C528.26 776.88 528.009 776.287 527.751 775.677C526.691 772.86 526.691 772.86 524.997 770.445C524.966 768.926 524.965 767.406 524.997 765.888C526.251 765.637 527.504 765.386 528.795 765.128C529.635 766.916 530.474 768.704 531.312 770.493C531.546 770.992 531.781 771.491 532.022 772.005C533.544 775.257 534.994 778.532 536.392 781.84C536.893 781.84 537.394 781.84 537.911 781.84C538.701 779.803 539.474 777.762 540.237 775.715C540.573 774.858 540.573 774.858 540.915 773.984C542.295 770.235 542.833 767.574 541.709 763.609C540.304 761.065 540.304 761.065 538.481 758.671C538.173 758.242 537.865 757.813 537.548 757.371C536.253 755.574 534.926 753.803 533.576 752.048C532.038 750.027 531.11 748.748 530.837 746.184C530.954 745.409 530.954 745.409 531.074 744.618C532.328 744.367 533.581 744.116 534.872 743.858C535.276 744.426 535.679 744.994 536.095 745.579C536.9 746.701 536.9 746.701 537.721 747.846C538.25 748.586 538.779 749.327 539.323 750.089C540.774 751.984 542.287 753.589 543.988 755.253C546.572 741.152 547.517 727.446 547.423 713.143C547.405 710.486 547.416 707.831 547.433 705.175C547.529 687.875 545.716 671.434 541.044 654.743C540.504 652.751 539.973 650.757 539.445 648.761C539.314 648.268 539.183 647.774 539.048 647.266C537.685 642.073 536.577 636.831 535.49 631.574C533.939 624.129 532.214 616.803 530.04 609.515C529.531 607.803 529.038 606.087 528.546 604.37C523.69 587.599 517.804 571.357 510.564 555.468C510.245 554.767 509.926 554.065 509.598 553.342C508.954 551.926 508.31 550.509 507.665 549.092C506.631 546.815 505.605 544.535 504.582 542.253C501.737 535.913 498.873 529.582 495.998 523.255C495.029 521.122 494.062 518.988 493.098 516.853C490.602 511.339 488.067 505.85 485.446 500.395C474.017 476.485 465.898 451.656 461.188 425.571C461.004 424.6 460.82 423.629 460.631 422.629C455.785 396.393 455.974 369.557 455.722 342.96C455.711 341.801 455.7 340.641 455.688 339.482C455.683 338.905 455.677 338.329 455.671 337.735C455.649 335.394 455.626 333.053 455.603 330.712C455.591 329.541 455.58 328.371 455.569 327.201C455.379 307.186 454.4 287.367 452.59 267.423C452.121 262.228 451.772 257.034 451.499 251.825C451.359 249.378 451.359 249.378 450.922 247.163C450.438 244.033 450.42 240.964 450.393 237.801C450.373 236.417 450.353 235.032 450.332 233.647C450.322 232.929 450.312 232.21 450.301 231.47C450.123 219.563 449.665 207.986 447.745 196.218C447.43 194.066 447.325 191.922 447.229 189.751C446.506 178.896 444.167 167.139 439.158 157.419C438.657 157.419 438.156 157.419 437.639 157.419C437.639 160.678 437.639 163.937 437.639 167.295C436.774 167.653 435.91 168.012 435.019 168.381C433.248 169.393 432.469 169.876 431.836 171.841C431.681 173.665 431.66 175.435 431.704 177.265C431.706 179.521 431.657 181.751 431.562 184.007C430.043 185.526 430.043 185.526 428.286 185.621C423.76 183.726 421.711 177.34 419.606 173.14C415.717 165.402 411.331 158.379 406.166 151.441C404.918 149.745 403.705 148.029 402.497 146.304C397.65 139.409 392.628 133.073 386.743 127.034C386.203 126.438 385.662 125.841 385.106 125.227C376.196 115.669 363.785 108.283 350.518 107.711C335.842 107.844 323.272 116.447 313.059 126.274C310.828 128.683 308.869 131.187 306.982 133.871C306.541 134.482 306.1 135.093 305.646 135.722C299.241 145.144 294.989 156.069 292.234 167.084C291.92 168.307 291.568 169.52 291.19 170.725C288.91 178.793 289.166 186.956 289.213 195.277C289.225 197.854 289.213 200.43 289.199 203.007C289.184 216.559 291.011 228.501 294.733 241.549C294.98 242.473 295.228 243.398 295.483 244.35C296.825 249.089 297.756 252.337 301.664 255.412C304.792 259.142 306.128 262.462 305.813 267.371C305.212 270.313 304.148 271.212 301.664 272.884C296.663 275.403 292.051 277.021 286.472 277.442C285.014 278.9 285.129 281.569 284.81 283.519C283.629 290.003 280.996 295.172 275.837 299.471C273.305 301.159 271.25 301.352 268.24 300.991C264.598 299.096 262.584 296.997 260.644 293.394C259.316 289.129 258.756 284.921 258.365 280.48C257.263 280.369 257.263 280.369 256.14 280.255C241.745 278.602 241.745 278.602 236.621 273.549C234.517 270.764 234.24 268.286 234.475 264.854C235.041 261.793 235.916 260.177 237.855 257.691C238.748 257.268 239.641 256.845 240.561 256.409C242.473 255.431 243.068 254.892 243.941 252.896C244.568 250.455 245.026 248.022 245.451 245.537C245.644 244.56 245.837 243.583 246.036 242.576C248.515 229.8 249.486 217.073 249.425 204.075C249.424 202.773 249.423 201.471 249.423 200.169C249.422 197.465 249.416 194.76 249.406 192.055C249.393 188.641 249.39 185.227 249.39 181.813C249.39 168.096 249.359 154.402 248.49 140.707C248.438 139.82 248.387 138.932 248.334 138.018C247.28 121.115 244.843 102.637 231.947 90.3371C229.122 88.1877 226.022 87.0702 222.662 86.0137C221.91 85.7631 221.158 85.5124 220.383 85.2541C199.954 82.9378 180.345 95.3407 167.69 110.147Z" fill="#240F0E"/>
<path d="M371.311 124.289C371.891 124.694 372.472 125.098 373.07 125.515C373.8 126.005 374.529 126.496 375.281 127.001C383.886 133.268 388.935 142.364 394.34 151.342C394.68 151.899 395.021 152.456 395.372 153.03C398.902 158.825 401.823 164.738 404.215 171.093C404.535 171.928 404.854 172.763 405.183 173.624C415.613 201.785 416.072 229.92 409.673 259.078C409.352 260.544 409.045 262.013 408.737 263.482C406.423 273.487 400.874 281.22 392.204 286.747C388.509 288.863 384.787 290.11 380.667 291.115C380.199 291.256 379.73 291.397 379.248 291.543C373.38 292.746 366.54 292.39 360.916 290.356C360.048 290.058 359.179 289.76 358.284 289.454C351.908 287.161 346.939 284.385 341.925 279.721C341.462 279.326 340.999 278.932 340.522 278.525C326.342 265.702 319.651 243.691 315.338 225.787C315.034 224.584 314.73 223.381 314.424 222.178C313.775 219.583 313.178 216.982 312.62 214.366C312.405 213.366 312.184 212.368 311.955 211.371C306.308 186.499 309.768 156.211 322.213 133.886C327.948 125.002 335.282 121.633 345.216 119.26C354.14 117.397 363.548 119.443 371.311 124.289Z" fill="#FDFAFA"/>
<path d="M208.612 124.735C209.237 125.243 209.863 125.751 210.508 126.275C210.896 126.576 211.285 126.878 211.685 127.188C225.318 137.781 232.703 150.456 235.172 167.621C235.797 173.064 235.774 178.536 235.766 184.007C235.765 184.522 235.765 185.037 235.764 185.568C235.735 194.323 235.735 194.323 234.816 196.161C234.574 197.599 234.36 199.043 234.16 200.487C231.283 219.799 226.936 240.668 217.353 257.832C216.58 259.22 215.833 260.62 215.089 262.024C210.252 270.995 204.849 278.173 196.075 283.519C195.211 284.107 195.211 284.107 194.33 284.706C187.173 288.512 178.845 287.601 171.007 287.317C169.783 287.279 169.783 287.279 168.535 287.24C160.486 286.4 153.475 280.192 148.313 274.309C137.547 260.048 136.419 245.218 136.118 227.855C136.065 225.099 135.978 222.346 135.888 219.591C135.485 203.491 137.926 188.442 143.66 173.372C143.95 172.512 144.24 171.652 144.538 170.767C151.334 151.83 164.518 133.359 182.757 124.111C190.567 120.556 201.378 119.55 208.612 124.735Z" fill="#FDFAFA"/>
<path d="M371.113 137.473C371.696 137.789 372.279 138.106 372.88 138.433C373.613 138.817 374.345 139.201 375.1 139.597C383.742 144.505 388.813 151.628 394.241 158.66C394.583 159.096 394.925 159.532 395.277 159.982C398.823 164.52 401.756 169.151 404.159 174.128C404.479 174.782 404.8 175.436 405.13 176.11C415.605 198.165 416.067 220.199 409.64 243.034C409.318 244.183 409.009 245.333 408.7 246.484C406.375 254.319 400.803 260.375 392.095 264.704C388.385 266.361 384.647 267.338 380.509 268.125C380.039 268.235 379.569 268.346 379.084 268.46C373.191 269.402 366.322 269.123 360.674 267.53C359.801 267.297 358.929 267.064 358.03 266.824C351.627 265.028 346.636 262.854 341.601 259.201C341.136 258.892 340.671 258.583 340.192 258.265C325.951 248.222 319.231 230.984 314.9 216.962C314.595 216.02 314.289 215.078 313.982 214.136C313.331 212.104 312.731 210.066 312.17 208.018C311.955 207.235 311.732 206.453 311.503 205.672C305.831 186.193 309.306 162.472 321.805 144.988C327.564 138.031 334.93 135.393 344.906 133.534C353.868 132.075 363.317 133.678 371.113 137.473ZM330.614 144.342C316.436 158.642 314.199 180.55 316.426 197.924C317.758 205.16 320.187 212.274 322.529 219.342C322.799 220.188 323.068 221.034 323.336 221.881C325.647 229.025 329.547 235.483 333.972 241.949C334.231 242.33 334.491 242.711 334.757 243.104C341.394 252.779 349.327 258.981 362.772 262.659C371.08 264.442 379.684 263.817 387.259 260.682C395.951 256.622 400.048 251.882 402.633 244.328C403.178 242.549 403.675 240.764 404.159 238.974C404.301 238.458 404.443 237.942 404.589 237.411C409.58 218.743 408.077 199.376 400.344 181.267C400.177 180.868 400.01 180.47 399.838 180.059C394.07 166.525 383.263 148.84 366.872 141.633C364.831 140.869 362.802 140.219 360.674 139.622C359.777 139.365 358.88 139.107 357.956 138.842C348.874 137.425 337.334 139.009 330.614 144.342Z" fill="#281212"/>
<path d="M208.684 137.825C209.31 138.225 209.936 138.625 210.581 139.037C210.97 139.274 211.359 139.512 211.76 139.756C225.403 148.092 232.793 158.065 235.265 171.573C235.89 175.856 235.867 180.162 235.859 184.467C235.858 184.872 235.858 185.278 235.857 185.695C235.828 192.585 235.828 192.585 234.909 194.031C234.667 195.163 234.452 196.299 234.252 197.436C231.373 212.632 227.023 229.054 217.432 242.561C216.658 243.653 215.911 244.754 215.166 245.859C210.326 252.919 204.918 258.567 196.137 262.774C195.273 263.236 195.273 263.236 194.391 263.708C187.229 266.702 178.894 265.986 171.05 265.762C169.825 265.732 169.825 265.732 168.576 265.702C160.521 265.041 153.504 260.156 148.338 255.526C137.564 244.304 136.435 232.635 136.134 218.971C136.081 216.803 135.994 214.636 135.904 212.468C135.5 199.799 137.943 187.957 143.682 176.098C143.972 175.422 144.262 174.745 144.561 174.048C151.362 159.147 164.556 144.612 182.809 137.335C190.625 134.537 201.444 133.746 208.684 137.825ZM165.728 154.579C163.538 157.1 161.587 159.707 159.646 162.35C158.87 163.309 158.094 164.268 157.318 165.227C149.911 175.06 145.454 186.316 143.682 197.618C143.553 198.051 143.425 198.485 143.292 198.931C142.834 201.001 142.823 202.974 142.82 205.076C142.819 205.505 142.818 205.935 142.817 206.378C142.815 207.767 142.82 209.155 142.826 210.544C142.828 211.016 142.829 211.489 142.831 211.975C142.576 234.971 142.576 234.971 156.591 254.503C164.419 260.099 171.464 260.577 181.859 260.471C189.295 260.159 195.261 257.756 200.366 253.508C211.073 243.56 217.606 231.183 221.414 218.624C222.054 216.517 222.721 214.416 223.389 212.314C226.45 202.588 229.12 193.487 229.064 183.421C229.063 183.027 229.062 182.634 229.061 182.228C229.03 176.181 228.6 170.578 226.546 164.741C226.343 164.104 226.14 163.466 225.931 162.81C223.37 155.747 217.426 150.441 210.581 145.613C209.645 144.921 209.645 144.921 208.69 144.216C203.825 140.986 199.979 140.182 193.631 140.485C182.534 141.847 172.787 147.908 165.728 154.579Z" fill="#291413"/>
<path d="M179.363 168.814C183.348 171.036 185.041 173.868 186.434 178.176C189.57 194.848 185.625 213.197 176.324 227.306C173.394 230.763 171.237 233.15 166.639 233.763C164.618 233.741 163.692 233.6 162.078 232.356C156.635 226.163 154.701 219.154 154.865 211.048C155.799 197.597 158.524 182.542 168.096 172.384C171.841 169.167 174.454 167.848 179.363 168.814Z" fill="#240E0D"/>
<path d="M375.349 165.016C382.743 170.04 386.174 175.703 387.853 184.304C389.522 196.321 390.683 213.545 383.177 223.894C381.237 226.112 379.784 227.153 376.815 227.478C374.09 227.432 372.232 227.061 370.034 225.401C366.55 221.7 364.667 217.688 363.195 212.873C362.912 211.986 362.629 211.099 362.337 210.185C359.101 199.056 357.635 184.473 362.23 173.562C364.194 170.082 366.184 167.415 369.699 165.443C371.758 164.968 373.24 164.787 375.349 165.016Z" fill="#230D0D"/>
<path d="M416.369 402.781C419.083 404.995 420.057 406.471 420.499 409.95C420.361 417.61 413.828 424.903 408.773 430.128C405.865 432.624 402.839 434.834 399.657 436.965C399.061 437.383 398.464 437.801 397.85 438.232C394.135 440.605 390.809 441.45 386.387 441.226C383.584 440.551 382.263 439.349 380.639 437.009C379.14 433.81 379.357 431.147 380.36 427.9C382.124 423.823 385.025 420.767 388.037 417.559C389.586 415.905 391.039 414.208 392.488 412.467C398.838 405.208 406.525 401.147 416.369 402.781Z" fill="#230D0C"/>
<path d="M434.601 274.404C435.353 274.78 435.353 274.78 436.12 275.163C435.839 279.548 434.603 282.006 431.705 285.181C431.331 285.603 430.958 286.026 430.573 286.461C429.399 287.774 428.206 289.068 427.004 290.356C426.636 290.753 426.268 291.151 425.889 291.56C411.448 306.987 393.496 317.888 371.898 319.412C367.555 319.495 367.555 319.495 365.474 319.222C364.973 318.721 364.471 318.219 363.955 317.703C364.377 314.242 364.377 314.242 365.474 313.145C366.611 313.04 367.752 312.968 368.892 312.908C392.165 310.866 409.088 298.883 424.441 282C425.014 281.373 425.588 280.746 426.179 280.101C427.812 278.244 427.812 278.244 429.016 276.113C430.66 273.376 431.756 273.514 434.601 274.404Z" fill="#291413"/>
<path d="M117.073 276.682C118.936 276.756 118.936 276.756 120.871 277.442C121.999 278.911 121.999 278.911 122.96 280.813C125.499 285.36 128.668 288.894 132.266 292.634C132.9 293.317 133.535 294 134.188 294.703C146.506 307.581 163.389 317.556 181.559 318.254C183.161 318.462 183.161 318.462 184.68 319.981C184.918 321.88 184.918 321.88 184.68 323.78C180.798 326.368 176.452 325.553 172.001 324.702C167.976 323.863 164.264 322.537 160.467 320.978C159.805 320.709 159.143 320.439 158.461 320.161C142.1 313.344 122.923 298.774 115.554 282C115.364 280.006 115.364 280.006 115.554 278.201C116.055 277.7 116.556 277.199 117.073 276.682Z" fill="#291312"/>
<path d="M356.358 10.8096C358.863 11.06 359.87 11.2826 361.676 13.0885C364.386 22.4927 364.035 32.4883 364.097 42.192C364.107 43.1124 364.117 44.0327 364.127 44.9809C364.128 45.8437 364.129 46.7066 364.13 47.5955C364.133 48.3743 364.136 49.1531 364.139 49.9555C363.955 51.8299 363.955 51.8299 362.435 53.3492C360.062 53.4441 360.062 53.4441 357.878 53.3492C357.288 51.863 356.704 50.375 356.121 48.8863C355.795 48.0579 355.469 47.2295 355.133 46.3759C354.31 44.2121 353.667 42.033 353.047 39.8033C351.848 35.7349 350.066 32.1422 348.05 28.4236C347.723 27.8013 347.397 27.179 347.06 26.5379C345.659 23.9119 344.304 21.5687 342.436 19.2397C341.166 17.6463 341.166 17.6463 341.308 15.5573C341.925 13.8481 341.925 13.8481 342.685 13.0885C344.468 12.8392 344.468 12.8392 346.483 13.0885C351.028 17.5256 353.696 24.1255 356.358 29.8005C356.251 28.2018 356.14 26.6035 356.026 25.0053C355.964 24.1152 355.903 23.225 355.839 22.308C355.685 19.9055 355.685 19.9055 354.839 17.6463C354.697 14.9401 354.697 14.9401 354.839 12.3288C355.34 11.8275 355.842 11.3261 356.358 10.8096Z" fill="#26100F"/>
<path d="M127.138 319.554C130.579 320.07 131.49 320.889 133.515 323.599C137.287 329.828 138.567 336.299 137.583 343.53C136.471 346.427 134.856 347.88 132.266 349.607C129.395 349.982 128.115 349.873 125.666 348.278C119.849 342.618 119.938 336.582 119.761 328.783C120.325 324.399 122.606 320.339 127.138 319.554Z" fill="#250F0E"/>
<path d="M208.087 0.0326406C208.797 0.0218692 209.507 0.0110978 210.238 0C212.027 0.175072 212.027 0.175072 213.547 1.69434C213.737 3.59343 213.737 3.59343 213.547 5.49252C211.607 7.43206 210.217 7.24616 207.573 7.41423C194.066 8.28429 178.697 12.9394 167.767 21.2312C166 22.5361 164.793 22.4361 162.651 22.2045C161.891 21.4449 161.891 21.4449 161.669 19.2757C161.891 16.8871 161.891 16.8871 162.992 15.5191C175.572 7.02276 192.781 0.139675 208.087 0.0326406Z" fill="#291413"/>
<path d="M292.928 337.358C293.849 337.354 294.769 337.351 295.717 337.347C297.004 337.35 297.004 337.35 298.317 337.352C299.476 337.353 299.476 337.353 300.659 337.355C302.424 337.453 302.424 337.453 303.183 338.213C303.326 340.064 303.326 340.064 303.183 342.011C301.149 344.045 299.945 343.823 297.097 344.011C295.699 344.107 295.699 344.107 294.273 344.204C293.281 344.264 292.289 344.323 291.266 344.385C290.267 344.448 289.267 344.511 288.237 344.577C272.62 345.523 272.62 345.523 268.24 345.049C267.739 344.548 267.237 344.047 266.721 343.53C266.971 341.025 267.194 340.018 269 338.213C276.863 337.114 285.008 337.38 292.928 337.358Z" fill="#2B1616"/>
<path d="M220 228.5L140 219V230.5L147 246L159 260L186 263.5L207 254L220 228.5Z" fill="#240F0E" stroke="#240F0E"/>
<path d="M233 187L148 175L150 166.604L158.5 156L169.5 146.5L201.5 138L222 150.183L233 187Z" fill="#240F0E" stroke="#240F0E"/>
<path d="M312 187L401 175L397 166.583L390 155.238L378 144.99L361 137L345.5 137.905L331 141.071L322.5 150.119L312 187Z" fill="#240F0E" stroke="#240F0E"/>
<path d="M324 230L408.5 219V230.5L404 248.5L387 264L360 263.5L339 254L324 230Z" fill="#240F0E" stroke="#240F0E"/>
</svg>
