<svg width="586" height="933" viewBox="0 0 586 933" fill="none" xmlns="http://www.w3.org/2000/svg">
<path d="M259.536 43.3317C260.386 43.3383 261.237 43.3448 262.113 43.3516C264.91 43.3801 267.707 43.4252 270.504 43.4741C271.957 43.4962 271.957 43.4962 273.44 43.5187C309.185 44.1224 343.947 49.9293 377.09 63.7944C397.715 73.5191 397.715 73.5191 419.392 72.4827C419.992 72.2076 420.593 71.9324 421.211 71.6489C430.279 67.8558 441.831 66.7624 451.181 70.0762C455.454 72.0226 458.272 74.1673 460.412 78.4174C461.811 85.2154 459.631 91.0605 456.039 96.81C452.734 101.566 448.52 106.349 443.7 109.562C444.731 113.06 446.178 115.9 448.068 119.01C453.553 128.321 457.61 138.855 459.558 149.491C460.137 152.337 461.242 154.616 462.596 157.182C470.239 171.928 470.769 189.767 472.307 205.992C472.535 208.29 472.535 208.29 472.966 210.436C473.447 213.69 473.475 216.896 473.513 220.181C473.537 221.634 473.561 223.087 473.586 224.539C473.597 225.294 473.609 226.048 473.621 226.825C473.812 238.661 474.102 250.409 475.364 262.185C475.84 266.804 476.239 271.43 476.641 276.056C476.784 277.688 476.934 279.319 477.084 280.951C478.551 297.288 478.77 313.676 478.982 330.068C479.052 335.447 479.134 340.825 479.216 346.204C479.224 346.727 479.232 347.251 479.241 347.79C479.639 373.856 480.112 399.848 484.721 425.571C484.828 426.171 484.935 426.771 485.045 427.39C486.02 432.762 487.211 438.039 488.712 443.289C489.508 446.146 490.175 449.031 490.842 451.921C491.681 454.872 492.731 457.714 493.795 460.59C494.543 462.647 495.245 464.711 495.928 466.79C499.252 476.823 503.284 486.322 507.797 495.871C510.182 500.952 512.499 506.063 514.821 511.172C515.067 511.711 515.312 512.249 515.564 512.804C518.812 519.938 521.982 527.098 525.035 534.318C526.591 537.987 528.21 541.613 529.919 545.213C532.978 551.692 535.801 558.266 538.575 564.872C539.351 566.712 540.142 568.546 540.934 570.379C548.874 589.117 554.083 609.308 558.595 629.106C560.021 635.314 561.476 641.51 563.058 647.681C563.192 648.205 563.327 648.729 563.465 649.269C563.599 649.79 563.733 650.312 563.87 650.849C569.067 671.128 570.702 690.215 570.7 711.118C570.702 714.047 570.716 716.975 570.73 719.903C570.732 721.791 570.734 723.679 570.735 725.567C570.74 726.429 570.746 727.291 570.751 728.179C570.735 733.809 570.083 739.093 569.04 744.618C568.476 748.41 568.044 752.214 567.672 756.029C567.539 757.349 567.378 758.666 567.212 759.983C566.707 766.675 569.593 771.149 572.858 776.727C575.097 780.702 577.068 784.804 576.637 789.436C576.135 789.938 575.634 790.439 575.117 790.955C573.266 790.908 573.266 790.908 571.319 790.196C569.392 787.382 568.028 784.322 566.619 781.223C566.217 780.34 565.814 779.458 565.399 778.549C565.097 777.88 564.794 777.211 564.483 776.522C563.657 778.165 562.841 779.812 562.037 781.466C561.716 782.122 561.395 782.778 561.064 783.454C560.743 784.114 560.422 784.774 560.091 785.454C559.165 787.157 559.165 787.157 557.646 788.677C557.983 794.221 559.528 799.518 560.957 804.865C561.961 808.843 562.482 811.949 561.444 816.023C560.943 816.776 560.441 817.528 559.925 818.302C557.978 818.492 557.978 818.492 556.127 818.302C554.772 816.948 554.818 814.922 554.489 813.089C554.323 812.18 554.158 811.27 553.987 810.334C553.816 809.375 553.644 808.417 553.468 807.43C553.128 805.55 552.788 803.669 552.447 801.789C552.222 800.531 552.222 800.531 551.992 799.248C551.653 797.474 551.273 795.738 550.809 793.994C550.057 794.245 549.305 794.495 548.53 794.754C542.596 795.29 538.417 794.878 533.337 791.715C533.087 791.464 532.836 791.214 532.578 790.955C532.54 791.533 532.502 792.111 532.462 792.706C532.284 795.367 532.099 798.028 531.913 800.688C531.824 802.051 531.824 802.051 531.732 803.441C530.65 818.711 530.65 818.711 528.02 821.341C526.073 821.483 526.073 821.483 524.222 821.341C523.462 820.581 523.462 820.581 523.361 819C523.364 817.973 523.364 817.973 523.367 816.926C523.365 816.263 523.363 815.6 523.361 814.917C523.448 812.597 523.611 810.309 523.809 807.997C523.947 806.368 524.085 804.739 524.222 803.11C524.291 802.306 524.36 801.502 524.431 800.673C525.388 787.982 524.347 780.322 516.262 770.424C514.502 768.143 513.183 765.695 511.878 763.134C511.527 762.456 511.527 762.456 511.169 761.765C510.446 760.358 509.737 758.946 509.029 757.532C508.455 756.395 507.882 755.259 507.308 754.122C505.844 751.213 504.395 748.297 502.952 745.377C502.739 745.946 502.525 746.515 502.306 747.101C496.275 763.075 489.705 777.915 479.658 791.824C478.682 793.181 477.725 794.551 476.774 795.926C472.995 801.359 468.954 806.521 464.746 811.629C461.351 815.76 458.166 820 455.095 824.379C455.922 824.695 455.922 824.695 456.766 825.017C460.418 826.53 463.797 828.538 467.249 830.456C468.224 830.983 469.199 831.509 470.175 832.035C476.737 835.604 482.67 839.459 488.519 844.13C489.173 844.638 489.827 845.146 490.501 845.67C492.396 847.156 494.261 848.67 496.115 850.207C496.766 850.746 497.418 851.284 498.089 851.839C501.31 854.609 503.925 857.183 506.18 860.794C508.761 864.771 512.051 867.088 515.953 869.655C518.418 871.281 520.453 872.684 521.943 875.275C521.755 876.923 521.607 877.89 520.424 879.073C518.809 879.406 518.809 879.406 516.625 879.073C515.161 878.03 513.872 876.889 512.56 875.661C511.207 874.364 511.207 874.364 509.029 872.996C507.758 873.22 506.493 873.481 505.231 873.756C502.951 873.829 500.675 873.8 498.394 873.756C498.716 874.115 499.039 874.474 499.37 874.845C501.851 877.641 504.275 880.473 506.608 883.394C507.036 883.929 507.464 884.465 507.905 885.017C509.029 886.67 509.029 886.67 509.617 888.483C510.998 891.426 513.243 893.08 515.723 895.12C516.192 895.519 516.661 895.918 517.143 896.328C519.176 898.034 521.105 899.538 523.403 900.88C523.924 901.204 524.445 901.528 524.981 901.862C525.314 903.809 525.314 903.809 524.981 905.66C524.48 906.162 523.979 906.663 523.462 907.18C518.941 907.173 516.557 904.792 513.397 901.91C512.686 901.282 512.686 901.282 511.961 900.641C510.179 899.061 508.434 897.469 506.75 895.785C505.252 895.776 505.252 895.776 503.522 895.975C495.193 896.143 487.181 890.708 480.163 886.67C479.912 886.92 479.662 887.171 479.403 887.429C480.011 888.053 480.011 888.053 480.632 888.69C495.539 904.551 495.539 904.551 495.403 912.497C495.832 917.754 499.764 921.482 502.952 925.411C504.001 927.509 503.857 929.169 503.712 931.488C503.21 931.989 502.709 932.491 502.192 933.007C500.741 932.942 500.741 932.942 499.154 932.248C497.827 930.699 497.827 930.699 496.543 928.734C496.078 928.049 495.614 927.363 495.136 926.657C494.372 925.478 493.624 924.287 492.917 923.073C490.726 919.5 488.592 918.616 484.703 917.251C479.756 915.16 475.421 911.781 471.047 908.699C470.49 908.309 469.933 907.919 469.358 907.518C463.105 903.133 457.025 898.658 451.274 893.629C447.906 890.721 444.341 888.147 440.709 885.578C434.976 881.514 429.648 877.149 424.379 872.506C422.552 870.925 420.662 869.424 418.775 867.916C414.952 864.808 411.208 861.553 407.998 857.803C407.998 857.302 407.998 856.801 407.998 856.284C407.357 856.386 406.717 856.488 406.058 856.593C398.401 857.722 390.82 858.137 383.09 858.394C367.792 858.912 352.527 859.8 337.257 860.842C336.323 860.906 335.389 860.969 334.427 861.035C331.681 861.223 328.934 861.412 326.188 861.602C324.845 861.694 324.845 861.694 323.475 861.788C318.886 862.106 314.3 862.437 309.714 862.789C297.951 863.677 286.286 864.103 274.492 864.023C272.873 864.017 271.255 864.012 269.637 864.006C239.744 863.873 239.744 863.873 234.041 862.361C231.512 861.79 231.512 861.79 228.724 862.361C227.032 863.697 225.642 865.166 224.19 866.759C222.753 868.323 221.275 869.68 219.655 871.05C217.46 872.931 215.439 874.9 213.436 876.984C209.391 881.078 204.921 884.554 200.334 888.013C199.275 888.814 198.227 889.629 197.181 890.447C189.5 896.201 178.844 901.986 169.092 901.957C165.782 902.219 164.265 902.774 162.066 905.281C161.217 906.401 160.395 907.542 159.597 908.699C158.689 909.972 157.771 911.238 156.843 912.497C156.442 913.077 156.04 913.657 155.627 914.254C154.279 915.536 154.279 915.536 152.315 915.821C150.481 915.536 150.481 915.536 148.962 914.016C149.038 910.155 151.425 907.698 153.757 904.853C154.127 904.389 154.496 903.924 154.877 903.445C156.438 901.503 157.966 899.689 159.781 897.975C161.365 896.278 161.831 894.913 162.493 892.699C164.099 887.912 166.622 883.972 169.472 879.833C168.893 880.097 168.893 880.097 168.301 880.367C166.525 881.174 164.746 881.975 162.968 882.776C162.36 883.054 161.752 883.331 161.126 883.616C152.282 887.587 152.282 887.587 147.205 887.429C142.062 887.952 139.189 892.034 136.048 895.785C134.354 897.979 132.679 900.188 131.1 902.467C129.628 904.512 128.775 905.56 126.33 906.322C125.777 906.354 125.224 906.387 124.654 906.42C123.558 904.23 123.643 902.78 123.894 900.343C124.944 898.582 125.929 897.157 127.217 895.595C127.556 895.169 127.894 894.742 128.243 894.303C131.093 890.78 134.215 887.633 137.544 884.557C139.189 882.76 139.759 881.331 140.606 879.073C141.483 877.825 142.402 876.605 143.36 875.417C143.839 874.817 144.319 874.217 144.814 873.598C145.18 873.149 145.546 872.7 145.923 872.236C143.619 872.236 142.729 872.535 140.698 873.486C140.127 873.749 139.556 874.012 138.968 874.282C138.365 874.563 137.761 874.844 137.14 875.133C121.036 882.425 121.036 882.425 113.259 879.833C111.863 880.683 111.863 880.683 110.505 882.017C109.708 882.745 109.708 882.745 108.894 883.489C106.522 885.791 104.245 888.18 101.998 890.604C100.125 892.171 98.9751 892.626 96.547 892.747C95.0278 891.227 95.0278 891.227 94.6687 889.515C95.1923 886.473 97.0805 884.939 99.2532 882.919C99.8766 882.32 99.8766 882.32 100.512 881.709C101.712 880.565 102.924 879.436 104.143 878.314C104.716 877.784 105.289 877.254 105.879 876.708C109.198 873.756 109.198 873.756 110.98 873.756C111.151 873.096 111.323 872.436 111.499 871.756C112.633 868.855 114.219 866.939 116.345 864.735C116.723 864.337 117.101 863.939 117.49 863.529C118.602 862.37 119.727 861.225 120.855 860.082C121.38 859.539 121.905 858.995 122.446 858.435C133.75 847.557 150.264 840.165 164.914 835.014C162.858 832.57 160.799 830.161 158.594 827.848C151.942 820.849 146.295 813.178 140.606 805.389C139.908 804.444 139.209 803.499 138.511 802.555C129.294 789.988 121.483 776.51 114.019 762.849C113.61 762.103 113.202 761.357 112.781 760.588C107.066 750.075 102.033 739.369 97.4105 728.34C97.111 727.63 97.111 727.63 96.8054 726.905C96.2633 725.615 95.7267 724.324 95.1904 723.032C94.3715 721.001 94.3715 721.001 92.7489 719.55C92.3895 720.15 92.0301 720.751 91.6599 721.37C90.2981 723.641 88.9328 725.91 87.5653 728.178C86.9791 729.152 86.3943 730.126 85.8109 731.102C84.9621 732.52 84.1087 733.936 83.2534 735.351C82.9715 735.82 82.6896 736.29 82.3992 736.774C80.5949 739.731 78.6031 742.385 76.4108 745.075C73.0469 749.591 72.9506 753.606 73.0933 759.098C73.101 760.785 73.1033 762.471 73.0992 764.158C73.1214 765.259 73.1214 765.259 73.1441 766.383C72.9983 768.166 72.9983 768.166 71.4791 769.686C69.58 769.923 69.58 769.923 67.6809 769.686C65.7885 766.847 66.0047 765.322 66.0667 761.947C66.0804 760.98 66.0941 760.014 66.1082 759.018C66.1258 758.277 66.1435 757.536 66.1616 756.772C65.6818 757.046 65.202 757.32 64.7076 757.603C58.7554 760.69 53.8032 761.006 47.1707 760.57C45.7209 765.231 44.9716 769.865 44.3087 774.693C43.4438 780.384 43.4438 780.384 41.0936 782.6C39.1471 782.884 39.1471 782.884 37.2955 782.6C35.7762 781.08 35.7762 781.08 35.5685 778.831C35.6811 775.016 36.6612 771.379 37.5803 767.692C37.7488 766.987 37.9172 766.282 38.0907 765.555C38.8904 762.272 39.6978 759.104 41.0936 756.012C40.5923 755.871 40.0909 755.73 39.5744 755.585C35.0885 753.436 31.6474 749.643 28.1798 746.137C26.2823 754.257 24.8067 761.997 24.6636 770.35C24.3817 772.724 24.3817 772.724 23.3431 774.181C21.5859 775.346 20.3651 775.267 18.3046 775.003C16.7853 773.484 16.7853 773.484 16.6963 770.852C16.7454 769.719 16.8077 768.586 16.8803 767.454C16.9172 766.851 16.9541 766.247 16.9921 765.625C17.6024 757.388 18.8948 748.76 22.3401 741.199C24.8241 735.576 23.2289 729.926 21.1923 724.387C19.2286 718.586 18.8364 712.808 18.8624 706.728C18.861 705.96 18.8595 705.192 18.858 704.401C18.857 702.784 18.8598 701.167 18.8661 699.55C18.8742 697.118 18.8662 694.687 18.8565 692.255C18.8502 683.261 19.229 674.509 20.5835 665.616C20.6823 664.947 20.781 664.279 20.8828 663.59C21.1441 661.961 21.4428 660.348 21.7704 658.731C21.9511 657.834 21.9511 657.834 22.1354 656.919C23.5047 650.476 25.2683 644.135 27.0404 637.794C27.1857 637.271 27.331 636.748 27.4807 636.209C29.0054 630.746 30.6276 625.388 32.8222 620.152C33.8105 617.76 34.5983 615.33 35.3964 612.868C36.4644 609.602 37.561 606.354 38.7673 603.136C40.0556 599.641 41.1788 596.105 42.2806 592.548C44.2908 586.097 46.4262 579.69 48.6074 573.294C48.9756 572.213 49.3423 571.132 49.7074 570.05C51.5866 564.489 53.5475 559.158 56.2864 553.949C56.9798 552.204 57.6439 550.446 58.2804 548.679C60.2936 543.175 62.4522 537.736 64.6423 532.3C66.7801 526.984 68.9087 521.669 70.9093 516.3C71.0861 515.825 71.263 515.351 71.4451 514.862C72.3404 512.449 73.2227 510.031 74.0992 507.611C77.0661 499.479 80.4993 491.655 84.4878 483.968C86.1695 480.654 87.4395 477.189 88.743 473.713C89.3369 472.139 89.9467 470.57 90.5827 469.012C92.9455 463.177 94.831 457.221 96.6895 451.209C96.9517 450.363 97.214 449.517 97.4842 448.646C97.859 447.417 97.859 447.417 98.2414 446.164C98.4638 445.435 98.6863 444.706 98.9155 443.956C100.341 438.779 101.358 433.573 102.073 428.254C102.154 427.65 102.236 427.047 102.32 426.425C104.783 407.735 105.404 389.374 105.238 370.542C105.208 366.576 105.202 362.609 105.193 358.643C105.174 351.168 105.136 343.693 105.091 336.217C105.009 322.823 104.956 309.428 104.915 296.033C104.899 291.358 104.875 286.683 104.843 282.008C104.726 264.117 104.874 246.613 107.875 228.924C108.692 224.082 109.103 219.24 109.461 214.345C109.964 207.525 110.561 200.727 111.312 193.929C111.438 192.723 111.438 192.723 111.566 191.492C112.135 186.502 113.167 181.923 114.778 177.17C115.207 175.85 115.207 175.85 115.645 174.502C118.369 166.703 121.606 159.147 125.698 151.96C130.112 143.075 126.627 132.689 123.704 123.901C120.598 115.672 116.209 109.225 110.439 102.689C105.771 97.3907 102.259 92.667 102.422 85.3164C102.879 81.7361 104.485 79.4207 107.146 77.1533C114.335 72.0505 121.302 71.0783 129.971 70.821C130.551 70.8003 131.131 70.7797 131.729 70.7583C139.585 70.5091 147.159 70.8497 154.944 71.9605C165.768 73.4833 174.255 74.5997 183.905 68.5421C185.125 67.7884 186.344 67.0347 187.564 66.281C189.622 65.0043 191.678 63.7254 193.732 62.4422C209.512 52.6146 223.4 48.0135 241.802 45.3419C243.689 45.0309 245.505 44.6243 247.358 44.1566C251.41 43.2195 255.395 43.2795 259.536 43.3317Z" fill="#FEFCFC"/>
<g filter="url(#filter0_f_1219_69296)">
<ellipse cx="292.696" cy="235.185" rx="161" ry="85.1852" fill="#FF0000"/>
</g>
<path d="M259.536 43.3317C260.386 43.3383 261.237 43.3448 262.113 43.3516C264.91 43.3801 267.707 43.4252 270.504 43.4741C271.957 43.4962 271.957 43.4962 273.44 43.5187C309.185 44.1224 343.947 49.9293 377.09 63.7944C397.715 73.5191 397.715 73.5191 419.392 72.4827C419.992 72.2076 420.593 71.9324 421.211 71.6489C430.279 67.8558 441.831 66.7624 451.181 70.0762C455.454 72.0226 458.272 74.1673 460.412 78.4174C461.811 85.2154 459.631 91.0605 456.039 96.81C452.734 101.566 448.52 106.349 443.7 109.562C444.731 113.06 446.178 115.9 448.068 119.01C453.553 128.321 457.61 138.855 459.558 149.491C460.137 152.337 461.242 154.616 462.596 157.182C470.239 171.928 470.769 189.767 472.307 205.992C472.535 208.29 472.535 208.29 472.966 210.436C473.447 213.69 473.475 216.896 473.513 220.181C473.537 221.634 473.561 223.087 473.586 224.539C473.597 225.294 473.609 226.048 473.621 226.825C473.812 238.661 474.102 250.409 475.364 262.185C475.84 266.804 476.239 271.43 476.641 276.056C476.784 277.688 476.934 279.319 477.084 280.951C478.551 297.288 478.77 313.676 478.982 330.068C479.052 335.447 479.134 340.825 479.216 346.204C479.224 346.727 479.232 347.251 479.241 347.79C479.639 373.856 480.112 399.848 484.721 425.571C484.828 426.171 484.935 426.771 485.045 427.39C486.02 432.762 487.211 438.039 488.712 443.289C489.508 446.146 490.175 449.031 490.842 451.921C491.681 454.872 492.731 457.714 493.795 460.59C494.543 462.647 495.245 464.711 495.928 466.79C499.252 476.823 503.284 486.322 507.797 495.871C510.182 500.952 512.499 506.063 514.821 511.172C515.067 511.711 515.312 512.249 515.564 512.804C518.812 519.938 521.982 527.098 525.035 534.318C526.591 537.987 528.21 541.613 529.919 545.213C532.978 551.692 535.801 558.266 538.575 564.872C539.351 566.712 540.142 568.546 540.934 570.379C548.874 589.117 554.083 609.308 558.595 629.106C560.021 635.314 561.476 641.51 563.058 647.681C563.192 648.205 563.327 648.729 563.465 649.269C563.599 649.79 563.733 650.312 563.87 650.849C569.067 671.128 570.702 690.215 570.7 711.118C570.702 714.047 570.716 716.975 570.73 719.903C570.732 721.791 570.734 723.679 570.735 725.567C570.74 726.429 570.746 727.291 570.751 728.179C570.735 733.809 570.083 739.093 569.04 744.618C568.476 748.41 568.044 752.214 567.672 756.029C567.539 757.349 567.378 758.666 567.212 759.983C566.707 766.675 569.593 771.149 572.858 776.727C575.097 780.702 577.068 784.804 576.637 789.436C576.135 789.938 575.634 790.439 575.117 790.955C573.266 790.908 573.266 790.908 571.319 790.196C569.392 787.382 568.028 784.322 566.619 781.223C566.217 780.34 565.814 779.458 565.399 778.549C565.097 777.88 564.794 777.211 564.483 776.522C563.657 778.165 562.841 779.812 562.037 781.466C561.716 782.122 561.395 782.778 561.064 783.454C560.743 784.114 560.422 784.774 560.091 785.454C559.165 787.157 559.165 787.157 557.646 788.677C557.983 794.221 559.528 799.518 560.957 804.865C561.961 808.843 562.482 811.949 561.444 816.023C560.943 816.776 560.441 817.528 559.925 818.302C557.978 818.492 557.978 818.492 556.127 818.302C554.772 816.948 554.818 814.922 554.489 813.089C554.323 812.18 554.158 811.27 553.987 810.334C553.816 809.375 553.644 808.417 553.468 807.43C553.128 805.55 552.788 803.669 552.447 801.789C552.222 800.531 552.222 800.531 551.992 799.248C551.653 797.474 551.273 795.738 550.809 793.994C550.057 794.245 549.305 794.495 548.53 794.754C542.596 795.29 538.417 794.878 533.337 791.715C533.087 791.464 532.836 791.214 532.578 790.955C532.54 791.533 532.502 792.111 532.462 792.706C532.284 795.367 532.099 798.028 531.913 800.688C531.824 802.051 531.824 802.051 531.732 803.441C530.65 818.711 530.65 818.711 528.02 821.341C526.073 821.483 526.073 821.483 524.222 821.341C523.462 820.581 523.462 820.581 523.361 819C523.364 817.973 523.364 817.973 523.367 816.926C523.365 816.263 523.363 815.6 523.361 814.917C523.448 812.597 523.611 810.309 523.809 807.997C523.947 806.368 524.085 804.739 524.222 803.11C524.291 802.306 524.36 801.502 524.431 800.673C525.388 787.982 524.347 780.322 516.262 770.424C514.502 768.143 513.183 765.695 511.878 763.134C511.527 762.456 511.527 762.456 511.169 761.765C510.446 760.358 509.737 758.946 509.029 757.532C508.455 756.395 507.882 755.259 507.308 754.122C505.844 751.213 504.395 748.297 502.952 745.377C502.739 745.946 502.525 746.515 502.306 747.101C496.275 763.075 489.705 777.915 479.658 791.824C478.682 793.181 477.725 794.551 476.774 795.926C472.995 801.359 468.954 806.521 464.746 811.629C461.351 815.76 458.166 820 455.095 824.379C455.922 824.695 455.922 824.695 456.766 825.017C460.418 826.53 463.797 828.538 467.249 830.456C468.224 830.983 469.199 831.509 470.175 832.035C476.737 835.604 482.67 839.459 488.519 844.13C489.173 844.638 489.827 845.146 490.501 845.67C492.396 847.156 494.261 848.67 496.115 850.207C496.766 850.746 497.418 851.284 498.089 851.839C501.31 854.609 503.925 857.183 506.18 860.794C508.761 864.771 512.051 867.088 515.953 869.655C518.418 871.281 520.453 872.684 521.943 875.275C521.755 876.923 521.607 877.89 520.424 879.073C518.809 879.406 518.809 879.406 516.625 879.073C515.161 878.03 513.872 876.889 512.56 875.661C511.207 874.364 511.207 874.364 509.029 872.996C507.758 873.22 506.493 873.481 505.231 873.756C502.951 873.829 500.675 873.8 498.394 873.756C498.716 874.115 499.039 874.474 499.37 874.845C501.851 877.641 504.275 880.473 506.608 883.394C507.036 883.929 507.464 884.465 507.905 885.017C509.029 886.67 509.029 886.67 509.617 888.483C510.998 891.426 513.243 893.08 515.723 895.12C516.192 895.519 516.661 895.918 517.143 896.328C519.176 898.034 521.105 899.538 523.403 900.88C523.924 901.204 524.445 901.528 524.981 901.862C525.314 903.809 525.314 903.809 524.981 905.66C524.48 906.162 523.979 906.663 523.462 907.18C518.941 907.173 516.557 904.792 513.397 901.91C512.686 901.282 512.686 901.282 511.961 900.641C510.179 899.061 508.434 897.469 506.75 895.785C505.252 895.776 505.252 895.776 503.522 895.975C495.193 896.143 487.181 890.708 480.163 886.67C479.912 886.92 479.662 887.171 479.403 887.429C480.011 888.053 480.011 888.053 480.632 888.69C495.539 904.551 495.539 904.551 495.403 912.497C495.832 917.754 499.764 921.482 502.952 925.411C504.001 927.509 503.857 929.169 503.712 931.488C503.21 931.989 502.709 932.491 502.192 933.007C500.741 932.942 500.741 932.942 499.154 932.248C497.827 930.699 497.827 930.699 496.543 928.734C496.078 928.049 495.614 927.363 495.136 926.657C494.372 925.478 493.624 924.287 492.917 923.073C490.726 919.5 488.592 918.616 484.703 917.251C479.756 915.16 475.421 911.781 471.047 908.699C470.49 908.309 469.933 907.919 469.358 907.518C463.105 903.133 457.025 898.658 451.274 893.629C447.906 890.721 444.341 888.147 440.709 885.578C434.976 881.514 429.648 877.149 424.379 872.506C422.552 870.925 420.662 869.424 418.775 867.916C414.952 864.808 411.208 861.553 407.998 857.803C407.998 857.302 407.998 856.801 407.998 856.284C407.357 856.386 406.717 856.488 406.058 856.593C398.401 857.722 390.82 858.137 383.09 858.394C367.792 858.912 352.527 859.8 337.257 860.842C336.323 860.906 335.389 860.969 334.427 861.035C331.681 861.223 328.934 861.412 326.188 861.602C324.845 861.694 324.845 861.694 323.475 861.788C318.886 862.106 314.3 862.437 309.714 862.789C297.951 863.677 286.286 864.103 274.492 864.023C272.873 864.017 271.255 864.012 269.637 864.006C239.744 863.873 239.744 863.873 234.041 862.361C231.512 861.79 231.512 861.79 228.724 862.361C227.032 863.697 225.642 865.166 224.19 866.759C222.753 868.323 221.275 869.68 219.655 871.05C217.46 872.931 215.439 874.9 213.436 876.984C209.391 881.078 204.921 884.554 200.334 888.013C199.275 888.814 198.227 889.629 197.181 890.447C189.5 896.201 178.844 901.986 169.092 901.957C165.782 902.219 164.265 902.774 162.066 905.281C161.217 906.401 160.395 907.542 159.597 908.699C158.689 909.972 157.771 911.238 156.843 912.497C156.442 913.077 156.04 913.657 155.627 914.254C154.279 915.536 154.279 915.536 152.315 915.821C150.481 915.536 150.481 915.536 148.962 914.016C149.038 910.155 151.425 907.698 153.757 904.853C154.127 904.389 154.496 903.924 154.877 903.445C156.438 901.503 157.966 899.689 159.781 897.975C161.365 896.278 161.831 894.913 162.493 892.699C164.099 887.912 166.622 883.972 169.472 879.833C168.893 880.097 168.893 880.097 168.301 880.367C166.525 881.174 164.746 881.975 162.968 882.776C162.36 883.054 161.752 883.331 161.126 883.616C152.282 887.587 152.282 887.587 147.205 887.429C142.062 887.952 139.189 892.034 136.048 895.785C134.354 897.979 132.679 900.188 131.1 902.467C129.628 904.512 128.775 905.56 126.33 906.322C125.777 906.354 125.224 906.387 124.654 906.42C123.558 904.23 123.643 902.78 123.894 900.343C124.944 898.582 125.929 897.157 127.217 895.595C127.556 895.169 127.894 894.742 128.243 894.303C131.093 890.78 134.215 887.633 137.544 884.557C139.189 882.76 139.759 881.331 140.606 879.073C141.483 877.825 142.402 876.605 143.36 875.417C143.839 874.817 144.319 874.217 144.814 873.598C145.18 873.149 145.546 872.7 145.923 872.236C143.619 872.236 142.729 872.535 140.698 873.486C140.127 873.749 139.556 874.012 138.968 874.282C138.365 874.563 137.761 874.844 137.14 875.133C121.036 882.425 121.036 882.425 113.259 879.833C111.863 880.683 111.863 880.683 110.505 882.017C109.708 882.745 109.708 882.745 108.894 883.489C106.522 885.791 104.245 888.18 101.998 890.604C100.125 892.171 98.9751 892.626 96.547 892.747C95.0278 891.227 95.0278 891.227 94.6687 889.515C95.1923 886.473 97.0805 884.939 99.2532 882.919C99.8766 882.32 99.8766 882.32 100.512 881.709C101.712 880.565 102.924 879.436 104.143 878.314C104.716 877.784 105.289 877.254 105.879 876.708C109.198 873.756 109.198 873.756 110.98 873.756C111.151 873.096 111.323 872.436 111.499 871.756C112.633 868.855 114.219 866.939 116.345 864.735C116.723 864.337 117.101 863.939 117.49 863.529C118.602 862.37 119.727 861.225 120.855 860.082C121.38 859.539 121.905 858.995 122.446 858.435C133.75 847.557 150.264 840.165 164.914 835.014C162.858 832.57 160.799 830.161 158.594 827.848C151.942 820.849 146.295 813.178 140.606 805.389C139.908 804.444 139.209 803.499 138.511 802.555C129.294 789.988 121.483 776.51 114.019 762.849C113.61 762.103 113.202 761.357 112.781 760.588C107.066 750.075 102.033 739.369 97.4105 728.34C97.111 727.63 97.111 727.63 96.8054 726.905C96.2633 725.615 95.7267 724.324 95.1904 723.032C94.3715 721.001 94.3715 721.001 92.7489 719.55C92.3895 720.15 92.0301 720.751 91.6599 721.37C90.2981 723.641 88.9328 725.91 87.5653 728.178C86.9791 729.152 86.3943 730.126 85.8109 731.102C84.9621 732.52 84.1087 733.936 83.2534 735.351C82.9715 735.82 82.6896 736.29 82.3992 736.774C80.5949 739.731 78.6031 742.385 76.4108 745.075C73.0469 749.591 72.9506 753.606 73.0933 759.098C73.101 760.785 73.1033 762.471 73.0992 764.158C73.1214 765.259 73.1214 765.259 73.1441 766.383C72.9983 768.166 72.9983 768.166 71.4791 769.686C69.58 769.923 69.58 769.923 67.6809 769.686C65.7885 766.847 66.0047 765.322 66.0667 761.947C66.0804 760.98 66.0941 760.014 66.1082 759.018C66.1258 758.277 66.1435 757.536 66.1616 756.772C65.6818 757.046 65.202 757.32 64.7076 757.603C58.7554 760.69 53.8032 761.006 47.1707 760.57C45.7209 765.231 44.9716 769.865 44.3087 774.693C43.4438 780.384 43.4438 780.384 41.0936 782.6C39.1471 782.884 39.1471 782.884 37.2955 782.6C35.7762 781.08 35.7762 781.08 35.5685 778.831C35.6811 775.016 36.6612 771.379 37.5803 767.692C37.7488 766.987 37.9172 766.282 38.0907 765.555C38.8904 762.272 39.6978 759.104 41.0936 756.012C40.5923 755.871 40.0909 755.73 39.5744 755.585C35.0885 753.436 31.6474 749.643 28.1798 746.137C26.2823 754.257 24.8067 761.997 24.6636 770.35C24.3817 772.724 24.3817 772.724 23.3431 774.181C21.5859 775.346 20.3651 775.267 18.3046 775.003C16.7853 773.484 16.7853 773.484 16.6963 770.852C16.7454 769.719 16.8077 768.586 16.8803 767.454C16.9172 766.851 16.9541 766.247 16.9921 765.625C17.6024 757.388 18.8948 748.76 22.3401 741.199C24.8241 735.576 23.2289 729.926 21.1923 724.387C19.2286 718.586 18.8364 712.808 18.8624 706.728C18.861 705.96 18.8595 705.192 18.858 704.401C18.857 702.784 18.8598 701.167 18.8661 699.55C18.8742 697.118 18.8662 694.687 18.8565 692.255C18.8502 683.261 19.229 674.509 20.5835 665.616C20.6823 664.947 20.781 664.279 20.8828 663.59C21.1441 661.961 21.4428 660.348 21.7704 658.731C21.9511 657.834 21.9511 657.834 22.1354 656.919C23.5047 650.476 25.2683 644.135 27.0404 637.794C27.1857 637.271 27.331 636.748 27.4807 636.209C29.0054 630.746 30.6276 625.388 32.8222 620.152C33.8105 617.76 34.5983 615.33 35.3964 612.868C36.4644 609.602 37.561 606.354 38.7673 603.136C40.0556 599.641 41.1788 596.105 42.2806 592.548C44.2908 586.097 46.4262 579.69 48.6074 573.294C48.9756 572.213 49.3423 571.132 49.7074 570.05C51.5866 564.489 53.5475 559.158 56.2864 553.949C56.9798 552.204 57.6439 550.446 58.2804 548.679C60.2936 543.175 62.4522 537.736 64.6423 532.3C66.7801 526.984 68.9087 521.669 70.9093 516.3C71.0861 515.825 71.263 515.351 71.4451 514.862C72.3404 512.449 73.2227 510.031 74.0992 507.611C77.0661 499.479 80.4993 491.655 84.4878 483.968C86.1695 480.654 87.4395 477.189 88.743 473.713C89.3369 472.139 89.9467 470.57 90.5827 469.012C92.9455 463.177 94.831 457.221 96.6895 451.209C96.9517 450.363 97.214 449.517 97.4842 448.646C97.859 447.417 97.859 447.417 98.2414 446.164C98.4638 445.435 98.6863 444.706 98.9155 443.956C100.341 438.779 101.358 433.573 102.073 428.254C102.154 427.65 102.236 427.047 102.32 426.425C104.783 407.735 105.404 389.374 105.238 370.542C105.208 366.576 105.202 362.609 105.193 358.643C105.174 351.168 105.136 343.693 105.091 336.217C105.009 322.823 104.956 309.428 104.915 296.033C104.899 291.358 104.875 286.683 104.843 282.008C104.726 264.117 104.874 246.613 107.875 228.924C108.692 224.082 109.103 219.24 109.461 214.345C109.964 207.525 110.561 200.727 111.312 193.929C111.438 192.723 111.438 192.723 111.566 191.492C112.135 186.502 113.167 181.923 114.778 177.17C115.207 175.85 115.207 175.85 115.645 174.502C118.369 166.703 121.606 159.147 125.698 151.96C130.112 143.075 126.627 132.689 123.704 123.901C120.598 115.672 116.209 109.225 110.439 102.689C105.771 97.3907 102.259 92.667 102.422 85.3164C102.879 81.7361 104.485 79.4207 107.146 77.1533C114.335 72.0505 121.302 71.0783 129.971 70.821C130.551 70.8003 131.131 70.7797 131.729 70.7583C139.585 70.5091 147.159 70.8497 154.944 71.9605C165.768 73.4833 174.255 74.5997 183.905 68.5421C185.125 67.7884 186.344 67.0347 187.564 66.281C189.622 65.0043 191.678 63.7254 193.732 62.4422C209.512 52.6146 223.4 48.0135 241.802 45.3419C243.689 45.0309 245.505 44.6243 247.358 44.1566C251.41 43.2195 255.395 43.2795 259.536 43.3317ZM184.386 110.147C179.149 116.809 175.1 124.204 170.991 131.592C170.706 132.097 170.421 132.601 170.127 133.121C166.312 139.879 163.207 146.819 160.261 153.995C159.072 156.884 157.797 159.721 156.463 162.547C152.807 170.383 149.763 178.427 146.873 186.57C146.65 187.193 146.426 187.816 146.197 188.458C144.781 192.506 143.744 196.516 142.885 200.719C140.748 200.909 140.748 200.909 138.327 200.719C135.449 197.84 135.463 194.543 135.004 190.674C134.748 188.553 134.748 188.553 133.379 187.583C131.716 185.673 131.957 184.155 131.941 181.657C131.925 180.749 131.908 179.841 131.891 178.906C131.877 176.989 131.863 175.072 131.849 173.155C131.833 172.247 131.816 171.34 131.799 170.404C131.793 169.572 131.788 168.739 131.783 167.881C131.461 165.566 131.04 164.885 129.211 163.497C128.459 163.747 127.707 163.998 126.932 164.256C125.927 166.329 125.075 168.325 124.274 170.476C124.038 171.103 123.802 171.729 123.559 172.375C121.608 177.701 120.216 182.959 119.336 188.565C119.214 189.331 119.092 190.098 118.966 190.888C117.477 200.371 116.185 209.745 115.796 219.339C115.487 224.539 114.551 229.691 113.674 234.821C110.292 255.718 110.761 276.894 110.83 297.989C110.838 300.539 110.842 303.088 110.845 305.637C110.871 324.823 110.947 344.004 111.36 363.186C111.377 363.975 111.393 364.764 111.411 365.576C111.527 370.957 111.648 376.338 111.783 381.718C112.354 404.489 110.751 428.555 104.286 450.544C104.068 451.285 103.851 452.027 103.627 452.791C98.9099 468.172 92.431 483.158 85.6286 497.718C80.5782 508.624 76.4058 519.94 72.2387 531.208C69.8953 537.536 67.3202 543.769 64.7432 550.006C60.4763 560.376 56.6552 570.854 53.1543 581.505C52.1663 584.511 51.17 587.513 50.1737 590.516C49.8807 591.399 49.8807 591.399 49.5818 592.3C48.0295 596.972 46.4294 601.625 44.7969 606.269C35.7461 631.644 35.7461 631.644 28.797 657.639C28.6792 658.17 28.5613 658.701 28.4399 659.248C25.9504 671.276 25.6382 683.24 25.6611 695.486C25.6636 698.196 25.6456 700.905 25.6265 703.615C25.6247 705.364 25.6242 707.113 25.625 708.861C25.618 709.658 25.611 710.455 25.6038 711.277C25.6369 716.63 26.5275 721.297 28.1798 726.386C28.6812 726.386 29.1826 726.386 29.6991 726.386C30.129 725.573 30.5589 724.759 31.0018 723.921C31.5645 722.859 32.1273 721.798 32.6902 720.737C32.9737 720.2 33.2571 719.662 33.5492 719.109C35.6901 715.078 35.6901 715.078 36.5358 714.232C37.8015 714.201 39.0684 714.2 40.334 714.232C40.728 718.37 39.5898 719.989 37.2955 723.348C36.253 725.196 35.3192 727.086 34.3994 728.998C34.1531 729.476 33.9068 729.954 33.6531 730.447C31.963 733.969 31.6885 736.305 32.7377 740.06C33.9849 742.198 33.9849 742.198 35.6338 744.048C36.1557 744.679 36.6776 745.309 37.2153 745.959C38.6951 747.529 39.9965 748.835 41.8533 749.935C42.6053 749.684 43.3574 749.434 44.1322 749.176C44.9257 747.318 44.9257 747.318 45.4645 745.027C45.6902 744.183 45.9159 743.339 46.1485 742.469C46.3762 741.58 46.6038 740.691 46.8384 739.775C47.2947 738.027 47.7545 736.281 48.2182 734.535C48.4185 733.756 48.6188 732.977 48.8252 732.175C49.4496 730.185 49.4496 730.185 50.9689 727.906C52.9155 727.716 52.9155 727.716 54.7671 727.906C55.5267 728.665 55.5267 728.665 55.7166 731.182C55.5267 733.983 55.5267 733.983 54.4763 735.3C52.7762 737.682 52.2732 740.244 51.6336 743.051C51.5053 743.585 51.377 744.119 51.2449 744.67C50.5885 747.427 49.9834 750.19 49.4496 752.974C51.8262 754.162 53.6482 753.946 56.2864 753.733C60.2156 752.364 63.7309 750.315 66.1616 746.897C66.4067 744.446 66.3679 742.493 66.1616 740.06C66.0368 738.388 65.9187 736.716 65.8074 735.043C65.7276 733.87 65.6384 732.697 65.5396 731.525C65.4336 730.069 65.4115 728.606 65.402 727.146C65.9033 726.645 66.4047 726.143 66.9213 725.627C68.488 725.817 68.488 725.817 69.9598 726.386C71.0357 728.538 70.9825 730.545 71.1467 732.938C71.2104 733.841 71.274 734.744 71.3396 735.674C71.3856 736.369 71.4316 737.065 71.4791 737.781C72.2311 737.781 72.9831 737.781 73.758 737.781C75.1256 735.86 76.3247 733.973 77.5087 731.941C77.8712 731.332 78.2338 730.723 78.6073 730.095C79.7859 728.105 80.9504 726.107 82.114 724.108C82.5082 723.438 82.9025 722.768 83.3087 722.078C88.1616 713.828 92.8115 705.586 96.547 696.761C96.9047 695.917 96.9047 695.917 97.2696 695.057C100.539 687.27 103.422 679.4 106.04 671.372C107.503 666.888 109.068 662.462 110.774 658.064C111.882 655.187 112.89 652.297 113.832 649.361C114.06 648.663 114.289 647.964 114.525 647.245C114.971 645.874 115.405 644.498 115.824 643.119C116.389 641.404 116.925 639.838 117.817 638.269C119.832 637.411 119.832 637.411 121.615 637.509C122.375 638.269 122.375 638.269 122.612 640.88C122.56 644.185 121.601 646.655 120.298 649.66C119.138 652.412 118.139 655.202 117.152 658.019C116.959 658.567 116.766 659.115 116.567 659.68C115.552 662.58 114.564 665.488 113.606 668.408C113.413 668.997 113.219 669.586 113.02 670.193C112.657 671.301 112.298 672.411 111.943 673.522C110.371 678.344 108.408 682.981 106.422 687.645C104.94 691.138 103.47 694.636 102.007 698.138C101.626 699.03 101.244 699.923 100.851 700.842C100.491 701.709 100.131 702.576 99.7607 703.47C99.2718 704.63 99.2718 704.63 98.7731 705.813C97.3221 710.621 98.1079 714.254 100.013 718.79C100.218 719.281 100.422 719.771 100.633 720.277C104.421 729.246 108.709 737.99 113.126 746.663C113.751 747.891 114.374 749.12 114.994 750.35C125.48 771.101 137.469 791.004 152 809.187C152.577 809.91 153.154 810.634 153.748 811.38C162.871 822.73 162.871 822.73 174.03 831.976C175.839 832.021 175.839 832.021 177.828 831.738C178.563 831.657 179.299 831.576 180.056 831.492C181.21 831.355 181.21 831.355 182.386 831.216C183.92 831.052 185.455 830.893 186.991 830.741C187.674 830.669 188.356 830.596 189.059 830.522C190.742 830.456 190.742 830.456 192.261 831.216C192.294 832.482 192.292 833.749 192.261 835.014C190.855 836.42 188.456 836.145 186.564 836.344C161.31 839.447 135.392 853.333 118.576 872.236C118.576 872.738 118.576 873.239 118.576 873.756C124.936 873.139 130.233 870.956 136.048 868.438C136.694 868.162 137.34 867.887 138.005 867.603C147.997 863.313 158.06 858.783 166.582 851.898C168.722 850.444 170.763 850.822 173.27 850.967C172.309 856.057 168.774 858.868 165.199 862.314C164.308 863.194 164.308 863.194 163.398 864.093C160.123 867.305 156.778 870.389 153.265 873.339C151.422 875.054 150.23 876.907 148.962 879.073C149.213 879.575 149.463 880.076 149.722 880.592C157.573 877.818 165.329 874.994 172.606 870.907C173.103 870.631 173.601 870.354 174.114 870.069C176.149 868.884 177.683 867.874 179.095 865.969C180.107 864.64 180.107 864.64 181.659 864.343C183.167 864.442 184.676 864.541 186.184 864.64C185.176 868.285 183.567 870.937 181.294 873.898C178.027 878.303 175.16 882.872 172.416 887.619C172.047 888.253 171.678 888.887 171.299 889.539C169.412 892.486 169.412 892.486 168.712 895.785C185.454 892.948 199.629 881.259 211.121 869.361C214.335 866.084 217.856 863.167 221.412 860.272C223.51 858.63 223.51 858.63 224.925 856.284C226.543 855.869 226.543 855.869 228.391 855.714C229.003 855.656 229.615 855.597 230.246 855.536C230.746 855.532 231.247 855.529 231.762 855.524C232.013 855.775 232.264 856.026 232.522 856.284C239.113 857.321 245.858 857.179 252.51 857.198C253.634 857.203 254.759 857.209 255.883 857.214C259.491 857.229 263.098 857.232 266.705 857.234C267.322 857.234 267.938 857.235 268.574 857.235C286.419 857.244 304.11 856.882 321.895 855.303C330.822 854.517 339.766 853.953 348.708 853.352C353.419 853.034 358.13 852.71 362.841 852.385C363.65 852.33 364.459 852.274 365.292 852.217C369.352 851.938 373.409 851.64 377.465 851.317C380.948 851.047 384.408 850.853 387.9 850.78C388.855 850.755 389.81 850.73 390.795 850.704C392.769 850.657 394.743 850.613 396.717 850.573C398.134 850.535 398.134 850.535 399.579 850.495C400.857 850.466 400.857 850.466 402.161 850.437C404.314 850.409 404.314 850.409 405.719 848.688C407.959 848.829 409.157 849.123 410.837 850.637C411.232 851.138 411.627 851.638 412.033 852.154C416.957 858.107 422.433 862.931 428.508 867.679C429.372 868.373 430.236 869.07 431.098 869.768C436.467 874.108 441.907 878.322 447.454 882.432C451.147 885.185 454.723 888.059 458.276 890.99C467.331 898.427 477.145 904.664 487 910.978C487.25 910.476 487.501 909.975 487.759 909.459C481.655 900.179 474.765 891.82 466.964 883.916C466.603 883.548 466.242 883.179 465.87 882.8C461.837 878.582 461.837 878.582 456.614 876.794C456.614 875.04 456.614 873.285 456.614 871.477C460.498 871.174 463.149 872.165 466.537 873.898C470.115 875.652 473.663 877.27 477.409 878.646C484.449 881.271 491.247 884.551 497.922 887.993C499.774 889.058 499.774 889.058 501.433 888.948C499.792 885.339 497.259 882.725 494.596 879.833C494.197 879.392 493.797 878.952 493.385 878.498C485.817 870.521 476.277 864.887 466.49 860.082C465.73 859.323 465.73 859.323 465.635 857.424C465.73 855.524 465.73 855.524 466.49 854.765C470.645 854.942 473.475 856.286 477.116 858.21C481.293 860.242 485.684 861.755 490.051 863.326C491.098 863.711 492.14 864.112 493.177 864.524C495.873 865.588 497.735 866.159 500.673 866.159C498.763 859.156 490.86 854.467 485.48 850.207C484.837 849.676 484.194 849.146 483.531 848.599C476.583 843.077 468.835 838.965 461.079 834.701C459.034 833.573 456.997 832.431 454.964 831.281C453.774 830.611 452.583 829.94 451.392 829.27C450.865 828.971 450.338 828.672 449.795 828.365C446.607 826.585 443.372 825.049 440.024 823.594C437.637 822.526 435.363 821.308 433.066 820.059C432.22 819.602 431.373 819.144 430.502 818.673C428.508 817.543 428.508 817.543 427.748 816.783C427.717 815.517 427.716 814.251 427.748 812.985C432.272 812.475 435.065 814.186 438.858 816.356C439.99 816.991 441.123 817.623 442.258 818.252C442.754 818.534 443.251 818.817 443.762 819.108C445.309 819.865 446.54 820.395 448.258 820.581C453.208 816.44 456.978 811.073 460.891 805.975C461.824 804.768 462.776 803.576 463.73 802.386C476.421 786.404 486.398 769.281 494.264 750.505C494.567 749.785 494.567 749.784 494.877 749.05C495.457 747.666 496.025 746.279 496.593 744.891C496.923 744.088 497.252 743.284 497.592 742.457C499.062 738.066 499.599 734.872 497.7 730.582C497.374 729.828 497.049 729.073 496.713 728.295C496.359 727.509 496.005 726.722 495.641 725.912C494.926 724.268 494.213 722.624 493.501 720.98C492.988 719.81 492.988 719.81 492.465 718.616C491.435 716.227 490.507 713.826 489.611 711.384C486.742 703.766 483.215 696.397 479.798 689.013C477.852 684.8 476.069 680.537 474.367 676.221C473.357 673.66 472.328 671.11 471.255 668.574C468.428 661.882 465.95 655.152 463.724 648.236C463.027 646.07 462.258 643.948 461.436 641.827C460.443 639.111 460.073 637.325 460.412 634.471C461.932 632.951 461.932 632.951 463.926 632.856C464.521 632.888 465.116 632.919 465.73 632.951C466.132 634.904 466.502 636.839 466.77 638.816C467.313 641.641 468.231 644.224 469.27 646.895C469.472 647.423 469.674 647.951 469.881 648.495C470.535 650.2 471.194 651.902 471.854 653.604C472.306 654.776 472.757 655.949 473.209 657.122C476.182 664.82 479.27 672.46 482.554 680.032C483.29 681.777 483.978 683.537 484.667 685.301C486.162 689.062 487.91 692.661 489.706 696.286C493.368 703.796 496.44 711.495 499.406 719.299C499.737 720.165 500.068 721.031 500.409 721.924C500.699 722.693 500.989 723.463 501.287 724.256C502.186 726.372 503.28 728.222 504.471 730.185C504.987 731.367 505.475 732.561 505.934 733.766C509.444 742.764 513.489 751.558 518.002 760.095C518.276 760.614 518.55 761.132 518.832 761.667C520.472 764.714 522.21 767.627 524.222 770.445C524.473 770.445 524.723 770.445 524.981 770.445C524.981 765.933 524.981 761.421 524.981 756.772C526.235 756.772 527.488 756.772 528.78 756.772C529.73 760.52 530.395 764.046 530.593 767.911C530.632 768.653 530.672 769.396 530.713 770.16C530.785 771.685 530.843 773.21 530.885 774.736C531.125 778.731 531.503 781.247 534.349 784.184C537.32 786.816 539.782 788.13 543.782 788.012C544.693 787.991 544.693 787.991 545.622 787.97C546.08 787.953 546.539 787.935 547.011 787.917C548.452 783.959 546.808 781.096 545.207 777.472C544.956 776.88 544.705 776.287 544.447 775.677C543.387 772.86 543.387 772.86 541.693 770.445C541.662 768.926 541.661 767.406 541.693 765.888C542.947 765.637 544.2 765.386 545.492 765.128C546.331 766.916 547.17 768.704 548.008 770.493C548.242 770.992 548.477 771.491 548.719 772.005C550.241 775.257 551.69 778.532 553.088 781.84C553.589 781.84 554.091 781.84 554.607 781.84C555.398 779.803 556.17 777.762 556.934 775.715C557.269 774.858 557.269 774.858 557.612 773.984C558.991 770.235 559.53 767.574 558.405 763.609C557 761.065 557 761.065 555.177 758.671C554.869 758.242 554.561 757.813 554.244 757.371C552.949 755.574 551.623 753.803 550.272 752.048C548.734 750.027 547.806 748.748 547.533 746.184C547.651 745.409 547.651 745.409 547.771 744.618C549.024 744.367 550.277 744.116 551.569 743.858C551.972 744.426 552.376 744.994 552.791 745.579C553.596 746.701 553.596 746.701 554.417 747.846C554.946 748.586 555.475 749.327 556.02 750.089C557.47 751.984 558.983 753.589 560.684 755.253C563.268 741.152 564.214 727.446 564.119 713.143C564.102 710.486 564.112 707.831 564.129 705.175C564.226 687.875 562.412 671.434 557.741 654.743C557.201 652.751 556.67 650.757 556.141 648.761C556.01 648.268 555.879 647.774 555.744 647.266C554.381 642.073 553.273 636.831 552.186 631.574C550.636 624.129 548.911 616.803 546.736 609.515C546.227 607.803 545.734 606.087 545.242 604.37C540.386 587.599 534.501 571.357 527.26 555.468C526.942 554.767 526.623 554.065 526.294 553.342C525.65 551.926 525.006 550.509 524.361 549.092C523.327 546.815 522.302 544.535 521.278 542.253C518.433 535.913 515.57 529.582 512.695 523.255C511.725 521.122 510.759 518.988 509.794 516.853C507.299 511.339 504.764 505.85 502.142 500.395C490.714 476.485 482.594 451.656 477.884 425.571C477.7 424.6 477.517 423.629 477.327 422.629C472.481 396.393 472.67 369.557 472.418 342.96C472.407 341.801 472.396 340.641 472.385 339.482C472.379 338.905 472.373 338.329 472.368 337.735C472.345 335.394 472.322 333.053 472.299 330.712C472.287 329.541 472.276 328.371 472.265 327.201C472.075 307.186 471.096 287.367 469.287 267.423C468.817 262.228 468.468 257.034 468.196 251.825C468.055 249.378 468.055 249.378 467.618 247.163C467.134 244.033 467.116 240.964 467.089 237.801C467.069 236.417 467.049 235.032 467.028 233.647C467.018 232.929 467.008 232.21 466.997 231.47C466.819 219.563 466.362 207.986 464.441 196.218C464.126 194.066 464.021 191.922 463.926 189.751C463.202 178.896 460.864 167.139 455.855 157.419C455.353 157.419 454.852 157.419 454.335 157.419C454.335 160.678 454.335 163.937 454.335 167.295C453.471 167.653 452.606 168.012 451.715 168.381C449.945 169.393 449.165 169.876 448.532 171.841C448.378 173.665 448.356 175.435 448.401 177.265C448.402 179.521 448.353 181.751 448.258 184.007C446.739 185.526 446.739 185.526 444.982 185.621C440.456 183.726 438.407 177.34 436.302 173.14C432.413 165.402 428.027 158.379 422.862 151.441C421.614 149.745 420.401 148.029 419.193 146.304C414.347 139.409 409.324 133.073 403.44 127.034C402.899 126.438 402.359 125.841 401.802 125.227C392.892 115.669 380.482 108.283 367.215 107.711C352.538 107.844 339.968 116.447 329.755 126.274C327.525 128.683 325.565 131.187 323.678 133.871C323.237 134.482 322.797 135.093 322.343 135.722C315.937 145.144 311.685 156.069 308.93 167.084C308.616 168.307 308.264 169.52 307.886 170.725C305.607 178.793 305.863 186.956 305.909 195.277C305.921 197.854 305.909 200.43 305.895 203.007C305.88 216.559 307.707 228.501 311.429 241.549C311.677 242.473 311.924 243.398 312.18 244.35C313.521 249.089 314.452 252.337 318.361 255.412C321.488 259.142 322.824 262.462 322.509 267.371C321.908 270.313 320.844 271.212 318.361 272.884C313.359 275.403 308.747 277.021 303.168 277.442C301.71 278.9 301.825 281.569 301.506 283.519C300.325 290.003 297.692 295.172 292.533 299.471C290.002 301.159 287.946 301.352 284.937 300.991C281.294 299.096 279.28 296.997 277.34 293.394C276.012 289.129 275.452 284.921 275.061 280.48C273.96 280.369 273.96 280.369 272.836 280.255C258.441 278.602 258.441 278.602 253.317 273.549C251.213 270.764 250.937 268.286 251.171 264.854C251.737 261.793 252.612 260.177 254.551 257.691C255.444 257.268 256.337 256.845 257.257 256.409C259.169 255.431 259.764 254.892 260.637 252.896C261.264 250.455 261.723 248.022 262.148 245.537C262.34 244.56 262.533 243.583 262.732 242.576C265.212 229.8 266.183 217.073 266.121 204.075C266.12 202.773 266.12 201.471 266.12 200.169C266.119 197.465 266.112 194.76 266.102 192.055C266.089 188.641 266.086 185.227 266.087 181.813C266.086 168.096 266.056 154.402 265.186 140.707C265.135 139.82 265.083 138.932 265.031 138.018C263.976 121.115 261.539 102.637 248.643 90.3371C245.819 88.1877 242.719 87.0702 239.359 86.0137C238.606 85.7631 237.854 85.5124 237.08 85.2541C216.65 82.9378 197.041 95.3407 184.386 110.147Z" fill="#240F0E"/>
<path d="M387.809 137.473C388.392 137.789 388.975 138.106 389.576 138.433C390.309 138.817 391.041 139.201 391.796 139.597C400.439 144.505 405.509 151.628 410.937 158.66C411.279 159.096 411.621 159.532 411.973 159.982C415.519 164.52 418.452 169.151 420.855 174.128C421.175 174.782 421.496 175.436 421.826 176.11C432.301 198.165 432.763 220.199 426.336 243.034C426.014 244.183 425.705 245.333 425.396 246.484C423.072 254.319 417.499 260.375 408.792 264.704C405.081 266.361 401.344 267.338 397.205 268.125C396.735 268.235 396.265 268.346 395.781 268.46C389.888 269.402 383.018 269.123 377.37 267.53C376.498 267.297 375.625 267.064 374.727 266.824C368.323 265.028 363.332 262.854 358.297 259.201C357.832 258.892 357.367 258.583 356.888 258.265C342.647 248.222 335.927 230.984 331.596 216.962C331.291 216.02 330.985 215.078 330.678 214.136C330.027 212.104 329.427 210.066 328.866 208.018C328.651 207.235 328.428 206.453 328.199 205.672C322.527 186.193 326.003 162.472 338.501 144.988C344.261 138.031 351.626 135.393 361.602 133.534C370.564 132.075 380.013 133.678 387.809 137.473ZM347.31 144.342C333.132 158.642 330.895 180.55 333.122 197.924C334.455 205.16 336.883 212.274 339.225 219.342C339.495 220.188 339.764 221.034 340.033 221.881C342.344 229.025 346.244 235.483 350.669 241.949C350.928 242.33 351.187 242.711 351.454 243.104C358.09 252.779 366.023 258.981 379.468 262.659C387.776 264.442 396.381 263.817 403.955 260.682C412.647 256.622 416.745 251.882 419.329 244.328C419.875 242.549 420.371 240.764 420.855 238.974C420.997 238.458 421.139 237.942 421.285 237.411C426.276 218.743 424.773 199.376 417.04 181.267C416.873 180.868 416.706 180.47 416.534 180.059C410.766 166.525 399.959 148.84 383.568 141.633C381.528 140.869 379.499 140.219 377.37 139.622C376.473 139.365 375.576 139.107 374.652 138.842C365.57 137.425 354.031 139.009 347.31 144.342Z" fill="#281212"/>
<path d="M225.38 137.825C226.006 138.225 226.632 138.625 227.278 139.037C227.667 139.274 228.056 139.512 228.456 139.756C242.099 148.092 249.49 158.065 251.961 171.573C252.587 175.856 252.563 180.162 252.555 184.467C252.555 184.872 252.554 185.278 252.554 185.695C252.524 192.585 252.524 192.585 251.605 194.031C251.363 195.163 251.149 196.299 250.949 197.436C248.069 212.632 243.719 229.054 234.129 242.561C233.354 243.653 232.607 244.754 231.863 245.859C227.022 252.919 221.614 258.567 212.833 262.774C211.969 263.236 211.969 263.236 211.087 263.708C203.925 266.702 195.59 265.986 187.746 265.762C186.521 265.732 186.521 265.732 185.272 265.702C177.217 265.041 170.201 260.156 165.034 255.526C154.26 244.304 153.131 232.635 152.83 218.971C152.777 216.803 152.69 214.636 152.6 212.468C152.197 199.799 154.639 187.957 160.378 176.098C160.668 175.422 160.958 174.745 161.257 174.048C168.058 159.147 181.253 144.612 199.506 137.335C207.321 134.537 218.141 133.746 225.38 137.825ZM182.424 154.579C180.235 157.1 178.283 159.707 176.343 162.35C175.567 163.309 174.79 164.268 174.014 165.227C166.607 175.06 162.15 186.316 160.378 197.618C160.249 198.051 160.121 198.485 159.989 198.931C159.53 201.001 159.519 202.974 159.517 205.076C159.516 205.505 159.514 205.935 159.513 206.378C159.512 207.767 159.516 209.155 159.523 210.544C159.524 211.016 159.525 211.489 159.527 211.975C159.273 234.971 159.273 234.971 173.287 254.503C181.115 260.099 188.16 260.577 198.555 260.471C205.991 260.159 211.958 257.756 217.062 253.508C227.769 243.56 234.302 231.183 238.11 218.624C238.751 216.517 239.418 214.416 240.086 212.314C243.146 202.588 245.816 193.487 245.761 183.421C245.759 183.027 245.758 182.634 245.757 182.228C245.726 176.181 245.296 170.578 243.242 164.741C243.04 164.104 242.837 163.466 242.628 162.81C240.066 155.747 234.122 150.441 227.278 145.613C226.341 144.921 226.341 144.921 225.386 144.216C220.521 140.986 216.675 140.182 210.327 140.485C199.231 141.847 189.483 147.908 182.424 154.579Z" fill="#291413"/>
<path d="M196.059 168.814C200.044 171.036 201.737 173.868 203.13 178.176C206.266 194.848 202.321 213.197 193.02 227.306C190.091 230.763 187.933 233.15 183.335 233.763C181.315 233.741 180.389 233.6 178.774 232.356C173.331 226.163 171.397 219.154 171.561 211.048C172.495 197.597 175.22 182.542 184.792 172.384C188.537 169.167 191.15 167.848 196.059 168.814Z" fill="#240E0D"/>
<path d="M392.045 165.016C399.439 170.04 402.87 175.703 404.549 184.304C406.218 196.321 407.379 213.545 399.873 223.894C397.934 226.112 396.48 227.153 393.511 227.478C390.787 227.432 388.929 227.061 386.731 225.401C383.247 221.7 381.363 217.688 379.891 212.873C379.608 211.986 379.325 211.099 379.033 210.185C375.797 199.056 374.332 184.473 378.927 173.562C380.89 170.082 382.881 167.415 386.395 165.443C388.454 164.968 389.936 164.787 392.045 165.016Z" fill="#230D0D"/>
<path d="M433.065 402.781C435.779 404.995 436.753 406.471 437.196 409.95C437.057 417.61 430.524 424.903 425.469 430.128C422.562 432.624 419.535 434.834 416.353 436.965C415.757 437.383 415.161 437.801 414.546 438.232C410.831 440.605 407.505 441.45 403.083 441.226C400.281 440.551 398.96 439.349 397.336 437.009C395.836 433.81 396.053 431.147 397.057 427.9C398.82 423.823 401.722 420.767 404.733 417.559C406.282 415.905 407.735 414.208 409.184 412.467C415.534 405.208 423.221 401.147 433.065 402.781Z" fill="#230D0C"/>
<path d="M373.055 10.8096C375.559 11.06 376.566 11.2826 378.372 13.0885C381.082 22.4927 380.731 32.4883 380.793 42.192C380.803 43.1124 380.813 44.0327 380.824 44.9809C380.824 45.8437 380.825 46.7066 380.826 47.5955C380.829 48.3743 380.832 49.1531 380.836 49.9555C380.651 51.8299 380.651 51.8299 379.132 53.3492C376.758 53.4441 376.758 53.4441 374.574 53.3492C373.985 51.863 373.4 50.375 372.817 48.8863C372.491 48.0579 372.165 47.2295 371.829 46.3759C371.007 44.2121 370.363 42.033 369.743 39.8033C368.544 35.7349 366.763 32.1422 364.746 28.4236C364.42 27.8013 364.093 27.179 363.757 26.5379C362.355 23.9119 361 21.5687 359.132 19.2397C357.862 17.6463 357.862 17.6463 358.004 15.5573C358.622 13.8481 358.622 13.8481 359.381 13.0885C361.165 12.8392 361.165 12.8392 363.179 13.0885C367.725 17.5256 370.393 24.1255 373.055 29.8005C372.947 28.2018 372.836 26.6035 372.722 25.0053C372.661 24.1152 372.599 23.225 372.535 22.308C372.381 19.9055 372.381 19.9055 371.535 17.6463C371.393 14.9401 371.393 14.9401 371.535 12.3288C372.037 11.8275 372.538 11.3261 373.055 10.8096Z" fill="#26100F"/>
<path d="M224.783 0.0326406C225.493 0.0218692 226.203 0.0110978 226.934 0C228.724 0.175072 228.724 0.175072 230.243 1.69434C230.433 3.59343 230.433 3.59343 230.243 5.49252C228.303 7.43206 226.913 7.24616 224.269 7.41423C210.762 8.28429 195.393 12.9394 184.463 21.2312C182.697 22.5361 181.49 22.4361 179.347 22.2045C178.588 21.4449 178.588 21.4449 178.365 19.2757C178.588 16.8871 178.588 16.8871 179.689 15.5191C192.269 7.02276 209.477 0.139675 224.783 0.0326406Z" fill="#291413"/>
<path d="M309.624 337.358C310.545 337.354 311.465 337.351 312.414 337.347C313.7 337.35 313.7 337.35 315.013 337.352C316.173 337.353 316.173 337.353 317.356 337.355C319.12 337.453 319.12 337.453 319.879 338.213C320.022 340.064 320.022 340.064 319.879 342.011C317.845 344.045 316.641 343.823 313.794 344.011C312.396 344.107 312.396 344.107 310.97 344.204C309.977 344.264 308.985 344.323 307.963 344.385C306.963 344.448 305.964 344.511 304.934 344.577C289.316 345.523 289.316 345.523 284.936 345.049C284.435 344.548 283.934 344.047 283.417 343.53C283.667 341.025 283.89 340.018 285.696 338.213C293.559 337.114 301.704 337.38 309.624 337.358Z" fill="#2B1616"/>
<path d="M238.696 224L158.696 214.5L156.696 230.5L163.696 246L175.696 260L202.696 263.5L223.696 254L238.696 224Z" fill="#240F0E" stroke="#240F0E"/>
<path d="M249.696 187L164.696 175L166.696 166.604L175.196 156L186.196 146.5L218.196 138L238.696 150.183L249.696 187Z" fill="#240F0E" stroke="#240F0E"/>
<path d="M331.196 196.5L420.196 184.5L413.696 166.583L406.696 155.238L394.696 144.99L377.696 137L362.196 137.905L347.696 141.071L339.196 150.119L331.196 173.5V196.5Z" fill="#240F0E" stroke="#240F0E"/>
<path d="M340.696 224L425.196 213V230.5L420.696 248.5L403.696 264L376.696 263.5L355.696 254L340.696 224Z" fill="#240F0E" stroke="#240F0E"/>
<path d="M451.297 274.404C452.049 274.78 452.049 274.78 452.816 275.163C452.536 279.548 451.3 282.006 448.401 285.181C448.028 285.603 447.654 286.026 447.27 286.461C446.096 287.774 444.903 289.068 443.701 290.356C443.332 290.753 442.964 291.151 442.585 291.56C428.144 306.987 410.192 317.888 388.594 319.412C384.251 319.495 384.251 319.495 382.17 319.222C381.669 318.721 381.167 318.219 380.651 317.703C381.073 314.242 381.073 314.242 382.17 313.145C383.308 313.04 384.448 312.968 385.589 312.908C408.861 310.866 425.784 298.883 441.137 282C441.711 281.373 442.284 280.746 442.876 280.101C444.508 278.244 444.508 278.244 445.712 276.113C447.357 273.376 448.452 273.514 451.297 274.404Z" fill="#291413"/>
<path d="M133.769 276.682C135.633 276.756 135.633 276.756 137.567 277.442C138.695 278.911 138.695 278.911 139.656 280.813C142.195 285.36 145.364 288.894 148.962 292.634C149.596 293.317 150.231 294 150.885 294.703C163.202 307.581 180.085 317.556 198.255 318.254C199.857 318.462 199.857 318.462 201.377 319.981C201.614 321.88 201.614 321.88 201.377 323.78C197.494 326.368 193.149 325.553 188.697 324.702C184.672 323.863 180.961 322.537 177.163 320.978C176.501 320.709 175.84 320.439 175.158 320.161C158.797 313.344 139.619 298.774 132.25 282C132.06 280.006 132.06 280.006 132.25 278.201C132.751 277.7 133.253 277.199 133.769 276.682Z" fill="#291312"/>
<path d="M143.834 319.554C147.276 320.07 148.186 320.889 150.211 323.599C153.983 329.828 155.264 336.299 154.279 343.53C153.167 346.427 151.552 347.88 148.962 349.607C146.091 349.982 144.812 349.873 142.362 348.278C136.545 342.618 136.634 336.582 136.458 328.783C137.021 324.399 139.302 320.339 143.834 319.554Z" fill="#250F0E"/>
<defs>
<filter id="filter0_f_1219_69296" x="0" y="18.3037" width="585.393" height="433.763" filterUnits="userSpaceOnUse" color-interpolation-filters="sRGB">
<feFlood flood-opacity="0" result="BackgroundImageFix"/>
<feBlend mode="normal" in="SourceGraphic" in2="BackgroundImageFix" result="shape"/>
<feGaussianBlur stdDeviation="65.8481" result="effect1_foregroundBlur_1219_69296"/>
</filter>
</defs>
</svg>
